<?xml version="1.0" encoding="utf-8"?>
<!-- Generator: Adobe Illustrator 16.0.3, SVG Export Plug-In . SVG Version: 6.00 Build 0)  -->
<!DOCTYPE svg PUBLIC "-//W3C//DTD SVG 1.1//EN" "http://www.w3.org/Graphics/SVG/1.1/DTD/svg11.dtd">
<svg version="1.1" id="Layer_2" xmlns="http://www.w3.org/2000/svg" xmlns:xlink="http://www.w3.org/1999/xlink" x="0px" y="0px"
	 width="543px" height="543px" viewBox="0 0 543 543" enable-background="new 0 0 543 543" xml:space="preserve">
<path fill="#C70039" d="M372.33,244.326c0,0-19.108-47.852-52.71-24.736c-26.867,18.484-16.405,41.254-16.405,41.254
	s73.183,209.204,96.618,205.949C409.604,465.436,384.367,288.003,372.33,244.326z"/>
<path fill="#7C0C3F" d="M370.124,316.326c0,0-11.54-30.059-36.652-58.822c-43.489-49.814-28.362,3.13-28.362,3.13
	s73.185,209.206,96.621,205.949C411.499,465.227,382.161,360.004,370.124,316.326z"/>
<path fill="#C70039" d="M342.389,100.994c0,41.024-26.178,74.281-67.103,74.281s-81.101-33.257-81.101-74.281
	s33.176-74.281,74.101-74.281S342.389,59.97,342.389,100.994z"/>
<path fill="#C70039" d="M356.521,202.795c0,0,0.449,127.897-27.332,190.103c0,0-26.445,98.851-57.689,98.103
	c0,0-48.535-1.081-66.218-67.446c-18.222-68.387-17.007-43.626-21.866-166.838l-1.603-53.92l49.007,12.866l29.346,1.01h48.371
	L356.521,202.795z"/>
<path fill="#C70039" d="M150.98,251.634c0,0,23.449-50.701,56.147-25.713c26.145,19.981,8.051,44.863,8.051,44.863
	s-85.362,206.901-108.867,202.427C96.512,471.346,136.438,294.997,150.98,251.634z"/>
<path fill="#7C0C3F" d="M153.878,326.707c0,0,7.35-30.845,34.296-58.524c46.667-47.936,31.88-5.531,31.88-5.531
	s-88.747,217.03-112.253,212.558C98.003,473.342,139.335,370.071,153.878,326.707z"/>
<path fill="#511845" d="M258.842,489.334c-22.364,1.289,10.325-2-5-2c-20.088,0-24.472-15.528-32.802-26.323
	c-8.331-10.795-29.852-89.893-31.497-98.948c-1.644-9.055-7.729-159.268-7.729-159.268l25.898,12.697c0,0-2.43,50.067,3.644,94.871
	c6.074,44.804,6.074,68.386,13.363,101.4S258.842,489.334,258.842,489.334z"/>
<path fill="#511845" d="M343.389,109.084c0,0-2.898,16.734-7.338,28.265c-4.438,11.531-10.076,15.503-28.05,30.967
	c-17.974,15.464-58.596,5.725-58.596,5.725s29.709-7.292,41.25-16.371c11.542-9.079,32.282-26.672,32.282-26.672L343.389,109.084z"
	/>
<path fill="#7C0C3F" d="M343.389,107.084l-18.551,41.336l-28.182,22.25c0,0-31,6.201-38.25,4.371s-18.464-1.728-31.577-11.363
	l-12.586-15.275c0,0,21.634,16.72,46.066,15.384c22.498-1.231,37.851-8.546,59.403-31.016
	C343.389,108.084,343.389,107.084,343.389,107.084z"/>
<path fill="#7C0C3F" d="M227.795-52"/>
<ellipse fill="#FF3951" cx="272.902" cy="79.661" rx="18.828" ry="17.096"/>
<ellipse fill="#FF3951" cx="272.902" cy="115.438" rx="12.504" ry="12.246"/>
<path fill="#FF3951" d="M282.316,142.769c0,4.117-4.215,10.454-9.414,10.454s-9.414-6.337-9.414-10.454
	c0-4.116,4.215-7.453,9.414-7.453S282.316,138.653,282.316,142.769z"/>
<ellipse fill="#FF7651" cx="272.902" cy="71.039" rx="3.742" ry="4.311"/>
<ellipse fill="#FF7651" cx="273.604" cy="110.293" rx="5.04" ry="4.421"/>
<ellipse fill="#FF7651" cx="273.16" cy="140.231" rx="3.312" ry="3.188"/>
<path fill="#7C0C3F" d="M258.167,487.334c0,0-25.514-33.116-30.373-69.667c-4.859-36.552-2.338-102.981-3.553-120.667
	s-0.625-76.429-0.625-76.429l-32.55-13.079c0,0,4.767,121.393,6.681,143.921c1.822,21.44,7.011,30.873,14.742,70.961
	C220.222,462.463,258.167,487.334,258.167,487.334z"/>
<path fill="#511845" d="M277.684,489.334c22.364,1.289-8.325-2,7-2c20.088,0,24.472-15.528,32.802-26.323
	c8.331-10.795,29.852-89.893,31.496-98.948c1.645-9.055,7.73-159.268,7.73-159.268l-25.898,12.697c0,0,2.43,50.067-3.645,94.871
	s-6.074,68.386-13.362,101.4S277.684,489.334,277.684,489.334z"/>
<path fill="#7C0C3F" d="M277.684,488.334c0,0,27.188-35.116,32.047-71.667c4.859-36.552,2.338-102.981,3.553-120.667
	s0.625-76.429,0.625-76.429l32.55-13.079c0,0-4.767,121.393-6.682,143.921c-1.822,21.44-7.011,30.873-14.742,70.961
	C317.305,461.463,277.684,488.334,277.684,488.334z"/>
<path fill="#38183B" d="M356.521,202.795c0,7.663-53.082,20.95-96.355,20.95s-78.353-13.287-78.353-20.95
	c0-7.664,35.079-13.876,78.353-13.876S356.521,195.131,356.521,202.795z"/>
</svg>
