<?xml version="1.0" encoding="utf-8"?>
<!-- Generator: Adobe Illustrator 16.0.3, SVG Export Plug-In . SVG Version: 6.00 Build 0)  -->
<!DOCTYPE svg PUBLIC "-//W3C//DTD SVG 1.1//EN" "http://www.w3.org/Graphics/SVG/1.1/DTD/svg11.dtd">
<svg version="1.1" id="Layer_2" xmlns="http://www.w3.org/2000/svg" xmlns:xlink="http://www.w3.org/1999/xlink" x="0px" y="0px"
	 width="543px" height="543px" viewBox="0 0 543 543" enable-background="new 0 0 543 543" xml:space="preserve">
<path fill="#C70039" d="M391.941,256.304c0,0-12.133-50.078-48.672-31.959c-29.216,14.489-22.087,38.512-22.087,38.512
	s42.784,217.466,66.443,217.566C397.491,480.463,397.664,301.247,391.941,256.304z"/>
<path fill="#7C0C3F" d="M379.55,327.264c0,0-7.162-31.392-27.943-63.425c-35.988-55.476-28.52-0.923-28.52-0.923
	s42.785,217.468,66.448,217.567C399.396,480.525,385.272,372.207,379.55,327.264z"/>
<path fill="#C70039" d="M342.389,108.994c0,41.024-26.178,74.281-67.103,74.281s-81.101-33.257-81.101-74.281
	s33.176-74.281,74.101-74.281S342.389,67.97,342.389,108.994z"/>
<path fill="#C70039" d="M356.521,210.795c0,0,0.449,127.897-27.332,190.103c0,0-26.445,98.851-57.689,98.103
	c0,0-48.535-1.081-66.218-67.446c-18.222-68.387-17.007-43.626-21.866-166.838l-1.603-53.92l49.007,12.866l29.346,1.01h48.371
	L356.521,210.795z"/>
<path fill="#C70039" d="M133.791,263.598c0,0,14.062-54.063,50.682-35.286c29.28,15.015,15.899,42.717,15.899,42.717
	s-47.218,218.78-71.145,218.557C119.251,489.493,127.189,308.855,133.791,263.598z"/>
<path fill="#7C0C3F" d="M149.989,336.96c0,0,1.749-31.661,23.346-63.69c37.401-55.468,30.389-11.11,30.389-11.11
	s-48.75,229.351-72.676,229.129C121.073,491.192,143.387,382.218,149.989,336.96z"/>
<path fill="#511845" d="M258.842,497.334c-22.364,1.289,10.325-2-5-2c-20.088,0-24.472-15.528-32.802-26.323
	c-8.331-10.795-29.852-89.893-31.497-98.948c-1.644-9.055-7.729-159.268-7.729-159.268l25.898,12.697c0,0-2.43,50.067,3.644,94.871
	c6.074,44.804,6.074,68.386,13.363,101.4S258.842,497.334,258.842,497.334z"/>
<path fill="#511845" d="M343.389,117.084c0,0-2.898,16.734-7.338,28.265c-4.438,11.531-10.076,15.503-28.05,30.967
	c-17.974,15.464-58.596,5.725-58.596,5.725s29.709-7.292,41.25-16.371c11.542-9.079,32.282-26.672,32.282-26.672L343.389,117.084z"
	/>
<path fill="#7C0C3F" d="M343.389,115.084l-18.551,41.336l-28.182,22.25c0,0-31,6.201-38.25,4.371s-18.464-1.728-31.577-11.363
	l-12.586-15.275c0,0,21.634,16.72,46.066,15.384c22.498-1.231,37.851-8.546,59.403-31.016
	C343.389,116.084,343.389,115.084,343.389,115.084z"/>
<path fill="#7C0C3F" d="M227.795-52"/>
<ellipse fill="#FF3951" cx="272.902" cy="87.661" rx="18.828" ry="17.096"/>
<ellipse fill="#FF3951" cx="272.902" cy="123.438" rx="12.504" ry="12.246"/>
<path fill="#FF3951" d="M282.316,150.769c0,4.117-4.215,10.454-9.414,10.454s-9.414-6.337-9.414-10.454
	c0-4.116,4.215-7.453,9.414-7.453S282.316,146.653,282.316,150.769z"/>
<ellipse fill="#FF7651" cx="272.902" cy="79.039" rx="3.742" ry="4.311"/>
<ellipse fill="#FF7651" cx="273.604" cy="118.293" rx="5.04" ry="4.421"/>
<ellipse fill="#FF7651" cx="273.16" cy="148.231" rx="3.312" ry="3.188"/>
<path fill="#7C0C3F" d="M258.167,495.334c0,0-25.514-33.116-30.373-69.667c-4.859-36.552-2.338-102.981-3.553-120.667
	s-0.625-76.429-0.625-76.429l-32.55-13.079c0,0,4.767,121.393,6.681,143.921c1.822,21.44,7.011,30.873,14.742,70.961
	C220.222,470.463,258.167,495.334,258.167,495.334z"/>
<path fill="#511845" d="M277.684,497.334c22.364,1.289-8.325-2,7-2c20.088,0,24.472-15.528,32.802-26.323
	c8.331-10.795,29.852-89.893,31.496-98.948c1.645-9.055,7.73-159.268,7.73-159.268l-25.898,12.697c0,0,2.43,50.067-3.645,94.871
	s-6.074,68.386-13.362,101.4S277.684,497.334,277.684,497.334z"/>
<path fill="#7C0C3F" d="M277.684,496.334c0,0,27.188-35.116,32.047-71.667c4.859-36.552,2.338-102.981,3.553-120.667
	s0.625-76.429,0.625-76.429l32.55-13.079c0,0-4.767,121.393-6.682,143.921c-1.822,21.44-7.011,30.873-14.742,70.961
	C317.305,469.463,277.684,496.334,277.684,496.334z"/>
<path fill="#38183B" d="M356.521,210.795c0,7.663-53.082,20.95-96.355,20.95s-78.353-13.287-78.353-20.95
	c0-7.664,35.079-13.876,78.353-13.876S356.521,203.131,356.521,210.795z"/>
</svg>
