<?xml version="1.0" encoding="utf-8"?>
<!-- Generator: Adobe Illustrator 16.0.3, SVG Export Plug-In . SVG Version: 6.00 Build 0)  -->
<!DOCTYPE svg PUBLIC "-//W3C//DTD SVG 1.1//EN" "http://www.w3.org/Graphics/SVG/1.1/DTD/svg11.dtd">
<svg version="1.1" id="Layer_2" xmlns="http://www.w3.org/2000/svg" xmlns:xlink="http://www.w3.org/1999/xlink" x="0px" y="0px"
	 width="543px" height="543px" viewBox="0 0 543 543" enable-background="new 0 0 543 543" xml:space="preserve">
<path fill="#C70039" d="M393.971,266.69c0,0-7.715-50.945-45.695-36.084c-30.369,11.883-25.365,36.436-25.365,36.436
	s23.643,220.371,47.203,222.535C379.936,490.48,395.75,311.962,393.971,266.69z"/>
<path fill="#7C0C3F" d="M375.434,336.298c0,0-4.395-31.896-22.301-65.621c-31.008-58.406-28.33-3.408-28.33-3.408
	s23.643,220.372,47.205,222.536C381.83,490.708,377.213,381.57,375.434,336.298z"/>
<path fill="#C70039" d="M342.389,112.994c0,41.024-26.178,74.281-67.103,74.281s-81.101-33.257-81.101-74.281
	s33.176-74.281,74.101-74.281S342.389,71.97,342.389,112.994z"/>
<path fill="#C70039" d="M356.521,214.795c0,0,0.449,127.897-27.332,190.103c0,0-26.445,98.851-57.689,98.103
	c0,0-48.535-1.081-66.218-67.446c-18.222-68.387-17.007-43.626-21.866-166.838l-1.603-53.92l49.007,12.866l29.346,1.01h48.371
	L356.521,214.795z"/>
<path fill="#C70039" d="M130.996,268.558c0,0,12.438-54.458,49.604-36.785c29.717,14.132,17.169,42.223,17.169,42.223
	s-40.655,220.094-64.577,220.587C123.218,494.788,125.75,313.993,130.996,268.558z"/>
<path fill="#7C0C3F" d="M149.381,341.403c0,0,0.801-31.699,21.43-64.359c35.726-56.563,30.043-12.015,30.043-12.015
	s-41.869,230.707-65.791,231.2C125.09,496.432,144.135,386.839,149.381,341.403z"/>
<path fill="#511845" d="M258.842,501.334c-22.364,1.289,10.325-2-5-2c-20.088,0-24.472-15.528-32.802-26.323
	c-8.331-10.795-29.852-89.893-31.497-98.948c-1.644-9.055-7.729-159.268-7.729-159.268l25.898,12.697c0,0-2.43,50.067,3.644,94.871
	c6.074,44.804,6.074,68.386,13.363,101.4S258.842,501.334,258.842,501.334z"/>
<path fill="#511845" d="M343.389,121.084c0,0-2.898,16.734-7.338,28.265c-4.438,11.531-10.076,15.503-28.05,30.967
	c-17.974,15.464-58.596,5.725-58.596,5.725s29.709-7.292,41.25-16.371c11.542-9.079,32.282-26.672,32.282-26.672L343.389,121.084z"
	/>
<path fill="#7C0C3F" d="M343.389,119.084l-18.551,41.336l-28.182,22.25c0,0-31,6.201-38.25,4.371s-18.464-1.728-31.577-11.363
	l-12.586-15.275c0,0,21.634,16.72,46.066,15.384c22.498-1.231,37.851-8.546,59.403-31.016
	C343.389,120.084,343.389,119.084,343.389,119.084z"/>
<path fill="#7C0C3F" d="M227.795-52"/>
<ellipse fill="#FF3951" cx="272.902" cy="91.661" rx="18.828" ry="17.096"/>
<ellipse fill="#FF3951" cx="272.902" cy="127.438" rx="12.504" ry="12.246"/>
<path fill="#FF3951" d="M282.316,154.769c0,4.117-4.215,10.454-9.414,10.454s-9.414-6.337-9.414-10.454
	c0-4.116,4.215-7.453,9.414-7.453S282.316,150.653,282.316,154.769z"/>
<ellipse fill="#FF7651" cx="272.902" cy="83.039" rx="3.742" ry="4.311"/>
<ellipse fill="#FF7651" cx="273.604" cy="122.293" rx="5.04" ry="4.421"/>
<ellipse fill="#FF7651" cx="273.16" cy="152.231" rx="3.312" ry="3.188"/>
<path fill="#7C0C3F" d="M258.167,499.334c0,0-25.514-33.116-30.373-69.667c-4.859-36.552-2.338-102.981-3.553-120.667
	s-0.625-76.429-0.625-76.429l-32.55-13.079c0,0,4.767,121.393,6.681,143.921c1.822,21.44,7.011,30.873,14.742,70.961
	C220.222,474.463,258.167,499.334,258.167,499.334z"/>
<path fill="#511845" d="M277.684,501.334c22.364,1.289-8.325-2,7-2c20.088,0,24.472-15.528,32.802-26.323
	c8.331-10.795,29.852-89.893,31.496-98.948c1.645-9.055,7.73-159.268,7.73-159.268l-25.898,12.697c0,0,2.43,50.067-3.645,94.871
	s-6.074,68.386-13.362,101.4S277.684,501.334,277.684,501.334z"/>
<path fill="#7C0C3F" d="M277.684,501.334c0,0,27.188-35.116,32.047-71.667c4.859-36.552,2.338-102.981,3.553-120.667
	s0.625-76.429,0.625-76.429l32.55-13.079c0,0-4.767,121.393-6.682,143.921c-1.822,21.44-7.011,30.873-14.742,70.961
	C317.305,474.463,277.684,501.334,277.684,501.334z"/>
<path fill="#38183B" d="M356.521,214.795c0,7.663-53.082,20.95-96.355,20.95s-78.353-13.287-78.353-20.95
	c0-7.664,35.079-13.876,78.353-13.876S356.521,207.131,356.521,214.795z"/>
</svg>
