<?xml version="1.0" encoding="utf-8"?>
<!-- Generator: Adobe Illustrator 16.0.3, SVG Export Plug-In . SVG Version: 6.00 Build 0)  -->
<!DOCTYPE svg PUBLIC "-//W3C//DTD SVG 1.1//EN" "http://www.w3.org/Graphics/SVG/1.1/DTD/svg11.dtd">
<svg version="1.1" id="Layer_1" xmlns="http://www.w3.org/2000/svg" xmlns:xlink="http://www.w3.org/1999/xlink" x="0px" y="0px"
	 width="612px" height="612px" viewBox="0 0 612 612" enable-background="new 0 0 612 612" xml:space="preserve">
<polygon opacity="0.7" stroke="#000000" stroke-miterlimit="10" points="112.755,466.498 362.299,399 505.667,485 240.046,576.333 
	"/>
<polygon fill="#232C7A" points="321.92,41.312 241.046,552.979 498.771,466.499 "/>
<polygon fill="#262262" points="241.046,552.978 112.755,440.157 320.727,41.311 "/>
<polygon fill="#2B3990" points="240.046,552.978 359.887,312.067 286.394,258.208 "/>
<polygon fill="#1C75BC" points="406.931,245.691 361.08,312.067 499.244,466.498 "/>
<polygon points="361.08,312.067 286.394,257.346 345.273,199.777 406.822,244.602 "/>
<polygon fill="#1C75BC" points="320.502,42.312 345.564,198.802 286.394,257.346 "/>
<polygon fill="#27AAE1" points="406.822,244.602 344.758,198.94 321.502,41.312 "/>
<g>
	<polygon fill="#FBB040" points="369.908,250.068 354.689,272.5 336.002,256.636 353.223,232.204 	"/>
	<polygon fill="#F7941E" points="359.758,255.058 353.223,232.204 369.908,250.068 	"/>
	<polygon fill="#F15A29" points="354.689,272.5 359.758,255.058 336.002,256.636 	"/>
	<polygon fill="#EF4136" points="369.908,250.068 359.758,255.058 354.689,272.5 	"/>
</g>
</svg>
