<?xml version="1.0" encoding="utf-8"?>
<!-- Generator: Adobe Illustrator 16.0.3, SVG Export Plug-In . SVG Version: 6.00 Build 0)  -->
<!DOCTYPE svg PUBLIC "-//W3C//DTD SVG 1.1//EN" "http://www.w3.org/Graphics/SVG/1.1/DTD/svg11.dtd">
<svg version="1.1" id="Layer_1" xmlns="http://www.w3.org/2000/svg" xmlns:xlink="http://www.w3.org/1999/xlink" x="0px" y="0px"
	 width="612px" height="612px" viewBox="0 0 612 612" enable-background="new 0 0 612 612" xml:space="preserve">
<polygon opacity="0.7" stroke="#000000" stroke-miterlimit="10" points="116.684,466.922 361.237,400.773 501.738,485.054 
	241.429,574.56 "/>
<g>
	<polygon fill="#232C7A" points="321.92,36.312 241.046,547.979 498.771,461.499 	"/>
	<polygon fill="#262262" points="241.046,547.978 112.755,435.157 320.727,36.311 	"/>
	<polygon fill="#2B3990" points="240.046,547.978 359.887,307.067 286.394,253.208 	"/>
	<polygon fill="#1C75BC" points="406.931,240.691 361.08,307.067 499.244,461.498 	"/>
	<polygon points="361.08,307.067 286.394,252.346 345.273,194.777 406.822,239.602 	"/>
	<polygon fill="#1C75BC" points="320.502,37.312 345.564,193.802 286.394,252.346 	"/>
	<polygon fill="#27AAE1" points="406.822,239.602 344.758,193.94 321.502,36.312 	"/>
	<g>
		<polygon fill="#FBB040" points="369.908,245.068 354.689,267.5 336.002,251.636 353.223,227.204 		"/>
		<polygon fill="#F7941E" points="359.758,250.058 353.223,227.204 369.908,245.068 		"/>
		<polygon fill="#F15A29" points="354.689,267.5 359.758,250.058 336.002,251.636 		"/>
		<polygon fill="#EF4136" points="369.908,245.068 359.758,250.058 354.689,267.5 		"/>
	</g>
</g>
</svg>
