<?xml version="1.0" encoding="utf-8"?>
<!-- Generator: Adobe Illustrator 16.0.3, SVG Export Plug-In . SVG Version: 6.00 Build 0)  -->
<!DOCTYPE svg PUBLIC "-//W3C//DTD SVG 1.1//EN" "http://www.w3.org/Graphics/SVG/1.1/DTD/svg11.dtd">
<svg version="1.1" id="Layer_1" xmlns="http://www.w3.org/2000/svg" xmlns:xlink="http://www.w3.org/1999/xlink" x="0px" y="0px"
	 width="612px" height="612px" viewBox="0 0 612 612" enable-background="new 0 0 612 612" xml:space="preserve">
<polygon opacity="0.7" stroke="#000000" stroke-miterlimit="10" points="125.006,468.142 355.179,405.884 487.416,485.207 
	242.415,569.449 "/>
<g>
	<polygon fill="#232C7A" points="321.92,23.312 241.046,534.979 498.771,448.499 	"/>
	<polygon fill="#262262" points="241.046,534.978 112.755,422.157 320.727,23.311 	"/>
	<polygon fill="#2B3990" points="240.046,534.978 359.887,294.067 286.394,240.208 	"/>
	<polygon fill="#1C75BC" points="406.931,227.691 361.08,294.067 499.244,448.498 	"/>
	<polygon points="361.08,294.067 286.394,239.346 345.273,181.777 406.822,226.602 	"/>
	<polygon fill="#1C75BC" points="320.502,24.312 345.564,180.802 286.394,239.346 	"/>
	<polygon fill="#27AAE1" points="406.822,226.602 344.758,180.94 321.502,23.312 	"/>
	<g>
		<polygon fill="#FBB040" points="369.908,232.068 354.689,254.5 336.002,238.636 353.223,214.204 		"/>
		<polygon fill="#F7941E" points="359.758,237.058 353.223,214.204 369.908,232.068 		"/>
		<polygon fill="#F15A29" points="354.689,254.5 359.758,237.058 336.002,238.636 		"/>
		<polygon fill="#EF4136" points="369.908,232.068 359.758,237.058 354.689,254.5 		"/>
	</g>
</g>
</svg>
