<?xml version="1.0" encoding="utf-8"?>
<!-- Generator: Adobe Illustrator 16.0.3, SVG Export Plug-In . SVG Version: 6.00 Build 0)  -->
<!DOCTYPE svg PUBLIC "-//W3C//DTD SVG 1.1//EN" "http://www.w3.org/Graphics/SVG/1.1/DTD/svg11.dtd">
<svg version="1.1" id="Layer_1" xmlns="http://www.w3.org/2000/svg" xmlns:xlink="http://www.w3.org/1999/xlink" x="0px" y="0px"
	 width="612px" height="612px" viewBox="0 0 612 612" enable-background="new 0 0 612 612" xml:space="preserve">
<polygon opacity="0.7" stroke="#000000" stroke-miterlimit="10" points="125.006,468.142 355.179,405.884 487.416,485.207 
	242.415,569.449 "/>
<g>
	<polygon fill="#232C7A" points="321.92,18.312 241.046,529.979 498.771,443.499 	"/>
	<polygon fill="#262262" points="241.046,529.978 112.755,417.157 320.727,18.311 	"/>
	<polygon fill="#2B3990" points="240.046,529.978 359.887,289.067 286.394,235.208 	"/>
	<polygon fill="#1C75BC" points="406.931,222.691 361.08,289.067 499.244,443.498 	"/>
	<polygon points="361.08,289.067 286.394,234.346 345.273,176.777 406.822,221.602 	"/>
	<polygon fill="#1C75BC" points="320.502,19.312 345.564,175.802 286.394,234.346 	"/>
	<polygon fill="#27AAE1" points="406.822,221.602 344.758,175.94 321.502,18.312 	"/>
	<g>
		<polygon fill="#FBB040" points="369.908,227.068 354.689,249.5 336.002,233.636 353.223,209.204 		"/>
		<polygon fill="#F7941E" points="359.758,232.058 353.223,209.204 369.908,227.068 		"/>
		<polygon fill="#F15A29" points="354.689,249.5 359.758,232.058 336.002,233.636 		"/>
		<polygon fill="#EF4136" points="369.908,227.068 359.758,232.058 354.689,249.5 		"/>
	</g>
</g>
</svg>
