<?xml version="1.0" encoding="utf-8"?>
<!-- Generator: Adobe Illustrator 16.0.3, SVG Export Plug-In . SVG Version: 6.00 Build 0)  -->
<!DOCTYPE svg PUBLIC "-//W3C//DTD SVG 1.1//EN" "http://www.w3.org/Graphics/SVG/1.1/DTD/svg11.dtd">
<svg version="1.1" id="Layer_1" xmlns="http://www.w3.org/2000/svg" xmlns:xlink="http://www.w3.org/1999/xlink" x="0px" y="0px"
	 width="612px" height="612px" viewBox="0 0 612 612" enable-background="new 0 0 612 612" xml:space="preserve">
<polygon opacity="0.7" stroke="#000000" stroke-miterlimit="10" points="121.308,467.743 356.178,404.215 491.114,485.157 
	241.113,571.118 "/>
<g>
	<polygon fill="#232C7A" points="321.92,27.312 241.046,538.979 498.771,452.499 	"/>
	<polygon fill="#262262" points="241.046,538.978 112.755,426.157 320.727,27.311 	"/>
	<polygon fill="#2B3990" points="240.046,538.978 359.887,298.067 286.394,244.208 	"/>
	<polygon fill="#1C75BC" points="406.931,231.691 361.08,298.067 499.244,452.498 	"/>
	<polygon points="361.08,298.067 286.394,243.346 345.273,185.777 406.822,230.602 	"/>
	<polygon fill="#1C75BC" points="320.502,28.312 345.564,184.802 286.394,243.346 	"/>
	<polygon fill="#27AAE1" points="406.822,230.602 344.758,184.94 321.502,27.312 	"/>
	<g>
		<polygon fill="#FBB040" points="369.908,236.068 354.689,258.5 336.002,242.636 353.223,218.204 		"/>
		<polygon fill="#F7941E" points="359.758,241.058 353.223,218.204 369.908,236.068 		"/>
		<polygon fill="#F15A29" points="354.689,258.5 359.758,241.058 336.002,242.636 		"/>
		<polygon fill="#EF4136" points="369.908,236.068 359.758,241.058 354.689,258.5 		"/>
	</g>
</g>
</svg>
