<?xml version="1.0" encoding="utf-8"?>
<!-- Generator: Adobe Illustrator 16.0.3, SVG Export Plug-In . SVG Version: 6.00 Build 0)  -->
<!DOCTYPE svg PUBLIC "-//W3C//DTD SVG 1.1//EN" "http://www.w3.org/Graphics/SVG/1.1/DTD/svg11.dtd">
<svg version="1.1" id="Layer_1" xmlns="http://www.w3.org/2000/svg" xmlns:xlink="http://www.w3.org/1999/xlink" x="0px" y="0px"
	 width="612px" height="612px" viewBox="0 0 612 612" enable-background="new 0 0 612 612" xml:space="preserve">
<polygon opacity="0.7" stroke="#000000" stroke-miterlimit="10" points="117.535,467.337 357.197,402.512 494.888,485.106 
	239.785,572.821 "/>
<g>
	<polygon fill="#232C7A" points="321.92,32.312 241.046,543.979 498.771,457.499 	"/>
	<polygon fill="#262262" points="241.046,543.978 112.755,431.157 320.727,32.311 	"/>
	<polygon fill="#2B3990" points="240.046,543.978 359.887,303.067 286.394,249.208 	"/>
	<polygon fill="#1C75BC" points="406.931,236.691 361.08,303.067 499.244,457.498 	"/>
	<polygon points="361.08,303.067 286.394,248.346 345.273,190.777 406.822,235.602 	"/>
	<polygon fill="#1C75BC" points="320.502,33.312 345.564,189.802 286.394,248.346 	"/>
	<polygon fill="#27AAE1" points="406.822,235.602 344.758,189.94 321.502,32.312 	"/>
	<g>
		<polygon fill="#FBB040" points="369.908,241.068 354.689,263.5 336.002,247.636 353.223,223.204 		"/>
		<polygon fill="#F7941E" points="359.758,246.058 353.223,223.204 369.908,241.068 		"/>
		<polygon fill="#F15A29" points="354.689,263.5 359.758,246.058 336.002,247.636 		"/>
		<polygon fill="#EF4136" points="369.908,241.068 359.758,246.058 354.689,263.5 		"/>
	</g>
</g>
</svg>
