<?xml version="1.0" encoding="utf-8"?>
<!-- Generator: Adobe Illustrator 16.0.3, SVG Export Plug-In . SVG Version: 6.00 Build 0)  -->
<!DOCTYPE svg PUBLIC "-//W3C//DTD SVG 1.1//EN" "http://www.w3.org/Graphics/SVG/1.1/DTD/svg11.dtd">
<svg version="1.1" id="Layer_2" xmlns="http://www.w3.org/2000/svg" xmlns:xlink="http://www.w3.org/1999/xlink" x="0px" y="0px"
	 width="543px" height="543px" viewBox="0 0 543 543" enable-background="new 0 0 543 543" xml:space="preserve">
<path fill="#7C0C3F" d="M378.68,250.92c0,0-15.929-49.001-50.973-28.139c-28.022,16.681-19.076,40.088-19.076,40.088
	s59.303,213.554,82.901,211.842C401.37,473.999,387.827,295.294,378.68,250.92z"/>
<path fill="#511845" d="M371.756,322.621c0,0-9.543-30.751-32.715-61.1c-40.127-52.559-28.507,1.263-28.507,1.263
	s59.306,213.554,82.905,211.842C403.276,473.915,380.902,366.995,371.756,322.621z"/>
<ellipse fill="#C70039" cx="289.709" cy="98.131" rx="74.101" ry="74.281"/>
<path fill="#C70039" d="M356.521,202.795c0,0,0.449,127.897-27.332,190.103c0,0-36.167,106.131-68.028,95.505
	c0,0-38.196,1.517-55.879-64.849c-18.222-68.387-17.007-43.626-21.866-166.838l-1.603-53.92l49.007,12.866l29.346,1.01h48.371
	L356.521,202.795z"/>
<path fill="#38183B" d="M356.521,202.795c0,7.663-53.082,20.95-96.355,20.95s-78.353-13.287-78.353-20.95
	c0-7.664,35.079-13.876,78.353-13.876S356.521,195.131,356.521,202.795z"/>
<path fill="#511845" d="M269.167,487.334c-22.364,1.289,0,0-15.325,0c-20.088,0-24.472-15.528-32.802-26.323
	c-8.331-10.795-29.852-89.893-31.497-98.948c-1.644-9.055-7.729-159.268-7.729-159.268l25.898,12.697c0,0-2.43,50.067,3.644,94.871
	c6.074,44.804,6.074,68.386,13.363,101.4S269.167,487.334,269.167,487.334z"/>
<path fill="#7C0C3F" d="M269.167,487.334c0,0-9.221-27.229-14.08-63.78c-4.859-36.552,1.215-112.012,0-129.698
	s5.079-70.111,5.079-70.111l-56.099-8.253c0,0,4.767,113.393,6.681,135.921c1.822,21.44,7.011,30.873,14.742,70.961
	C233.222,462.463,269.167,487.334,269.167,487.334z"/>
<path fill="#C70039" d="M144.315,254.788c0,0,19.925-52.187,54.256-29.493c27.451,18.145,11.101,44.207,11.101,44.207
	s-71.009,212.255-94.765,209.402C105.004,477.712,132.772,299.045,144.315,254.788z"/>
<path fill="#7C0C3F" d="M152.342,329.487c0,0,5.223-31.275,30.212-60.733c43.278-51.016,31.427-7.699,31.427-7.699
	s-73.693,222.593-97.45,219.739C106.628,479.602,140.799,373.744,152.342,329.487z"/>
<path fill="#511845" d="M289.708,172.412c0,0-22.645-3.533-34.046-8.292c-11.402-4.759-15.216-10.506-30.171-28.905
	c-14.956-18.399-6.029-60.788-6.029-60.788s8.403,31.957,17.155,43.747c8.752,11.791,25.759,33.014,25.759,33.014L289.708,172.412z"
	/>
<path fill="#7C0C3F" d="M227.795-52"/>
<ellipse fill="#FF3951" cx="338.451" cy="79.855" rx="18.828" ry="17.096"/>
<ellipse fill="#FF3951" cx="334.807" cy="116.541" rx="12.504" ry="12.246"/>
<ellipse fill="#FF3951" cx="325.24" cy="144.493" rx="9.414" ry="7.454"/>
<ellipse fill="#FF7651" cx="348.879" cy="71.307" rx="3.742" ry="4.311"/>
<ellipse fill="#FF7651" cx="340.548" cy="111.396" rx="5.04" ry="4.421"/>
<ellipse fill="#FF7651" cx="328.552" cy="140.227" rx="3.312" ry="3.188"/>
<path fill="#7C0C3F" d="M289.462,172.412l-31.639-25.444l-21.453-28.793c0,0-19.188-36.551-17.155-43.747
	c2.032-7.196,7.157-15.27,17.155-28.109l20.703-15.013c0,0,0.758,18.662,1.412,43.122c0.602,22.524,3.004,26.481,10.436,56.717
	C276.353,161.38,289.462,172.412,289.462,172.412z"/>
</svg>
