<?xml version="1.0" encoding="utf-8"?>
<!-- Generator: Adobe Illustrator 16.0.3, SVG Export Plug-In . SVG Version: 6.00 Build 0)  -->
<!DOCTYPE svg PUBLIC "-//W3C//DTD SVG 1.1//EN" "http://www.w3.org/Graphics/SVG/1.1/DTD/svg11.dtd">
<svg version="1.1" id="Layer_2" xmlns="http://www.w3.org/2000/svg" xmlns:xlink="http://www.w3.org/1999/xlink" x="0px" y="0px"
	 width="543px" height="543px" viewBox="0 0 543 543" enable-background="new 0 0 543 543" xml:space="preserve">
<path fill="#7C0C3F" d="M384.035,257.618c0,0-13.145-49.82-49.308-30.964c-28.917,15.077-21.303,38.951-21.303,38.951
	s47.188,216.553,70.845,216.172C394.132,481.62,390.67,302.437,384.035,257.618z"/>
<path fill="#511845" d="M373.086,328.815c0,0-7.797-31.239-29.223-62.844c-37.105-54.735-28.533-0.344-28.533-0.344
	s47.189,216.554,70.849,216.173C396.04,481.644,379.721,373.634,373.086,328.815z"/>
<ellipse fill="#C70039" cx="289.709" cy="103.131" rx="74.101" ry="74.281"/>
<path fill="#C70039" d="M356.521,207.795c0,0,0.449,127.897-27.332,190.103c0,0-36.167,106.131-68.028,95.505
	c0,0-38.196,1.517-55.879-64.849c-18.222-68.387-17.007-43.626-21.866-166.838l-1.603-53.92l49.007,12.866l29.346,1.01h48.371
	L356.521,207.795z"/>
<path fill="#38183B" d="M356.521,207.795c0,7.663-53.082,20.95-96.355,20.95s-78.353-13.287-78.353-20.95
	c0-7.664,35.079-13.876,78.353-13.876S356.521,200.131,356.521,207.795z"/>
<path fill="#511845" d="M269.167,492.334c-22.364,1.289,0,0-15.325,0c-20.088,0-24.472-15.528-32.802-26.323
	c-8.331-10.795-29.852-89.893-31.497-98.948c-1.644-9.055-7.729-159.268-7.729-159.268l25.898,12.697c0,0-2.43,50.067,3.644,94.871
	c6.074,44.804,6.074,68.386,13.363,101.4S269.167,492.334,269.167,492.334z"/>
<path fill="#C70039" d="M141.6,260.395c0,0,18.448-52.727,53.404-31.009c27.951,17.365,12.341,43.877,12.341,43.877
	s-65.005,214.17-88.833,211.986C108.58,484.337,131.308,304.959,141.6,260.395z"/>
<path fill="#7C0C3F" d="M269.167,492.334c0,0-9.221-27.229-14.08-63.78c-4.859-36.552,1.215-112.012,0-129.698
	s5.079-70.111,5.079-70.111l-56.099-8.253c0,0,4.767,113.393,6.681,135.921c1.822,21.44,7.011,30.873,14.742,70.961
	C233.222,467.463,269.167,492.334,269.167,492.334z"/>
<path fill="#7C0C3F" d="M151.726,334.838c0,0,4.34-31.41,28.491-61.559c41.825-52.214,31.198-8.581,31.198-8.581
	s-67.398,224.58-91.226,222.395C110.256,486.18,141.434,379.403,151.726,334.838z"/>
<path fill="#511845" d="M289.708,177.412c0,0-22.645-3.533-34.046-8.292c-11.402-4.759-15.216-10.506-30.171-28.905
	c-14.956-18.399-6.029-60.788-6.029-60.788s8.403,31.957,17.155,43.747c8.752,11.791,25.759,33.014,25.759,33.014L289.708,177.412z"
	/>
<path fill="#7C0C3F" d="M227.795-52"/>
<ellipse fill="#FF3951" cx="338.451" cy="84.855" rx="18.828" ry="17.096"/>
<ellipse fill="#FF3951" cx="334.807" cy="121.541" rx="12.504" ry="12.246"/>
<ellipse fill="#FF3951" cx="325.24" cy="149.493" rx="9.414" ry="7.454"/>
<ellipse fill="#FF7651" cx="348.879" cy="76.307" rx="3.742" ry="4.311"/>
<ellipse fill="#FF7651" cx="340.548" cy="116.396" rx="5.04" ry="4.421"/>
<ellipse fill="#FF7651" cx="328.552" cy="145.227" rx="3.312" ry="3.188"/>
<path fill="#7C0C3F" d="M289.462,177.412l-31.639-25.444l-21.453-28.793c0,0-19.188-36.551-17.155-43.747
	c2.032-7.196,7.157-15.27,17.155-28.109l20.703-15.013c0,0,0.758,18.662,1.412,43.122c0.602,22.524,3.004,26.481,10.436,56.717
	C276.353,166.38,289.462,177.412,289.462,177.412z"/>
</svg>
