<?xml version="1.0" encoding="utf-8"?>
<!-- Generator: Adobe Illustrator 16.0.3, SVG Export Plug-In . SVG Version: 6.00 Build 0)  -->
<!DOCTYPE svg PUBLIC "-//W3C//DTD SVG 1.1//EN" "http://www.w3.org/Graphics/SVG/1.1/DTD/svg11.dtd">
<svg version="1.1" id="Layer_2" xmlns="http://www.w3.org/2000/svg" xmlns:xlink="http://www.w3.org/1999/xlink" x="0px" y="0px"
	 width="543px" height="543px" viewBox="0 0 543 543" enable-background="new 0 0 543 543" xml:space="preserve">
<path fill="#7C0C3F" d="M382.411,255.068c0,0-13.999-49.587-49.832-30.112c-28.654,15.572-20.631,39.311-20.631,39.311
	s50.902,215.71,74.551,214.923C396.356,478.864,389.815,299.766,382.411,255.068z"/>
<path fill="#511845" d="M372.688,326.443c0,0-8.332-31.101-30.3-62.333c-38.041-54.089-28.534,0.147-28.534,0.147
	s50.905,215.71,74.554,214.924C398.265,478.854,380.091,371.141,372.688,326.443z"/>
<ellipse fill="#C70039" cx="289.709" cy="101.131" rx="74.101" ry="74.281"/>
<path fill="#C70039" d="M356.521,205.795c0,0,0.449,127.897-27.332,190.103c0,0-36.167,106.131-68.028,95.505
	c0,0-38.196,1.517-55.879-64.849c-18.222-68.387-17.007-43.626-21.866-166.838l-1.603-53.92l49.007,12.866l29.346,1.01h48.371
	L356.521,205.795z"/>
<path fill="#38183B" d="M356.521,205.795c0,7.663-53.082,20.95-96.355,20.95s-78.353-13.287-78.353-20.95
	c0-7.664,35.079-13.876,78.353-13.876S356.521,198.131,356.521,205.795z"/>
<path fill="#511845" d="M269.167,490.334c-22.364,1.289,0,0-15.325,0c-20.088,0-24.472-15.528-32.802-26.323
	c-8.331-10.795-29.852-89.893-31.497-98.948c-1.644-9.055-7.729-159.268-7.729-159.268l25.898,12.697c0,0-2.43,50.067,3.644,94.871
	c6.074,44.804,6.074,68.386,13.363,101.4S269.167,490.334,269.167,490.334z"/>
<path fill="#7C0C3F" d="M269.167,490.334c0,0-9.221-27.229-14.08-63.78c-4.859-36.552,1.215-112.012,0-129.698
	s5.079-70.111,5.079-70.111l-56.099-8.253c0,0,4.767,113.393,6.681,135.921c1.822,21.44,7.011,30.873,14.742,70.961
	C233.222,465.463,269.167,490.334,269.167,490.334z"/>
<path fill="#C70039" d="M135.622,260.019c0,0,15.109-53.779,51.357-34.294c28.983,15.581,15.065,43.018,15.065,43.018
	s-51.461,217.821-75.378,217.135C116.696,485.59,128.142,305.14,135.622,260.019z"/>
<path fill="#7C0C3F" d="M150.392,333.682c0,0,2.364-31.62,24.579-63.223c38.472-54.732,30.599-10.518,30.599-10.518
	S152.373,488.3,128.456,487.614C118.485,487.324,142.912,378.804,150.392,333.682z"/>
<path fill="#511845" d="M289.708,175.412c0,0-22.645-3.533-34.046-8.292c-11.402-4.759-15.216-10.506-30.171-28.905
	c-14.956-18.399-6.029-60.788-6.029-60.788s8.403,31.957,17.155,43.747c8.752,11.791,25.759,33.014,25.759,33.014L289.708,175.412z"
	/>
<path fill="#7C0C3F" d="M227.795-52"/>
<ellipse fill="#FF3951" cx="338.451" cy="82.855" rx="18.828" ry="17.096"/>
<ellipse fill="#FF3951" cx="334.807" cy="119.541" rx="12.504" ry="12.246"/>
<ellipse fill="#FF3951" cx="325.24" cy="147.493" rx="9.414" ry="7.454"/>
<ellipse fill="#FF7651" cx="348.879" cy="74.307" rx="3.742" ry="4.311"/>
<ellipse fill="#FF7651" cx="340.548" cy="114.396" rx="5.04" ry="4.421"/>
<ellipse fill="#FF7651" cx="328.552" cy="143.227" rx="3.312" ry="3.188"/>
<path fill="#7C0C3F" d="M289.462,175.412l-31.639-25.444l-21.453-28.793c0,0-19.188-36.551-17.155-43.747
	c2.032-7.196,7.157-15.27,17.155-28.109l20.703-15.013c0,0,0.758,18.662,1.412,43.122c0.602,22.524,3.004,26.481,10.436,56.717
	C276.353,164.38,289.462,175.412,289.462,175.412z"/>
</svg>
