<?xml version="1.0" encoding="utf-8"?>
<!-- Generator: Adobe Illustrator 16.0.3, SVG Export Plug-In . SVG Version: 6.00 Build 0)  -->
<!DOCTYPE svg PUBLIC "-//W3C//DTD SVG 1.1//EN" "http://www.w3.org/Graphics/SVG/1.1/DTD/svg11.dtd">
<svg version="1.1" id="Layer_2" xmlns="http://www.w3.org/2000/svg" xmlns:xlink="http://www.w3.org/1999/xlink" x="0px" y="0px"
	 width="600px" height="600px" viewBox="0 0 600 600" enable-background="new 0 0 600 600" xml:space="preserve">
<polygon fill="#004C73" stroke="#004C73" stroke-miterlimit="10" points="318.901,12 359.717,140.599 443.68,95.211 "/>
<polygon fill="#00A8CC" stroke="#00A8CC" stroke-miterlimit="10" points="205.785,115.383 359.717,140.599 318.901,12 "/>
<polygon fill="#476394" points="205.785,140.599 346.89,167.075 296.744,243.982 "/>
<polygon fill="#002E63" stroke="#002E63" stroke-miterlimit="10" points="443.68,120.426 359.717,217.506 296.744,243.982 
	346.89,167.075 "/>
<polygon fill="#142850" stroke="#142850" stroke-miterlimit="10" points="205.785,140.599 227.941,120.426 359.717,140.599 
	422.223,106.811 443.68,120.426 346.79,166.834 "/>
<polygon fill="#142850" stroke="#142850" stroke-miterlimit="10" points="211.615,243.982 267.783,211.065 296.744,243.982 
	335.891,227.523 346.89,262.893 290.914,344.843 "/>
<polygon fill="#002E63" stroke="#002E63" stroke-miterlimit="10" points="450.677,211.065 346.89,262.893 288.582,568 
	324.732,551.609 "/>
<polygon fill="#476394" stroke="#476394" stroke-miterlimit="10" points="211.615,243.982 288.582,568 346.89,262.893 
	290.914,344.843 "/>
<polygon fill="#00A8CC" points="95.35,140.599 49.776,157.484 52.207,204.558 "/>
<polygon fill="#476394" points="99.167,197.644 95.35,140.599 52.207,204.558 "/>
<polygon fill="#002E63" points="339.31,192.29 371.962,257.85 321.817,236.417 "/>
<polygon fill="#476394" points="387.122,214.984 371.962,257.85 339.31,192.29 "/>
</svg>
