<?xml version="1.0" encoding="utf-8"?>
<!-- Generator: Adobe Illustrator 16.0.3, SVG Export Plug-In . SVG Version: 6.00 Build 0)  -->
<!DOCTYPE svg PUBLIC "-//W3C//DTD SVG 1.1//EN" "http://www.w3.org/Graphics/SVG/1.1/DTD/svg11.dtd">
<svg version="1.1" id="Layer_2" xmlns="http://www.w3.org/2000/svg" xmlns:xlink="http://www.w3.org/1999/xlink" x="0px" y="0px"
	 width="600px" height="600px" viewBox="0 0 600 600" enable-background="new 0 0 600 600" xml:space="preserve">
<polygon fill="#004C73" stroke="#004C73" stroke-miterlimit="10" points="318.901,15 359.717,143.599 443.68,98.211 "/>
<polygon fill="#00A8CC" stroke="#00A8CC" stroke-miterlimit="10" points="205.785,118.383 359.717,143.599 318.901,15 "/>
<polygon fill="#476394" points="205.785,143.599 346.89,170.075 296.744,246.982 "/>
<polygon fill="#002E63" stroke="#002E63" stroke-miterlimit="10" points="443.68,123.426 359.717,220.506 296.744,246.982 
	346.89,170.075 "/>
<polygon fill="#142850" stroke="#142850" stroke-miterlimit="10" points="205.785,143.599 227.941,123.426 359.717,143.599 
	422.223,109.811 443.68,123.426 346.79,169.834 "/>
<polygon fill="#142850" stroke="#142850" stroke-miterlimit="10" points="211.615,246.982 267.783,214.065 296.744,246.982 
	335.891,230.523 346.89,265.893 290.914,347.843 "/>
<polygon fill="#002E63" stroke="#002E63" stroke-miterlimit="10" points="450.677,214.065 346.89,265.893 288.582,571 
	324.732,554.609 "/>
<polygon fill="#476394" stroke="#476394" stroke-miterlimit="10" points="211.615,246.982 288.582,571 346.89,265.893 
	290.914,347.843 "/>
<polygon fill="#002E63" points="526.615,243.843 559.268,309.402 509.123,287.97 "/>
<polygon fill="#476394" points="574.428,266.538 559.268,309.402 526.615,243.843 "/>
</svg>
