<?xml version="1.0" encoding="utf-8"?>
<!-- Generator: Adobe Illustrator 16.0.3, SVG Export Plug-In . SVG Version: 6.00 Build 0)  -->
<!DOCTYPE svg PUBLIC "-//W3C//DTD SVG 1.1//EN" "http://www.w3.org/Graphics/SVG/1.1/DTD/svg11.dtd">
<svg version="1.1" id="Layer_2" xmlns="http://www.w3.org/2000/svg" xmlns:xlink="http://www.w3.org/1999/xlink" x="0px" y="0px"
	 width="600px" height="600px" viewBox="0 0 600 600" enable-background="new 0 0 600 600" xml:space="preserve">
<polygon fill="#00A8CC" points="232.493,302.09 186.92,318.976 189.35,366.049 "/>
<polygon fill="#476394" points="236.311,359.135 232.493,302.09 189.35,366.049 "/>
<polygon fill="#004C73" stroke="#004C73" stroke-miterlimit="10" points="318.901,19 359.717,147.599 443.68,102.211 "/>
<polygon fill="#00A8CC" stroke="#00A8CC" stroke-miterlimit="10" points="205.785,122.383 359.717,147.599 318.901,19 "/>
<polygon fill="#476394" points="205.785,147.599 346.89,174.075 296.744,250.982 "/>
<polygon fill="#002E63" stroke="#002E63" stroke-miterlimit="10" points="443.68,127.426 359.717,224.506 296.744,250.982 
	346.89,174.075 "/>
<polygon fill="#142850" stroke="#142850" stroke-miterlimit="10" points="205.785,147.599 227.941,127.426 359.717,147.599 
	422.223,113.811 443.68,127.426 346.79,173.834 "/>
<polygon fill="#142850" stroke="#142850" stroke-miterlimit="10" points="211.615,250.982 267.783,218.065 296.744,250.982 
	335.891,234.523 346.89,269.893 290.914,351.843 "/>
<polygon fill="#002E63" stroke="#002E63" stroke-miterlimit="10" points="450.677,218.065 346.89,269.893 288.582,575 
	324.732,558.609 "/>
<polygon fill="#476394" stroke="#476394" stroke-miterlimit="10" points="211.615,250.982 288.582,575 346.89,269.893 
	290.914,351.843 "/>
<polygon fill="#002E63" points="511.455,330.974 544.107,396.533 493.963,375.101 "/>
<polygon fill="#476394" points="559.268,353.668 544.107,396.533 511.455,330.974 "/>
</svg>
