<?xml version="1.0" encoding="utf-8"?>
<!-- Generator: Adobe Illustrator 16.0.3, SVG Export Plug-In . SVG Version: 6.00 Build 0)  -->
<!DOCTYPE svg PUBLIC "-//W3C//DTD SVG 1.1//EN" "http://www.w3.org/Graphics/SVG/1.1/DTD/svg11.dtd">
<svg version="1.1" id="Layer_2" xmlns="http://www.w3.org/2000/svg" xmlns:xlink="http://www.w3.org/1999/xlink" x="0px" y="0px"
	 width="600px" height="600px" viewBox="0 0 600 600" enable-background="new 0 0 600 600" xml:space="preserve">
<polygon fill="#004C73" stroke="#004C73" stroke-miterlimit="10" points="318.901,24 359.717,152.599 443.68,107.211 "/>
<polygon fill="#00A8CC" stroke="#00A8CC" stroke-miterlimit="10" points="205.785,127.383 359.717,152.599 318.901,24 "/>
<polygon fill="#476394" points="205.785,152.599 346.89,179.075 296.744,255.982 "/>
<polygon fill="#002E63" stroke="#002E63" stroke-miterlimit="10" points="443.68,132.426 359.717,229.506 296.744,255.982 
	346.89,179.075 "/>
<polygon fill="#142850" stroke="#142850" stroke-miterlimit="10" points="205.785,152.599 227.941,132.426 359.717,152.599 
	422.223,118.811 443.68,132.426 346.79,178.834 "/>
<polygon fill="#142850" stroke="#142850" stroke-miterlimit="10" points="211.615,255.982 267.783,223.065 296.744,255.982 
	335.891,239.523 346.89,274.893 290.914,356.843 "/>
<polygon fill="#002E63" stroke="#002E63" stroke-miterlimit="10" points="450.677,223.065 346.89,274.893 288.582,580 
	324.732,563.609 "/>
<polygon fill="#476394" stroke="#476394" stroke-miterlimit="10" points="211.615,255.982 288.582,580 346.89,274.893 
	290.914,356.843 "/>
<polygon fill="#00A8CC" points="162.683,398.667 117.11,415.553 119.54,462.626 "/>
<polygon fill="#476394" points="166.5,455.712 162.683,398.667 119.54,462.626 "/>
<polygon fill="#002E63" points="433.188,425.055 465.84,490.614 415.695,469.182 "/>
<polygon fill="#476394" points="481,447.749 465.84,490.614 433.188,425.055 "/>
</svg>
