<?xml version="1.0" encoding="utf-8"?>
<!-- Generator: Adobe Illustrator 16.0.3, SVG Export Plug-In . SVG Version: 6.00 Build 0)  -->
<!DOCTYPE svg PUBLIC "-//W3C//DTD SVG 1.1//EN" "http://www.w3.org/Graphics/SVG/1.1/DTD/svg11.dtd">
<svg version="1.1" id="Layer_2" xmlns="http://www.w3.org/2000/svg" xmlns:xlink="http://www.w3.org/1999/xlink" x="0px" y="0px"
	 width="600px" height="600px" viewBox="0 0 600 600" enable-background="new 0 0 600 600" xml:space="preserve">
<polygon fill="#004C73" stroke="#004C73" stroke-miterlimit="10" points="318.901,17 359.717,145.599 443.68,100.211 "/>
<polygon fill="#00A8CC" stroke="#00A8CC" stroke-miterlimit="10" points="205.785,120.383 359.717,145.599 318.901,17 "/>
<polygon fill="#476394" points="205.785,145.599 346.89,172.075 296.744,248.982 "/>
<polygon fill="#002E63" stroke="#002E63" stroke-miterlimit="10" points="443.68,125.426 359.717,222.506 296.744,248.982 
	346.89,172.075 "/>
<polygon fill="#142850" stroke="#142850" stroke-miterlimit="10" points="205.785,145.599 227.941,125.426 359.717,145.599 
	422.223,111.811 443.68,125.426 346.79,171.834 "/>
<polygon fill="#142850" stroke="#142850" stroke-miterlimit="10" points="211.615,248.982 267.783,216.065 296.744,248.982 
	335.891,232.523 346.89,267.893 290.914,349.843 "/>
<polygon fill="#002E63" stroke="#002E63" stroke-miterlimit="10" points="450.677,216.065 346.89,267.893 288.582,573 
	324.732,556.609 "/>
<polygon fill="#476394" stroke="#476394" stroke-miterlimit="10" points="211.615,248.982 288.582,573 346.89,267.893 
	290.914,349.843 "/>
<polygon fill="#00A8CC" points="70.654,250.975 25.081,267.86 27.511,314.934 "/>
<polygon fill="#476394" points="74.472,308.02 70.654,250.975 27.511,314.934 "/>
<polygon fill="#002E63" points="354.47,282.954 387.122,348.514 336.978,327.081 "/>
<polygon fill="#476394" points="402.282,305.648 387.122,348.514 354.47,282.954 "/>
</svg>
