<?xml version="1.0" encoding="utf-8"?>
<!-- Generator: Adobe Illustrator 16.0.3, SVG Export Plug-In . SVG Version: 6.00 Build 0)  -->
<!DOCTYPE svg PUBLIC "-//W3C//DTD SVG 1.1//EN" "http://www.w3.org/Graphics/SVG/1.1/DTD/svg11.dtd">
<svg version="1.1" id="Layer_2" xmlns="http://www.w3.org/2000/svg" xmlns:xlink="http://www.w3.org/1999/xlink" x="0px" y="0px"
	 width="600px" height="600px" viewBox="0 0 600 600" enable-background="new 0 0 600 600" xml:space="preserve">
<polygon fill="#004C73" stroke="#004C73" stroke-miterlimit="10" points="318.901,8 359.717,136.599 443.68,91.211 "/>
<polygon fill="#00A8CC" stroke="#00A8CC" stroke-miterlimit="10" points="205.785,111.383 359.717,136.599 318.901,8 "/>
<polygon fill="#476394" points="205.785,136.599 346.89,163.075 296.744,239.982 "/>
<polygon fill="#002E63" stroke="#002E63" stroke-miterlimit="10" points="443.68,116.426 359.717,213.506 296.744,239.982 
	346.89,163.075 "/>
<polygon fill="#142850" stroke="#142850" stroke-miterlimit="10" points="205.785,136.599 227.941,116.426 359.717,136.599 
	422.223,102.811 443.68,116.426 346.79,162.834 "/>
<polygon fill="#142850" stroke="#142850" stroke-miterlimit="10" points="211.615,239.982 267.783,207.065 296.744,239.982 
	335.891,223.523 346.89,258.893 290.914,340.843 "/>
<polygon fill="#002E63" stroke="#002E63" stroke-miterlimit="10" points="450.677,207.065 346.89,258.893 288.582,564 
	324.732,547.609 "/>
<polygon fill="#476394" stroke="#476394" stroke-miterlimit="10" points="211.615,239.982 288.582,564 346.89,258.893 
	290.914,340.843 "/>
<polygon fill="#00A8CC" points="163.35,40.32 117.776,57.206 120.207,104.279 "/>
<polygon fill="#476394" points="167.167,97.365 163.35,40.32 120.207,104.279 "/>
<polygon fill="#002E63" points="404.614,88.957 437.267,154.516 387.122,133.083 "/>
<polygon fill="#476394" points="452.427,111.651 437.267,154.516 404.614,88.957 "/>
</svg>
