<?xml version="1.0" encoding="utf-8"?>
<!-- Generator: Adobe Illustrator 16.0.3, SVG Export Plug-In . SVG Version: 6.00 Build 0)  -->
<!DOCTYPE svg PUBLIC "-//W3C//DTD SVG 1.1//EN" "http://www.w3.org/Graphics/SVG/1.1/DTD/svg11.dtd">
<svg version="1.1" id="Layer_2" xmlns="http://www.w3.org/2000/svg" xmlns:xlink="http://www.w3.org/1999/xlink" x="0px" y="0px"
	 width="600px" height="600px" viewBox="0 0 600 600" enable-background="new 0 0 600 600" xml:space="preserve">
<polygon fill="#00A8CC" points="242.016,92.757 196.443,109.643 198.873,156.716 "/>
<polygon fill="#476394" points="245.833,149.802 242.016,92.757 198.873,156.716 "/>
<polygon fill="#004C73" stroke="#004C73" stroke-miterlimit="10" points="318.901,11 359.717,139.599 443.68,94.211 "/>
<polygon fill="#00A8CC" stroke="#00A8CC" stroke-miterlimit="10" points="205.785,114.383 359.717,139.599 318.901,11 "/>
<polygon fill="#476394" points="205.785,139.599 346.89,166.075 296.744,242.982 "/>
<polygon fill="#002E63" stroke="#002E63" stroke-miterlimit="10" points="443.68,119.426 359.717,216.506 296.744,242.982 
	346.89,166.075 "/>
<polygon fill="#142850" stroke="#142850" stroke-miterlimit="10" points="205.785,139.599 227.941,119.426 359.717,139.599 
	422.223,105.811 443.68,119.426 346.79,165.834 "/>
<polygon fill="#142850" stroke="#142850" stroke-miterlimit="10" points="211.615,242.982 267.783,210.065 296.744,242.982 
	335.891,226.523 346.89,261.893 290.914,343.843 "/>
<polygon fill="#002E63" stroke="#002E63" stroke-miterlimit="10" points="450.677,210.065 346.89,261.893 288.582,567 
	324.732,550.609 "/>
<polygon fill="#476394" stroke="#476394" stroke-miterlimit="10" points="211.615,242.982 288.582,567 346.89,261.893 
	290.914,343.843 "/>
<polygon fill="#002E63" points="487.948,158.51 520.601,224.07 470.456,202.637 "/>
<polygon fill="#476394" points="535.761,181.205 520.601,224.07 487.948,158.51 "/>
</svg>
