<?xml version="1.0" encoding="utf-8"?>
<!-- Generator: Adobe Illustrator 16.0.3, SVG Export Plug-In . SVG Version: 6.00 Build 0)  -->
<!DOCTYPE svg PUBLIC "-//W3C//DTD SVG 1.1//EN" "http://www.w3.org/Graphics/SVG/1.1/DTD/svg11.dtd">
<svg version="1.1" id="Layer_3" xmlns="http://www.w3.org/2000/svg" xmlns:xlink="http://www.w3.org/1999/xlink" x="0px" y="0px"
	 width="612px" height="192px" viewBox="0 0 612 192" enable-background="new 0 0 612 192" xml:space="preserve">
<g>
	<line fill="#BE86B2" x1="229.361" y1="104" x2="543.545" y2="92.653"/>
	<g>
		<g>
			<g>
				<g>
					<path fill="#BE86B2" d="M541.42,44.007c0.491,0.715,0.022-7.652,0.037-9.158C540.748,36.731,541.519,46.183,541.42,44.007z"/>
					<polygon fill="#BE86B2" points="534.45,63.294 534.462,59.874 533.636,68.288 					"/>
					<path fill="#BE86B2" d="M527.284,63.397c1.192,14.244,2.511-2.397,3.97,2.632l0.328,3.242l0.161-11.498
						C530.258,59.645,528.52,67.339,527.284,63.397z"/>
					<path fill="#BE86B2" d="M522.352,32.676c0.436,5.545-0.653,4.812,0.953,1.705c-0.108-0.602-0.146-0.952-0.212-1.399
						C522.941,33.075,522.728,33.063,522.352,32.676z"/>
					<path fill="#BE86B2" d="M523.093,32.981C523.832,32.554,522.431,28.334,523.093,32.981L523.093,32.981z"/>
					<path fill="#BE86B2" d="M519.725,36.289l0.814-4.993c-0.326-3.272-1.236-3.981-0.994-6.375
						C518.624,27.67,518.951,30.922,519.725,36.289z"/>
					<path fill="#BE86B2" d="M519.159,46.736l0.439-2.117C519.459,43.246,519.305,42.773,519.159,46.736z"/>
					<path fill="#BE86B2" d="M520.53,40.149l-0.932,4.47c0.227,2.298,0.409,6.923,0.443-1.619
						C520.105,47.229,520.174,43.162,520.53,40.149z"/>
					<path fill="#BE86B2" d="M521.227,42.303c0.669,3.083,1.46,5.009,0.641,9.983C523.697,50.256,523.055,40.234,521.227,42.303z"/>
					<path fill="#BE86B2" d="M527.451,78.166l0.896,4.15l0.472-4.806C528.582,79.894,527.243,73.698,527.451,78.166z"/>
					<path fill="#BE86B2" d="M513.271,29.125c0.048,3.037,0.626,8.078,0.841,11.96l0.607-3.511
						C514.267,35.509,513.483,33.622,513.271,29.125z"/>
					<path fill="#BE86B2" d="M514.111,41.084l-0.91,5.251C514.204,46.915,514.294,44.43,514.111,41.084z"/>
					<polygon fill="#BE86B2" points="519.555,62.582 520.962,51.566 519.212,62.741 					"/>
					<polygon fill="#BE86B2" points="509.064,28.896 509.433,21.846 508.708,32.504 					"/>
					<path fill="#BE86B2" d="M506.328,30.226c0.25-5.833-0.987-9.825-0.63-13.424c-0.718,1.072-1.183,6.092-1.601,10.602
						C504.624,24.873,505.305,25.494,506.328,30.226z"/>
					<path fill="#BE86B2" d="M503.358,33.987c0.258-1.407,0.487-3.917,0.739-6.583C503.818,28.762,503.565,30.706,503.358,33.987z"
						/>
					<path fill="#BE86B2" d="M511.277,44.9c-0.151-1.832-0.488-6.627-1.177-8.635l0.74,8.523
						C510.974,44.833,511.125,44.867,511.277,44.9z"/>
					<path fill="#BE86B2" d="M510.865,45.062l-0.024-0.273c-0.476-0.168-0.808-0.352-0.95-0.444
						C510.013,44.418,510.307,44.623,510.865,45.062z"/>
					<path fill="#BE86B2" d="M511.388,44.935c-0.041-0.018-0.071-0.037-0.11-0.035C511.35,45.738,511.385,46.02,511.388,44.935z"/>
					<path fill="#BE86B2" d="M516.397,54.956c-0.473,4.796-1.632,9.968-0.068,17.201C516.581,66.295,515.687,62.174,516.397,54.956z
						"/>
					<path fill="#BE86B2" d="M512.31,55.592l1.236,1.91c-0.104-2.253-0.434-5.535-0.199-7.917L512.31,55.592z"/>
					<polygon fill="#BE86B2" points="511.837,58.326 512.31,55.592 511.852,54.886 					"/>
					<path fill="#BE86B2" d="M505.645,41.908c-0.369,3.736-0.909,4.068-1.51,4.687c0.728,1.654,1.45,2.537,2.104,2.494
						C506.234,46.401,506.349,41.58,505.645,41.908z"/>
					<path fill="#BE86B2" d="M508.209,44.19c-0.027,0.197-0.069,0.296-0.095,0.492C508.21,45.402,508.273,45.634,508.209,44.19z"/>
					<path fill="#BE86B2" d="M498.006,46.757c0.051,0.511,0.102,1.02,0.154,1.548c-0.01-0.497-0.02-0.962-0.03-1.474L498.006,46.757
						z"/>
					<path fill="#BE86B2" d="M506.408,50.675c0.562,1.631,0.785-0.468,0.976-3.113c-0.344,0.872-0.721,1.443-1.145,1.526
						C506.241,50.3,506.263,51.101,506.408,50.675z"/>
					<path fill="#BE86B2" d="M501.794,38.041c0.325,1.776,0.676,3.279,1.037,4.663C502.479,40.009,501.806,35.812,501.794,38.041z"
						/>
					<path fill="#BE86B2" d="M507.86,42.326c0.021-0.137,0.037-0.294,0.062-0.383C507.691,40.114,507.744,41.011,507.86,42.326z"/>
					<path fill="#BE86B2" d="M507.86,42.326c-0.214,1.239-0.341,3.354-0.477,5.236c0.281-0.685,0.531-1.612,0.73-2.88
						C508.03,44.079,507.936,43.164,507.86,42.326z"/>
					<path fill="#BE86B2" d="M498.13,101.651c-0.197-7.917,0.856-15.285,2.301-6.835c0.905-5.974-0.768-31.985-2.271-46.511
						c0.09,3.456,0.205,6.647-0.778,11.364c0.56,4.309,2.922,10.019,2.208,17.217c-1.379,4.134-1.352-2.756-2.244-6.916
						c0.986,9.844-1.424,14.426-0.567,28.917l1.154-5.153C498.039,95.987,497.684,99.606,498.13,101.651z"/>
					<path fill="#BE86B2" d="M500.385,49.036l0.438-0.993c-0.59-1.366-1.091-4.514-2.027-10.686
						c-0.649,3.893-0.707,6.836-0.666,9.474l2.374,1.019L500.385,49.036z"/>
					<path fill="#BE86B2" d="M502.951,47.927c-0.059,8.631-1.065,12.332-0.031,21.626c1.369-0.646,0.715-7.228,1.411-10.996
						c-2.168,2.218,0.472-4.815-1.327-9.646c0.389-1.479,0.77-1.943,1.131-2.317c-0.442-1.03-0.879-2.314-1.304-3.891
						c0.028,0.208,0.048,0.357,0.071,0.535l0.01-0.03c0.001,0.056,0.001,0.082,0.002,0.137c0.136,1.07,0.191,1.723,0.06,1.102
						c-0.003,0.108-0.029,0.148-0.04,0.178c0.028,1.201,0.024,2.247,0.016,3.253c-0.715-1.753-0.183-2.231-0.016-3.253
						c-0.006-0.411-0.013-0.855-0.02-1.28l-0.012-0.107l-2.079,4.805C501.343,49.216,501.93,48.951,502.951,47.927z"/>
					<path fill="#BE86B2" d="M515.799,90.724c-0.098-0.759-0.116-1.374-0.145-1.998C515.547,89.785,515.518,90.509,515.799,90.724z"
						/>
					<path fill="#BE86B2" d="M514.686,85.556c0.12-1.207,0.132-4.656,0.695-3.788c0.555,2.57,0.147,4.128,0.273,6.958
						c0.238-2.295,0.898-6.218-0.258-10.368l-0.116,1.177c-1.013-2.924-2.564-13.627-2.448-14.814
						C513.376,72.459,513.809,77.975,514.686,85.556z"/>
					<path fill="#BE86B2" d="M508.833,68.939l-1.721,4.293l1.224,7.421l-0.211-4.478C509.254,77.895,508.825,72.389,508.833,68.939z
						"/>
					<polygon fill="#BE86B2" points="497.637,42.48 497.557,33.376 496.938,46.258 					"/>
					<polygon fill="#BE86B2" points="495.242,43.662 495.047,35.744 494.576,40.539 					"/>
					<path fill="#BE86B2" d="M361.435,146.761l-0.47,2.265C361.2,148.323,361.341,147.565,361.435,146.761z"/>
					<path fill="#BE86B2" d="M365.438,147.154l-0.043-3.897C365.288,145.41,365.27,146.994,365.438,147.154z"/>
					<path fill="#BE86B2" d="M435.496,46.708c-1.068-7.359-2.378-18.784-1.96-9.887l0.56,8.657
						C434.6,43.907,435.063,44.858,435.496,46.708z"/>
					<path fill="#BE86B2" d="M396.426,99.96c0.106,0.852,0.219,1.744,0.33,2.627c0.087-2.983,0.168-5.777,0.241-8.315
						C396.824,95.99,396.63,97.928,396.426,99.96z"/>
					<path fill="#BE86B2" d="M397.156,135.865l-1.259-5.554C396.205,132.255,396.613,134.106,397.156,135.865z"/>
					<path fill="#BE86B2" d="M340.005,156.74l-0.323,8.855C340.685,165.511,340.082,161.076,340.005,156.74z"/>
					<path fill="#BE86B2" d="M470.429,47.753c-0.814-3.361-1.416-4.766-1.915-5.168C469.527,47.532,470.469,54.983,470.429,47.753z"
						/>
					<path fill="#BE86B2" d="M359.679,54.685c-0.28,1.583-0.36,3.355-0.28,5.287C359.691,58.476,359.828,56.81,359.679,54.685z"/>
					<path fill="#BE86B2" d="M466.517,42.686c0.153,0.864,0.289,1.299,0.439,2.026c0.453-1.472,0.92-2.662,1.558-2.128
						C467.765,38.898,466.977,36.64,466.517,42.686z"/>
					<path fill="#BE86B2" d="M260.825,152.407c-0.071-0.388-0.147-0.57-0.216-1.027
						C260.634,152.552,260.716,152.617,260.825,152.407z"/>
					<path fill="#BE86B2" d="M234.673,65.736c0.207-0.545,0.576-0.568,0.92-0.698C235.402,64.45,235.119,64.519,234.673,65.736z"/>
					<path fill="#BE86B2" d="M485.313,40.229C485.808,39.644,485.359,39.27,485.313,40.229L485.313,40.229z"/>
					<path fill="#BE86B2" d="M489.061,74.432c-0.074,0.98-0.112,2.222-0.053,4.223C488.975,76.565,488.998,75.236,489.061,74.432z"
						/>
					<path fill="#BE86B2" d="M463.324,96.84c-0.016,0-0.028-0.028-0.046-0.028C463.493,98.505,463.455,98.185,463.324,96.84z"/>
					<path fill="#BE86B2" d="M486.231,44.144c-0.232-1.057-0.488-1.937-0.754-2.553C485.609,42.26,485.84,43.092,486.231,44.144z"/>
					<path fill="#BE86B2" d="M485.979,40.048c0.192,0.384,0.34,0.593,0.481,0.823C486.473,39.424,486.383,38.519,485.979,40.048z"/>
					<path fill="#BE86B2" d="M484.609,40.723c0.291-0.147,0.581,0.252,0.868,0.868c-0.122-0.582-0.183-1.068-0.165-1.362
						C485.166,40.371,484.958,40.554,484.609,40.723z"/>
					<path fill="#BE86B2" d="M302.273,127.673c-0.044-0.271-0.09-0.446-0.14-0.815C301.742,130.478,301.95,129.894,302.273,127.673z
						"/>
					<path fill="#BE86B2" d="M425.313,137.242c0.021-0.089,0.025-0.313,0.044-0.422c-0.027-0.095-0.063-0.213-0.088-0.3
						L425.313,137.242z"/>
					<path fill="#BE86B2" d="M423.691,143.771c0.4-10.822,0.896-9.512,1.577-7.25l-1.516-24.98L423.691,143.771z"/>
					<path fill="#BE86B2" d="M351.984,149.604l1.583,7.74c-1.108,12.881-2.405,8.501-0.787,19.416
						c-0.796-27.156,4.961-2.964,4.162-30.092l1.064,5.679c-0.255-0.255-0.236,1.347-0.489,1.083
						c2.139,12.938,0.531-19.671,2.821-15.884c0.824,2.052,1.49,5.976,1.096,9.214l1.428-6.774c0.505,0.51,0.556,5.228,0.054,4.728
						l2.469-2.258l0.011,0.801c0.209-4.278,0.795-10.886,1.096-13.701c0.788,3.871-0.221,2.891,0.067,6.271l1.173-6.629
						c0.829,7.016-0.094,13.88-1.104,12.909c2.296,27.055,0.924-6.873,4.339,8.854l-1.208,3.493
						c1.415,15.369,2.253,9.749,4.105,19.298c-0.538-5.003-3.889-24.084-2.602-30.902c0.505,2.033,1.109,2.989,1.737-2.506
						c0.356,9.651,1.077,7.251,2.066,6.668l0.393,12.787c0.958-3.729,0.637-10.235,1.071-16.016
						c1.261,1.215,1.871,11.111,2.458,19.445c2.021,1.959-1.918-15.83,0.3-18.324c1.796,4.831,2.744-0.431,4.405-8.152
						c1.292,4.36,0.084,7.824,0.623,11.47l0.636-10.235c0.255,0.235,0.289,3.371,0.306,4.953c0.704-3.982-0.392-12.777,0.813-16.299
						c-0.149-14.096,3.476,20.483,4.546,4.428c0.537,3.616,0.087,7.844,0.39,12.788c1.881-10.573,1.662-7.692,3.008-21.881
						l1.884,8.336c-1.508-9.562-0.435-20.975,0.528-30.352c-0.579-4.621-1.078-8.668-1.384-10.592l1.826-6.936
						c0.326,2.089,0.276,6.488,0.129,11.839c0.104-1.059,0.2-2.108,0.27-3.078c0.913,4.697,0.795,12.089,0.521,19.252
						c-0.345-2.628-0.691-5.272-1.031-7.858c-0.232,7.786-0.401,16.401-0.023,23.883c0.081-1.479,0.295-2.756,0.555-3.479
						c-0.058,2.112-0.075,3.999,0.033,5.275c0.119,1.344,0.233-1.494,0.454-4.766l0.986,14.231l-0.09-5.665l3.036,8.822
						c1.424-14.416,2.351-35.596,5.22-41.593c-0.388,10.48,0.452,17.075,0.857,29.461c-1.314-13.076-2.186,5.659-3.879,3.053
						c0.883,1.346,0.913,7.257,0.775,9.323l2.418-12.028c0.302,10.133,0.879,7.571,1.774,11.73
						c-1.285-19.996,1.643-13.407,2.58-19.588c0.314,6.722,0.284,13.592-1.188,12.023c2.104,15.012,1.167-23.583,3.161-10.834
						c-0.339,0.178-0.563-0.85-0.576,2.571c0.591-6.002,2.734-1.34,2.481,4.532l-0.34,0.149c2.379,2.288,6.984-0.105,6.713-17.119
						c0.102,2.195,0.439,20.506,0.425,23.945l2.024-57.346c0.167,14.613,2.807,49.335,1.203,57.65
						c0.621,2.06,1.384,4.465,2.349-0.729c-0.447-2.065-1.69-21.075-1.23-22.431c1.984,16.208,1.284,8.66,3.506,22.456
						c-0.671-3.112-0.878-26.03,0.031-25.33c-0.015,3.431,0.89,22.6,0.652,24.993l1.384-22.556
						c-0.401,4.07,0.592,19.054,1.313,25.39c-0.387-4.394,1.913,0.341,2.417-1.905l-1.118-5.178
						c2.602,3.307,1.307-31.698,3.809-30.606c-0.13,4.656,0.297,28.602,1.649,31.387c0.157-11.537,0.538-55.466,2.394-64.406
						l0.655,6.563l1.398-7.555c-0.414,17.36-2.015,53.916-3.096,68.154c1.116,5.178,0.539,7.749,1.906,7.104
						c0.714,6.15-0.419,9.387-0.814,9.763l3.378,3.864c-0.63-13.442,1.986-13.566,1.459-24.756l-3.01,14.054
						c-0.627-13.404,0.653-38.213,3.031-35.924c0.775,5.326,0.428,23.936,0.637,28.413c0.131-4.637,1.856-8.911,2.186-5.64
						l-0.713,7.219c1.458,5.009,1.438-17.886,3.435-5.118c0.561,0.84,2.205,17.246,2.01,9.289
						c-1.417-15.301-3.299-62.724-3.14-74.261c0.224,1.028,3.309,14.558,4.186,22.11c1.306,11.992-0.273,28.7,0.842,38.999
						c-0.101-3.671,0.217-8.217,0.365-9.678c0.669,3.112,0.181,11.378,1.328,9.675c-0.291-13.631,2.497,1.063,0.155-11.536
						c1.04-3.937,1.355,2.755,2.722,2.109c-0.76-8.786,0.163-30.005,1.206-33.932c0.056,3.467,0.484,7.966,0.688,10.021
						c2.465,1.142,3.988,7.283,6.25,7.318c0.328,3.292,1.562,7.244,1.309,13.126c0.238-2.423,0.37-7.05,1.054-7.406
						c1.773,11.73-1.486,1.891,0.053,16.005c-0.198-7.918,1.406-10.986,2.22-15.97c-0.747-12.218-2.377-2.26-3.191,2.715
						c-0.613-16.864,0.478-34.591,2.556-42.474c1.724-4.254,1.207,10.872,1.445,8.459c3.63,2.82,1.938-29.562,5.303-17.498
						c1.549,10.703,0.824,21.381,1.361,29.12c-1.381,4.125-2.592-6.737-3.611-6.27l1.458,5.039
						c-0.357,3.589-1.278,6.339-1.947,3.246c1.322,9.617,6.019,1.639,9.059,10.452c0.353-3.619,1.052-7.377,0.501-11.686
						l-0.806,1.534c-1.104-8.638,1.186-12.042-0.049-16.043c0.934-6.142,1.881-15.762,3.682-10.921l0.748,12.247
						c-0.164-3.581-1.325-7.262-1.646-3.507c0.48-5.46,3.089,16.491,3.251,0.42l-1.445-8.449c0.936-6.2,1.897-19.261,3.477-15.448
						c-1.092-12.078-0.281,1.398-1.815-12.726c1.522,17.583-3.709-0.609-1.616,17.853c-1.643-16.397-2.067-6.903-3.945-20.867
						c0.188,4.039,0.765,7.711-0.516,5.764c-0.012,1.183-0.086,2.69-0.136,3.572c-0.041-0.106-0.057-0.174-0.093-0.299
						c0.03,0.171,0.054,0.306,0.084,0.476c-0.03,0.607-0.03,0.734,0.03,0.165c0.352,1.756,0.662,3.875,0.838,6.126
						c-0.265,9.303-2.196,9.08-2.673,13.904c-0.786-1.896,0.133-4.646-0.415-8.946l-0.711,7.218
						c-0.42-8.975-2.443-14.843-0.944-20.165l-1.534-0.345c-1.077-5.003-2.38-6.959-3.003-3.155c-0.787-1.917-1.452,10-1.081,2.951
						l-2.184,5.649l-0.103-2.244c-2.394-1.047-4.306,15.039-7.58-1.065c-0.71,2.293-1.429,5.094-2.845,2.595l-0.539-7.759
						c-0.919,2.75-3.334-7.658-3.479,0.448c-1.852-20.855-5.1-4.379-7.021-8.023l0.299,10.143c-1.252-0.531-2.328,2.39-3.709,6.515
						l0.418,8.956c-1.052,7.406-3.617-6.25-5.667-5.258c0.018-3.431,0.578-2.552,1.027-0.497c-3.221-20.151-4.72,14.917-7.51,0.251
						c-0.445,3.28-0.893,2.182-1.368-0.058c0.051-0.021,0.092-0.189,0.122-0.473c-0.062-0.105-0.147-0.122-0.235-0.099
						c-0.304-1.533-0.624-3.319-0.953-4.744c0.314,2.168,0.604,3.956,0.83,4.778c-0.427,0.201-1.044,1.337-1.608,3.605l-0.622-9.613
						c-0.048,0.129-0.091,0.111-0.14,0.279c-0.761-3.53-0.344,4.576,0.255,11.805c-0.268,1.592-0.496,3.506-0.644,5.837
						c-1.075-15.518-1.503,5.292-2.803-11.254c-0.144,8.096-3.023,6.197-2.753,23.21c-0.102-2.215-0.33-3.262,0.014-3.411
						c-0.79-1.916-1.578-3.822-2.05,0.993l-0.747-12.227l-0.977,16.511c-1.223-7.422-1.774-11.741-1.168-21.192
						c-1.764,14.565-1.658,5.522-3.085,19.949l-0.19-7.918c-0.685,0.328-1.413,10.966-2.068,4.443
						c-2.099-14.983-7.771-1.801-12.267-15.632c1.615,23.267-2.233-10.375-1.739,7.685c-0.432-5.496-1.1-8.589-0.627-13.404
						c-1.841,5.49-3.376-8.624-4.232,6.651c-0.434-5.525,0.144-8.097-0.182-11.358c-0.12,1.197-0.475,4.815-0.805,1.534
						c-0.326-3.272,0.131-4.637,0.367-7.049c-2.048,1.002-1.646,17.991-1.221,33.934c-1.327-7.506-1.815-6.423-2.199,4.056
						c-0.556-5.198-1.365-10.631-0.14-12.552c-0.755-0.735-4.72-7.481-4.333,5.296c-0.345-3.231-1.051-0.91-1.189,0.571
						c-1.659-0.702-1.845-1.849-3.403-0.581l0.52,2.072c-0.076,15.433-1.208,3.483-2.434,5.384l-0.021-1.582
						c-3.364-11.009-1.087,5.375-4.468-7.207l0.505,9.578c0.473,20.631-3.029-12.066-4.441-4.12l0.811,5.453
						c-0.672,7.089-3.603-27.945-4.626-30.488c-0.268-1.788,0.217-2.891,0.451-4.228c-2.875-12.072,0.139,12.572-1.571,15.555
						c-0.58-6.761-0.191-17.241-1.458-18.456c-0.808-5.462-2.75,22.116-4.887,9.187c0.556,5.208,1.109,10.406,0.407,14.36
						c-1.225,1.911-4.206-19.607-4.779-3.111c-0.216-1.419-0.327-2.783-0.381-4.081c-0.835,4.281-2.956,7.172-3.229,16.113
						c-2.109-33.081-5.561,16.324-6.642-14.213l-2.979,1.749l-0.033-3.125c-2.016-1.95-2.438,5.394-2.856,12.748
						c-0.524-2.063-0.299-4.924-0.32-6.526c-3.061-6.056-3.296-4.748-5.126,10.553l-0.605-9.897
						c-0.437,5.781-4.664-15.389-7.03-3.733c-0.014-1.124-0.025-3.048,0.146-4.452c-2.713,11.736-8.491-27.211-8.336,8.91
						l-1.745,8.965c2.775,2.705,0.167,15.668,1.483,21.621c-0.976,2.156-3.111-10.783-1.887-12.684l0.268,1.798
						c-0.204-18.823-3.563-6.545-3.954-19.352c-5.228,1.117-10.732-9.111-15.69-9.733l1.096,14.599l-1.75-0.777
						c-0.574-3.39-1.019-11.416,0.229-10.855c-0.944-8.262-1.806,7.013-1.726,10.196c-2.615-5.837,0.322-17.083-0.427-17.408
						l-0.96,1.129l0.287,1.7c-0.595,6.002-0.438,12.338-1.938,11.669c-1.039-2.894-0.804-9-1.192-9.553
						c-0.035-1.035-0.177-1.518-0.579-0.399l-2.211-1.171l1.283,11.514c-0.755,5.724-2.059-0.532-0.587,12.51
						c-2.195-20.11-8.341-6.95-9.468-13.173c-1.041,8.461-2.373,8.363-4.054,7.407c0.496,2.386,1.209,15.357-0.267,13.817
						c-0.449-26.798-3.017-11.53-4.858-30.753c1.485,12.738-3.917,3.298-1.655,21.382c-1.261-2.124-0.434-10.021-1.56-16.292
						c-2.441,10.476-6.45-6.52-9.804-2.89c0.072,3.515,0.85,8.872,0.292,14.129l-2.473-17.51c-0.625,1.752,0.1,20.313-1.597,8.159
						c0.284,2.951,0.71,7.401,0.29,8.54c-7.438-16.881-13.429,14.537-21.517-17.399c1.184,6.778,0.583,7.474-0.124,7.753
						c0.524,1.613,0.303,8.687,0.566,13.445l-3.377-13.128c-0.051,13.243-3.076,1.01-2.922,13.659l0.836-2.307
						c-0.683,14.966,2.906,33.1,3.419,52.254c0.755-17.011,4.512,24.99,5.879,0.628c0.636,3.886-0.2,6.184,0.226,10.614
						c0.272-8.229,0.897-9.961,2.303-6.327l-0.071,2.035c3.502-2.13,5.328,5.905,9.539,11.146l-0.639-9.455
						c0.909,1.237,1.198,4.197,1.688,6.555c0.472-14.392-2.453-0.723-2.123-16.585c1.84,19.224,6.097,0.073,7.661,21.936
						c1.332,0.068-0.785-10.946,0.546-10.867l0.566,5.911l0.06-7.644c0.916,1.228,1.623,8.619,1.836,13.634
						c-0.233-0.588-0.55,1.427-0.761,1.864c1.381,6.938,3.097-2.496,3.567-0.235l-1.408-3.604
						c3.423-5.674,8.128,1.944,11.194-10.225l-0.427-4.461c2.375-8.362,2.318,4.832,5.115,0.9l-0.068,1.067
						c0.427-4.472,1.13-6.744,1.952-6.266c-0.552,5.258,1.762,10.119,0.999,15.941c2.579-8.977,1.182-7.021,2.498-23.689
						l0.709,7.391c0.41-6.728,0.337-10.263,1.733-12.238c-0.972,6.406,1.344,11.258,0.3,19.719
						c3.662,16.099,3.977-16.531,6.244,7.123c0.672-20.564-3.073-11.293-2.44-15.713c-0.905-6.681,0.612-15.374,1.652-13.35
						c0.999,0.423,2.619,26.183,5.076,25.702c-0.25-0.088-0.21,1.464-0.458,1.385c1.114,5.198,1.557-7.15,2.999,1.309
						c0.188-12.427,1.499,0.659,1.111-15.167l-2.135,3.742c1.136-4.185,1.672-22.741,4.114-13.84
						c-0.05,3.197-0.528,7.417-0.876,9.774c0.788,4.643,1.081-3.137,1.896,1.632c0.389,15.846-2.631,3.545-3.572,15.667
						c0.906,6.661,2.191-11.562,2.118,5.61c0.208-21.838,2.535,2.664,3.607-14.046l0.232,9.49c0.211-1.503,0.598-6.002,1.094-5.775
						l-0.438,12.328c0.977-10.54,2.944,9.08,4.037,3.323c-2.711,0.392-1.023-11.405-2.424-18.283
						c2.898-12.818,2.826,24.738,6.42,20.055c-0.46,1.355-2.115-5.631-1.479-10.051c0.786,1.926,1.862,5.532,2.481,10.493
						c2.418-2.062-0.735-9.745,0.114-15.61c1.266,11.524,1.053-4.748,2.011-8.486l0.356,9.643
						c3.061,6.085,0.026-20.122,2.851-12.738l-0.597,13.409l1.207-3.503l0.121,10.979c1.155-8.191,1.683-6.101,3.213-3.077
						c-0.575-6.78-0.446-17.505,0.8-17.854c1.063,5.698-0.149,9.182,1.582,7.741c-0.184,6.046-0.351,13.635-1.447,4.782
						c0.034,3.146-0.178,6.064-0.147,9.171c1.161,6.555,2.374,1.42,3.016,1.309c-0.261-0.353-0.576-0.858-0.778-2.229l2.1-13.453
						c0.537,3.605,0.32,6.525,0.104,9.387c0.485-1.063,0.688-5.507,1.427-6.364c0.084,7.844,0.424,15.933-0.532,19.661l2.146-8.784
						c0.287,3.399,1.601,9.313,1.386,12.214c1.53,4.557,2.797-15.326,4.825-9.312c0.039-1.525,0.175-2.986,0.52-4.123
						c1.764,1.715,3.616,11.273,5.243,0.456l1.65,14.012c1.463-3.248-2.187-17.647,0.249-23.042
						c1.698-4.546,1.127,11.96,1.921,15.85c0.669-7.119,1.757-21.591,3.879-10.215C352.993,150.604,352.475,148.541,351.984,149.604
						z M371.218,142.675c-0.304,2.034-0.83,8.307-1.312,2.627C369.938,134.239,370.46,139.517,371.218,142.675z M399.96,118.39
						c-0.165,3.201-0.656,1.636-1.276-1.996C399.01,115.59,399.425,115.937,399.96,118.39z M479.938,48.279
						c-0.01,0.179-0.016,0.307-0.023,0.47C478.938,45.022,479.289,46.495,479.938,48.279z M481.835,52.403
						c0.127-1.354,0.066-2.69-0.057-4.034c-0.033,2.444-0.42,2.625-0.891,1.958C481.103,52.85,481.392,54.588,481.835,52.403z
						 M294.416,62.973l0.431,2.515C294.179,68.288,294.303,65.772,294.416,62.973z"/>
					<path fill="#BE86B2" d="M397.082,131.705c-0.165-1.626-0.26-3.421-0.35-5.235C396.643,128.096,396.707,129.97,397.082,131.705z
						"/>
					<path fill="#BE86B2" d="M340.065,155.106c-0.022-0.077-0.041-0.048-0.063-0.105c-0.012,0.577-0.008,1.163,0.003,1.739
						L340.065,155.106z"/>
					<path fill="#BE86B2" d="M457.733,135.134c-0.409-1.373-0.674-3.132-0.873-4.952
						C456.926,132.544,457.161,134.528,457.733,135.134z"/>
					<path fill="#BE86B2" d="M490.498,35.683l-1.028,2.548c0.524-0.498,0.793,1.604,1.122,3.126
						C490.485,39.104,490.154,35.852,490.498,35.683z"/>
					<path fill="#BE86B2" d="M502.363,95c0.121-1.187,0.342-0.139,0.46-1.346l-0.206-4.478
						C501.931,89.495,501.574,93.124,502.363,95z"/>
					<path fill="#BE86B2" d="M492.691,67.686c0.381,8.106,0.983,5.329,1.713,3.798c-0.046,0.031-0.088,0.101-0.139,0.005
						C494.087,60.13,493.388,63.917,492.691,67.686z"/>
					<path fill="#BE86B2" d="M494.576,71.204c0.228-0.389,0.467-0.613,0.717-0.231C495.221,66.421,494.965,70.037,494.576,71.204z"
						/>
					<path fill="#BE86B2" d="M483.855,46.946c0.447,2.075-0.141-10.373,0.188-7.082C484.086,29.524,482.018,52.445,483.855,46.946z"
						/>
					<polygon fill="#BE86B2" points="494.29,94.383 493.648,84.38 493.5,92.467 					"/>
					<path fill="#BE86B2" d="M487.838,87.258l1.352,2.727c-0.079-1.678,0.044-2.669,0.212-3.428
						C488.618,86.252,487.701,84.292,487.838,87.258z"/>
					<path fill="#BE86B2" d="M489.401,86.557c0.409,0.181,0.784-0.048,0.948-1.695C490.136,84.976,489.681,85.325,489.401,86.557z"
						/>
					<polygon fill="#BE86B2" points="492.688,97.451 492.241,95.376 491.331,94.676 					"/>
					<path fill="#BE86B2" d="M474.307,85.812l-1.263,2.918c-0.015,3.44,0.434,5.525,0.893,4.14
						C474.178,90.468,474.637,89.123,474.307,85.812z"/>
					<path fill="#BE86B2" d="M479.431,113.086c-0.445-2.065-0.551-4.299-0.878-7.59l0.406,12.415L479.431,113.086z"/>
					<path fill="#BE86B2" d="M475.55,116.129c-0.012,3.449-1.627,9.957,0.077,9.114C475.643,121.822,476.908,118.913,475.55,116.129
						z"/>
					<polygon fill="#BE86B2" points="454.391,101.17 454.733,101.001 453.947,80.645 					"/>
					<path fill="#BE86B2" d="M438.001,150.523c1.795,4.821-0.069-12.574,1.614-6.537c0.206-4.825-1.376-4.924-1.136-9.096
						C437.685,140.001,437.068,137.15,438.001,150.523z"/>
					<path fill="#BE86B2" d="M438.479,134.891c0.127-0.806,0.258-1.788,0.387-3.111
						C438.629,133.058,438.531,134.039,438.479,134.891z"/>
					<polygon fill="#BE86B2" points="230.463,54.944 229.268,50.736 230.188,57.553 					"/>
					<path fill="#BE86B2" d="M229.009,70.114l-0.714-12.961l-0.201,11.763C228.309,68.331,228.725,67.192,229.009,70.114z"/>
					<path fill="#BE86B2" d="M375.055,168.706l-0.033-3.126c-0.283-3.371-0.536-3.616-1.044-4.125L375.055,168.706z"/>
					<polygon fill="#BE86B2" points="360.581,159.505 360.833,159.76 359.955,148.046 					"/>
					<path fill="#BE86B2" d="M349.268,174.895c0.502,0.471,0.976-2.166,1.479-1.686C349.77,175.365,348.608,160.27,349.268,174.895z
						"/>
				</g>
			</g>
		</g>
	</g>
</g>
<g>
	<line fill="#BE86B2" x1="383.977" y1="105.423" x2="69.792" y2="94.077"/>
	<g>
		<g>
			<g>
				<g>
					<path fill="#BE86B2" d="M68.401,142.75c-0.438-0.749-0.573,7.631-0.697,9.131C68.547,150.055,68.46,140.572,68.401,142.75z"/>
					<polygon fill="#BE86B2" points="76.745,124.015 76.486,127.426 77.917,119.093 					"/>
					<path fill="#BE86B2" d="M83.9,124.43c-0.162-14.292-2.678,2.21-3.77-2.911l-0.093-3.258l-0.99,11.456
						C80.663,127.958,82.952,120.408,83.9,124.43z"/>
					<path fill="#BE86B2" d="M86.604,155.427c-0.035-5.562,0.999-4.753-0.828-1.77c0.064,0.608,0.077,0.96,0.11,1.411
						C86.044,154.986,86.256,155.014,86.604,155.427z"/>
					<path fill="#BE86B2" d="M85.886,155.068C85.118,155.441,86.211,159.751,85.886,155.068L85.886,155.068z"/>
					<path fill="#BE86B2" d="M89.483,152.013l-1.172,4.922c0.089,3.286,0.946,4.061,0.532,6.43
						C89.96,160.688,89.868,157.421,89.483,152.013z"/>
					<path fill="#BE86B2" d="M90.801,141.634l-0.59,2.079C90.251,145.093,90.37,145.575,90.801,141.634z"/>
					<path fill="#BE86B2" d="M88.959,148.104l1.252-4.392c-0.061-2.309,0.091-6.935-0.559,1.583
						C89.894,141.073,89.531,145.125,88.959,148.104z"/>
					<path fill="#BE86B2" d="M88.42,145.906c-0.445-3.124-1.095-5.102,0.081-10.004C86.53,137.795,86.447,147.838,88.42,145.906z"/>
					<path fill="#BE86B2" d="M84.798,109.688l-0.594-4.204l-0.817,4.759C83.794,107.882,84.683,114.158,84.798,109.688z"/>
					<path fill="#BE86B2" d="M95.404,159.624c0.172-3.033-0.042-8.103,0.024-11.989l-0.859,3.457
						C94.871,153.185,95.517,155.123,95.404,159.624z"/>
					<path fill="#BE86B2" d="M95.429,147.635l1.286-5.172C95.756,141.813,95.488,144.285,95.429,147.635z"/>
					<polygon fill="#BE86B2" points="91.551,125.801 89.352,136.686 91.903,125.667 					"/>
					<polygon fill="#BE86B2" points="99.583,160.156 98.707,167.16 100.199,156.582 					"/>
					<path fill="#BE86B2" d="M102.408,159.026c-0.67,5.8,0.276,9.87-0.34,13.435c0.793-1.018,1.619-5.991,2.362-10.459
						C103.722,164.487,103.087,163.82,102.408,159.026z"/>
					<path fill="#BE86B2" d="M105.641,155.488c-0.358,1.385-0.768,3.872-1.211,6.514
						C104.806,160.667,105.198,158.746,105.641,155.488z"/>
					<path fill="#BE86B2" d="M98.53,144.033c0.019,1.838,0.009,6.646,0.551,8.697l-0.123-8.555
						C98.828,144.122,98.68,144.077,98.53,144.033z"/>
					<path fill="#BE86B2" d="M98.953,143.901l0.005,0.274c0.462,0.202,0.78,0.409,0.916,0.512
						C99.757,144.605,99.479,144.38,98.953,143.901z"/>
					<path fill="#BE86B2" d="M98.423,143.99c0.04,0.021,0.068,0.041,0.107,0.043C98.519,143.192,98.504,142.908,98.423,143.99z"/>
					<path fill="#BE86B2" d="M94.149,133.634c0.817-4.749,2.347-9.824,1.309-17.151C94.784,122.312,95.379,126.486,94.149,133.634z"
						/>
					<path fill="#BE86B2" d="M98.272,133.294l-1.096-1.994c-0.059,2.256,0.033,5.552-0.372,7.912L98.272,133.294z"/>
					<polygon fill="#BE86B2" points="98.941,130.602 98.272,133.294 98.679,134.032 					"/>
					<path fill="#BE86B2" d="M103.933,147.424c0.638-3.7,1.2-3.993,1.844-4.565c-0.606-1.703-1.264-2.636-1.919-2.64
						C103.668,142.899,103.207,147.7,103.933,147.424z"/>
					<path fill="#BE86B2" d="M101.54,144.963c0.042-0.194,0.09-0.29,0.13-0.484C101.626,143.754,101.58,143.518,101.54,144.963z"/>
					<path fill="#BE86B2" d="M111.901,143.138c-0.014-0.513-0.028-1.023-0.042-1.555c-0.026,0.497-0.05,0.962-0.076,1.473
						L111.901,143.138z"/>
					<path fill="#BE86B2" d="M103.803,138.624c-0.441-1.667-0.817,0.41-1.197,3.035c0.406-0.846,0.823-1.388,1.252-1.44
						C103.943,139.011,103.979,138.21,103.803,138.624z"/>
					<path fill="#BE86B2" d="M107.495,151.559c-0.196-1.795-0.438-3.318-0.699-4.726
						C106.954,149.546,107.322,153.78,107.495,151.559z"/>
					<path fill="#BE86B2" d="M101.753,146.847c-0.03,0.136-0.058,0.291-0.089,0.378
						C101.762,149.065,101.774,148.167,101.753,146.847z"/>
					<path fill="#BE86B2" d="M101.753,146.847c0.303-1.221,0.582-3.321,0.853-5.188c-0.33,0.662-0.646,1.569-0.937,2.819
						C101.709,145.086,101.739,146.006,101.753,146.847z"/>
					<path fill="#BE86B2" d="M115.738,88.377c-0.375,7.912-1.957,15.183-2.788,6.652c-1.334,5.894-1.542,31.957-1.09,46.554
						c0.159-3.454,0.274-6.645,1.596-11.278c-0.248-4.338-2.191-10.203-0.961-17.331c1.674-4.024,1.15,2.847,1.74,7.06
						c-0.274-9.889,2.46-14.285,2.652-28.8l-1.523,5.056C115.42,94.034,116.035,90.45,115.738,88.377z"/>
					<path fill="#BE86B2" d="M109.693,140.693l-0.509,0.959c0.491,1.405,0.763,4.581,1.252,10.804
						c0.928-3.836,1.198-6.768,1.348-9.4l-2.295-1.188L109.693,140.693z"/>
					<path fill="#BE86B2" d="M107.053,141.614c0.682-8.604,1.953-12.223,1.592-21.567c-1.413,0.545-1.235,7.157-2.201,10.865
						c2.323-2.057-0.818,4.769,0.628,9.716c-0.495,1.448-0.907,1.883-1.295,2.23c0.366,1.059,0.709,2.371,1.019,3.975
						c-0.012-0.21-0.021-0.359-0.032-0.538l-0.011,0.028c0.003-0.056,0.004-0.081,0.007-0.137c-0.058-1.076-0.066-1.731,0.021-1.104
						c0.011-0.106,0.04-0.145,0.053-0.174c0.059-1.199,0.138-2.242,0.219-3.246c0.586,1.8,0.021,2.239-0.219,3.246
						c-0.024,0.41-0.049,0.854-0.074,1.277l0.004,0.108l2.42-4.643C108.75,140.444,108.146,140.667,107.053,141.614z"/>
					<path fill="#BE86B2" d="M97.327,98.003c0.042,0.764,0.017,1.378,0,2.003C97.51,98.957,97.591,98.237,97.327,98.003z"/>
					<path fill="#BE86B2" d="M98.064,103.237c-0.207,1.195-0.468,4.635-0.967,3.728c-0.368-2.603,0.151-4.128,0.229-6.959
						c-0.403,2.272-1.344,6.137-0.491,10.36l0.201-1.166c0.799,2.99,1.574,13.777,1.374,14.952
						C98.426,116.395,98.392,110.862,98.064,103.237z"/>
					<path fill="#BE86B2" d="M102.703,120.232l2.025-4.158l-0.685-7.49l-0.113,4.481
						C102.929,111.271,102.959,116.792,102.703,120.232z"/>
					<polygon fill="#BE86B2" points="111.961,147.43 111.384,156.517 112.93,143.713 					"/>
					<polygon fill="#BE86B2" points="114.435,146.425 114.059,154.337 114.874,149.588 					"/>
					<path fill="#BE86B2" d="M255.331,53.246l0.632-2.225C255.677,51.705,255.483,52.45,255.331,53.246z"/>
					<path fill="#BE86B2" d="M251.366,52.565l-0.238,3.891C251.39,54.315,251.523,52.737,251.366,52.565z"/>
					<path fill="#BE86B2" d="M174.245,147.695c0.535,7.417,1.017,18.907,1.241,10.003l0.067-8.675
						C174.937,150.555,174.542,149.573,174.245,147.695z"/>
					<path fill="#BE86B2" d="M217.055,97.401c-0.045-0.857-0.092-1.756-0.139-2.644c-0.302,2.969-0.584,5.75-0.841,8.275
						C216.371,101.332,216.705,99.414,217.055,97.401z"/>
					<path fill="#BE86B2" d="M218.917,61.537l0.855,5.63C219.604,65.207,219.332,63.331,218.917,61.537z"/>
					<path fill="#BE86B2" d="M277.425,44.839l0.961-8.809C277.379,36.042,277.661,40.508,277.425,44.839z"/>
					<path fill="#BE86B2" d="M139.479,144.134c0.57,3.412,1.069,4.856,1.538,5.294C140.362,144.42,139.96,136.92,139.479,144.134z"
						/>
					<path fill="#BE86B2" d="M250.44,145.21c0.394-1.56,0.601-3.32,0.661-5.253C250.701,141.428,250.445,143.079,250.44,145.21z"/>
					<path fill="#BE86B2" d="M143.015,149.47c-0.09-0.872-0.194-1.316-0.292-2.053c-0.558,1.437-1.109,2.589-1.707,2.011
						C141.498,153.158,142.12,155.467,143.015,149.47z"/>
					<path fill="#BE86B2" d="M356.086,54.872c0.044,0.393,0.105,0.581,0.142,1.041C356.287,54.742,356.21,54.671,356.086,54.872z"/>
					<path fill="#BE86B2" d="M375.919,143.203c-0.246,0.529-0.616,0.525-0.969,0.63
						C375.099,144.435,375.386,144.387,375.919,143.203z"/>
					<path fill="#BE86B2" d="M124.091,150.565C123.555,151.112,123.975,151.519,124.091,150.565L124.091,150.565z"/>
					<path fill="#BE86B2" d="M122.819,116.181c0.145-0.972,0.273-2.208,0.358-4.209C123.06,114.059,122.94,115.384,122.819,116.181z
						"/>
					<path fill="#BE86B2" d="M150.106,95.687c0.015,0,0.026,0.03,0.043,0.031C150.057,94.014,150.072,94.337,150.106,95.687z"/>
					<path fill="#BE86B2" d="M123.457,146.595c0.155,1.07,0.347,1.967,0.567,2.6C123.941,148.518,123.771,147.671,123.457,146.595z"
						/>
					<path fill="#BE86B2" d="M123.414,150.697c-0.164-0.396-0.296-0.616-0.421-0.855C122.875,151.283,122.9,152.193,123.414,150.697
						z"/>
					<path fill="#BE86B2" d="M124.828,150.123c-0.3,0.126-0.561-0.294-0.804-0.929c0.081,0.59,0.105,1.079,0.067,1.371
						C124.248,150.435,124.467,150.267,124.828,150.123z"/>
					<path fill="#BE86B2" d="M312.962,76.552c0.024,0.274,0.057,0.452,0.081,0.824C313.693,73.793,313.444,74.361,312.962,76.552z"
						/>
					<path fill="#BE86B2" d="M190.933,58.132c-0.027,0.087-0.048,0.311-0.074,0.417c0.021,0.096,0.047,0.217,0.066,0.305
						L190.933,58.132z"/>
					<path fill="#BE86B2" d="M193.02,51.739c-1.179,10.765-1.581,9.421-2.096,7.116l-0.29,25.025L193.02,51.739z"/>
					<path fill="#BE86B2" d="M264.962,51.092l-1.021-7.835c2.035-12.767,3.012-8.305,2.185-19.309
						c-1.165,27.144-5.162,2.599-6.322,29.713l-0.652-5.74c0.236,0.272,0.334-1.327,0.567-1.044
						c-1.2-13.06-1.949,19.581-3.96,15.639c-0.675-2.106-1.055-6.067-0.428-9.27l-1.913,6.654c-0.467-0.545-0.178-5.254,0.288-4.72
						l-2.626,2.075l0.048-0.799c-0.518,4.251-1.579,10.799-2.082,13.586c-0.506-3.917,0.429-2.867,0.385-6.26l-1.648,6.527
						c-0.32-7.057,1.095-13.837,2.033-12.796c-0.339-27.149-1.417,6.789-3.688-9.143l1.456-3.397
						c-0.302-15.431-1.543-9.886-2.703-19.543c0.176,5.029,2.141,24.302,0.366,31.01c-0.357-2.065-0.891-3.062-1.914,2.374
						c0.341-9.652-0.551-7.31-1.58-6.8l0.531-12.782c-1.224,3.649-1.373,10.162-2.223,15.897c-1.17-1.303-1.064-11.218-1.049-19.572
						c-1.874-2.1,0.771,15.927-1.621,18.254c-1.443-4.948-2.769,0.232-4.982,7.813c-0.975-4.442,0.48-7.81,0.206-11.484
						l-1.373,10.162c-0.237-0.253-0.044-3.383,0.053-4.962c-0.989,3.922-0.531,12.772-1.987,16.199
						c-0.868,14.07-1.989-20.681-4.214-4.745c-0.275-3.645,0.479-7.83,0.533-12.782c-2.639,10.409-2.212,7.552-4.578,21.606
						l-1.277-8.45c0.814,9.645-1.08,20.951-2.717,30.234c0.245,4.65,0.45,8.723,0.617,10.664l-2.322,6.786
						c-0.175-2.107,0.193-6.492,0.726-11.818c-0.18,1.05-0.352,2.089-0.491,3.051c-0.571-4.75,0.08-12.114,0.869-19.239
						c0.154,2.646,0.31,5.309,0.462,7.913c0.793-7.75,1.583-16.331,1.746-23.82c-0.188,1.469-0.493,2.729-0.805,3.43
						c0.21-2.103,0.364-3.983,0.348-5.264c-0.022-1.349-0.341,1.473-0.797,4.72l0.043-14.265l-0.319,5.656l-2.392-9.018
						c-2.46,14.276-4.912,35.334-8.206,41.107c1.142-10.424,0.781-17.063,1.27-29.446c0.368,13.137,2.588-5.486,4.089-2.765
						c-0.784-1.406-0.387-7.304-0.101-9.355l-3.279,11.823c0.43-10.128-0.331-7.615-0.924-11.828
						c-0.161,20.036-2.605,13.254-3.986,19.351c0.171-6.727,0.696-13.578,2.052-11.906c-1.016-15.125-2.865,23.437-3.934,10.578
						c0.351-0.153,0.5,0.888,0.759-2.523c-1.022,5.943-2.823,1.139-2.147-4.7l0.35-0.125c-2.207-2.454-6.974-0.398-7.93,16.59
						c0.057-2.196,1.041-20.483,1.303-23.914l-6.156,57.051c0.888-14.587,0.76-49.409,2.959-57.587
						c-0.471-2.099-1.058-4.553-2.395,0.559c0.297,2.092,0.166,21.143-0.391,22.461c-0.81-16.31-0.656-8.731-1.877-22.651
						c0.445,3.153-1.002,26.025-1.857,25.262c0.261-3.42,0.743-22.605,1.151-24.975l-3.007,22.396
						c0.694-4.03,0.785-19.046,0.523-25.417c0.069,4.41-1.883-0.479-2.549,1.726l0.742,5.245c-2.356-3.486-3.59,31.522-6.006,30.252
						c0.465-4.634,1.767-28.548,0.619-31.424c-0.989,11.495-4.537,55.282-7.033,64.065l-0.18-6.593l-1.94,7.435
						c1.665-17.285,5.898-53.63,8.003-67.753c-0.739-5.245,0.022-7.768-1.389-7.223c-0.268-6.186,1.095-9.332,1.517-9.678
						l-3.09-4.099c-0.342,13.454-2.96,13.389-3.241,24.587l4.016-13.8c-0.342,13.415-3.409,38.066-5.614,35.612
						c-0.39-5.369,1.3-23.904,1.414-28.386c-0.464,4.615-2.494,8.754-2.586,5.467l1.231-7.147
						c-1.093-5.102-2.725,17.735-3.795,4.856c-0.499-0.878-0.955-17.36-1.334-9.41c0.309,15.363-1.235,62.799-2.226,74.294
						c-0.148-1.041-2.249-14.759-2.58-22.354c-0.438-12.055,2.343-28.606,1.974-38.958c-0.164,3.668-0.809,8.179-1.063,9.626
						c-0.442-3.153,0.641-11.361-0.626-9.746c-0.693,13.617-2.415-1.24-0.987,11.495c-1.322,3.852-1.154-2.846-2.563-2.301
						c0.124,8.819-2.327,29.916-3.651,33.757c0.195-3.462,0.092-7.98,0.038-10.044c-2.377-1.317-3.453-7.551-5.707-7.75
						c-0.089-3.306-1.034-7.337-0.358-13.186c-0.412,2.399-0.877,7.004-1.585,7.311c-0.922-11.828,1.619-1.779,1.103-15.967
						c-0.374,7.912-2.195,10.855-3.366,15.768c-0.137,12.239,2.207,2.425,3.379-2.477c-0.604,16.864-2.972,34.465-5.613,42.178
						c-2.026,4.119-0.419-10.931-0.832-8.541c-3.416-3.075-4.064,29.345-6.55,17.069c-0.773-10.787,0.72-21.385,0.742-29.143
						c1.675-4.015,2.099,6.906,3.15,6.515l-1.091-5.131c0.615-3.555,1.732-6.231,2.176-3.098c-0.624-9.687-5.884-2.069-8.28-11.077
						c-0.613,3.583-1.582,7.281-1.343,11.619l0.915-1.472c0.478,8.694-2.051,11.926-1.109,16.005
						c-1.374,6.059-3.013,15.585-4.459,10.628l0.137-12.269c-0.094,3.583,0.798,7.338,1.39,3.616
						c-0.874,5.412-1.892-16.671-3.213-0.653l0.832,8.532c-1.38,6.116-3.282,19.073-4.582,15.156
						c0.218,12.126,0.381-1.373,0.893,12.824c-0.25-17.647,3.655,0.875,2.899-17.69c0.456,16.473,1.564,7.034,2.43,21.098
						c0.104-4.042-0.207-7.747,0.93-5.712c0.097-1.179,0.28-2.678,0.394-3.553c0.033,0.108,0.043,0.178,0.071,0.306
						c-0.018-0.173-0.032-0.309-0.049-0.48c0.074-0.604,0.083-0.73-0.019-0.167c-0.224-1.777-0.38-3.913-0.394-6.171
						c0.935-9.259,2.846-8.897,3.668-13.675c0.647,1.948-0.467,4.624-0.231,8.952l1.23-7.147c-0.228,8.981,1.366,14.98-0.513,20.18
						l1.506,0.455c0.713,5.068,1.872,7.113,2.768,3.364c0.646,1.968,2.169-9.87,1.291-2.865l2.585-5.478l-0.059,2.246
						c2.312,1.217,5.379-14.688,7.483,1.608c0.874-2.235,1.792-4.978,3.025-2.382l-0.022,7.777c1.115-2.677,2.772,7.879,3.501-0.196
						c0.343,20.935,4.77,4.736,6.424,8.509l0.434-10.137c1.21,0.62,2.495-2.217,4.169-6.231l0.229-8.962
						c1.583-7.311,3.156,6.495,5.273,5.653c-0.265,3.42-0.761,2.503-1.061,0.421c1.758,20.33,5.784-14.537,7.509,0.29
						c0.68-3.239,1.047-2.111,1.36,0.157c-0.053,0.018-0.106,0.182-0.156,0.463c0.054,0.109,0.138,0.132,0.227,0.116
						c0.192,1.551,0.383,3.355,0.609,4.8c-0.157-2.185-0.318-3.988-0.484-4.825c0.44-0.169,1.139-1.258,1.865-3.479l-0.073,9.633
						c0.057-0.125,0.099-0.104,0.159-0.269c0.504,3.575,0.673-4.539,0.597-11.792c0.382-1.569,0.748-3.462,1.063-5.776
						c-0.047,15.556,1.881-5.17,1.984,11.427c0.726-8.065,3.462-5.963,4.419-22.951c-0.058,2.216,0.094,3.277-0.259,3.401
						c0.649,1.968,1.298,3.926,2.116-0.843l-0.137,12.249l2.165-16.397c0.685,7.491,0.923,11.838-0.364,21.222
						c2.81-14.4,2.052-5.389,4.516-19.674l-0.38,7.911c0.706-0.277,2.2-10.836,2.383-4.282c1.012,15.096,7.62,2.357,11.107,16.477
						c0.067-23.323,1.479,10.509,2.289-7.54c0.034,5.513,0.478,8.646-0.342,13.415c2.233-5.343,2.745,8.845,4.702-6.329
						c0.033,5.542-0.728,8.065-0.638,11.342c0.207-1.185,0.82-4.769,0.913-1.472c0.089,3.286-0.465,4.615-0.875,7.004
						c2.115-0.852,2.938-17.825,3.666-33.757c0.782,7.582,1.347,6.537,2.486-3.887c0.179,5.225,0.594,10.702-0.766,12.529
						c0.7,0.787,4.168,7.802,4.704-4.971c0.111,3.248,0.982,0.983,1.227-0.483c1.605,0.82,1.707,1.978,3.354,0.825l-0.369-2.104
						c1.189-15.388,1.457-3.388,2.816-5.195l-0.094,1.58c2.562,11.223,1.472-5.282,3.937,7.51l0.187-9.589
						c1.017-20.611,2.151,12.253,4.132,4.429l-0.415-5.497c1.182-7.022,1.578,28.132,2.415,30.742
						c0.138,1.803-0.424,2.867-0.755,4.185c1.997,12.248,0.769-12.549,2.69-15.401c0.09,6.785-1.054,17.21,0.123,18.513
						c0.411,5.507,4.338-21.859,5.536-8.81c-0.179-5.234-0.355-10.459,0.63-14.353c1.359-1.817,2.781,19.86,4.543,3.448
						c0.113,1.431,0.125,2.799,0.085,4.098c1.141-4.21,3.465-6.94,4.383-15.839c-0.283,33.146,6.724-15.881,5.599,14.655l3.098-1.53
						l-0.192,3.12c1.87,2.091,2.821-5.204,3.769-12.509c0.374,2.095-0.057,4.933-0.152,6.532c2.616,6.261,2.945,4.973,5.874-10.156
						l-0.11,9.915c0.853-5.735,3.542,15.685,6.744,4.23c-0.068,1.121-0.195,3.041-0.466,4.429c3.552-11.51,6.505,27.753,8.956-8.285
						l2.388-8.816c-2.573-2.897,0.963-15.64,0.08-21.671c1.128-2.08,2.326,10.979,0.967,12.787l-0.137-1.813
						c-1.154,18.789,3.082,6.785,2.548,19.587c5.295-0.737,10.047,9.861,14.947,10.839l-0.039-14.64l1.688,0.901
						c0.328,3.423,0.192,11.46-1.012,10.811c0.346,8.309,2.308-6.864,2.457-10.045c2.188,6.011-1.554,17.016-0.83,17.394l1.04-1.057
						l-0.164-1.716c1.026-5.943,1.327-12.275,2.775-11.499c0.826,2.961,0.152,9.034,0.499,9.613
						c-0.039,1.035,0.067,1.527,0.548,0.44l2.121,1.327l-0.449-11.576c1.166-5.655,2.015,0.679,1.488-12.435
						c0.738,20.215,7.817,7.532,8.492,13.821c1.648-8.364,2.971-8.17,4.578-7.096c-0.322-2.415-0.098-15.404,1.263-13.762
						c-1.485,26.761,2.177,11.717,2.628,31.022c-0.563-12.812,4.145-3.006,3.193-21.207c1.104,2.21-0.291,10.025,0.38,16.362
						c3.19-10.272,5.963,6.968,9.57,3.59c0.182-3.511-0.207-8.909,0.728-14.113l1.204,17.643c0.75-1.702,1.365-20.267,2.181-8.022
						c-0.07-2.963-0.174-7.433,0.327-8.538c6.201,17.373,14.442-13.531,20.206,18.905c-0.692-6.846-0.042-7.497,0.683-7.725
						c-0.406-1.646,0.324-8.686,0.405-13.451l2.421,13.338c1.007-13.204,3.142-0.785,3.9-13.412l-1,2.24
						c1.76-14.878-0.512-33.224,0.358-52.365c-1.979,16.913-2.697-25.25-5.817-1.05c-0.354-3.922,0.645-6.153,0.54-10.603
						c-0.864,8.187-1.613,9.87-2.753,6.145l0.218-2.025c-3.647,1.872-4.889-6.274-8.71-11.806l-0.045,9.477
						c-0.817-1.3-0.892-4.273-1.21-6.659c-1.509,14.32,2.395,0.897,0.921,16.694c-0.449-19.306-6.076-0.512-6.059-22.43
						c-1.324-0.166-0.007,10.974-1.33,10.799l-0.138-5.937l-0.611,7.62c-0.825-1.291-0.996-8.714-0.848-13.731
						c0.189,0.603,0.651-1.384,0.893-1.805c-0.877-7.019-3.269,2.267-3.574-0.021l1.145,3.696
						c-3.824,5.413-7.968-2.525-11.903,9.391l0.104,4.479c-2.972,8.169-1.964-4.986-5.037-1.267l0.146-1.06
						c-0.748,4.429-1.614,6.646-2.398,6.109c0.93-5.204-1.027-10.219,0.153-15.972c-3.219,8.767-1.686,6.917-4.199,23.448
						l-0.174-7.423c-0.895,6.681-1.077,10.212-2.612,12.082c1.433-6.319-0.528-11.325,1.123-19.689
						c-2.491-16.321-5.159,16.201-5.714-7.555c-2.153,20.463,2.251,11.485,1.301,15.848c0.42,6.729-1.72,15.29-2.61,13.196
						c-0.966-0.494-0.724-26.303-3.209-26.002c0.242,0.106,0.315-1.445,0.558-1.348c-0.736-5.264-2.068,7.02-2.896-1.521
						c-1.084,12.381-1.447-0.766-2.202,15.047l2.399-3.578c-1.435,4.091-3.309,22.562-5.102,13.506
						c0.28-3.186,1.062-7.359,1.579-9.686c-0.451-4.688-1.305,3.05-1.773-1.765c0.756-15.833,2.881-3.345,4.693-15.368
						c-0.423-6.709-3.02,11.373-1.708-5.749c-1.782,21.766-2.336-2.84-4.611,13.749l0.453-9.482
						c-0.318,1.484-1.029,5.943-1.508,5.682l1.326-12.265c-1.733,10.442-2.281-9.268-3.787-3.606
						c2.732-0.194,0.198,11.45,1.1,18.411c-3.816,12.576-1.035-24.878-4.958-20.466c0.557-1.318,1.705,5.769,0.75,10.131
						c-0.645-1.978-1.458-5.652-1.718-10.645c-2.561,1.881,0.03,9.773-1.24,15.561c-0.431-11.585-1.393,4.66-2.618,8.319l0.34-9.643
						c-2.614-6.29-1.478,20.067-3.762,12.5l1.562-13.332l-1.456,3.407l0.671-10.959c-1.743,8.087-2.118,5.963-3.427,2.837
						c0.085,6.804-0.817,17.492-2.085,17.749c-0.65-5.759,0.811-9.146-1.02-7.835c0.62-6.017,1.333-13.574,1.788-4.665
						c0.193-3.14,0.615-6.036,0.809-9.137c-0.685-6.621-2.265-1.587-2.914-1.522c0.235,0.37,0.514,0.898,0.616,2.279l-3.065,13.267
						c-0.276-3.635,0.151-6.532,0.574-9.37c-0.561,1.025-1.083,5.443-1.882,6.245c0.482-7.83,0.727-15.922,1.949-19.572
						l-2.774,8.607c-0.042-3.412-0.925-9.405-0.501-12.282c-1.198-4.655-3.896,15.084-5.485,8.939
						c-0.148,1.519-0.39,2.966-0.815,4.075c-1.635-1.837-2.794-11.505-5.197-0.833l-0.635-14.095
						c-1.693,3.134,0.908,17.759-1.911,22.964c-2.021,4.412-0.261-12.01-0.772-15.947c-1.181,7.052-3.31,21.408-4.605,9.909
						C264.027,50.022,264.396,52.118,264.962,51.092z M245.278,56.616c0.45-2.006,1.427-8.225,1.498-2.525
						C245.947,65.122,245.806,59.821,245.278,56.616z M214.859,78.765c0.396-3.181,0.772-1.584,1.129,2.083
						C215.605,81.626,215.216,81.25,214.859,78.765z M130.033,142.923c0.021-0.178,0.037-0.305,0.057-0.467
						C130.795,146.244,130.551,144.75,130.033,142.923z M128.438,138.674c-0.224,1.34-0.26,2.678-0.235,4.027
						c0.21-2.436,0.608-2.588,1.03-1.889C129.2,138.28,129.038,136.525,128.438,138.674z M316.132,141.65l-0.249-2.54
						C316.751,136.366,316.445,138.867,316.132,141.65z"/>
					<path fill="#BE86B2" d="M218.69,65.691c0.048,1.634,0.012,3.431-0.028,5.247C218.869,69.323,218.939,67.45,218.69,65.691z"/>
					<path fill="#BE86B2" d="M277.247,46.464c0.017,0.079,0.038,0.05,0.055,0.109c0.054-0.575,0.092-1.16,0.123-1.735
						L277.247,46.464z"/>
					<path fill="#BE86B2" d="M158.444,57.897c0.31,1.399,0.447,3.172,0.514,5.002C159.063,60.538,158.971,58.542,158.444,57.897z"/>
					<path fill="#BE86B2" d="M118.591,154.725l1.209-2.468c-0.559,0.459-0.676-1.656-0.894-3.198
						C118.85,151.314,118.946,154.581,118.591,154.725z"/>
					<path fill="#BE86B2" d="M111.035,94.706c-0.206,1.175-0.351,0.114-0.556,1.309l-0.117,4.481
						C111.069,100.229,111.687,96.635,111.035,94.706z"/>
					<path fill="#BE86B2" d="M118.712,122.647c0.205-8.112-0.597-5.386-1.435-3.911c0.048-0.027,0.095-0.095,0.139,0.005
						C116.775,130.083,117.746,126.355,118.712,122.647z"/>
					<path fill="#BE86B2" d="M117.086,119.003c-0.255,0.372-0.51,0.577-0.732,0.179
						C116.098,123.727,116.613,120.139,117.086,119.003z"/>
					<path fill="#BE86B2" d="M126.028,143.971c-0.296-2.102-0.607,10.356-0.699,7.05
						C124.542,161.331,128.258,138.618,126.028,143.971z"/>
					<polygon fill="#BE86B2" points="119.042,95.904 118.962,105.928 119.692,97.872 					"/>
					<path fill="#BE86B2" d="M124.965,103.477l-1.152-2.817c-0.042,1.68-0.236,2.659-0.458,3.404
						C124.113,104.423,124.887,106.444,124.965,103.477z"/>
					<path fill="#BE86B2" d="M123.354,104.063c-0.395-0.21-0.785-0.009-1.068,1.622
						C122.507,105.586,122.987,105.271,123.354,104.063z"/>
					<polygon fill="#BE86B2" points="120.863,92.96 121.158,95.062 122.016,95.826 					"/>
					<path fill="#BE86B2" d="M138.356,105.895l1.47-2.819c0.264-3.431-0.033-5.542-0.591-4.194
						C138.821,101.26,138.266,102.569,138.356,105.895z"/>
					<path fill="#BE86B2" d="M135.213,78.322c0.294,2.092,0.238,4.328,0.328,7.634l0.49-12.413L135.213,78.322z"/>
					<path fill="#BE86B2" d="M139.303,75.567c0.261-3.44,2.34-9.814,0.58-9.096C139.622,69.882,138.149,72.692,139.303,75.567z"/>
					<polygon fill="#BE86B2" points="159.328,92.014 158.975,92.157 158.29,112.517 					"/>
					<path fill="#BE86B2" d="M179.236,43.97c-1.443-4.938-0.838,12.546-2.082,6.404c-0.554,4.797,1.017,5.011,0.477,9.154
						C178.792,54.489,179.201,57.376,179.236,43.97z"/>
					<path fill="#BE86B2" d="M177.631,59.528c-0.186,0.795-0.387,1.765-0.611,3.076C177.349,61.345,177.518,60.374,177.631,59.528z"
						/>
					<polygon fill="#BE86B2" points="379.339,154.271 380.228,158.555 379.802,151.689 					"/>
					<path fill="#BE86B2" d="M381.884,139.246l-0.224,12.979l1.05-11.718C382.453,141.074,381.956,142.181,381.884,139.246z"/>
					<path fill="#BE86B2" d="M243.329,30.376l-0.192,3.12c0.039,3.383,0.274,3.646,0.743,4.19L243.329,30.376z"/>
					<polygon fill="#BE86B2" points="257.102,40.597 256.868,40.324 256.899,52.071 					"/>
					<path fill="#BE86B2" d="M269.496,26.064c-0.466-0.505-1.129,2.089-1.597,1.574C269.029,25.559,269.098,40.698,269.496,26.064z"
						/>
				</g>
			</g>
		</g>
	</g>
</g>
</svg>
