<?xml version="1.0" encoding="utf-8"?>
<!-- Generator: Adobe Illustrator 16.0.3, SVG Export Plug-In . SVG Version: 6.00 Build 0)  -->
<!DOCTYPE svg PUBLIC "-//W3C//DTD SVG 1.1//EN" "http://www.w3.org/Graphics/SVG/1.1/DTD/svg11.dtd">
<svg version="1.1" id="Layer_1" xmlns="http://www.w3.org/2000/svg" xmlns:xlink="http://www.w3.org/1999/xlink" x="0px" y="0px"
	 width="600px" height="600px" viewBox="0 0 600 600" enable-background="new 0 0 600 600" xml:space="preserve">
<g>
	<g>
		<g>
			<g>
				<g>
					<path d="M455.797,452.424c-1.36,1.137,0.908,2.39,1.058,2.891C458.454,452.783,455.268,452.033,455.797,452.424z"/>
					<polygon points="471.418,427.309 471.817,428.384 472.897,423.54 					"/>
					<path d="M489.963,407.494c-4.882-1.046-6.202,7.662-10.613,10.159l-1.258-0.082l1.032,3.944
						C482.733,416.847,486.267,409.704,489.963,407.494z"/>
					<path d="M506.607,403.23c-1.828-0.484,1.085-3.269-2.684,2.112c0.356-0.116,0.498-0.113,0.726-0.159
						C505.029,404.737,505.584,404.151,506.607,403.23z"/>
					<path d="M504.649,405.184C502.788,407.355,506.949,404.771,504.649,405.184L504.649,405.184z"/>
					<path d="M512.954,394.879l-1.479,3.769c1.256,0.097,3.705-2.203,3.378-0.805C516.892,394.463,515.634,394.377,512.954,394.879z
						"/>
					<path d="M513.103,390.137l-0.87,1.856C512.768,392.025,513.225,391.745,513.103,390.137z"/>
					<path d="M510.383,395.926l1.85-3.933c-0.878-0.073-1.932-0.979-0.944,1.717C510.592,392.598,510.925,394.026,510.383,395.926z"
						/>
					<path d="M508.308,397.193c-2.121,0.908-4.411,2.505-2.918-1.271C500.908,401.592,503.835,402.869,508.308,397.193z"/>
					<path d="M487.669,403.459l-2.843,1.21l-0.616,2.765C484.521,406.057,488.77,404.246,487.669,403.459z"/>
					<path d="M530.571,379.242c-0.506-0.794-2.639-0.731-3.684-1.321l-1.132,2.747C527.188,380.048,529.455,378.459,530.571,379.242
						z"/>
					<path d="M526.888,377.921l1.694-4.109C525.912,376.402,525.992,377.407,526.888,377.921z"/>
					<polygon points="510.083,386.402 507.825,393.643 510.949,385.409 					"/>
					<polygon points="541.494,367.699 541.428,370.862 541.962,365.616 					"/>
					<path d="M548.412,359.74c0.088,2.467,3.795,0.266,3.322,2.349c1.724-2.309,2.295-5.119,2.811-7.647
						C553.5,356.665,551.658,358.356,548.412,359.74z"/>
					<path d="M555.628,350.397c-0.49,1.14-0.768,2.537-1.083,4.044C555.097,353.257,555.506,351.967,555.628,350.397z"/>
					<path d="M533.746,368.936c0.622,0.141,2.099,0.671,4.136-0.619l-2.99-0.553C534.542,368.121,534.147,368.525,533.746,368.936z"
						/>
					<path d="M534.792,367.75l0.1,0.014c1.252-1.261,2.134-2.121,2.516-2.487C537.077,365.589,536.29,366.333,534.792,367.75z"/>
					<path d="M533.455,369.23c0.107-0.108,0.186-0.188,0.291-0.295C533.454,368.88,533.327,368.891,533.455,369.23z"/>
					<path d="M519.22,380.009c0.619-2.765,2.971-7.54-1.992-5.424C517.315,377.063,520.151,375.849,519.22,380.009z"/>
					<path d="M529.726,368.529l-3.442,2.832c0.554,0.398,1.82,0.489,1.515,1.86L529.726,368.529z"/>
					<polygon points="530.606,366.392 529.726,368.529 531.002,367.479 					"/>
					<path d="M548.71,354.297c0.485-2.157,1.842-3.749,3.319-5.596c-2.092,1.505-4.074,3.23-5.763,5.05
						C546.616,354.557,546.929,356.339,548.71,354.297z"/>
					<path d="M541.782,360.681c0.047-0.136,0.141-0.28,0.183-0.41C541.628,360.313,541.434,360.419,541.782,360.681z"/>
					<path d="M567.882,331.731c-0.19-0.002-0.396-0.04-0.595-0.045c0.09,0.123,0.181,0.235,0.265,0.364L567.882,331.731z"/>
					<path d="M545.627,353.736c-1.657,1.051-1.974,2.31-2.133,3.641c0.779-1.215,1.686-2.431,2.772-3.626
						C546.108,353.388,545.952,353.203,545.627,353.736z"/>
					<path d="M559.171,344.842c-1.067,0.358-2.165,0.869-3.275,1.446C557.148,346.134,559.421,345.554,559.171,344.842z"/>
					<path d="M542.919,360.286c-0.034,0.098-0.059,0.192-0.11,0.286C543.637,360.492,543.387,360.365,542.919,360.286z"/>
					<path d="M542.919,360.286c0.397-0.968,0.46-1.961,0.575-2.909c-0.642,0.983-1.172,1.956-1.529,2.894
						C542.258,360.223,542.619,360.238,542.919,360.286z"/>
					<path d="M560.645,315.359c1.509,1.866-0.292,7.019-5.098,8.434c-1.592,4.318,6.017,7.621,11.74,7.894
						c-0.669-0.804-1.369-1.458,0.583-5.608c-1.992,0.233-8.829,5.016-7.888,0.854c3.05-5.065,3.848-2.893,6.685-4.092
						c-1.897-0.136-1.431-2.217-0.994-4.519c0.269-1.206,0.571-2.512,0.433-3.514c-0.12-1.021-0.637-1.789-1.74-2.2
						c0,0-0.527,1.126-1.054,2.252c-0.579,1.183-1.158,2.365-1.158,2.365C561.594,316.834,562.058,314.751,560.645,315.359z"/>
					<path d="M561.434,337.605l-1.012,1.514c1.702-1.215,3.396-1.64,6.599-2.345c1.19-2.979,0.969-4.033,0.531-4.724l-6.278,6.246
						L561.434,337.605z"/>
					<path d="M554.928,345.027c-0.936-2.79,1.205-6.695-2.644-6.671c-3.467,3.979-0.941,4.175-2.271,7.244
						c5.336-6.661-0.615,2.77,4.652-0.727c-0.819,1.523-1.747,2.715-2.637,3.827c1.274-0.906,2.567-1.722,3.866-2.413
						c-0.096,0.017-0.165,0.026-0.251,0.032l-0.021,0.035c-0.013-0.012-0.011-0.021-0.023-0.034
						c-0.486,0.049-0.712,0.003-0.293-0.171c-0.004-0.043,0.058-0.127,0.083-0.166c-0.225-0.288-0.347-0.617-0.451-0.946
						c2.07-1.439,0.755,0.174,0.451,0.946c0.072,0.106,0.115,0.237,0.21,0.337c0.017,0.004,0.03,0.002,0.045-0.001l4.777-7.201
						C558.93,340.195,557.443,341.896,554.928,345.027z"/>
					<path d="M516.264,367.466c0.347-0.037,0.475,0.098,0.625,0.211C517.033,367.058,517.018,366.757,516.264,367.466z"/>
					<path d="M519.797,365.967c-0.159,0.699,0.245,1.782-1.324,3.073c-1.76,0.749-0.9-0.852-1.584-1.363
						c-0.326,1.354-1.542,4.372,1.974,2.445l0.154-0.681c2.989-1.904,8.356-2.93,8.207-2.249
						C524.84,366.338,523.023,365.854,519.797,365.967z"/>
					<path d="M537.048,354.868l3.914-6.057l-4.103,1.117l1.108,0.783C534.828,353.305,536.634,353.796,537.048,354.868z"/>
					<polygon points="569.376,332.015 570.731,334.565 570.708,328.937 					"/>
					<path d="M576.082,324.345c0,0,0.36,0.484,0.721,0.969c0.354,0.49,0.709,0.981,0.709,0.981s0.444-1.002,0.889-2.003
						c0.419-0.975,0.837-1.948,0.837-1.948L576.082,324.345z"/>
					<path d="M238.894,381.573l-1.003,1.949C238.444,382.679,238.734,382.072,238.894,381.573z"/>
					<path d="M249.712,371.035l-0.563-1.09C249.108,370.896,249.239,371.435,249.712,371.035z"/>
					<path d="M432.754,147.445c-2.092,0.518-4.605,1.024-6.464,1.741c-1.854,0.713-2.956,1.538-2.062,2.532c0,0,0.61,0.31,1.2,0.641
						c0.592,0.329,1.163,0.678,1.163,0.678C428.891,150.092,430.981,148.419,432.754,147.445z"/>
					<path d="M327.678,273.95c0.387-0.021,0.79-0.044,1.188-0.067c-0.108-1.154-0.211-2.241-0.303-3.212
						C328.313,271.672,328.003,272.783,327.678,273.95z"/>
					<path d="M333.758,283.097l-4.023,1.636C330.786,284.513,332.094,284,333.758,283.097z"/>
					<path d="M180.132,443.95c0,0-0.393,1.326-0.786,2.652c-0.442,1.375-0.884,2.75-0.884,2.75
						C183.453,444.365,180.473,445.446,180.132,443.95z"/>
					<path d="M537.839,235.75c-1.039-2.614-2.145-4.434-3.3-5.864C535.594,233.218,535.682,236.612,537.839,235.75z"/>
					<path d="M223.62,357.802c-0.572,1.235-0.585,1.996-0.149,2.381C224.088,358.939,224.263,358.063,223.62,357.802z"/>
					<path d="M529.383,224.341c0.123,0.516,0.334,0.938,0.493,1.432c1.624,1.108,3.193,2.283,4.663,4.113
						C533.769,227.419,532.454,224.994,529.383,224.341z"/>
					<path d="M69.081,228.824c0.234-0.08,0.453-0.233,0.688-0.285C69.557,228.251,69.337,228.458,69.081,228.824z"/>
					<path d="M147.621,182.827c-0.465,0.738-1.416,1.767-2.289,2.758C145.9,185.235,146.622,184.433,147.621,182.827z"/>
					<path d="M580.555,278.704C582.979,281.067,581.166,278.94,580.555,278.704L580.555,278.704z"/>
					<path d="M579.813,293.039c-0.693-0.316-1.377-0.506-2.09-0.391C578.558,292.625,579.239,292.774,579.813,293.039z"/>
					<path d="M504.25,221.075c-0.037-0.044-0.066-0.08-0.108-0.13C504.164,221.719,504.166,221.58,504.25,221.075z"/>
					<path d="M582.845,282.912c-0.522-1.033-1.244-2.202-2.138-3.441C580.994,280.077,581.643,281.147,582.845,282.912z"/>
					<path d="M583.556,281.869c0.673,0.897,1.224,1.586,1.738,2.243C586.015,284.252,586.016,283.853,583.556,281.869z"/>
					<path d="M577.281,275.382c1.327,1.37,2.438,2.749,3.426,4.089c-0.287-0.568-0.349-0.85-0.152-0.767
						C579.854,278.008,578.87,277.027,577.281,275.382z"/>
					<path d="M69.383,361.648c-0.028-0.15-0.091-0.296-0.106-0.475C67.14,360.468,67.857,360.983,69.383,361.648z"/>
					<path d="M409.672,208.556c0.047-0.083,0.033-0.166,0.07-0.247c-0.086,0.044-0.192,0.1-0.27,0.14L409.672,208.556z"/>
					<path d="M406.06,214.888c-0.165-4.408,1.322-5.326,3.413-6.439l-6.942-3.681L406.06,214.888z"/>
					<path d="M213.793,407.613l5.147-1.824c-1.507,6.931-5.498,9.03,0.108,8.094c-5.255-6.27,13.007-14.124,7.75-20.378l3.516-1.081
						c-0.717,0.602-0.484,1.048-1.194,1.64c7.237-1.697-0.825-7.491,5.772-12.42c2.454-1.562,4.694-2.121,4.003-0.07l3.065-5.894
						c1.417-1.188,2.096,0.134,0.687,1.316l6.385-7.271l0.119,0.221c0.073-1.879,0.893-5.481,1.38-7.152
						c2.563-0.901-0.263,1.481,0.899,1.759l2.396-5.171c3.034-0.039,1.338,4.538-1.493,6.929c9.278,2.245,1.698-4.583,12.687-8.815
						l-2.848,4.294c5.568,0.981,7.178-2.986,13.257-4.969c-2.022-0.112-13.222,2.913-10.542-2.619
						c1.593-0.718,3.327-2.03,4.389-5.401c2.064,2.033,3.728-0.627,6.323-3.441l2.522,2.904c2.149-3.702,0.539-4.856,1.044-7.798
						c3.533-2.982,6.308-1.549,8.844-0.539c5.661-4.774-6.975,0.217-1.294-6.458c5.386-3.289,7.335-7.44,10.919-14.248
						c3.977-2.094,1.123,2.193,2.99,1.885l0.539-4.855c0.713-0.606,1.163,0.273,1.39,0.717c1.437-3.104-2.518-2.904,0.321-7.202
						c-2.018-3.956,11.699-2.926,12.737-10.734c1.859-0.313,1.133,2.192,2.514,2.913c3.85-8.274,3.591-6.802,5.585-14.768
						l6.024-2.44c-5.153,1.062-3.573-5.323-2.057-10.784c-2.088,0.115-3.894,0.192-4.938,0.413l4.12-7.006
						c1.117-0.224,1.486,1.27,1.703,3.314c0.157-0.603,0.296-1.184,0.372-1.668c2.994-0.979,3.523,1.62,3.608,4.561
						c-1.213,0.14-2.456,0.237-3.678,0.32c0.269,3.023,0.802,6.134,2.674,7.441c0.05-0.674,0.479-1.638,1.095-2.553
						c0.086,0.807,0.255,1.437,0.692,1.542c0.475,0.098,0.457-1.083,0.678-2.683l4.284,1.771l-0.892-1.51l9.181-5.358
						c2.179-8.245,2.244-17.254,9.277-26.747c0.159,4.269,3.173,4.071,5.684,6.817c-5.035-0.54-5.232,7.568-10.088,11.272
						c2.531-1.936,3.289-0.189,3.155,0.815l5.128-10.154c1.973,2.327,3.233-0.002,6.119-1.101c-5.75-2.755,2.882-8.514,4.695-12.919
						c1.617,1.238,2.323,3.441-1.818,6.877c7.383-0.966,0.438-10.393,7.263-11.763c-0.892,0.958-1.611,1.236-1.254,2.327
						c0.901-3.427,7.201-7.692,7.194-5.206l-0.896,0.95c6.661-5.625,18.779-18.627,16.099-23.16
						c0.525,0.407,3.532,5.165,3.888,6.266l-1.124-23.107c2.124,4.07,13.203,7.771,9.843,14.608
						c1.906-1.017,4.234-2.306,6.235-6.479c-1.441,0.554-6.964-2.01-5.88-3.654c7.195-0.275,4.446-0.743,12.006-2.397
						c-2.162,0.825-5.345-5.704-2.82-7.907c0.354,1.097,4.983,4.613,4.621,5.982l1.139-10.652c-0.615,2.327,3.773,4.313,6.439,4.351
						c-0.772-0.164,0.524-1.411,2.151-2.871c0.813-0.73,1.709-1.514,2.471-2.243c0.463-0.446,0.523-0.512,0.669-0.694
						c0.126-0.164,0.217-0.325,0.257-0.483c0,0-0.549-0.005-1.146,0.037c-0.116-0.021-0.371,0.094-0.579,0.171
						c-0.211,0.081-0.408,0.156-0.577,0.221c-0.338,0.129-0.563,0.216-0.563,0.216c0.442-0.351,0.906-0.786,1.175-1.082
						c0.185-0.214,0.331-0.444,0.448-0.694c0.233-0.499,0.352-1.076,0.414-1.729c0.123-1.303,0.028-2.911,0.058-4.672
						c0.027-1.76,0.179-3.671,0.76-5.547c0.572-1.867,1.604-3.726,3.184-5.174c-0.267,1.249-0.229,4.237,0.266,6.675
						c0.49,2.441,1.275,4.494,2.197,4.176c0.158-2.128,0.564-6.735,2.092-12.815c1.05-2.375,2.69-4.315,4.87-5.09
						c2.158-0.797,4.862-0.421,7.484,1.238c0,0,0.154,0.893,0.309,1.785c0.132,0.868,0.264,1.735,0.264,1.735
						c0.001,0,1.63,0.93,3.376,1.984c1.793,1.105,3.585,2.209,3.585,2.209c-1.742,0.016-4.003-0.007-6.271,0.2
						c-2.275,0.2-4.55,0.642-6.492,1.403c-1.952,0.751-3.571,1.824-4.782,3.022c-1.218,1.19-2.034,2.497-2.58,3.504
						c-0.035,0.091-0.056,0.167-0.075,0.241c0.029,0.024,0.057,0.05,0.069,0.089c0.506,1.64,0.502,2.449,0.611,3.074
						c0.104,0.62,0.273,1.005,0.996,1.655c0.055,1.42-0.313,2.057-0.635,2.422c-0.333,0.354-0.656,0.397-0.807,0.314
						c0,0,0.565,1.049,1.012,1.97c0.459,0.933,0.797,1.737,0.798,1.737c0.804-2.101,1.743-2.576,2.927-2.663
						c1.149-0.124,2.512,0.106,3.624-1.166c0,0-1.993-0.61-3.531-0.732c-1.584-0.17-2.713,0.149-2.714,0.149
						c0.531-2.387,1.908-5.111,4.369-5.797c1.21-0.365,2.661-0.251,4.138,0.371c0.735,0.309,1.474,0.741,2.167,1.278
						c0.359,0.282,0.651,0.531,1.026,0.912c0.378,0.383,0.736,0.788,1.073,1.216c0.326,2.711-6.388,3.673-7.251,4.72
						c1.785-0.118,7.552,4.24,7.372,5.494l-4.087-1.234c2.177,4.577,9.287,2.147,10.418,9.025c1.175,1.646,0.266,7.923,2.252,6.553
						c1.148-5.528,11.15-15.682,15.168-16.435c0.251,0.727,3.938,10.712,3.828,13.938c-0.399,4.876-9.678,2.216-10.037,6.386
						c0.89-0.661,3.128-0.248,3.965,0.013c0.743,2.183-3.096,1.682,0.383,4.698c3.518-2.223,6.078,7.058,4.006-0.766
						c3.901,2.486,2.619,4.059,6.326,7.791c0.799-3.024,9.804-2.658,13.709-0.164c-0.941,0.514-1.249,2.173-1.37,2.951
						c5.971,6.978,7.961,11.853,13.755,18.149c-0.188,1.252,1.741,5.094-0.745,5.002c1.367,0.41,3.152,0.296,5.021,2.164
						c0.883,6.149-4.406-3.939-4.872,1.804c1.968-1.372,7.047,2.774,10.692,4.519c1.904-3.344-5.393-6.845-9.04-8.596
						c3.699-3.456,12.044-2.259,19.844,2.705c5.756,4.355-0.303,4.485,1.064,4.899c8.434,10.389,14.219,2.324,19.082,12.936
						c0.628,5.418-4.57,4.511-5.612,6.809c-4.834-3.414-4.545-7.909-7.31-10.699l2.168,4.581c-2.039-0.621-5.266-2.9-6.013-5.08
						c0.192,2.337,3.926,6.565,8.242,11.38c2.158,2.408,4.462,4.962,6.542,7.5c1.04,1.269,2.023,2.534,2.905,3.775
						c0.44,0.62,0.856,1.234,1.24,1.84c0.188,0.307,0.371,0.607,0.552,0.901c0.154,0.276,0.298,0.546,0.431,0.812
						c0.967,0.248,2.202,0.77,3.243,1.043c1.035,0.267,1.88,0.29,1.912-0.63l-2.67-2.214c-0.077-1.996,1.666-1.439,3.372-0.668
						c1.672,0.735,3.237,1.61,2.016-0.598c2.587,1.441,5.729,3.098,8.879,5.37c3.124,2.245,6.282,5.131,8.235,8.318
						c0,0-0.906,0.375-1.848,0.714c-0.938,0.342-1.909,0.646-1.909,0.646c0.657-0.082,0.521-1.034-0.188-2.201
						c-0.704-1.16-1.962-2.513-3.348-3.182c1.226,0.599,1.963,1.768,2.511,3.041c0.556,1.281,0.902,2.647,1.563,3.876
						c-2.17,1.643-3.354,3.063-1.962,4.388c0,0,1.746-0.938,3.491-1.875c1.826-1.023,3.652-2.047,3.652-2.047
						c-0.781,2.193-1.364,4.926-2.84,8.067c-1.444,3.106-3.792,6.629-7.243,9.479c2.988-0.541,3.299-1.026,3.804-1.606
						c0.261-0.3,0.584-0.638,1.384-1.091c0.804-0.459,2.071-1.021,4.331-1.886c-2.37,0.604-2.489-0.217-1.65-1.577
						c0.849-1.37,2.714-3.342,4.516-5.257c1.797-1.911,3.526-3.761,3.957-4.732c0.442-0.984-0.479-1.018-3.691,0.388
						c1.875-0.72,3.444-1.475,4.794-2.233c-0.177-1.78-1.534-3.559-2.859-5.54c-1.351-2.01-2.643-4.194-3.348-7.496
						c-1.099,0.6-0.362,3.021-5.005-2.861c-0.592-0.116-1.588-0.526-2.188-0.785c-0.127-0.185-0.162-0.252-0.262-0.416
						c0.059,0.132,0.086,0.239,0.146,0.369c-0.396-0.159-0.451-0.164,0.059,0.136c0.714,1.548,1.028,2.827,0.711,3.48
						c-2.654-0.813-5.712-3.116-8.531-5.41c-1.411-1.148-2.767-2.298-3.979-3.254c-0.294-0.23-0.615-0.486-0.861-0.656
						c-0.213-0.137-0.421-0.263-0.622-0.375c-0.402-0.226-0.777-0.4-1.119-0.503c-1.425-2.385,1.793-0.114,1.733-2.082l-4.083-1.23
						c1.729-2.1-1.629-8.337,3.883-4.718l-3.831-4.305c-1.198-3.515-3.932-7.343-6.721-8.682c-1.421-2.389-6.854-3.003-3.698-2.702
						l-7.37-5.488l0.437-0.519c-5.814-6.767-15.754-10.418-19.122-21.198c-2.54-1.738-5.26-3.445-8.114-7.646l1.044-2.303
						c-3.219-2.271-6.162-10.069-9.069-9.631c1.771-7.314-11.719-14.641-15.513-20.366l-2.405,1.883
						c-3.047-3.538-6.723-6.229-11.557-9.643l-1.729,2.09c-2.508-1.079-4.34-3.756-6.242-6.864c-0.95-1.554-1.919-3.215-2.998-4.839
						c-0.539-0.812-1.106-1.613-1.713-2.388l-0.462-0.575c-0.167-0.201-0.274-0.333-0.574-0.666
						c-0.515-0.576-1.042-1.145-1.58-1.699c0.636-0.071,1.462,0.541,2.261,1.426c0.559,0.626,0.931,1.354,1.199,2.101
						c-0.112-0.631-0.266-1.228-0.457-1.794l-0.15-0.418l-0.085-0.21l-0.171-0.297c-0.231-0.395-0.474-0.785-0.727-1.17
						c-1.01-1.542-2.177-3.004-3.423-4.373c-2.499-2.743-5.292-5.082-7.971-7.131c-2.689-2.061-5.265-3.832-7.62-5.75
						c-2.364-1.929-4.514-4.009-6.614-6.974c-0.832,0.575-1.656,1.014-2.495,1.31c-2.321,3.691-3.959,4.85-5.777,5.705
						c0.22-0.227,0.409-0.486,0.563-0.76c-0.25,0.204-0.615,0.559-0.988,0.938c-1.152,0.494-2.398,0.974-3.754,1.715
						c1.238-0.311,2.339-0.646,3.228-1.179c-1.83,1.9-4.557,5.085-6.934,8.402c0,0-0.59-0.432-1.205-0.838
						c-0.613-0.409-1.251-0.793-1.251-0.793c-0.216,0.269-0.408,0.451-0.627,0.74c-1.674,0.913-2.086,1.806-1.71,2.486
						c0.368,0.687,1.48,1.206,2.698,1.527c-1.079,1.744-1.943,3.41-2.416,4.864c-1.186-0.465-2.181-0.159-3.063,0.508
						c-0.44,0.333-0.854,0.757-1.25,1.223c-0.199,0.233-0.394,0.477-0.587,0.725c-0.119,0.179-0.239,0.36-0.361,0.542
						c-0.95,1.444-1.99,2.924-4.688,2.099c0.544,2.881-7.423,9.963-4.746,14.5c-0.528-0.413-1.262-0.129-0.355-1.089
						c-2.344,1.51-4.683,3.02-5.4,5.764l-3.411-1.789l-0.734,7.699c-4.142,0.964-6.12,1.099-5.57-3.438
						c-3.077,9.197-3.83,6.122-6.015,14.377l-1.422-1.937c-1.803,1.922-2.544,7.149-5.056,6.879
						c-7.362,0.958-21.112,20.131-34.796,27.831c7.014,2.886-7.196,2.74-3.798,7.004c-1.79-0.549-3.944,0.276-3.222-2.472
						c-4.326,6.599-10.072,6.325-10.628,13.325c-1.798-0.554-0.539-2.885-1.789-3.026c-0.187,0.691-0.724,2.75-1.99,2.617
						c-1.251-0.143-0.178-1.782,0.18-3.155c-5.395,5.762-2.363,9.938,0.604,13.733c-4.431,1.214-5.619,2.848-5.451,7.108
						c-2.091-0.127-4.891,0.35-1.814-3.506c-2.115,1.783-13.557,10.256-11.051,13.172c-1.298-0.08-2.932,2.517-3.134,3.343
						c-4.546,4.202-5.177,4.342-9.226,8.884l1.636-0.744c1.563,4.971-2.852,4.293-5.931,8.143l-0.235-0.436
						c-10.314,5.558-2.309,4.555-12.848,9.671l2.457,1.613c3.635,5.117-9.533,4.338-12.421,10.552l2.805-0.473
						c-0.996,3.979-12.896,0.959-15.94,2.898c-0.925,0.16,0.25-1.469,0.73-2.509c-9.12,3.927,1.812,3.517-2.447,8.992
						c-2.333-0.547-2.488-4.819-6.038-1.82c-2.797,0.461-4.864,14.153-12.093,15.847c2.092,0.13,4.176,0.263,2.741,3.353
						c-3.077,3.852-13.564,5.143-13.216,11.765c-0.743,0.137-1.199,0.012-1.493-0.246c-1.755,3.545-7.131,10.086-6.841,13.574
						c-9.465-4.604-13.09,19.849-19.498,13.292l-7.816,8.475l-0.448-0.877c-5.646,4.764-5.941,8.157-6.224,11.542
						c-1.646,0.759-1.369-0.725-1.608-1.164c-4.464,3.139-6.817,4.967-8.451,7.209c-0.817,1.121-1.454,2.347-2.084,3.891
						c-0.315,0.772-0.629,1.625-0.963,2.584c-0.165,0.482-0.337,0.988-0.519,1.522c-0.09,0.269-0.182,0.544-0.276,0.827
						c-0.08,0.27-0.227,0.611-0.24,0.826c0,0-0.637-0.415-1.251-0.853c-0.616-0.437-1.208-0.896-1.208-0.896
						c0.073,1.02-1.941,1.817-3.867,2.509c-0.975,0.357-1.938,0.698-2.817,1.237c-0.887,0.545-1.692,1.29-2.551,2.653
						c-0.387-0.169-0.787-0.226-1.226-0.166c0.078-0.41,0.231-1.092,0.537-1.378c-1.035,0.169-2.256-1.256-3.163-2.875
						c-0.932-1.645-1.534-3.467-1.994-4.799c-0.118-0.336-0.232-0.646-0.351-0.929c-0.022-0.042-0.014-0.053-0.061-0.121
						l-0.161-0.225l-0.322-0.44c-0.215-0.289-0.433-0.569-0.652-0.841c-0.877-1.083-1.788-2.01-2.763-2.706
						c-1.951-1.393-4.161-1.86-6.883-0.809l-7.295-3.908c6.298,7.985-4.466,2.102-2.938,6.378c-3.184-2.481-4.64-9.764-0.892-6.562
						l0.126,0.93c5.356-2.535-7.126-10.574-4.13-12.997c-13.806-14.394-24.778-30.739-37.344-44.563l-1.741,4.567l-4.261-4.938
						c-0.419-1.948,0.945-4.021,3.983-0.498c0.151-3.483-6.841-4.28-7.629-3.725c-4.908-7.869,6.168-0.892,4.341-3.005l-2.826-2.549
						l0.208,0.976c-3.407-1.024-4.984,0.073-8.636-4.16c-1.769-3.185,0.743-3.173-0.083-4.307c0.233-0.205,0.019-0.649-1.364-1.646
						l-5.326-6.26l-0.295,4.765c-3.73-1.495-5.132-5.769-5.419-0.321c0.316-4.097-4.508-10.066-9.531-15.483
						c-1.256-1.354-2.524-2.674-3.728-3.921c-0.773-0.796-1.503-1.548-2.155-2.218c-1.184-1.263-1.98-2.277-1.823-2.796
						c-3.294-0.887-5.688-2.729-7.547-4.691c0.712-0.781,1.565-1.603,2.472-2.452c-1.533,0.592-7.117,0.88-3.382-2.441
						c2.006,0.793,3.632,0.839,4.912,0.628c1.289-0.221,2.276-0.747,3.237-1.349c0.958-0.598,1.902-1.285,2.979-1.691
						c0.537-0.202,1.103-0.329,1.704-0.323c0.62-0.014,1.146,0.245,2.143,0.233c-5.452,0.236,9.702-11.842,1.566-11.083
						c3.528-2.844,2.391,1.847,6.093,0.641c4.98-9.942,17.488-15.863,25.693-26.248c-0.633-0.869-3.319-0.348-2.545-3.49
						l8.607-1.517c1.393-2.262-2.832-5.902,3.091-6.899c-1.107-0.112-2.772-0.287-1.83-1.796
						c21.354-15.446,32.847-41.576,57.787-54.241c-3.917,1.214-2.453-0.66-0.663-2.702c-1.559,0.96-1.883-1.803-3.167-2.521
						l10.389-5.352c-1.547-4.169,7.818-8.818,5.818-12.241l-1.868,3.015c-0.134-6.439-11.702-2.026-15.454-6.433
						c0.206,7.262-14.823,4.884-15.266,16.074c-2.135,0.578-0.268-2.433-1.928-2.604c0.34,3.255-1.055,5.512-5.146,8.295
						l-0.076-0.814c-8.778,10.339-14.511,12.945-26.053,23.001l2.85,1.107c-2.505,2.138-3.626,2.037-5.19,2.675
						c0.605,5.683,6.429-6.568,7.585-0.829c-7.19-0.754-15.758,16.846-22.569,14.525c-3.45,3.665,3.415,1.157-0.036,4.818
						l-2.211-0.232l0.814,2.491c-2.522,2.161-5.284,1.868-6.472,0.934c0.676-0.465,1.239-1.955,1.728-2.671
						c-4.446,1.71-7.683,9.327-9.183,9.939l4.092-2.798c-8.124,11.197-21.244,21.898-27.621,34.082l1.668,0.175
						c-2.537,4.557-4.188,5.793-6.044,7.007c-0.232,0.151-0.467,0.304-0.708,0.461c-0.12,0.079-0.241,0.16-0.365,0.241
						c-0.125,0.084-0.234,0.152-0.42,0.305c-0.676,0.534-1.406,1.144-2.218,1.893c-1.618,1.493-3.587,3.567-6.002,6.59l0.082-0.558
						c-0.892,2.924-2.819,5.991-5.8,8.979c0.357-1.539-1.754-0.386-3.945,0.822c-2.162,1.176-4.41,2.416-3.563,0.226
						c-1.15,1.78-1.996,3.141-2.576,4.159c4.266,3.35,5.501,4,7.197,4.663c0.839,0.322,1.78,0.633,3.175,1.183
						c1.39,0.543,3.245,1.336,5.77,2.469c0,0-0.254,0.542-0.478,1.117c-0.227,0.572-0.423,1.177-0.423,1.177
						c2.191,0.874,3.536,1.189,5.008,1.904c1.466,0.708,3.039,1.795,5.537,4.05c-2.648-1.439-2.704-0.257-2.714,1.087
						c-0.055,1.297-0.03,2.792-3.602,0.813c0.924,1.882,2.023,3.617,3.179,5.168c0.741,1.104,1.509,1.994,2.327,2.782
						c1.625,1.564,3.365,2.632,4.918,3.604c3.106,1.941,5.469,3.499,4.691,7.882c8.155-0.285-4.381-9.71-1.372-8.417
						c-0.241-3.209,6.38,0.093,8.423,3.189c2.439,2.817-1.441,10.005,5.034,16.775c-0.614-0.702-0.998-0.43-1.613-1.128
						c1.243,3.635,6.241,3.572,7.309,8.459c4.367-0.777,3.652,4.229,7.599,1.497l-6.665-5.535
						c4.231,2.716,11.412,2.266,14.915,9.974c-1.127,0.195-3.677-0.69-5.311-1.411c0.577,2.671,3.762,2.671,4.369,5.432
						c-3.951,2.735-7.88-6.933-14.09-8.277c0.25,3.211,9.252,4.872,3.699,6.465c7.358-1.707,5.692,7.314,13.674,8.545l-2.368,1.636
						c1.013,0.429,3.415,1.033,4.622,2.434l-4.981,0.071c5.806,1.608,4.74,9.12,9.354,11.554c-7.1-7.483,0.929-4.033-0.526-8.64
						c11.465,6.705-0.456,10.431,10.258,19.916c-1.608-1.137-3.687-6.462-0.666-5.155c1.421,2.383,3.064,5.747,3.107,7.982
						c6.87,6.498,1.154-3.058,5.173-1.313c-0.345,4.716,4.193,2.426,7.828,4.693l-2.097,1.996c5.978,9.131,6.357-2.029,11.319,6.581
						l-5.726-0.254l4.201,2.983l-3.119,1.484c5.533,2.35,6.236,4.032,9.231,8.596c0.638-2.306,4.321-3.069,7.636,0.353
						c0.479,1.774-0.334,1.91-0.654,2.186c-0.16,0.138-0.196,0.31,0.114,0.738c0.155,0.214,0.397,0.493,0.753,0.863
						c0.181,0.183,0.388,0.391,0.624,0.628c0.259,0.252,0.551,0.535,0.878,0.853c-0.389-0.085-0.65-0.022-0.962-0.02
						c-0.303,0.013-0.606,0.02-0.904,0.013c-0.596-0.014-1.169-0.086-1.67-0.285c-1.002-0.398-1.717-1.308-1.744-3.291
						c-0.895,0.423-2.354,0.14-3.247,0.548c0.47,1.954,1.887,3.638,3.397,5.055c0.377,0.354,0.761,0.692,1.137,1.014
						c0.135,0.104,0.514,0.467,0.792,0.721c0.295,0.272,0.584,0.538,0.864,0.797c1.12,1.031,2.096,1.93,2.805,2.681
						c-1.019-1.251-2.211-2.757-2.573-3.75c0-0.001,3.501,2.283,6.681,4.223c3.212,1.974,6.103,3.603,6.103,3.603
						c1.132,2.808-0.43,2.413-2.159,1.813c2.336,2.046,4.301,2.201,7.385,5.144c-0.704,0.97-1.184,2.208-2.129,2.719
						c-0.949,0.506-2.389,0.259-5.123-1.86c0,0,3.008,2.269,6.016,4.536c2.829,2.076,5.658,4.152,5.658,4.152
						c0.371,1.395,2.597,5.273,3.685,7.702c0.609,0.006,0.87,0.302,0.338,1.241c3.372-2.38,7.545-8.144,11.454-13.565
						c1.975-2.731,3.918-5.412,5.913-7.791c2-2.385,4.052-4.469,6.394-6.156c0.167-0.811,0.767-2.023,2.259-3.984
						c0.503-0.44,1.002-0.878,1.498-1.313l0.378-0.322c0.142-0.123,0.177-0.138,0.271-0.212l0.482-0.354
						c0.646-0.468,1.3-0.917,1.958-1.362c1.314-0.892,2.636-1.77,3.9-2.757c2.53-1.976,4.834-4.389,6.403-8.225l6.047-0.066
						c3.563-4.897-7.906,0.37-1.971-7.781c4.048-5.926,4.403,0.694,6.985-0.218c0.985-3.981,2.252-11.348,9.265-13.482
						C216.624,405.234,214.991,405.979,213.793,407.613z M264.75,354.262c-0.585,1.438-1.282,4.777-3.227,4.303
						C260.336,355.066,262.349,355.304,264.75,354.262z M339.299,270.234c-0.077,1.428-1.577,2.251-3.664,2.782
						C336.421,271.898,337.577,270.9,339.299,270.234z M562.08,262.257c-0.075-0.012-0.131-0.02-0.207-0.016
						C560.532,259.137,560.975,260.269,562.08,262.257z M565.661,267.964c0.749,0.213,1.013-0.093,1.117-0.575
						c-0.851,0.16-1.898-0.896-2.899-2.276C563.643,265.974,563.84,266.958,565.661,267.964z M69.375,333.077l0.324,1.46
						C67.106,332.977,68.213,333.059,69.375,333.077z"/>
					<path d="M333.083,282.008c-0.632-0.062-1.092-0.365-1.543-0.684C331.484,282.066,331.873,282.473,333.083,282.008z"/>
					<path d="M180.398,442.995c-0.104,0.07-0.189,0.168-0.291,0.243c-0.049,0.293-0.029,0.521,0.024,0.712L180.398,442.995z"/>
					<path d="M477.924,209.494c-0.622-1.282-0.75-2.2-0.692-2.943C476.661,206.979,476.645,207.839,477.924,209.494z"/>
					<path d="M598.25,304.158c1.028-1.381,2.057-2.762,3.344-4.143l-1.718-1.304c0.509,0.507,0.919,0.952,1.213,1.303
						c-1.697,1.674-3.081,2.451-4.517,3.446C597.541,303.416,599.785,302.444,598.25,304.158z"/>
					<path d="M550.519,329.073c-0.164,0.695-0.869,0.987-1.022,1.68l1.099,0.794C552.331,329.556,552.797,327.468,550.519,329.073z"
						/>
					<path d="M582.418,307.032c-3.139-0.205-4.404,2.363-6.615,5.396c0.148-0.172,0.277-0.341,0.464-0.498
						c1.293,1.112,2.38,0.782,3.419-0.326C580.717,310.502,581.624,308.705,582.418,307.032z"/>
					<path d="M575.271,313.117c-0.701,0.92-1.482,1.852-2.382,2.645C573.771,316.818,574.17,314.806,575.271,313.117z"/>
					<path d="M572.556,273.021c0.499,1.459,2.882-1.468,2.698-0.21C578.596,271.855,566.117,268.477,572.556,273.021z"/>
					<path d="M571.508,306.969c0,0,1.008,0.021,2.017,0.041c1.032-0.005,2.064-0.01,2.064-0.01s-0.354-0.509-0.74-0.982
						c-0.383-0.478-0.8-0.919-0.8-0.919L571.508,306.969z"/>
					<path d="M570.666,288.816l2.625,4.053c0.499-0.204,1.267,0.188,2.08,0.733C573.31,291.234,571.431,288.331,570.666,288.816z"/>
					<path d="M575.371,293.602c1.078,1.249,2.227,2.392,3.489,3.028C578.19,295.956,576.704,294.5,575.371,293.602z"/>
					<path d="M574.784,302.133l1.746-0.953c0.421-0.398,0.842-0.796,1.213-1.195l-0.952-1.243c0.247,0.414,0.494,0.828,0.879,1.243
						L574.784,302.133z"/>
					<path d="M535.891,250.487l-4.154-3.21c-1.115,0.314-0.616,1.778,0.996,2.912C534.102,250.609,535.701,251.747,535.891,250.487z
						"/>
					<path d="M540.511,267.569c-0.495-1.451-0.067-1.977,0.122-3.229l-2.84,2.419L540.511,267.569z"/>
					<path d="M529.599,257.089c-1.109,0.325-7.289-3.492-2.651,1.161C528.056,257.937,532.214,261.156,529.599,257.089z"/>
					<polygon points="479.968,196.673 480.897,197.606 485.249,193.311 					"/>
					<path d="M441.102,183.088c1.814,0.26-1.026-4.298,1.042-3.778c0.04-1.059-0.359-1.188-0.819-1.221
						c-0.448-0.045-0.951-0.002-0.898-0.935C439.64,180.087,438.866,179.642,441.102,183.088z"/>
					<path d="M440.426,177.154c0.135-0.472,0.275-1.025,0.427-1.734C440.543,176.265,440.456,176.765,440.426,177.154z"/>
					<polygon points="159.862,174.462 163.483,172.436 160.244,172.906 					"/>
					<path d="M161.697,165.825l3.486,1.967l-0.97-4.135C163.732,164.429,162.801,165.927,161.697,165.825z"/>
					<path d="M278.055,352.089l-0.448-0.877c-1.148-0.288-1.857,0.31-3.28,1.504L278.055,352.089z"/>
					<polygon points="238.058,387.783 238.767,387.189 235.063,385.908 					"/>
					<path d="M209.383,422.658c1.403-1.189,2.376-3.266,3.788-4.459C210.786,421.469,205.933,419.896,209.383,422.658z"/>
				</g>
			</g>
		</g>
	</g>
</g>
<rect x="107.671" y="250.794" transform="matrix(0.7071 -0.7071 0.7071 0.7071 -166.5135 199.5922)" fill="none" stroke="#000000" stroke-miterlimit="10" width="100" height="100.001"/>
<circle fill="#ED1C24" stroke="#ED1C24" stroke-miterlimit="10" cx="450.316" cy="301.495" r="50"/>
<polygon fill="#00A8CC" stroke="#00A8CC" stroke-miterlimit="10" points="157.671,230.084 157.671,300.795 228.382,300.795 "/>
<polygon fill="#0D7B95" stroke="#0D7B95" stroke-miterlimit="10" points="86.96,300.794 157.671,300.795 157.671,230.084 "/>
<polygon fill="#162950" stroke="#162950" stroke-miterlimit="10" points="158.671,371.506 158.671,300.795 87.96,300.794 "/>
<polygon fill="#274A6E" stroke="#274A6E" stroke-miterlimit="10" points="229.382,300.795 158.671,300.795 158.671,371.506 "/>
<path fill="#C72127" stroke="#C72127" stroke-miterlimit="10" d="M496.553,282.438c0,0-0.689,18.371-7.539,27.959
	s-17.808,20.549-20.548,21.918s-18.149,8.219-18.149,8.219s-16.783,0.685-18.152,0s-17.871-4.384-17.871-4.384
	s20.634,15.603,30.885,15.345s25.542-4.341,25.542-4.341s17.363-12.296,19.884-16.053s8.379-13.28,9.046-21.443
	s1.731-17.069,0-20.494S496.553,282.438,496.553,282.438z"/>
<path fill="#F04D3E" stroke="#F04D3E" stroke-miterlimit="10" d="M472.676,256.775c0,0,7.635,8.663,0,25.663
	s-22.359,22.479-22.359,22.479s-10.029,7.874-29.111,8.904s-20.09-3.381-20.09-3.381s-1.146-20.112,2.965-28.002
	s14.312-20.901,21.167-24.211s19.52-7.04,25.069-6.731S472.676,256.775,472.676,256.775z"/>
<path fill="#FDDCC9" stroke="#FAB99A" stroke-miterlimit="10" d="M406.334,285.333c1.61,7.497,25.453,3.459,32.185-2.896
	c6.902-6.516,14.108-18.18,10.507-24.95c-4.667-8.772-21.68-1.464-29.188,4.621C411.334,269,404.381,276.241,406.334,285.333z"/>
</svg>
