<?xml version="1.0" encoding="utf-8"?>
<!-- Generator: Adobe Illustrator 16.0.3, SVG Export Plug-In . SVG Version: 6.00 Build 0)  -->
<!DOCTYPE svg PUBLIC "-//W3C//DTD SVG 1.1//EN" "http://www.w3.org/Graphics/SVG/1.1/DTD/svg11.dtd">
<svg version="1.1" xmlns="http://www.w3.org/2000/svg" xmlns:xlink="http://www.w3.org/1999/xlink" x="0px" y="0px" width="1366px"
	 height="768px" viewBox="0 0 1366 768" enable-background="new 0 0 1366 768" xml:space="preserve">
<g id="Layer_4">
	<rect width="1369.965" height="768"/>
</g>
<g id="Layer_3">
	<polygon fill="#AF8AB6" stroke="#AF8AB6" stroke-miterlimit="10" points="391.16,836.622 289.502,681.839 209.905,882.205 
		298.37,946.824 	"/>
	<polygon fill="#AF8AB6" stroke="#AF8AB6" stroke-miterlimit="10" points="440.025,526.198 315.456,842.522 146.257,597.495 
		266.499,519.659 	"/>
	<polygon fill="#2D0B3E" stroke="#2D0B3E" stroke-miterlimit="10" points="349.906,614.936 439.74,527.751 315.456,839.266 	"/>
	<polygon fill="#5F3A66" stroke="#5F3A66" stroke-miterlimit="10" points="349.906,614.936 146.257,597.495 315.456,842.522 	"/>
	<polygon fill="#010101" stroke="#010101" stroke-miterlimit="10" points="290.299,657.932 335.432,726.919 381.296,655.49 	"/>
	<polygon fill="#8D6793" stroke="#AF8AB6" stroke-miterlimit="10" points="269.956,475.206 250.282,552.193 323.844,580.903 
		323.844,515.165 	"/>
	<polygon fill="#8D6793" stroke="#AF8AB6" stroke-miterlimit="10" points="352.871,533.212 323.844,580.903 323.844,515.165 
		330.591,479.01 	"/>
	<path fill="#010101" stroke="#010101" stroke-miterlimit="10" d="M383.484,624.889c6.53,28.093-9.85,61.085-44.148,61.753
		c-30.843,0.603-43.41-12.801-51.778-36.741c-9.786-27.997,20.506-60.618,51.354-60.618
		C369.762,589.282,378.75,604.519,383.484,624.889z"/>
	<polygon opacity="0.5" fill="#4A284F" stroke="#4A284F" stroke-miterlimit="10" points="323.844,580.794 261.166,509.166 
		269.956,473.121 323.844,515.165 330.292,477.108 352.115,530.156 	"/>
	
		<ellipse opacity="0.5" fill="#F8A273" stroke="#AF8AB6" stroke-miterlimit="10" cx="336.849" cy="639.629" rx="34.918" ry="35.11"/>
	<path opacity="0.5" fill="#EA9186" stroke="#AF8AB6" stroke-miterlimit="10" d="M378.75,639.629
		c0,23.269-18.756,42.129-41.9,42.129c-23.143,0-41.903-18.86-41.903-42.129c0-23.272,18.76-42.134,41.903-42.134
		C359.993,597.495,378.75,616.356,378.75,639.629z"/>
	<path fill="#F7A274" stroke="#F7A274" stroke-miterlimit="10" d="M363.29,638.192c0,14.105-11.161,25.537-24.932,25.537
		c-13.77,0-24.932-11.432-24.932-25.537c0-1.583,0.138-3.133,0.409-4.636c2.128-11.894,12.3-20.904,24.523-20.904
		C352.128,612.652,363.29,624.086,363.29,638.192z"/>
	<path fill="#EA9186" stroke="#EA9186" stroke-miterlimit="10" d="M354.149,657.953c-36.415,8.541-40.422-22.729-40.422-22.729
		c-1.178,12.126,5.242,19.019,5.242,19.019s7.034,8.38,14.069,8.901c7.038,0.524,8.699,1.416,14.787-1.321
		C353.91,659.085,354.149,657.953,354.149,657.953z"/>
	<path fill="#F9B687" stroke="#F9B687" stroke-miterlimit="10" d="M361.934,639.481c-2.482,5.67-12.961,4.125-20.403,2.451
		c-10.628-2.395-21.563-12.34-21.563-18.574c0-6.232,10.69-10.706,21.563-10.706C352.402,612.652,366.5,629.033,361.934,639.481z"/>
	<path opacity="0.2" fill="#FFFFFF" stroke="#F9B687" stroke-miterlimit="10" d="M359.38,624.751
		c0.579,3.896-10.161,1.774-14.481,0.673c-5.496-1.402-10.243-6.509-10.243-10.062c0-3.552,7.171-3.569,12.591-1.038
		C352.23,616.657,358.86,621.238,359.38,624.751z"/>
	<polygon fill="#AF8AB6" stroke="#AF8AB6" stroke-miterlimit="10" points="398.372,396.867 323.401,530.617 240.604,439.548 
		320.335,270.713 	"/>
	<polygon fill="#CFB1D4" stroke="#4A284F" stroke-miterlimit="10" points="370.292,410.607 322.771,504.387 268.652,429.734 
		320.358,312.341 	"/>
	<polygon fill="#4A284F" stroke="#4A284F" stroke-miterlimit="10" points="240.604,439.548 268.652,429.734 322.771,504.387 
		321.839,533.215 	"/>
	<polygon fill="#CFB1D4" stroke="#CFB1D4" stroke-miterlimit="10" points="318.037,278.323 318.063,312.341 266.351,429.734 
		240.604,438.852 	"/>
	<polygon fill="#4A284F" stroke="#4A284F" stroke-miterlimit="10" points="398.372,396.867 370.292,410.607 322.771,504.387 
		321.839,533.215 	"/>
	<polygon opacity="0.5" fill="#FFFFFF" stroke="#FFFFFF" stroke-miterlimit="10" points="329.045,339.513 285.24,450.262 
		294.721,463.309 329.015,337.568 	"/>
	<polygon opacity="0.5" fill="#FFFFFF" stroke="#FFFFFF" stroke-miterlimit="10" points="299.267,468.205 310.152,485.188 
		345.29,366.719 	"/>
	<polygon fill="#4A284F" stroke="#4A284F" stroke-miterlimit="10" points="319.488,271.262 242.669,376.321 240.604,437.223 	"/>
	<path fill="#AF8AB6" stroke="#AF8AB6" stroke-miterlimit="10" d="M127.596,576.1l49.412,81.734v289.964
		C177.008,947.798,76.536,691.296,127.596,576.1z"/>
	<path fill="#2D0B3E" stroke="#2D0B3E" stroke-miterlimit="10" d="M177.008,947.798C171.364,684.021,127.596,576.1,127.596,576.1
		l49.412,81.734V947.798z"/>
	<path opacity="0.5" fill="#4A284F" stroke="#4A284F" stroke-miterlimit="10" d="M128.67,761.949
		c41.439,54.634,32.601-47.699,32.601-47.699l18.118,240.817C179.389,955.067,109.213,736.3,128.67,761.949z"/>
	<path fill="#AF8AB6" stroke="#AF8AB6" stroke-miterlimit="10" d="M451.796,508.644l-32.889,93.181l27.08,281.581
		C445.987,883.405,515.941,617.454,451.796,508.644z"/>
	<path fill="#2D0B3E" stroke="#2D0B3E" stroke-miterlimit="10" d="M445.987,883.405c-25.111-262.7,5.809-374.762,5.809-374.762
		l-32.889,93.181L445.987,883.405z"/>
	<path opacity="0.5" fill="#4A284F" stroke="#4A284F" stroke-miterlimit="10" d="M474.627,675.399
		c-34.81,58.863-39.619-20.997-39.619-20.997l10.042,241.264C445.05,895.666,490.969,647.767,474.627,675.399z"/>
</g>
<g id="Layer_2">
	<g>
		<g>
			<g>
				<g>
					<g>
						<path fill="#6A326D" d="M320.15,235.535c-0.719,0.553,1.074,1.681,1.271,2.028
							C322.042,236.135,319.714,235.208,320.15,235.535z"/>
						<polygon fill="#6A326D" points="326.14,221.332 326.617,222.087 326.445,219.082 						"/>
						<path fill="#6A326D" d="M335.135,210.984c-3.548-1.354-2.813,4.135-5.371,5.153l-0.878-0.227l1.452,2.711
							C331.936,216.078,333.014,211.914,335.135,210.984z"/>
						<path fill="#6A326D" d="M345.756,210.5c-1.346-0.567,0.129-1.979-1.443,1.006c0.223-0.026,0.32-0.005,0.468-0.004
							C344.957,211.264,345.227,210.959,345.756,210.5z"/>
						<path fill="#6A326D" d="M344.78,211.502C343.912,212.66,346.281,211.55,344.78,211.502L344.78,211.502z"/>
						<path fill="#6A326D" d="M348.539,205.937l-0.305,2.25c0.88,0.236,2.128-0.924,2.167-0.059
							C351.163,206.208,350.283,205.979,348.539,205.937z"/>
						<path fill="#6A326D" d="M347.747,202.869l-0.248,1.089C347.873,204.052,348.134,203.933,347.747,202.869z"/>
						<path fill="#6A326D" d="M346.971,206.264l0.528-2.307c-0.616-0.168-1.511-0.903-0.325,0.988
							C346.487,204.125,346.985,205.102,346.971,206.264z"/>
						<path fill="#6A326D" d="M345.786,206.803c-1.285,0.299-2.556,1.023-2.242-1.229
							C341.536,208.648,343.785,209.883,345.786,206.803z"/>
						<path fill="#6A326D" d="M332.8,208.04l-1.724,0.396l0.099,1.716C331.129,209.298,333.704,208.705,332.8,208.04z"/>
						<path fill="#6A326D" d="M357.684,198.181c-0.497-0.586-1.949-0.84-2.777-1.368l-0.259,1.633
							C355.513,198.239,356.77,197.517,357.684,198.181z"/>
						<path fill="#6A326D" d="M354.907,196.813l0.388-2.443C353.951,195.69,354.196,196.355,354.907,196.813z"/>
						<polygon fill="#6A326D" points="344.971,200.021 344.785,204.425 345.378,199.494 						"/>
						<polygon fill="#6A326D" points="363.006,192.168 363.557,194.219 362.935,190.877 						"/>
						<path fill="#6A326D" d="M366.255,187.938c0.524,1.619,2.654,0.696,2.723,1.987c0.749-1.266,0.61-3.017,0.488-4.593
							C369.167,186.637,368.222,187.485,366.255,187.938z"/>
						<path fill="#6A326D" d="M369.447,182.849c-0.122,0.674-0.049,1.546,0.019,2.484
							C369.621,184.638,369.659,183.854,369.447,182.849z"/>
						<path fill="#6A326D" d="M357.921,191.907c0.453,0.177,1.567,0.726,2.722,0.166l-2.156-0.771
							C358.314,191.486,358.119,191.694,357.921,191.907z"/>
						<path fill="#6A326D" d="M358.416,191.278l0.071,0.023c0.622-0.649,1.065-1.087,1.258-1.273
							C359.577,190.186,359.177,190.563,358.416,191.278z"/>
						<path fill="#6A326D" d="M357.777,192.058c0.053-0.056,0.092-0.097,0.144-0.151C357.71,191.83,357.625,191.819,357.777,192.058
							z"/>
						<path fill="#6A326D" d="M350.037,197.116c-0.096-1.715,0.618-4.501-2.389-3.807
							C348.175,194.936,349.893,194.535,350.037,197.116z"/>
						<path fill="#6A326D" d="M355.085,191.088l-1.829,1.37c0.455,0.336,1.341,0.569,1.39,1.42L355.085,191.088z"/>
						<polygon fill="#6A326D" points="355.286,189.817 355.085,191.088 355.763,190.58 						"/>
						<path fill="#6A326D" d="M365.434,184.435c-0.074-1.338,0.558-2.188,1.224-3.186c-1.153,0.691-2.188,1.542-3.005,2.494
							C364.045,184.316,364.596,185.52,365.434,184.435z"/>
						<path fill="#6A326D" d="M361.881,187.638c0.007-0.083,0.044-0.163,0.048-0.242
							C361.706,187.377,361.592,187.419,361.881,187.638z"/>
						<path fill="#6A326D" d="M374.874,171.765c-0.163,0.009-0.339-0.011-0.508-0.006c0.084,0.094,0.168,0.179,0.247,0.278
							L374.874,171.765z"/>
						<path fill="#6A326D" d="M363.212,183.646c-0.94,0.456-0.92,1.232-0.779,2.077c0.307-0.684,0.699-1.35,1.22-1.979
							C363.476,183.485,363.334,183.343,363.212,183.646z"/>
						<path fill="#6A326D" d="M370.832,179.719c-0.665,0.086-1.322,0.268-1.976,0.49
							C369.687,180.282,371.137,180.217,370.832,179.719z"/>
						<path fill="#6A326D" d="M362.587,187.538c-0.005,0.059-0.004,0.117-0.022,0.171
							C363.119,187.771,362.923,187.653,362.587,187.538z"/>
						<path fill="#6A326D" d="M362.587,187.538c0.09-0.575-0.055-1.214-0.154-1.815c-0.254,0.552-0.436,1.112-0.504,1.674
							C362.121,187.405,362.373,187.465,362.587,187.538z"/>
						<path fill="#6A326D" d="M365.983,161.076c0.869,0.509,1.313,1.451,1.065,2.411c-0.236,0.946-1.156,1.899-2.671,2.027
							c-0.139,1.296,1.252,2.745,3.176,3.989c0.962,0.622,2.057,1.194,3.16,1.67c1.125,0.451,2.456,0.579,3.652,0.586
							c-0.637-0.584-1.193-1.162-0.099-4.217c-0.842,0.147-2.511,1.112-3.864,1.574c-1.375,0.487-2.372,0.402-2.335-1.011
							c1.502-3.299,2.462-1.777,4.627-2.68c-1.615-0.019-1.614-1.394-1.854-2.709c-0.215-1.346-0.7-2.602-2.736-3.02
							c0,0-0.088,0.59-0.176,1.18c-0.116,0.622-0.231,1.244-0.231,1.244C367.163,161.876,366.891,160.813,365.983,161.076z"/>
						<path fill="#6A326D" d="M371.021,175.319l-0.409,0.846c0.939-0.557,2.022-0.6,4.087-0.618
							c0.032-0.222,0.055-0.427,0.068-0.618c0.005-0.097,0.01-0.188,0.015-0.275c-0.005-0.079,0.006-0.175,0.043-0.301
							c0.107-0.453,0.153-0.816,0.155-1.115c0.004-0.597-0.163-0.937-0.369-1.203c0,0-0.308,0.331-0.771,0.826
							c-0.193,0.204-0.418,0.441-0.66,0.695c-0.184,0.188-0.379,0.388-0.575,0.588c-0.783,0.801-1.566,1.601-1.566,1.601
							L371.021,175.319z"/>
						<path fill="#6A326D" d="M367.954,179.256c-1.167-1.946-0.435-4.194-3.072-4.709c-1.629,2.114,0.141,2.589-0.193,4.405
							c2.407-3.603,0.1,1.718,3.056,0.167c-0.275,0.879-0.687,1.527-1.088,2.129c0.704-0.415,1.438-0.768,2.198-1.04
							c-0.063-0.002-0.108-0.005-0.166-0.013l-0.008,0.02l-0.023-0.025c-0.325-0.035-0.488-0.096-0.233-0.152
							c-0.011-0.028,0.016-0.074,0.025-0.097c-0.208-0.218-0.354-0.45-0.488-0.679c1.15-0.651,0.551,0.218,0.488,0.679
							c0.07,0.08,0.124,0.17,0.208,0.249c0.012,0.005,0.021,0.005,0.031,0.005l1.922-4.031
							C369.791,176.66,369.091,177.563,367.954,179.256z"/>
						<path fill="#6A326D" d="M345.644,188.541c0.231,0.024,0.344,0.129,0.469,0.223
							C346.095,188.381,346.028,188.183,345.644,188.541z"/>
						<path fill="#6A326D" d="M347.787,188.052c0.022,0.433,0.504,1.194-0.33,1.819c-1.066,0.245-0.778-0.679-1.344-1.106
							c0.031,0.837-0.235,2.635,1.815,1.864l-0.022-0.422c1.693-0.828,5.184-0.756,5.209-0.334
							C351.318,188.988,349.98,188.422,347.787,188.052z"/>
						<path fill="#6A326D" d="M357.536,183.201l1.545-3.405l-2.605,0.163l0.909,0.663
							C355.718,181.877,357.05,182.445,357.536,183.201z"/>
						<path fill="#6A326D" d="M376.181,171.891c0,0,0.33,0.489,0.659,0.978c0.32,0.5,0.641,0.999,0.641,0.999
							s-0.033-1.19-0.129-2.308c-0.089-1.125-0.241-2.177-0.241-2.177L376.181,171.891z"/>
						<path fill="#6A326D" d="M381.008,165.888l1.729,1.028c0,0,0.059-0.525,0.118-1.05c0.047-0.51,0.093-1.021,0.093-1.021
							L381.008,165.888z"/>
						<path fill="#6A326D" d="M214.723,198.598l-0.307,1.154C214.628,199.269,214.709,198.907,214.723,198.598z"/>
						<path fill="#6A326D" d="M220.02,193.105l-0.585-0.8C219.586,192.93,219.777,193.306,220.02,193.105z"/>
						<path fill="#6A326D" d="M305.322,65.584c-1.957-0.611-4.913-1.642-4.091,0.743c0,0,0.281,0.494,0.561,0.988
							c0.271,0.503,0.543,1.007,0.543,1.007C303.459,66.546,304.471,65.815,305.322,65.584z"/>
						<path fill="#6A326D" d="M254.197,139.504c0.256,0.039,0.524,0.08,0.789,0.121c-0.292-0.781-0.566-1.514-0.813-2.173
							C254.194,138.081,254.195,138.775,254.197,139.504z"/>
						<path fill="#6A326D" d="M260.029,146.414l-2.403,0.528C258.294,146.941,259.079,146.783,260.029,146.414z"/>
						<path fill="#6A326D" d="M182.103,237.009c0,0-0.201,1.027-0.402,2.054c-0.225,1.052-0.45,2.105-0.45,2.105
							C183.675,238.546,182.248,238.444,182.103,237.009z"/>
						<path fill="#6A326D" d="M359.919,116.856c-0.222-1.557-0.639-2.588-1.163-3.359
							C358.853,115.519,358.274,117.714,359.919,116.856z"/>
						<path fill="#6A326D" d="M199.92,180.715c-0.152,0.74-0.016,1.243,0.351,1.558C200.452,181.534,200.404,180.977,199.92,180.715
							z"/>
						<path fill="#6A326D" d="M356.256,110.601c-0.013,0.318,0.053,0.564,0.069,0.863c0.907,0.497,1.765,1.045,2.43,2.033
							C358.691,111.999,358.244,110.603,356.256,110.601z"/>
						<path fill="#6A326D" d="M124.582,112.974c0.146-0.02,0.267-0.089,0.419-0.09C124.801,112.667,124.689,112.771,124.582,112.974
							z"/>
						<path fill="#6A326D" d="M169.888,93.87c-0.181,0.416-0.64,0.954-1.053,1.479C169.159,95.2,169.504,94.777,169.888,93.87z"/>
						<path fill="#6A326D" d="M383.872,142.038C385.122,143.273,384.295,142.162,383.872,142.038L383.872,142.038z"/>
						<path fill="#6A326D" d="M378.969,149.494c-0.465-0.167-0.96-0.267-1.57-0.209
							C378.079,149.275,378.585,149.354,378.969,149.494z"/>
						<path fill="#6A326D" d="M339.6,111.937c-0.017-0.023-0.03-0.042-0.05-0.069C339.419,112.368,339.447,112.276,339.6,111.937z"
							/>
						<path fill="#6A326D" d="M384.459,144.232c-0.112-0.539-0.344-1.148-0.694-1.795
							C383.814,142.753,384.018,143.311,384.459,144.232z"/>
						<path fill="#6A326D" d="M385.346,143.692c0.274,0.469,0.512,0.828,0.73,1.171C386.617,144.938,386.738,144.73,385.346,143.692
							z"/>
						<path fill="#6A326D" d="M382.225,140.301c0.661,0.716,1.145,1.436,1.541,2.136c-0.062-0.296-0.027-0.443,0.107-0.399
							C383.514,141.674,383.015,141.161,382.225,140.301z"/>
						<path fill="#6A326D" d="M126.527,186.672c0.009-0.094-0.007-0.18,0.017-0.294C125.21,186.212,125.605,186.449,126.527,186.672
							z"/>
						<path fill="#6A326D" d="M297.093,107.482c0.016-0.049-0.009-0.105,0-0.154c-0.049,0.018-0.11,0.04-0.155,0.056
							L297.093,107.482z"/>
						<path fill="#6A326D" d="M295.857,111.182c-0.946-2.947-0.117-3.35,1.082-3.798l-5.378-3.403L295.857,111.182z"/>
						<path fill="#6A326D" d="M202.731,212.395l3.125-0.497c0.297,4.389-1.996,5.229,1.606,5.383
							c-4.731-4.886,6.094-7.567,1.365-12.444l2.166-0.23c-0.369,0.3-0.127,0.628-0.495,0.922c4.558-0.124-1.975-5.083,1.539-7.439
							c1.359-0.696,2.763-0.757,2.686,0.508l0.95-3.485c0.731-0.591,1.439,0.378,0.713,0.968l2.927-3.939l0.122,0.163
							c-0.307-1.236-0.437-3.512-0.425-4.553c1.558-0.243,0.104,0.946,0.94,1.291l0.636-3.098c2.038,0.394,1.762,3.195,0.306,4.389
							c6.681,2.774,0.276-2.805,6.884-4.09l-1.107,2.453c3.94,1.422,4.274-0.986,7.997-1.459c-1.385-0.354-8.363,0.101-7.604-3.197
							c0.938-0.255,1.859-0.886,1.936-2.975c1.777,1.635,2.395,0.1,3.612-1.407l2.25,2.276c0.748-2.158-0.556-3.146-0.773-5.028
							c1.817-1.489,3.96-0.154,5.861,0.867c2.913-2.383-4.662-0.822-2.096-4.463c3.008-1.436,3.536-3.92,4.663-7.939
							c2.285-0.838,1.173,1.61,2.373,1.665l-0.556-3.146c0.366-0.303,0.835,0.342,1.073,0.668c0.38-1.86-2.248-2.275-1.148-4.733
							c-2.11-2.904,7.334-0.321,6.555-5.356c1.194,0.05,1.179,1.61,2.247,2.28c1.028-4.956,1.132-4.014,0.968-9.022l3.6-0.785
							c-3.274-0.01-3.417-4.026-3.43-7.438c-1.386-0.213-2.589-0.412-3.251-0.41l1.451-4.077c0.711,0.007,1.243,1.048,1.776,2.435
							c-0.008-0.378-0.024-0.744-0.065-1.055c1.833-0.234,2.682,1.562,3.296,3.525c-0.791-0.075-1.611-0.183-2.419-0.297
							c0.754,2.042,1.703,4.18,3.212,5.306c-0.094-0.44,0.013-1.021,0.254-1.542c0.211,0.547,0.444,0.988,0.76,1.119
							c0.338,0.131,0.103-0.655-0.052-1.686l3.224,1.768l-0.887-1.125l5.175-2.283c-0.093-5.167-1.756-11.134,1.188-16.457
							c0.916,2.854,2.911,3.14,5.124,5.31c-3.498-1.056-2.095,4.295-4.667,6.08c1.339-0.934,2.181,0.33,2.282,0.978l1.534-6.026
							c1.771,1.817,2.18,0.447,3.917,0.117c-4.398-2.624,0.33-5.249,0.719-7.919c1.325,1.045,2.219,2.604,0.077,4.311
							c4.795,0.382-1.674-6.833,2.669-6.797c-0.42,0.512-0.853,0.597-0.405,1.37c-0.041-2.148,3.399-4.105,3.865-2.457l-0.424,0.506
							c3.425-2.808,9.133-9.755,6.466-13.133c0.432,0.342,3.36,3.915,3.809,4.694l-5.135-15.483
							c2.203,2.994,10.374,6.982,9.403,11.053c1.093-0.411,2.419-0.943,2.977-3.434c-0.867,0.167-5.076-2.297-4.657-3.238
							c4.799,0.814,2.857,0.123,7.641,0.072c-1.324,0.272-4.602-4.613-3.576-5.446c0.458,0.765,3.902,4.106,4.1,4.768
							c0,0-0.639-1.376-1.047-3.001c-0.431-1.6-0.63-3.449-0.63-3.449c-0.005,0.75,0.67,1.772,1.47,2.767
							c0.803,0.992,1.703,1.985,2.261,2.552c-0.362-0.419-0.045-0.722,0.359-1.019c0.406-0.299,0.875-0.565,0.958-1.063
							c0.023-0.025-1.104-0.727-1.128-0.701c0.527-0.254,0.691-1,0.769-2.107c0.074-1.102,0.048-2.55,0.083-4.088
							c0.046-3.052,0.432-6.571,1.996-8.034c-0.141,1.004-0.159,3.646,0.047,5.964c0.204,2.321,0.551,4.403,0.992,4.449
							c0.095-1.716,0.32-5.302,1.013-9.747c0.529-2.515,1.363-4.919,2.478-6.477c1.103-1.571,2.491-2.292,3.821-1.795
							c0,0,0.066,0.708,0.133,1.417c0.056,0.696,0.112,1.392,0.112,1.392s0.798,0.21,1.653,0.485
							c0.849,0.269,1.754,0.603,1.754,0.603c-1.767,1.269-4.479,3.272-6.407,6.037c-1.99,2.693-3.182,6.165-3.708,8.272
							c0.495,2.576,0.044,3.029,0.775,3.65c0.012,1.197-0.178,1.874-0.342,2.303c-0.169,0.422-0.33,0.576-0.404,0.56
							c0,0,0.269,0.695,0.48,1.322c0.217,0.634,0.376,1.202,0.376,1.202c0.422-2.089,0.894-2.833,1.482-3.334
							c0.572-0.52,1.246-0.813,1.812-2.302c0,0-0.982,0.194-1.744,0.643c-0.784,0.424-1.348,1.104-1.349,1.104
							c0.291-2.235,1.004-5.064,2.233-6.536c1.183-1.526,2.949-1.617,4.024,0.088c-0.017,1.007-0.891,2.285-1.731,3.561
							c-0.85,1.265-1.652,2.543-1.888,3.128c0.343-0.489,0.947-0.633,1.472-0.491c0.521,0.138,0.932,0.526,0.75,0.944
							c0,0-0.437,0.182-0.842,0.399c-0.408,0.214-0.785,0.465-0.785,0.465c-0.01,0.958,0.89,0.297,1.829,0.053
							c0.46-0.132,0.916-0.178,1.18,0.029c0.131,0.103,0.214,0.267,0.217,0.506c0.009,0.127-0.032,0.24-0.043,0.433
							c0.011,0.219,0.001,0.462-0.031,0.731c0.498,0.909-1.31,5.116,0.313,3.952c1.831-3.754,10.617-11.734,13.52-12.777
							c0.036,0.438,0.688,6.425,0.006,8.537c-1.192,3.227-7.068,2.774-8.101,5.535c0.736-0.552,2.196-0.592,2.722-0.538
							c0.1,1.318-2.444,1.52-0.622,3.003c2.835-1.93,2.848,3.754,2.897-1.049c2.213,1.08,1.036,2.279,2.88,4.196
							c1.119-2.076,7.238-3.078,9.452-1.994c-0.744,0.464-1.268,1.585-1.498,2.108c2.79,3.716,3.239,6.612,6.035,9.91
							c-0.366,0.84,0.237,3.073-1.455,3.355c0.863,0.079,2.111-0.241,3.043,0.716c-0.552,3.878-2.286-1.955-3.688,1.845
							c1.611-1.164,4.32,0.834,6.497,1.467c1.938-2.438-2.417-3.709-4.593-4.346c3.193-2.757,8.703-3.127,13.127-0.973
							c3.135,2.04-1.053,2.958-0.191,3.04c3.839,5.595,9.333-0.447,10.677,5.786c-0.589,3.438-3.991,3.563-5.139,5.201
							c-2.679-1.554-1.634-4.518-3.009-5.952l0.627,2.681c-1.284-0.123-3.072-1.162-3.175-2.476
							c-0.308,1.493,1.461,3.729,3.521,6.267c2.083,2.565,4.374,5.335,4.833,7.579c1.395,0.24,3.416,1.161,4.041,0.228l-1.492-1.159
							c0.536-1.039,1.778-0.745,2.924-0.339c1.13,0.386,2.132,0.845,1.808-0.306c1.657,0.756,3.697,1.626,5.56,2.816
							c1.85,1.175,3.534,2.686,4.156,4.348c0,0-0.854,0.184-1.707,0.367c-0.868,0.166-1.737,0.332-1.737,0.332
							c0.556-0.041,0.731-0.537,0.508-1.146c-0.22-0.605-0.83-1.313-1.749-1.664c1.608,0.643,0.949,2.297,1.195,3.528
							c-1.339,0.891-1.951,1.659-0.391,2.379c0,0,1.124-0.488,2.247-0.976c1.163-0.533,2.325-1.066,2.325-1.066
							c0.025,1.149,0.37,2.583,0.118,4.229c-0.236,1.627-1.074,3.471-2.998,4.958c2.239-0.276,2.344-0.53,2.577-0.834
							c0.253-0.327,0.605-0.67,3.706-1.548c-3.413,0.579-1.472-1.596,0.268-3.581c0.875-0.999,1.714-1.966,1.771-2.475
							c0.063-0.516-0.688-0.536-2.85,0.194c1.408-0.407,2.512-0.836,3.414-1.268c0.311-0.911-0.252-1.823-0.716-2.843
							c-0.476-1.034-0.839-2.161-0.427-3.847c-1.067,0.309-1.2,1.571-3.184-1.501c-0.442-0.062-1.124-0.278-1.531-0.414
							c-0.047-0.096-0.055-0.131-0.086-0.217c0.008,0.069-0.002,0.125,0.007,0.192c-0.271-0.083-0.315-0.086,0.006,0.071
							c0.111,0.807-0.018,1.473-0.47,1.812c-3.792-0.848-7.132-4.846-9.387-5.626c-0.824-1.696,1.603,0.086,1.895-1.23
							c0,0-0.854-0.304-1.707-0.607c-0.825-0.271-1.651-0.542-1.651-0.542c0.885-0.693,0.786-2.24,0.94-3.312
							c0.169-1.056,0.61-1.617,2.921,0.063l-2.89-3.514c-0.162-2.121-1.319-4.234-2.984-4.721c-0.526-1.357-4.145-1.009-2.033-1.248
							l-4.031-2.554l0.398-0.398c-2.722-3.6-8.865-4.606-9.149-11.153c-1.418-0.78-2.965-1.517-4.136-3.855l1.151-1.642
							c-1.784-1.034-2.338-5.7-4.418-5.015c2.594-5.001-5.296-7.908-6.825-11.109l-2.007,1.556c-1.428-1.881-3.447-3.125-6.126-4.68
							l-1.583,1.597c-0.335-0.037-0.81-0.363-1.211-0.703c-0.404-0.344-0.777-0.75-1.134-1.211
							c-0.713-0.921-1.368-2.065-2.069-3.341c-1.383-2.528-3.026-5.669-5.131-7.941c0.631-0.581,1.618,0.912,2.1,2.266
							c-0.57-2.465-1.647-4.38-2.876-5.833c-1.234-1.459-2.619-2.455-3.944-3.247c-1.33-0.798-2.601-1.393-3.757-2.224
							c-1.161-0.837-2.211-1.913-3.234-3.832c-0.332,0.142-0.661,0.201-0.993,0.171c-1.144,2.425-1.934,2.865-2.806,2.975
							c0.107-0.122,0.2-0.283,0.276-0.469c-0.121,0.09-0.298,0.274-0.479,0.476c-0.552,0.027-1.148,0.008-1.799,0.181
							c0.59,0.165,1.116,0.259,1.543,0.104c-0.89,1.024-2.22,2.861-3.386,4.938c0,0-0.281-0.582-0.561-1.164
							c-0.292-0.57-0.583-1.14-0.583-1.14c-0.105,0.16-0.199,0.252-0.306,0.429c-1.636,0.454-0.737,2.465,0.421,3.879
							c-0.532,1.152-0.961,2.312-1.203,3.423c-1.118-1.651-1.889-0.343-2.634,0.89c-0.767,1.257-1.493,2.422-3.218,1.232
							c0.112,2.846-5.749,8.407-3.164,11.872c-0.227-0.163-0.444-0.229-0.555-0.315c-0.11-0.086-0.132-0.172,0.167-0.519
							c-0.435,0.288-0.697,0.393-1.016,0.596c-0.302,0.186-0.584,0.388-0.824,0.622c-0.48,0.469-0.794,1.069-0.776,1.929
							l-2.639-1.659l0.964,5.005c-2.61,0.066-3.919-0.119-4.408-3.052c-0.333,5.674-1.422,3.531-1.332,8.704l-1.326-1.482
							c-0.852,1.026-0.361,4.39-2.105,3.863c-4.783-0.384-10.421,10.43-18.189,13.642c5.276,2.886-4.333,0.821-1.234,4.12
							c-1.311-0.612-2.607-0.363-2.641-2.086c-1.667,3.779-5.593,2.801-4.641,7.368c-1.317-0.617-0.911-1.989-1.78-2.255
							c0.004,0.432,0.033,1.724-0.846,1.46c-0.871-0.268-0.458-1.207-0.477-2.068c-2.545,3.075,0.289,6.265,3.009,9.193
							c-2.757,0.192-3.249,1.111-2.329,3.96c-1.433-0.374-3.231-0.445-1.887-2.577c-1.089,0.89-7.198,4.926-4.956,7.208
							c-0.891-0.233-1.5,1.263-1.48,1.783c-2.269,2.158-2.668,2.163-4.538,4.615l0.962-0.267c1.996,3.514-1.11,2.453-2.457,4.58
							l-0.241-0.321c-5.902,2.258-0.694,2.701-6.831,4.635l1.962,1.411c3.42,3.897-5.605,1.557-6.375,5.279l1.801,0.075
							c0.083,2.501-8.513-1.15-10.199-0.285c-0.593-0.021-0.109-0.939,0.017-1.563c-5.405,1.341,1.888,2.583,0.053,5.625
							c-1.677-0.686-2.59-3.542-4.416-2.043c-1.798-0.082-0.598,8.715-5.152,8.837c1.435,0.375,2.866,0.752,2.483,2.603
							c-1.345,2.129-8.172,1.533-6.683,5.974c-0.475-0.013-0.806-0.159-1.053-0.371c-0.512,2.108-2.898,5.703-2.041,8.057
							c-7.254-4.365-5.066,11.353-10.628,6.117l-3.665,4.539l-0.468-0.644c-2.905,2.378-2.46,4.588-2.009,6.794
							c-0.967,0.275-1.061-0.67-1.305-0.995c-0.151,0.092-0.297,0.181-0.439,0.268c-0.142,0.087-0.293,0.188-0.361,0.2
							c-0.169,0.068-0.329,0.132-0.48,0.192c-0.293,0.123-0.535,0.237-0.735,0.36c-0.401,0.245-0.641,0.524-0.791,0.952
							c-0.315,0.874-0.182,2.246-0.515,5.396c0,0-0.292-0.596-0.584-1.191c-0.282-0.607-0.563-1.213-0.563-1.213
							c0.023,0.909-0.917,0.913-1.826,0.842c-0.945-0.032-1.759-0.247-2.561,1.385c-0.209-0.032-0.427,0.06-0.67,0.292
							c0.043-0.379,0.126-1.019,0.281-1.374c-0.515,0.516-1.105-0.268-1.538-1.33c-0.444-1.076-0.724-2.421-0.938-3.397
							c-0.458-1.989-0.645-2.494-3.943,0.59c0,0-0.723,0.014-1.528-0.067c-0.4-0.038-0.816-0.095-1.136-0.146
							c-0.295-0.022-0.619-0.185-0.604-0.167c0.201,0.299,0.256,0.445,0.325,0.62c0.063,0.169,0.104,0.325,0.125,0.47
							c0.042,0.29,0.004,0.536-0.094,0.745c-0.197,0.42-0.642,0.692-1.175,0.899c-1.048,0.437-2.533,0.521-2.416,1.803
							c-1.684-1.138-1.335-5.708,0.642-4.13l-0.089,0.588c4.154-2.389-2.899-5.904-0.385-7.895
							c-6.764-7.471-11.214-16.604-17.233-23.876l-2.056,3.214l-1.994-2.628c0.08-1.211,1.407-2.749,2.828-0.873
							c0.761-2.29-3.889-1.845-4.535-1.375c-1.885-4.448,4.402-1.43,3.546-2.555l-1.459-1.27l-0.041,0.606
							c-2.146-0.198-3.435,0.734-5.144-1.52c-0.614-1.83,1.108-2.168,0.755-2.792c0.199-0.166,0.135-0.426-0.626-0.885l-2.476-3.342
							l-1.101,3.143c-2.279-0.46-2.436-3.049-3.66,0.538c0.495-1.356,0.196-2.839-0.531-4.338c-0.356-0.742-0.847-1.52-1.35-2.23
							c-0.289-0.463-0.624-0.899-0.979-1.316c-1.39-1.636-3.271-3.175-2.714-3.728c-2.35-0.46-3.721-1.4-4.632-2.405
							c0.346-0.424,0.806-0.872,1.304-1.335c-1.056,0.307-5.459,0.446-3.442-1.289c1.847,0.42,3.168,0.448,4.134,0.34
							c0.97-0.113,1.607-0.387,2.202-0.7c1.17-0.605,2.265-1.484,4.847-0.792c-1.819-0.335-1.389-1.137-1.042-2.102
							c0.168-0.475,0.304-0.978,0.121-1.474c-0.19-0.488-0.673-1-1.912-1.3c0.185-0.111,0.354-0.169,0.51-0.185
							c0.172-0.034,0.352-0.047,0.504-0.005c0.312,0.075,0.574,0.3,0.849,0.56c0.551,0.519,1.156,1.174,2.314,1.036
							c1.549-5.781,9.029-7.91,12.711-13.535c-0.599-0.652-2.346-0.683-2.406-2.62l5.629,0.199c0.531-1.28-3.058-4.229,0.824-4.062
							c-0.782-0.225-1.959-0.568-1.596-1.42c11.764-7.106,14.739-22.52,29.492-27.323c-2.463,0.25-1.811-0.767-0.964-1.848
							c-0.89,0.41-1.634-1.433-2.651-2.076l6.13-2.051c-1.848-2.924,3.711-4.659,1.692-7.161l-0.715,1.704
							c-1.305-4.207-8.423-2.929-11.832-6.312c1.51,4.752-9.266,1.136-7.462,8.353c-1.358,0.082-0.642-1.619-1.815-1.959
							c0.847,2.165,0.313,3.44-1.974,4.687l-0.205-0.54c-4.084,5.516-7.533,6.422-13.57,11.374l2.167,1.113
							c-1.318,1.046-2.108,0.826-3.063,1.025c1.486,3.78,3.181-3.387,5.056,0.505c-5.083-1.481-7.655,8.788-12.773,6.34
							c-1.681,1.909,2.564,1.223,0.883,3.129l-1.563-0.455l1.028,1.732c-1.326,1.059-3.279,0.487-4.271-0.284
							c0.376-0.209,0.483-1.101,0.684-1.5c-2.732,0.5-3.522,5.009-4.438,5.201l2.285-1.256c-1.737,3.082-4.355,5.912-6.8,8.852
							c-1.223,1.47-2.402,2.967-3.406,4.538c-0.502,0.785-0.96,1.588-1.358,2.416c-0.199,0.414-0.383,0.833-0.549,1.26
							c-0.094,0.226-0.139,0.4-0.261,0.672c-0.135,0.295-0.269,0.587-0.401,0.878c0,0,0.338,0.036,0.675,0.072
							c0.333,0.042,0.666,0.083,0.666,0.083c-1.525,3.358-2.609,4.148-4.029,5.116c-1.383,0.925-3.08,2.001-5.19,5.188l-0.1-0.292
							c0.15,1.532-0.489,3.137-1.999,4.698c-0.169-0.807-1.524-0.207-2.927,0.422c-1.388,0.612-2.828,1.257-2.796,0.11
							c-0.431,1.012-0.719,1.765-0.867,2.299c2.321,1.662,3.106,1.988,4.271,2.333c1.14,0.318,2.709,0.713,6.076,1.909
							c0,0-0.369,0.282-0.723,0.581c-0.355,0.297-0.696,0.612-0.696,0.612c2.988,0.893,4.029,0.746,6.72,3.123
							c-1.705-0.755-2.106-0.14-2.52,0.56c-0.435,0.675-0.865,1.453-3.152,0.416c0.363,1.97,1.443,3.604,2.652,4.849
							c1.219,1.255,2.577,2.134,3.74,2.876c0.534,0.35,1.038,0.681,1.517,0.996c0.352,0.229,0.641,0.486,0.833,0.809
							c0.383,0.647,0.375,1.56-0.305,3.04c5.644-1.318-1.16-5.699,0.627-5.312c0.073-1.198,1.384-1.148,2.465-0.943
							c1.138,0.269,2.323,1.012,2.733,1.88c1.144,1.499-2.875,6.713,0.294,10.231c-0.29-0.373-0.604-0.143-0.895-0.513
							c0.168,2.196,3.611,1.467,3.423,4.501c3.144-1.107,1.709,2.251,4.933-0.071l-3.532-2.687c2.393,1.186,7.406-0.097,8.358,4.44
							c-0.811,0.283-2.394,0.057-3.379-0.188c-0.107,1.66,2.079,1.222,1.976,2.936c-3.228,2.326-4.103-3.429-8.112-3.449
							c-0.433,2.057,5.432,1.898,1.32,3.701c5.372-2.125,2.528,3.979,7.776,3.68l-1.934,1.392c0.614,0.14,2.149,0.202,2.714,0.948
							l-3.433,0.733c3.682,0.247,1.535,5.286,4.243,6.235c-3.463-3.895,1.398-2.754,1.267-5.553
							c6.606,2.786-2.278,6.854,3.288,11.556c-0.89-0.519-1.313-3.7,0.515-3.266c0.526,1.356,1.021,3.32,0.628,4.771
							c3.491,3.285,1.369-2.15,3.798-1.568c-1.125,3.119,2.421,1.002,4.488,1.979l-1.815,1.588c2.382,5.123,4.746-2.197,6.529,2.727
							l-3.882,0.623l2.321,1.364l-2.42,1.396c1.717,0.43,2.4,0.644,3.518,1.896c0.957,1.066,1.652,2.367,2.858,4.351
							c0.19-1.08,0.991-1.826,1.987-2.037c1.003-0.203,2.175,0.1,3.284,1.326c0.801,3.118-2.076,1.104,1.412,4.613
							c-0.707,0.336-1.512,0.705-2.215,0.48c-0.696-0.218-1.303-1.045-1.457-2.922c-0.579,0.532-1.629,0.43-2.253,0.896
							c0.494,1.832,1.723,3.397,2.946,4.637c1.229,1.247,2.449,2.164,3.134,2.939c-0.492-0.707-1.067-1.57-1.236-2.292
							c0,0,1.711,0.702,3.268,1.225c1.571,0.54,2.987,0.9,2.987,0.9c0.532,2-0.239,2.222-1.09,2.327
							c1.137,0.916,2.109,0.345,3.606,1.761c-0.737,2.145-0.949,4.996-3.604,3.334c0,0,1.515,0.922,2.934,1.732
							c1.428,0.821,2.76,1.531,2.76,1.531c0.195,1.259,1.691,4.637,1.961,6.139c0.078,0.129,0.085,0.32-0.011,0.599
							c0.011,0.077-0.022,0.12-0.065,0.129c0.019,0.032,0.039,0.065,0.061,0.103c1.627-0.962,3.657-4.543,5.56-7.905
							c1.942-3.405,3.732-6.565,5.96-7.849c0.088-0.653,0.386-1.508,1.117-2.704c1.91-1.726,3.99-2.915,6.063-4.67
							c2.048-1.729,4.109-4.046,5.353-7.354c0,0,0.316-0.017,0.79-0.042c0.448,0.002,0.908,0.153,1.431,0.236
							c1.016,0.198,2.032,0.397,2.032,0.397c1.475-2.755-5.26-0.849-2.803-5.435c1.607-3.37,3.1,1.07,4.668,0.823
							c-0.09-2.504-0.631-7.215,3.693-7.66C204.189,211.209,203.229,211.477,202.731,212.395z M226.982,184.063
							c-0.122,0.873,0.041,2.991-1.361,2.407C224.159,183.985,225.561,184.421,226.982,184.063z M261.328,138.648
							c0.219,0.937-0.637,1.275-1.943,1.338C259.704,139.354,260.294,138.853,261.328,138.648z M371.585,130.758
							c-0.05,0.002-0.086,0.005-0.139,0.018C371.109,128.942,371.2,129.617,371.585,130.758z M373.194,134.236
							c0.603,0.185,0.849-0.042,0.964-0.425c-0.362,0.047-0.742-0.145-1.124-0.489c-0.34-0.294-0.52-0.554-0.751-0.954
							c-0.162,0.296-0.256,0.597-0.176,0.875c0.04,0.139,0.123,0.272,0.263,0.396C372.556,133.815,372.841,134.033,373.194,134.236z
							 M131.907,168.068l-0.053,0.906C130.368,168.315,131.112,168.216,131.907,168.068z"/>
						<path fill="#6A326D" d="M259.368,145.598c-0.438-0.128-0.805-0.393-1.17-0.667
							C258.301,145.415,258.64,145.738,259.368,145.598z"/>
						<path fill="#6A326D" d="M182.241,236.264c-0.05,0.025-0.092,0.081-0.141,0.111c-0.027,0.24-0.02,0.448,0.003,0.634
							L182.241,236.264z"/>
						<path fill="#6A326D" d="M323.689,108.03c-0.186-0.748-0.102-1.328,0.078-1.819C323.295,106.568,323.122,107.13,323.689,108.03
							z"/>
						<path fill="#6A326D" d="M392.811,155.345c0.437-0.762,0.875-1.524,1.533-2.286l-0.871-0.563
							c0.214,0.219,0.387,0.416,0.499,0.563c-0.904,0.958-1.823,1.375-2.715,1.916C392.02,154.953,393.534,154.449,392.811,155.345z
							"/>
						<path fill="#6A326D" d="M361.921,168.259c0.019,0.43-0.41,0.523-0.385,0.953l0.904,0.668
							C363.256,168.823,363.183,167.527,361.921,168.259z"/>
						<path fill="#6A326D" d="M380.947,156.814c-2.582-0.115-2.834,1.23-3.708,2.816c0.068-0.09,0.122-0.178,0.225-0.26
							C380.17,160.581,380.665,158.571,380.947,156.814z"/>
						<path fill="#6A326D" d="M377.018,159.991c-0.29,0.481-0.64,0.969-1.127,1.382
							C376.912,161.931,376.634,160.875,377.018,159.991z"/>
						<path fill="#6A326D" d="M378.722,138.602c0.258,1.101,2.908-0.595,2.579,0.288c1.688-0.018-0.439-1.293-2.152-1.853
							C377.438,136.482,376.074,136.563,378.722,138.602z"/>
						<path fill="#6A326D" d="M372.165,156.753c0,0,0.816,0.013,1.632,0.026c0.828,0,1.655,0,1.655,0s-0.436-0.269-0.887-0.518
							c-0.45-0.251-0.916-0.484-0.916-0.484L372.165,156.753z"/>
						<path fill="#6A326D" d="M372.849,147.273l0.904,2.115c0.464-0.104,0.966,0.101,1.459,0.387
							C374.258,148.539,373.612,147.023,372.849,147.273z"/>
						<path fill="#6A326D" d="M375.212,149.775c0.497,0.652,1.082,1.25,1.91,1.584C376.783,151.007,376.02,150.247,375.212,149.775z
							"/>
						<path fill="#6A326D" d="M373.358,154.223l1.119-0.496c0.243-0.23,0.487-0.461,0.686-0.692l-0.347-0.582
							c0.067,0.194,0.135,0.388,0.302,0.582L373.358,154.223z"/>
						<path fill="#6A326D" d="M355.804,126.709l-2.25-1.516c-0.826,0.358-0.759,1.241,0.136,1.757
							C354.552,127.035,355.437,127.555,355.804,126.709z"/>
						<path fill="#6A326D" d="M355.762,137.183c-0.067-0.875,0.326-1.276,0.692-2.117l-2.407,1.964L355.762,137.183z"/>
						<path fill="#6A326D" d="M350.237,131.869c-0.824,0.364-4.352-1.268-2.041,1.12
							C349.017,132.633,351.268,134.154,350.237,131.869z"/>
						<polygon fill="#6A326D" points="327.508,99.41 327.972,99.889 331.771,96.496 						"/>
						<path fill="#6A326D" d="M308.858,99.883c0.857,0.871-0.436-4.143,0.539-2.954c0.092-1.865-0.834-0.928-0.789-2.503
							C308.201,96.727,307.839,96.062,308.858,99.883z"/>
						<path fill="#6A326D" d="M308.608,94.426c0.069-0.368,0.142-0.805,0.222-1.375C308.674,93.685,308.627,94.094,308.608,94.426z"
							/>
						<polygon fill="#6A326D" points="176.724,90.115 178.83,89.295 176.693,89.155 						"/>
						<path fill="#6A326D" d="M176.357,84.75l2.766,1.76l-1.446-2.823C177.493,84.122,177.136,84.968,176.357,84.75z"/>
						<path fill="#6A326D" d="M235.542,184.463l-0.468-0.644c-0.829-0.35-1.193-0.051-1.927,0.543L235.542,184.463z"/>
						<polygon fill="#6A326D" points="215.335,202.602 215.701,202.306 212.96,200.943 						"/>
						<path fill="#6A326D" d="M202.608,221.764c0.721-0.595,0.984-1.837,1.709-2.434
							C203.329,221.169,199.759,219.454,202.608,221.764z"/>
					</g>
				</g>
			</g>
		</g>
	</g>
	<polygon fill="none" stroke="#000000" stroke-miterlimit="10" points="205.875,153.458 171.596,190.453 137.317,153.458 
		171.595,116.464 	"/>
	<ellipse fill="#ED1C24" stroke="#ED1C24" stroke-miterlimit="10" cx="313.462" cy="153.825" rx="24.239" ry="26.158"/>
	<polygon fill="#00A8CC" stroke="#00A8CC" stroke-miterlimit="10" points="171.595,116.464 171.595,153.458 205.875,153.458 	"/>
	<polygon fill="#0D7B95" stroke="#0D7B95" stroke-miterlimit="10" points="137.317,153.458 171.595,153.458 171.595,116.464 	"/>
	<polygon fill="#162950" stroke="#162950" stroke-miterlimit="10" points="172.081,190.453 172.081,153.458 137.801,153.458 	"/>
	<polygon fill="#274A6E" stroke="#274A6E" stroke-miterlimit="10" points="206.359,153.458 172.081,153.458 172.081,190.453 	"/>
	<path fill="#C72127" stroke="#C72127" stroke-miterlimit="10" d="M335.877,143.854c0,0-0.334,9.611-3.654,14.628
		c-3.322,5.017-8.633,10.75-9.963,11.467c-1.328,0.717-8.797,4.3-8.797,4.3s-8.137,0.358-8.801,0S296,171.955,296,171.955
		s10.002,8.163,14.971,8.028c4.971-0.135,12.383-2.271,12.383-2.271s8.418-6.434,9.639-8.398c1.223-1.966,4.063-6.948,4.385-11.219
		c0.324-4.271,0.84-8.931,0-10.722C336.54,145.581,335.877,143.854,335.877,143.854z"/>
	<path fill="#F04D3E" stroke="#F04D3E" stroke-miterlimit="10" d="M324.301,130.429c0,0,3.701,4.531,0,13.426
		s-10.838,11.761-10.838,11.761s-4.863,4.119-14.113,4.658s-9.738-1.769-9.738-1.769s-0.557-10.522,1.438-14.65
		c1.992-4.128,6.938-10.935,10.26-12.666c3.324-1.732,9.463-3.684,12.154-3.522C316.153,127.827,324.301,130.429,324.301,130.429z"
		/>
	<path fill="#FDDCC9" stroke="#FAB99A" stroke-miterlimit="10" d="M292.141,145.37c0.781,3.922,12.34,1.809,15.602-1.516
		c3.348-3.409,6.84-9.512,5.094-13.053c-2.262-4.59-10.51-0.767-14.148,2.417C294.565,136.824,291.194,140.612,292.141,145.37z"/>
	<rect x="418.526" y="101.599" fill="none" width="928.474" height="154.166"/>
	<text transform="matrix(1 0 0 1 418.5259 200.7222)" fill="#BE86B2" font-family="'Avayx'" font-size="150">Sicanima</text>
</g>
</svg>
