<?xml version="1.0" encoding="utf-8"?>
<!-- Generator: Adobe Illustrator 16.0.3, SVG Export Plug-In . SVG Version: 6.00 Build 0)  -->
<!DOCTYPE svg PUBLIC "-//W3C//DTD SVG 1.1//EN" "http://www.w3.org/Graphics/SVG/1.1/DTD/svg11.dtd">
<svg version="1.1" id="Layer_2" xmlns="http://www.w3.org/2000/svg" xmlns:xlink="http://www.w3.org/1999/xlink" x="0px" y="0px"
	 width="612px" height="612px" viewBox="0 0 612 612" enable-background="new 0 0 612 612" xml:space="preserve">
<polygon fill="#2B3990" points="317.057,556.852 214.713,350.843 95.234,253.728 240.467,214.347 315.199,66.371 372.675,199.268 
	496.939,194 411,326.443 "/>
<polygon fill="#27AAE1" points="315.199,66.371 339.187,271.337 372.675,199.268 "/>
<polygon fill="#262262" points="496.939,194 339.187,271.337 411,326.443 "/>
<polygon fill="#262262" points="411,326.443 339.187,271.337 317.057,556.852 "/>
<polygon fill="#073F6E" points="95.234,253.728 214.713,350.843 339.187,271.337 "/>
<polygon fill="#007DC5" points="95.234,253.728 339.187,271.337 240.467,214.347 "/>
<polygon fill="#FBB040" points="352.429,264.845 337.562,287.979 323.278,270.235 337.562,252 "/>
<polygon fill="#F7941E" points="341.435,270.235 337.562,252 352.429,264.845 "/>
<polygon fill="#F15A29" points="337.562,287.979 341.435,270.235 323.278,270.235 "/>
<polygon fill="#EF4136" points="352.429,264.845 341.435,270.235 337.562,287.979 "/>
<polygon fill="#FBB040" points="141.935,200.341 127.067,223.475 112.784,205.731 127.067,187.496 "/>
<polygon fill="#F7941E" points="130.94,205.731 127.067,187.496 141.935,200.341 "/>
<polygon fill="#F15A29" points="127.067,223.475 130.94,205.731 112.784,205.731 "/>
<polygon fill="#EF4136" points="141.935,200.341 130.94,205.731 127.067,223.475 "/>
<polygon fill="#FBB040" points="489.929,163.721 475.062,186.854 460.778,169.111 475.062,150.876 "/>
<polygon fill="#F7941E" points="478.935,169.111 475.062,150.876 489.929,163.721 "/>
<polygon fill="#F15A29" points="475.062,186.854 478.935,169.111 460.778,169.111 "/>
<polygon fill="#EF4136" points="489.929,163.721 478.935,169.111 475.062,186.854 "/>
</svg>
