<?xml version="1.0" encoding="utf-8"?>
<!-- Generator: Adobe Illustrator 16.0.3, SVG Export Plug-In . SVG Version: 6.00 Build 0)  -->
<!DOCTYPE svg PUBLIC "-//W3C//DTD SVG 1.1//EN" "http://www.w3.org/Graphics/SVG/1.1/DTD/svg11.dtd">
<svg version="1.1" id="Layer_2" xmlns="http://www.w3.org/2000/svg" xmlns:xlink="http://www.w3.org/1999/xlink" x="0px" y="0px"
	 width="612px" height="612px" viewBox="0 0 612 612" enable-background="new 0 0 612 612" xml:space="preserve">
<polygon fill="#2B3990" points="317.057,573.852 214.713,367.843 95.234,270.728 240.467,231.347 315.199,83.371 372.675,216.268 
	496.939,211 411,343.443 "/>
<polygon fill="#27AAE1" points="315.199,83.371 339.187,288.337 372.675,216.268 "/>
<polygon fill="#262262" points="496.939,211 339.187,288.337 411,343.443 "/>
<polygon fill="#262262" points="411,343.443 339.187,288.337 317.057,573.852 "/>
<polygon fill="#073F6E" points="95.234,270.728 214.713,367.843 339.187,288.337 "/>
<polygon fill="#007DC5" points="95.234,270.728 339.187,288.337 240.467,231.347 "/>
<polygon fill="#FBB040" points="352.429,281.845 337.562,304.979 323.278,287.235 337.562,269 "/>
<polygon fill="#F7941E" points="341.435,287.235 337.562,269 352.429,281.845 "/>
<polygon fill="#F15A29" points="337.562,304.979 341.435,287.235 323.278,287.235 "/>
<polygon fill="#EF4136" points="352.429,281.845 341.435,287.235 337.562,304.979 "/>
<polygon fill="#FBB040" points="141.935,242.341 127.067,265.475 112.784,247.731 127.067,229.496 "/>
<polygon fill="#F7941E" points="130.94,247.731 127.067,229.496 141.935,242.341 "/>
<polygon fill="#F15A29" points="127.067,265.475 130.94,247.731 112.784,247.731 "/>
<polygon fill="#EF4136" points="141.935,242.341 130.94,247.731 127.067,265.475 "/>
<polygon fill="#FBB040" points="489.929,162.721 475.062,185.854 460.778,168.111 475.062,149.876 "/>
<polygon fill="#F7941E" points="478.935,168.111 475.062,149.876 489.929,162.721 "/>
<polygon fill="#F15A29" points="475.062,185.854 478.935,168.111 460.778,168.111 "/>
<polygon fill="#EF4136" points="489.929,162.721 478.935,168.111 475.062,185.854 "/>
</svg>
