<?xml version="1.0" encoding="utf-8"?>
<!-- Generator: Adobe Illustrator 16.0.3, SVG Export Plug-In . SVG Version: 6.00 Build 0)  -->
<!DOCTYPE svg PUBLIC "-//W3C//DTD SVG 1.1//EN" "http://www.w3.org/Graphics/SVG/1.1/DTD/svg11.dtd">
<svg version="1.1" id="Layer_2" xmlns="http://www.w3.org/2000/svg" xmlns:xlink="http://www.w3.org/1999/xlink" x="0px" y="0px"
	 width="612px" height="612px" viewBox="0 0 612 612" enable-background="new 0 0 612 612" xml:space="preserve">
<polygon fill="#2B3990" points="317.057,555.852 214.713,349.843 95.234,252.728 240.467,213.347 315.199,65.371 372.675,198.268 
	496.939,193 411,325.443 "/>
<polygon fill="#27AAE1" points="315.199,65.371 339.187,270.337 372.675,198.268 "/>
<polygon fill="#262262" points="496.939,193 339.187,270.337 411,325.443 "/>
<polygon fill="#262262" points="411,325.443 339.187,270.337 317.057,555.852 "/>
<polygon fill="#073F6E" points="95.234,252.728 214.713,349.843 339.187,270.337 "/>
<polygon fill="#007DC5" points="95.234,252.728 339.187,270.337 240.467,213.347 "/>
<polygon fill="#FBB040" points="352.429,263.845 337.562,286.979 323.278,269.235 337.562,251 "/>
<polygon fill="#F7941E" points="341.435,269.235 337.562,251 352.429,263.845 "/>
<polygon fill="#F15A29" points="337.562,286.979 341.435,269.235 323.278,269.235 "/>
<polygon fill="#EF4136" points="352.429,263.845 341.435,269.235 337.562,286.979 "/>
<polygon fill="#FBB040" points="141.935,195.341 127.067,218.475 112.784,200.731 127.067,182.496 "/>
<polygon fill="#F7941E" points="130.94,200.731 127.067,182.496 141.935,195.341 "/>
<polygon fill="#F15A29" points="127.067,218.475 130.94,200.731 112.784,200.731 "/>
<polygon fill="#EF4136" points="141.935,195.341 130.94,200.731 127.067,218.475 "/>
<polygon fill="#FBB040" points="489.929,164.721 475.062,187.854 460.778,170.111 475.062,151.876 "/>
<polygon fill="#F7941E" points="478.935,170.111 475.062,151.876 489.929,164.721 "/>
<polygon fill="#F15A29" points="475.062,187.854 478.935,170.111 460.778,170.111 "/>
<polygon fill="#EF4136" points="489.929,164.721 478.935,170.111 475.062,187.854 "/>
</svg>
