<?xml version="1.0" encoding="utf-8"?>
<!-- Generator: Adobe Illustrator 16.0.3, SVG Export Plug-In . SVG Version: 6.00 Build 0)  -->
<!DOCTYPE svg PUBLIC "-//W3C//DTD SVG 1.1//EN" "http://www.w3.org/Graphics/SVG/1.1/DTD/svg11.dtd">
<svg version="1.1" id="Layer_2" xmlns="http://www.w3.org/2000/svg" xmlns:xlink="http://www.w3.org/1999/xlink" x="0px" y="0px"
	 width="612px" height="612px" viewBox="0 0 612 612" enable-background="new 0 0 612 612" xml:space="preserve">
<polygon fill="#2B3990" points="317.057,568.852 214.713,362.843 95.234,265.728 240.467,226.347 315.199,78.371 372.675,211.268 
	496.939,206 411,338.443 "/>
<polygon fill="#27AAE1" points="315.199,78.371 339.187,283.337 372.675,211.268 "/>
<polygon fill="#262262" points="496.939,206 339.187,283.337 411,338.443 "/>
<polygon fill="#262262" points="411,338.443 339.187,283.337 317.057,568.852 "/>
<polygon fill="#073F6E" points="95.234,265.728 214.713,362.843 339.187,283.337 "/>
<polygon fill="#007DC5" points="95.234,265.728 339.187,283.337 240.467,226.347 "/>
<polygon fill="#FBB040" points="352.429,276.845 337.562,299.979 323.278,282.235 337.562,264 "/>
<polygon fill="#F7941E" points="341.435,282.235 337.562,264 352.429,276.845 "/>
<polygon fill="#F15A29" points="337.562,299.979 341.435,282.235 323.278,282.235 "/>
<polygon fill="#EF4136" points="352.429,276.845 341.435,282.235 337.562,299.979 "/>
<polygon fill="#FBB040" points="141.935,225.341 127.067,248.475 112.784,230.731 127.067,212.496 "/>
<polygon fill="#F7941E" points="130.94,230.731 127.067,212.496 141.935,225.341 "/>
<polygon fill="#F15A29" points="127.067,248.475 130.94,230.731 112.784,230.731 "/>
<polygon fill="#EF4136" points="141.935,225.341 130.94,230.731 127.067,248.475 "/>
<polygon fill="#FBB040" points="489.929,164.721 475.062,187.854 460.778,170.111 475.062,151.876 "/>
<polygon fill="#F7941E" points="478.935,170.111 475.062,151.876 489.929,164.721 "/>
<polygon fill="#F15A29" points="475.062,187.854 478.935,170.111 460.778,170.111 "/>
<polygon fill="#EF4136" points="489.929,164.721 478.935,170.111 475.062,187.854 "/>
</svg>
