<?xml version="1.0" encoding="utf-8"?>
<!-- Generator: Adobe Illustrator 16.0.3, SVG Export Plug-In . SVG Version: 6.00 Build 0)  -->
<!DOCTYPE svg PUBLIC "-//W3C//DTD SVG 1.1//EN" "http://www.w3.org/Graphics/SVG/1.1/DTD/svg11.dtd">
<svg version="1.1" id="Layer_2" xmlns="http://www.w3.org/2000/svg" xmlns:xlink="http://www.w3.org/1999/xlink" x="0px" y="0px"
	 width="612px" height="612px" viewBox="0 0 612 612" enable-background="new 0 0 612 612" xml:space="preserve">
<polygon fill="#2B3990" points="317.057,549.852 214.713,343.843 95.234,246.728 240.467,207.347 315.199,59.371 372.675,192.268 
	496.939,187 411,319.443 "/>
<polygon fill="#27AAE1" points="315.199,59.371 339.187,264.337 372.675,192.268 "/>
<polygon fill="#262262" points="496.939,187 339.187,264.337 411,319.443 "/>
<polygon fill="#262262" points="411,319.443 339.187,264.337 317.057,549.852 "/>
<polygon fill="#073F6E" points="95.234,246.728 214.713,343.843 339.187,264.337 "/>
<polygon fill="#007DC5" points="95.234,246.728 339.187,264.337 240.467,207.347 "/>
<polygon fill="#FBB040" points="352.429,257.845 337.562,280.979 323.278,263.235 337.562,245 "/>
<polygon fill="#F7941E" points="341.435,263.235 337.562,245 352.429,257.845 "/>
<polygon fill="#F15A29" points="337.562,280.979 341.435,263.235 323.278,263.235 "/>
<polygon fill="#EF4136" points="352.429,257.845 341.435,263.235 337.562,280.979 "/>
<polygon fill="#FBB040" points="141.935,181.341 127.067,204.475 112.784,186.731 127.067,168.496 "/>
<polygon fill="#F7941E" points="130.94,186.731 127.067,168.496 141.935,181.341 "/>
<polygon fill="#F15A29" points="127.067,204.475 130.94,186.731 112.784,186.731 "/>
<polygon fill="#EF4136" points="141.935,181.341 130.94,186.731 127.067,204.475 "/>
<polygon fill="#FBB040" points="489.929,163.721 475.062,186.854 460.778,169.111 475.062,150.876 "/>
<polygon fill="#F7941E" points="478.935,169.111 475.062,150.876 489.929,163.721 "/>
<polygon fill="#F15A29" points="475.062,186.854 478.935,169.111 460.778,169.111 "/>
<polygon fill="#EF4136" points="489.929,163.721 478.935,169.111 475.062,186.854 "/>
</svg>
