<?xml version="1.0" encoding="utf-8"?>
<!-- Generator: Adobe Illustrator 16.0.3, SVG Export Plug-In . SVG Version: 6.00 Build 0)  -->
<!DOCTYPE svg PUBLIC "-//W3C//DTD SVG 1.1//EN" "http://www.w3.org/Graphics/SVG/1.1/DTD/svg11.dtd">
<svg version="1.1" id="Layer_3" xmlns="http://www.w3.org/2000/svg" xmlns:xlink="http://www.w3.org/1999/xlink" x="0px" y="0px"
	 width="941px" height="601px" viewBox="0 0 941 601" enable-background="new 0 0 941 601" xml:space="preserve">
<polygon fill="#2C003E" stroke="#2C003E" stroke-width="6" stroke-miterlimit="10" points="224,99 224,411 387,411 422,499 127,499 
	127,99 "/>
<path fill="none" stroke="#000000" stroke-width="6" stroke-miterlimit="10" d="M422,499"/>
<polyline fill="#FFA372" stroke="#FFA372" stroke-width="6" stroke-miterlimit="10" points="525,498 363,98 260,99 422,499 525,498 
	"/>
<g>
	<polyline fill="#512B58" points="526,500 474.887,365.855 578,98 683,98 	"/>
	<path fill="#512B58" d="M526,500l-6.834-16.599l-6.76-16.627l-13.395-33.302l-13.258-33.353l-13.125-33.404l-0.331-0.842
		l0.334-0.887l12.635-33.58l12.706-33.553l12.818-33.509l6.41-16.754l6.479-16.728l12.96-33.455l13.072-33.411
		c4.376-11.13,8.709-22.277,13.145-33.384l13.247-33.344l0.525-1.323l1.372,0.02l26.25,0.382l26.25,0.446l26.25,0.536
		c8.75,0.179,17.5,0.436,26.25,0.669c-8.75,0.233-17.5,0.491-26.25,0.669l-26.25,0.536l-26.25,0.446L578,100.033l1.897-1.303
		l-12.531,33.62c-4.157,11.214-8.417,22.389-12.634,33.581l-12.706,33.552l-12.818,33.509l-6.41,16.754l-6.479,16.728l-12.96,33.455
		l-13.073,33.412l-13.143,33.384l0.003-1.729l12.431,33.668l12.298,33.72l12.162,33.771l6.019,16.909L526,500z"/>
</g>
<g>
	<polyline fill="#EA9085" points="850,499 684,104 638.499,220.75 747,500 850,499 	"/>
	<polygon fill="#EA9085" points="850,499 839.253,474.469 828.585,449.904 807.281,400.763 786.085,351.574 764.983,302.347 
		743.945,253.093 723.01,203.796 702.098,154.49 681.29,105.139 686.739,105.068 664.032,163.46 641.213,221.808 641.214,219.696 
		668.17,289.574 695.007,359.498 721.697,429.479 734.975,464.496 748.196,499.535 746.987,498.717 798.493,498.799 
		824.246,498.859 850,499 824.254,499.641 798.507,500.201 747.013,501.283 746.138,501.302 745.804,500.465 731.9,465.691 
		718.053,430.896 690.492,361.252 663.079,291.552 635.784,221.806 635.373,220.754 635.785,219.693 658.467,161.291 
		681.261,102.933 683.904,96.163 686.711,102.861 707.402,152.26 727.99,201.704 748.555,251.157 769.017,300.653 789.415,350.176 
		809.719,399.737 829.915,449.346 839.997,474.156 	"/>
</g>
</svg>
