<?xml version="1.0" encoding="utf-8"?>
<!-- Generator: Adobe Illustrator 16.0.3, SVG Export Plug-In . SVG Version: 6.00 Build 0)  -->
<!DOCTYPE svg PUBLIC "-//W3C//DTD SVG 1.1//EN" "http://www.w3.org/Graphics/SVG/1.1/DTD/svg11.dtd">
<svg version="1.1" id="Layer_3" xmlns="http://www.w3.org/2000/svg" xmlns:xlink="http://www.w3.org/1999/xlink" x="0px" y="0px"
	 width="941px" height="601px" viewBox="0 0 941 601" enable-background="new 0 0 941 601" xml:space="preserve">
<polygon stroke="#2C003E" stroke-width="6" stroke-miterlimit="10" points="224,99 224,411 387,411 422,499 127,499 127,99 "/>
<path fill="none" stroke="#000000" stroke-width="6" stroke-miterlimit="10" d="M422,499"/>
<polyline fill="#9D18B4" stroke="#9D18B4" stroke-width="6" stroke-miterlimit="10" points="525,498 363,98 260,99 422,499 525,498 
	"/>
<g>
	<polyline fill="#2CD3D0" points="526,500 475.887,368.855 578,95 683,96 	"/>
</g>
<g>
	<polyline stroke="#000000" stroke-miterlimit="10" points="850,499 684,104 638.498,220.75 747,500 850,499 	"/>
	<polygon stroke="#000000" stroke-miterlimit="10" points="850,499 839.253,474.469 828.585,449.904 807.281,400.764 
		786.085,351.574 764.983,302.348 743.945,253.093 723.01,203.796 702.098,154.49 681.289,105.139 686.739,105.068 664.031,163.46 
		641.213,221.808 641.214,219.696 668.17,289.574 695.007,359.498 721.697,429.479 734.975,464.496 748.196,499.535 
		746.987,498.717 798.492,498.799 824.245,498.859 850,499 824.254,499.641 798.507,500.201 747.013,501.283 746.138,501.302 
		745.804,500.465 731.9,465.691 718.053,430.896 690.491,361.252 663.078,291.552 635.783,221.806 635.372,220.754 635.784,219.693 
		658.467,161.291 681.261,102.933 683.904,96.163 686.711,102.861 707.402,152.26 727.99,201.704 748.555,251.157 769.017,300.653 
		789.414,350.176 809.719,399.736 829.914,449.346 839.996,474.156 	"/>
</g>
</svg>
