<?xml version="1.0" encoding="utf-8"?>
<!-- Generator: Adobe Illustrator 16.0.3, SVG Export Plug-In . SVG Version: 6.00 Build 0)  -->
<!DOCTYPE svg PUBLIC "-//W3C//DTD SVG 1.1//EN" "http://www.w3.org/Graphics/SVG/1.1/DTD/svg11.dtd">
<svg version="1.1" id="Layer_1" xmlns="http://www.w3.org/2000/svg" xmlns:xlink="http://www.w3.org/1999/xlink" x="0px" y="0px"
	 width="612px" height="612px" viewBox="0 0 612 612" enable-background="new 0 0 612 612" xml:space="preserve">
<polygon fill="#2B3990" points="318.438,569.667 210.389,349.299 103.261,238.708 252.138,216.818 319.342,75.813 385.201,217.513 
	533.863,240.958 425.689,350.424 "/>
<polygon fill="#27AAE1" points="319.342,75.813 318.563,290.865 385.201,217.513 "/>
<polygon fill="#262262" points="533.863,240.958 318.563,290.865 425.689,350.424 "/>
<polygon fill="#262262" points="425.689,350.424 319.756,290.865 318.438,569.667 "/>
<polygon fill="#073F6E" points="103.261,238.708 210.389,349.299 318.662,290.865 "/>
<polygon fill="#007DC5" points="103.261,238.708 318.563,290.865 252.138,216.818 "/>
<polygon fill="#FBB040" points="334.606,290.63 318.438,307.584 302.718,291.101 318.887,274.146 "/>
<polygon fill="#F7941E" points="318.662,290.865 318.887,274.146 334.606,290.63 "/>
<polygon fill="#F15A29" points="318.438,307.584 318.662,290.865 302.718,291.101 "/>
<polygon fill="#EF4136" points="334.606,290.63 318.662,290.865 318.438,307.584 "/>
<polygon fill="#FBB040" points="122.278,203.822 106.109,220.777 90.389,204.293 106.558,187.339 "/>
<polygon fill="#F7941E" points="106.333,204.058 106.558,187.339 122.278,203.822 "/>
<polygon fill="#F15A29" points="106.109,220.777 106.333,204.058 90.389,204.293 "/>
<polygon fill="#EF4136" points="122.278,203.822 106.333,204.058 106.109,220.777 "/>
<polygon fill="#FBB040" points="545.646,198.476 529.478,215.431 513.758,198.947 529.927,181.993 "/>
<polygon fill="#F7941E" points="529.702,198.711 529.927,181.993 545.646,198.476 "/>
<polygon fill="#F15A29" points="529.478,215.431 529.702,198.711 513.758,198.947 "/>
<polygon fill="#EF4136" points="545.646,198.476 529.702,198.711 529.478,215.431 "/>
</svg>
