<?xml version="1.0" encoding="utf-8"?>
<!-- Generator: Adobe Illustrator 16.0.3, SVG Export Plug-In . SVG Version: 6.00 Build 0)  -->
<!DOCTYPE svg PUBLIC "-//W3C//DTD SVG 1.1//EN" "http://www.w3.org/Graphics/SVG/1.1/DTD/svg11.dtd">
<svg version="1.1" id="Layer_1" xmlns="http://www.w3.org/2000/svg" xmlns:xlink="http://www.w3.org/1999/xlink" x="0px" y="0px"
	 width="612px" height="612px" viewBox="0 0 612 612" enable-background="new 0 0 612 612" xml:space="preserve">
<polygon fill="#2B3990" points="318.438,561.667 210.389,341.299 103.261,230.708 252.138,208.818 319.342,67.813 385.201,209.513 
	533.863,232.958 425.689,342.424 "/>
<polygon fill="#27AAE1" points="319.342,67.813 318.563,282.865 385.201,209.513 "/>
<polygon fill="#262262" points="533.863,232.958 318.563,282.865 425.689,342.424 "/>
<polygon fill="#262262" points="425.689,342.424 319.756,282.865 318.438,561.667 "/>
<polygon fill="#073F6E" points="103.261,230.708 210.389,341.299 318.662,282.865 "/>
<polygon fill="#007DC5" points="103.261,230.708 318.563,282.865 252.138,208.818 "/>
<polygon fill="#FBB040" points="334.606,282.63 318.438,299.584 302.718,283.101 318.887,266.146 "/>
<polygon fill="#F7941E" points="318.662,282.865 318.887,266.146 334.606,282.63 "/>
<polygon fill="#F15A29" points="318.438,299.584 318.662,282.865 302.718,283.101 "/>
<polygon fill="#EF4136" points="334.606,282.63 318.662,282.865 318.438,299.584 "/>
<polygon fill="#FBB040" points="122.278,188.822 106.109,205.777 90.389,189.293 106.558,172.339 "/>
<polygon fill="#F7941E" points="106.333,189.058 106.558,172.339 122.278,188.822 "/>
<polygon fill="#F15A29" points="106.109,205.777 106.333,189.058 90.389,189.293 "/>
<polygon fill="#EF4136" points="122.278,188.822 106.333,189.058 106.109,205.777 "/>
<polygon fill="#FBB040" points="545.646,198.476 529.478,215.431 513.758,198.947 529.927,181.993 "/>
<polygon fill="#F7941E" points="529.702,198.711 529.927,181.993 545.646,198.476 "/>
<polygon fill="#F15A29" points="529.478,215.431 529.702,198.711 513.758,198.947 "/>
<polygon fill="#EF4136" points="545.646,198.476 529.702,198.711 529.478,215.431 "/>
</svg>
