<?xml version="1.0" encoding="utf-8"?>
<!-- Generator: Adobe Illustrator 16.0.3, SVG Export Plug-In . SVG Version: 6.00 Build 0)  -->
<!DOCTYPE svg PUBLIC "-//W3C//DTD SVG 1.1//EN" "http://www.w3.org/Graphics/SVG/1.1/DTD/svg11.dtd">
<svg version="1.1" id="Layer_1" xmlns="http://www.w3.org/2000/svg" xmlns:xlink="http://www.w3.org/1999/xlink" x="0px" y="0px"
	 width="612px" height="612px" viewBox="0 0 612 612" enable-background="new 0 0 612 612" xml:space="preserve">
<polygon fill="#2B3990" points="318.438,558.667 210.389,338.299 103.261,227.708 252.138,205.818 319.342,64.813 385.201,206.513 
	533.863,229.958 425.689,339.424 "/>
<polygon fill="#27AAE1" points="319.342,64.813 318.563,279.865 385.201,206.513 "/>
<polygon fill="#262262" points="533.863,229.958 318.563,279.865 425.689,339.424 "/>
<polygon fill="#262262" points="425.689,339.424 319.756,279.865 318.438,558.667 "/>
<polygon fill="#073F6E" points="103.261,227.708 210.389,338.299 318.662,279.865 "/>
<polygon fill="#007DC5" points="103.261,227.708 318.563,279.865 252.138,205.818 "/>
<polygon fill="#FBB040" points="334.606,279.63 318.438,296.584 302.718,280.101 318.887,263.146 "/>
<polygon fill="#F7941E" points="318.662,279.865 318.887,263.146 334.606,279.63 "/>
<polygon fill="#F15A29" points="318.438,296.584 318.662,279.865 302.718,280.101 "/>
<polygon fill="#EF4136" points="334.606,279.63 318.662,279.865 318.438,296.584 "/>
<polygon fill="#FBB040" points="122.278,179.822 106.109,196.777 90.389,180.293 106.558,163.339 "/>
<polygon fill="#F7941E" points="106.333,180.058 106.558,163.339 122.278,179.822 "/>
<polygon fill="#F15A29" points="106.109,196.777 106.333,180.058 90.389,180.293 "/>
<polygon fill="#EF4136" points="122.278,179.822 106.333,180.058 106.109,196.777 "/>
<polygon fill="#FBB040" points="545.646,201.476 529.478,218.431 513.758,201.947 529.927,184.993 "/>
<polygon fill="#F7941E" points="529.702,201.711 529.927,184.993 545.646,201.476 "/>
<polygon fill="#F15A29" points="529.478,218.431 529.702,201.711 513.758,201.947 "/>
<polygon fill="#EF4136" points="545.646,201.476 529.702,201.711 529.478,218.431 "/>
</svg>
