<?xml version="1.0" encoding="utf-8"?>
<!-- Generator: Adobe Illustrator 16.0.3, SVG Export Plug-In . SVG Version: 6.00 Build 0)  -->
<!DOCTYPE svg PUBLIC "-//W3C//DTD SVG 1.1//EN" "http://www.w3.org/Graphics/SVG/1.1/DTD/svg11.dtd">
<svg version="1.1" id="Layer_2" xmlns="http://www.w3.org/2000/svg" xmlns:xlink="http://www.w3.org/1999/xlink" x="0px" y="0px"
	 width="411px" height="441px" viewBox="0 0 411 441" enable-background="new 0 0 411 441" xml:space="preserve">
<polygon fill="#AF8AB6" stroke="#AF8AB6" stroke-miterlimit="10" points="271.846,353.494 211.003,258.411 163.364,381.495 
	216.311,421.191 "/>
<polygon fill="#AF8AB6" stroke="#AF8AB6" stroke-miterlimit="10" points="301.092,162.8 226.538,357.118 125.27,206.599 
	197.236,158.784 "/>
<polygon fill="#512B58" stroke="#49274F" stroke-miterlimit="10" points="271.846,353.204 230.328,387.153 226.156,357.349 
	247.611,302.067 "/>
<polygon fill="#49274F" stroke="#49274F" stroke-miterlimit="10" points="216.595,422.925 163.649,380.774 229.512,388.178 "/>
<polygon fill="#2C003E" stroke="#2C003E" stroke-miterlimit="10" points="269.846,356.494 230.602,387.277 217.311,421.191 "/>
<polygon fill="#2C003E" stroke="#2C003E" stroke-miterlimit="10" points="247.155,217.313 300.922,163.755 226.538,355.118 "/>
<polygon fill="#5E3965" stroke="#5E3965" stroke-miterlimit="10" points="247.155,217.313 125.27,206.599 226.538,357.118 "/>
<polygon stroke="#000000" stroke-miterlimit="10" points="211.48,243.725 238.492,286.103 265.942,242.224 "/>
<polygon fill="#8D6692" stroke="#AF8AB6" stroke-miterlimit="10" points="199.305,131.476 187.53,178.77 231.557,196.407 
	231.557,156.023 "/>
<polygon fill="#8D6692" stroke="#AF8AB6" stroke-miterlimit="10" points="248.93,167.11 231.557,196.407 231.557,156.023 
	235.595,133.813 "/>
<path stroke="#000000" stroke-miterlimit="10" d="M267.252,223.427c3.908,17.256-5.896,37.524-26.423,37.935
	c-18.459,0.369-25.981-7.864-30.99-22.57c-5.857-17.2,12.273-37.238,30.736-37.238C259.039,201.554,264.418,210.912,267.252,223.427
	z"/>
<polygon opacity="0.5" fill="#49274F" stroke="#49274F" stroke-miterlimit="10" points="231.557,196.339 194.043,152.337 
	199.305,130.195 231.557,156.023 235.416,132.645 248.478,165.233 "/>
<ellipse opacity="0.5" fill="#FFA372" stroke="#AF8AB6" stroke-miterlimit="10" cx="239.358" cy="232.481" rx="19.67" ry="20.301"/>
<ellipse opacity="0.5" fill="#EA9085" stroke="#AF8AB6" stroke-miterlimit="10" cx="239.34" cy="232.48" rx="24.085" ry="24.856"/>
<path fill="#F7A173" stroke="#F7A173" stroke-miterlimit="10" d="M254.288,232.597c0,8.155-6.287,14.765-14.045,14.765
	c-7.757,0-14.044-6.61-14.044-14.765c0-0.916,0.079-1.812,0.23-2.68c1.199-6.876,6.929-12.086,13.814-12.086
	C248.001,217.831,254.288,224.442,254.288,232.597z"/>
<path fill="#EA9085" stroke="#EA9085" stroke-miterlimit="10" d="M249.139,244.022c-20.512,4.938-22.77-13.141-22.77-13.141
	c-0.664,7.01,2.951,10.996,2.951,10.996s3.962,4.845,7.927,5.147c3.964,0.302,4.899,0.817,8.329-0.764
	C249.004,244.677,249.139,244.022,249.139,244.022z"/>
<path fill="#FAB687" stroke="#FAB687" stroke-miterlimit="10" d="M253.523,233.343c-1.397,3.278-7.301,2.385-11.492,1.416
	c-5.987-1.385-12.147-7.134-12.147-10.739c0-3.604,6.022-6.189,12.147-6.189C248.155,217.831,256.097,227.302,253.523,233.343z"/>
<path opacity="0.2" fill="#FFFFFF" stroke="#FAB687" stroke-miterlimit="10" d="M252.085,224.825
	c0.327,2.253-5.723,1.025-8.157,0.389c-3.096-0.81-5.77-3.763-5.77-5.817c0-2.054,4.039-2.063,7.092-0.6
	C248.059,220.145,251.794,222.795,252.085,224.825z"/>
<polygon fill="#AF8AB6" stroke="#AF8AB6" stroke-miterlimit="10" points="276.162,83.353 231.292,165.516 181.738,109.572 
	229.457,5.856 "/>
<polygon fill="#CEB0D4" stroke="#49274F" stroke-miterlimit="10" points="259.356,91.794 230.915,149.402 198.524,103.543 
	229.471,31.429 "/>
<polygon fill="#49274F" stroke="#49274F" stroke-miterlimit="10" points="181.738,109.572 198.524,103.543 230.915,149.402 
	230.357,167.111 "/>
<polygon fill="#CEB0D4" stroke="#CEB0D4" stroke-miterlimit="10" points="228.081,10.531 228.097,31.429 197.147,103.543 
	181.738,109.144 "/>
<polygon fill="#49274F" stroke="#49274F" stroke-miterlimit="10" points="276.162,83.353 259.356,91.794 230.915,149.402 
	230.357,167.111 "/>
<polygon opacity="0.5" fill="#FFFFFF" stroke="#FFFFFF" stroke-miterlimit="10" points="234.67,48.12 208.452,116.153 
	214.126,124.168 234.651,46.926 "/>
<polygon opacity="0.5" fill="#FFFFFF" stroke="#FFFFFF" stroke-miterlimit="10" points="216.848,127.176 223.362,137.607 
	244.393,64.833 "/>
<polygon fill="#49274F" stroke="#49274F" stroke-miterlimit="10" points="228.95,6.194 182.973,70.731 181.738,108.144 "/>
<path fill="#AF8AB6" stroke="#AF8AB6" stroke-miterlimit="10" d="M114.102,193.455l29.573,50.21v178.124
	C143.675,421.789,83.542,264.22,114.102,193.455z"/>
<path fill="#2C003E" stroke="#2C003E" stroke-miterlimit="10" d="M143.675,421.789c-3.378-162.039-29.573-228.334-29.573-228.334
	l29.573,50.21V421.789z"/>
<path opacity="0.5" fill="#49274F" stroke="#49274F" stroke-miterlimit="10" d="M114.744,307.622
	c24.802,33.562,19.512-29.301,19.512-29.301L145.1,426.255C145.1,426.255,103.1,291.866,114.744,307.622z"/>
<path fill="#AF8AB6" stroke="#AF8AB6" stroke-miterlimit="10" d="M308.137,152.018l-19.685,57.241l16.208,172.974
	C304.66,382.232,346.528,218.859,308.137,152.018z"/>
<path fill="#2C003E" stroke="#2C003E" stroke-miterlimit="10" d="M304.66,382.232c-15.029-161.376,3.477-230.215,3.477-230.215
	l-19.685,57.241L304.66,382.232z"/>
<path opacity="0.5" fill="#49274F" stroke="#49274F" stroke-miterlimit="10" d="M321.802,254.456
	c-20.834,36.159-23.712-12.898-23.712-12.898l6.01,148.208C304.1,389.765,331.582,237.481,321.802,254.456z"/>
</svg>
