<?xml version="1.0" encoding="utf-8"?>
<!-- Generator: Adobe Illustrator 16.0.3, SVG Export Plug-In . SVG Version: 6.00 Build 0)  -->
<!DOCTYPE svg PUBLIC "-//W3C//DTD SVG 1.1//EN" "http://www.w3.org/Graphics/SVG/1.1/DTD/svg11.dtd">
<svg version="1.1" id="Layer_2" xmlns="http://www.w3.org/2000/svg" xmlns:xlink="http://www.w3.org/1999/xlink" x="0px" y="0px"
	 width="411px" height="441px" viewBox="0 0 411 441" enable-background="new 0 0 411 441" xml:space="preserve">
<polygon fill="#AF8AB6" stroke="#AF8AB6" stroke-miterlimit="10" points="271.846,359.494 211.003,264.411 163.364,387.495 
	216.311,427.191 "/>
<polygon fill="#AF8AB6" stroke="#AF8AB6" stroke-miterlimit="10" points="301.092,168.8 226.538,363.118 125.27,212.599 
	197.236,164.784 "/>
<polygon fill="#512B58" stroke="#49274F" stroke-miterlimit="10" points="271.846,359.204 230.328,393.153 226.156,363.349 
	247.611,308.067 "/>
<polygon fill="#49274F" stroke="#49274F" stroke-miterlimit="10" points="216.595,428.925 163.649,386.774 229.512,394.178 "/>
<polygon fill="#2C003E" stroke="#2C003E" stroke-miterlimit="10" points="269.846,362.494 230.602,393.277 217.311,427.191 "/>
<polygon fill="#2C003E" stroke="#2C003E" stroke-miterlimit="10" points="247.155,223.313 300.922,169.755 226.538,361.118 "/>
<polygon fill="#5E3965" stroke="#5E3965" stroke-miterlimit="10" points="247.155,223.313 125.27,212.599 226.538,363.118 "/>
<polygon stroke="#000000" stroke-miterlimit="10" points="211.48,249.725 238.492,292.103 265.942,248.224 "/>
<polygon fill="#8D6692" stroke="#AF8AB6" stroke-miterlimit="10" points="199.305,137.476 187.53,184.77 231.557,202.407 
	231.557,162.023 "/>
<polygon fill="#8D6692" stroke="#AF8AB6" stroke-miterlimit="10" points="248.93,173.11 231.557,202.407 231.557,162.023 
	235.595,139.813 "/>
<path stroke="#000000" stroke-miterlimit="10" d="M267.252,229.427c3.908,17.256-5.896,37.524-26.423,37.935
	c-18.459,0.369-25.981-7.864-30.99-22.57c-5.857-17.2,12.273-37.238,30.736-37.238C259.039,207.554,264.418,216.912,267.252,229.427
	z"/>
<polygon opacity="0.5" fill="#49274F" stroke="#49274F" stroke-miterlimit="10" points="231.557,202.339 194.043,158.337 
	199.305,136.195 231.557,162.023 235.416,138.645 248.478,171.233 "/>
<ellipse opacity="0.5" fill="#FFA372" stroke="#AF8AB6" stroke-miterlimit="10" cx="239.34" cy="238.48" rx="20.481" ry="21.137"/>
<ellipse opacity="0.5" fill="#EA9085" stroke="#AF8AB6" stroke-miterlimit="10" cx="239.34" cy="238.48" rx="24.576" ry="25.364"/>
<path fill="#F7A173" stroke="#F7A173" stroke-miterlimit="10" d="M254.866,238.598c0,8.491-6.546,15.374-14.623,15.374
	c-8.076,0-14.624-6.883-14.624-15.374c0-0.954,0.082-1.886,0.24-2.791c1.248-7.16,7.214-12.584,14.383-12.584
	C248.32,223.224,254.866,230.107,254.866,238.598z"/>
<path fill="#EA9085" stroke="#EA9085" stroke-miterlimit="10" d="M249.506,250.495c-21.358,5.141-23.709-13.683-23.709-13.683
	c-0.691,7.299,3.074,11.449,3.074,11.449s4.125,5.045,8.252,5.36c4.128,0.315,5.103,0.851,8.673-0.796
	C249.365,251.177,249.506,250.495,249.506,250.495z"/>
<path fill="#FAB687" stroke="#FAB687" stroke-miterlimit="10" d="M254.071,239.375c-1.456,3.413-7.602,2.484-11.967,1.475
	c-6.234-1.442-12.648-7.429-12.648-11.182s6.271-6.445,12.648-6.445C248.481,223.224,256.75,233.085,254.071,239.375z"/>
<path opacity="0.2" fill="#FFFFFF" stroke="#FAB687" stroke-miterlimit="10" d="M252.573,230.506
	c0.34,2.346-5.959,1.068-8.493,0.405c-3.224-0.843-6.008-3.918-6.008-6.057c0-2.139,4.206-2.148,7.385-0.624
	C248.381,225.633,252.27,228.392,252.573,230.506z"/>
<polygon fill="#AF8AB6" stroke="#AF8AB6" stroke-miterlimit="10" points="276.162,89.353 231.292,171.516 181.738,115.572 
	229.457,11.856 "/>
<polygon fill="#CEB0D4" stroke="#49274F" stroke-miterlimit="10" points="259.356,97.794 230.915,155.402 198.524,109.543 
	229.471,37.429 "/>
<polygon fill="#49274F" stroke="#49274F" stroke-miterlimit="10" points="181.738,115.572 198.524,109.543 230.915,155.402 
	230.357,173.111 "/>
<polygon fill="#CEB0D4" stroke="#CEB0D4" stroke-miterlimit="10" points="228.081,16.531 228.097,37.429 197.147,109.543 
	181.738,115.144 "/>
<polygon fill="#49274F" stroke="#49274F" stroke-miterlimit="10" points="276.162,89.353 259.356,97.794 230.915,155.402 
	230.357,173.111 "/>
<polygon opacity="0.5" fill="#FFFFFF" stroke="#FFFFFF" stroke-miterlimit="10" points="234.67,54.12 208.452,122.153 
	214.126,130.168 234.651,52.926 "/>
<polygon opacity="0.5" fill="#FFFFFF" stroke="#FFFFFF" stroke-miterlimit="10" points="216.848,133.176 223.362,143.607 
	244.393,70.833 "/>
<polygon fill="#49274F" stroke="#49274F" stroke-miterlimit="10" points="228.95,12.194 182.973,76.731 181.738,114.144 "/>
<path fill="#AF8AB6" stroke="#AF8AB6" stroke-miterlimit="10" d="M114.102,199.455l29.573,50.21v178.124
	C143.675,427.789,83.542,270.22,114.102,199.455z"/>
<path fill="#2C003E" stroke="#2C003E" stroke-miterlimit="10" d="M143.675,427.789c-3.378-162.039-29.573-228.334-29.573-228.334
	l29.573,50.21V427.789z"/>
<path opacity="0.5" fill="#49274F" stroke="#49274F" stroke-miterlimit="10" d="M114.744,313.622
	c24.802,33.562,19.512-29.301,19.512-29.301L145.1,432.255C145.1,432.255,103.1,297.866,114.744,313.622z"/>
<path fill="#AF8AB6" stroke="#AF8AB6" stroke-miterlimit="10" d="M308.137,158.018l-19.685,57.241l16.208,172.974
	C304.66,388.232,346.528,224.859,308.137,158.018z"/>
<path fill="#2C003E" stroke="#2C003E" stroke-miterlimit="10" d="M304.66,388.232c-15.029-161.376,3.477-230.215,3.477-230.215
	l-19.685,57.241L304.66,388.232z"/>
<path opacity="0.5" fill="#49274F" stroke="#49274F" stroke-miterlimit="10" d="M321.802,260.456
	c-20.834,36.159-23.712-12.898-23.712-12.898l6.01,148.208C304.1,395.765,331.582,243.481,321.802,260.456z"/>
</svg>
