<?xml version="1.0" encoding="utf-8"?>
<!-- Generator: Adobe Illustrator 16.0.3, SVG Export Plug-In . SVG Version: 6.00 Build 0)  -->
<!DOCTYPE svg PUBLIC "-//W3C//DTD SVG 1.1//EN" "http://www.w3.org/Graphics/SVG/1.1/DTD/svg11.dtd">
<svg version="1.1" id="Layer_2" xmlns="http://www.w3.org/2000/svg" xmlns:xlink="http://www.w3.org/1999/xlink" x="0px" y="0px"
	 width="411px" height="441px" viewBox="0 0 411 441" enable-background="new 0 0 411 441" xml:space="preserve">
<polygon fill="#AF8AB6" stroke="#AF8AB6" stroke-miterlimit="10" points="271.846,361.494 211.003,266.411 163.364,389.495 
	216.311,429.191 "/>
<polygon fill="#AF8AB6" stroke="#AF8AB6" stroke-miterlimit="10" points="301.092,170.8 226.538,365.118 125.27,214.599 
	197.236,166.784 "/>
<polygon fill="#512B58" stroke="#49274F" stroke-miterlimit="10" points="271.846,361.204 230.328,395.153 226.156,365.349 
	247.611,310.067 "/>
<polygon fill="#49274F" stroke="#49274F" stroke-miterlimit="10" points="216.595,430.925 163.649,388.774 229.512,396.178 "/>
<polygon fill="#2C003E" stroke="#2C003E" stroke-miterlimit="10" points="269.846,364.494 230.602,395.277 217.311,429.191 "/>
<polygon fill="#2C003E" stroke="#2C003E" stroke-miterlimit="10" points="247.155,225.313 300.922,171.755 226.538,363.118 "/>
<polygon fill="#5E3965" stroke="#5E3965" stroke-miterlimit="10" points="247.155,225.313 125.27,214.599 226.538,365.118 "/>
<polygon stroke="#000000" stroke-miterlimit="10" points="211.48,251.725 238.492,294.103 265.942,250.224 "/>
<polygon fill="#8D6692" stroke="#AF8AB6" stroke-miterlimit="10" points="199.305,139.476 187.53,186.77 231.557,204.407 
	231.557,164.023 "/>
<polygon fill="#8D6692" stroke="#AF8AB6" stroke-miterlimit="10" points="248.93,175.11 231.557,204.407 231.557,164.023 
	235.595,141.813 "/>
<path stroke="#000000" stroke-miterlimit="10" d="M267.252,231.427c3.908,17.256-5.896,37.524-26.423,37.935
	c-18.459,0.369-25.981-7.864-30.99-22.57c-5.857-17.2,12.273-37.238,30.736-37.238C259.039,209.554,264.418,218.912,267.252,231.427
	z"/>
<polygon opacity="0.5" fill="#49274F" stroke="#49274F" stroke-miterlimit="10" points="231.557,204.339 194.043,160.337 
	199.305,138.195 231.557,164.023 235.416,140.645 248.478,173.233 "/>
<ellipse opacity="0.5" fill="#FFA372" stroke="#AF8AB6" stroke-miterlimit="10" cx="239.34" cy="240.48" rx="20.899" ry="21.568"/>
<ellipse opacity="0.5" fill="#EA9085" stroke="#AF8AB6" stroke-miterlimit="10" cx="239.34" cy="240.48" rx="25.078" ry="25.881"/>
<path fill="#F7A173" stroke="#F7A173" stroke-miterlimit="10" d="M255.165,239.599c0,8.665-6.68,15.688-14.922,15.688
	c-8.241,0-14.922-7.023-14.922-15.688c0-0.973,0.083-1.924,0.245-2.847c1.273-7.306,7.361-12.841,14.677-12.841
	C248.485,223.911,255.165,230.934,255.165,239.599z"/>
<path fill="#EA9085" stroke="#EA9085" stroke-miterlimit="10" d="M249.695,251.738c-21.795,5.246-24.193-13.962-24.193-13.962
	c-0.705,7.448,3.137,11.682,3.137,11.682s4.21,5.148,8.421,5.469c4.212,0.321,5.206,0.869,8.85-0.812
	C249.552,252.434,249.695,251.738,249.695,251.738z"/>
<path fill="#FAB687" stroke="#FAB687" stroke-miterlimit="10" d="M254.354,240.392c-1.485,3.482-7.757,2.535-12.211,1.505
	c-6.361-1.471-12.906-7.581-12.906-11.41s6.398-6.576,12.906-6.576C248.649,223.911,257.087,233.973,254.354,240.392z"/>
<path opacity="0.2" fill="#FFFFFF" stroke="#FAB687" stroke-miterlimit="10" d="M252.825,231.341
	c0.347,2.394-6.081,1.09-8.667,0.414c-3.289-0.86-6.13-3.998-6.13-6.181c0-2.182,4.292-2.192,7.535-0.637
	C248.547,226.369,252.515,229.185,252.825,231.341z"/>
<polygon fill="#AF8AB6" stroke="#AF8AB6" stroke-miterlimit="10" points="276.162,91.353 231.292,173.516 181.738,117.572 
	229.457,13.856 "/>
<polygon fill="#CEB0D4" stroke="#49274F" stroke-miterlimit="10" points="259.356,99.794 230.915,157.402 198.524,111.543 
	229.471,39.429 "/>
<polygon fill="#49274F" stroke="#49274F" stroke-miterlimit="10" points="181.738,117.572 198.524,111.543 230.915,157.402 
	230.357,175.111 "/>
<polygon fill="#CEB0D4" stroke="#CEB0D4" stroke-miterlimit="10" points="228.081,18.531 228.097,39.429 197.147,111.543 
	181.738,117.144 "/>
<polygon fill="#49274F" stroke="#49274F" stroke-miterlimit="10" points="276.162,91.353 259.356,99.794 230.915,157.402 
	230.357,175.111 "/>
<polygon opacity="0.5" fill="#FFFFFF" stroke="#FFFFFF" stroke-miterlimit="10" points="234.67,56.12 208.452,124.153 
	214.126,132.168 234.651,54.926 "/>
<polygon opacity="0.5" fill="#FFFFFF" stroke="#FFFFFF" stroke-miterlimit="10" points="216.848,135.176 223.362,145.607 
	244.393,72.833 "/>
<polygon fill="#49274F" stroke="#49274F" stroke-miterlimit="10" points="228.95,14.194 182.973,78.731 181.738,116.144 "/>
<path fill="#AF8AB6" stroke="#AF8AB6" stroke-miterlimit="10" d="M114.102,201.455l29.573,50.21v178.124
	C143.675,429.789,83.542,272.22,114.102,201.455z"/>
<path fill="#2C003E" stroke="#2C003E" stroke-miterlimit="10" d="M143.675,429.789c-3.378-162.039-29.573-228.334-29.573-228.334
	l29.573,50.21V429.789z"/>
<path opacity="0.5" fill="#49274F" stroke="#49274F" stroke-miterlimit="10" d="M114.744,315.622
	c24.802,33.562,19.512-29.301,19.512-29.301L145.1,434.255C145.1,434.255,103.1,299.866,114.744,315.622z"/>
<path fill="#AF8AB6" stroke="#AF8AB6" stroke-miterlimit="10" d="M308.137,160.018l-19.685,57.241l16.208,172.974
	C304.66,390.232,346.528,226.859,308.137,160.018z"/>
<path fill="#2C003E" stroke="#2C003E" stroke-miterlimit="10" d="M304.66,390.232c-15.029-161.376,3.477-230.215,3.477-230.215
	l-19.685,57.241L304.66,390.232z"/>
<path opacity="0.5" fill="#49274F" stroke="#49274F" stroke-miterlimit="10" d="M321.802,262.456
	c-20.834,36.159-23.712-12.898-23.712-12.898l6.01,148.208C304.1,397.765,331.582,245.481,321.802,262.456z"/>
</svg>
