<?xml version="1.0" encoding="utf-8"?>
<!-- Generator: Adobe Illustrator 16.0.3, SVG Export Plug-In . SVG Version: 6.00 Build 0)  -->
<!DOCTYPE svg PUBLIC "-//W3C//DTD SVG 1.1//EN" "http://www.w3.org/Graphics/SVG/1.1/DTD/svg11.dtd">
<svg version="1.1" id="Layer_2" xmlns="http://www.w3.org/2000/svg" xmlns:xlink="http://www.w3.org/1999/xlink" x="0px" y="0px"
	 width="411px" height="441px" viewBox="0 0 411 441" enable-background="new 0 0 411 441" xml:space="preserve">
<polygon fill="#AF8AB6" stroke="#AF8AB6" stroke-miterlimit="10" points="271.846,356.494 211.003,261.411 163.364,384.495 
	216.311,424.191 "/>
<polygon fill="#AF8AB6" stroke="#AF8AB6" stroke-miterlimit="10" points="301.092,165.8 226.538,360.118 125.27,209.599 
	197.236,161.784 "/>
<polygon fill="#512B58" stroke="#49274F" stroke-miterlimit="10" points="271.846,356.204 230.328,390.153 226.156,360.349 
	247.611,305.067 "/>
<polygon fill="#49274F" stroke="#49274F" stroke-miterlimit="10" points="216.595,425.925 163.649,383.774 229.512,391.178 "/>
<polygon fill="#2C003E" stroke="#2C003E" stroke-miterlimit="10" points="269.846,359.494 230.602,390.277 217.311,424.191 "/>
<polygon fill="#2C003E" stroke="#2C003E" stroke-miterlimit="10" points="247.155,220.313 300.922,166.755 226.538,358.118 "/>
<polygon fill="#5E3965" stroke="#5E3965" stroke-miterlimit="10" points="247.155,220.313 125.27,209.599 226.538,360.118 "/>
<polygon stroke="#000000" stroke-miterlimit="10" points="211.48,246.725 238.492,289.103 265.942,245.224 "/>
<polygon fill="#8D6692" stroke="#AF8AB6" stroke-miterlimit="10" points="199.305,134.476 187.53,181.77 231.557,199.407 
	231.557,159.023 "/>
<polygon fill="#8D6692" stroke="#AF8AB6" stroke-miterlimit="10" points="248.93,170.11 231.557,199.407 231.557,159.023 
	235.595,136.813 "/>
<path stroke="#000000" stroke-miterlimit="10" d="M267.252,226.427c3.908,17.256-5.896,37.524-26.423,37.935
	c-18.459,0.369-25.981-7.864-30.99-22.57c-5.857-17.2,12.273-37.238,30.736-37.238C259.039,204.554,264.418,213.912,267.252,226.427
	z"/>
<polygon opacity="0.5" fill="#49274F" stroke="#49274F" stroke-miterlimit="10" points="231.557,199.339 194.043,155.337 
	199.305,133.195 231.557,159.023 235.416,135.645 248.478,168.233 "/>
<ellipse opacity="0.5" fill="#FFA372" stroke="#AF8AB6" stroke-miterlimit="10" cx="239.358" cy="235.481" rx="20.071" ry="20.715"/>
<ellipse opacity="0.5" fill="#EA9085" stroke="#AF8AB6" stroke-miterlimit="10" cx="239.34" cy="235.48" rx="24.576" ry="25.364"/>
<path fill="#F7A173" stroke="#F7A173" stroke-miterlimit="10" d="M254.574,235.598c0,8.321-6.415,15.066-14.331,15.066
	c-7.915,0-14.331-6.745-14.331-15.066c0-0.935,0.08-1.848,0.235-2.735c1.223-7.017,7.07-12.333,14.096-12.333
	C248.159,220.53,254.574,227.276,254.574,235.598z"/>
<path fill="#EA9085" stroke="#EA9085" stroke-miterlimit="10" d="M249.32,247.256c-20.931,5.039-23.234-13.409-23.234-13.409
	c-0.677,7.153,3.012,11.22,3.012,11.22s4.043,4.944,8.088,5.252s5,0.834,8.499-0.78C249.183,247.924,249.32,247.256,249.32,247.256z
	"/>
<path fill="#FAB687" stroke="#FAB687" stroke-miterlimit="10" d="M253.795,236.359c-1.427,3.345-7.45,2.434-11.728,1.445
	c-6.109-1.413-12.396-7.28-12.396-10.958c0-3.677,6.146-6.316,12.396-6.316C248.316,220.53,256.42,230.194,253.795,236.359z"/>
<path opacity="0.2" fill="#FFFFFF" stroke="#FAB687" stroke-miterlimit="10" d="M252.326,227.667
	c0.334,2.299-5.839,1.046-8.323,0.397c-3.159-0.827-5.888-3.84-5.888-5.936s4.122-2.105,7.237-0.612
	C248.218,222.892,252.029,225.596,252.326,227.667z"/>
<polygon fill="#AF8AB6" stroke="#AF8AB6" stroke-miterlimit="10" points="276.162,86.353 231.292,168.516 181.738,112.572 
	229.457,8.856 "/>
<polygon fill="#CEB0D4" stroke="#49274F" stroke-miterlimit="10" points="259.356,94.794 230.915,152.402 198.524,106.543 
	229.471,34.429 "/>
<polygon fill="#49274F" stroke="#49274F" stroke-miterlimit="10" points="181.738,112.572 198.524,106.543 230.915,152.402 
	230.357,170.111 "/>
<polygon fill="#CEB0D4" stroke="#CEB0D4" stroke-miterlimit="10" points="228.081,13.531 228.097,34.429 197.147,106.543 
	181.738,112.144 "/>
<polygon fill="#49274F" stroke="#49274F" stroke-miterlimit="10" points="276.162,86.353 259.356,94.794 230.915,152.402 
	230.357,170.111 "/>
<polygon opacity="0.5" fill="#FFFFFF" stroke="#FFFFFF" stroke-miterlimit="10" points="234.67,51.12 208.452,119.153 
	214.126,127.168 234.651,49.926 "/>
<polygon opacity="0.5" fill="#FFFFFF" stroke="#FFFFFF" stroke-miterlimit="10" points="216.848,130.176 223.362,140.607 
	244.393,67.833 "/>
<polygon fill="#49274F" stroke="#49274F" stroke-miterlimit="10" points="228.95,9.194 182.973,73.731 181.738,111.144 "/>
<path fill="#AF8AB6" stroke="#AF8AB6" stroke-miterlimit="10" d="M114.102,196.455l29.573,50.21v178.124
	C143.675,424.789,83.542,267.22,114.102,196.455z"/>
<path fill="#2C003E" stroke="#2C003E" stroke-miterlimit="10" d="M143.675,424.789c-3.378-162.039-29.573-228.334-29.573-228.334
	l29.573,50.21V424.789z"/>
<path opacity="0.5" fill="#49274F" stroke="#49274F" stroke-miterlimit="10" d="M114.744,310.622
	c24.802,33.562,19.512-29.301,19.512-29.301L145.1,429.255C145.1,429.255,103.1,294.866,114.744,310.622z"/>
<path fill="#AF8AB6" stroke="#AF8AB6" stroke-miterlimit="10" d="M308.137,155.018l-19.685,57.241l16.208,172.974
	C304.66,385.232,346.528,221.859,308.137,155.018z"/>
<path fill="#2C003E" stroke="#2C003E" stroke-miterlimit="10" d="M304.66,385.232c-15.029-161.376,3.477-230.215,3.477-230.215
	l-19.685,57.241L304.66,385.232z"/>
<path opacity="0.5" fill="#49274F" stroke="#49274F" stroke-miterlimit="10" d="M321.802,257.456
	c-20.834,36.159-23.712-12.898-23.712-12.898l6.01,148.208C304.1,392.765,331.582,240.481,321.802,257.456z"/>
</svg>
