<?xml version="1.0" encoding="utf-8"?>
<!-- Generator: Adobe Illustrator 16.0.3, SVG Export Plug-In . SVG Version: 6.00 Build 0)  -->
<!DOCTYPE svg PUBLIC "-//W3C//DTD SVG 1.1//EN" "http://www.w3.org/Graphics/SVG/1.1/DTD/svg11.dtd">
<svg version="1.1" id="Layer_2" xmlns="http://www.w3.org/2000/svg" xmlns:xlink="http://www.w3.org/1999/xlink" x="0px" y="0px"
	 width="411px" height="441px" viewBox="0 0 411 441" enable-background="new 0 0 411 441" xml:space="preserve">
<polygon fill="#AF8AB6" stroke="#AF8AB6" stroke-miterlimit="10" points="271.846,348.638 211.003,253.555 163.364,376.639 
	216.311,416.335 "/>
<polygon fill="#AF8AB6" stroke="#AF8AB6" stroke-miterlimit="10" points="301.092,157.944 226.538,352.262 125.27,201.742 
	197.236,153.928 "/>
<polygon fill="#512B58" stroke="#49274F" stroke-miterlimit="10" points="271.846,348.348 230.328,382.297 226.156,352.492 
	247.611,297.21 "/>
<polygon fill="#49274F" stroke="#49274F" stroke-miterlimit="10" points="216.595,418.068 163.649,375.918 229.512,383.321 "/>
<polygon fill="#2C003E" stroke="#2C003E" stroke-miterlimit="10" points="269.846,351.638 230.602,382.421 217.311,416.335 "/>
<polygon fill="#2C003E" stroke="#2C003E" stroke-miterlimit="10" points="247.155,212.456 300.922,158.898 226.538,350.262 "/>
<polygon fill="#5E3965" stroke="#5E3965" stroke-miterlimit="10" points="247.155,212.456 125.27,201.742 226.538,352.262 "/>
<polygon stroke="#000000" stroke-miterlimit="10" points="211.48,238.869 238.492,281.247 265.942,237.368 "/>
<polygon fill="#8D6692" stroke="#AF8AB6" stroke-miterlimit="10" points="199.305,126.62 187.53,173.913 231.557,191.55 
	231.557,151.167 "/>
<polygon fill="#8D6692" stroke="#AF8AB6" stroke-miterlimit="10" points="248.93,162.253 231.557,191.55 231.557,151.167 
	235.595,128.957 "/>
<path stroke="#000000" stroke-miterlimit="10" d="M267.252,218.57c3.908,17.256-5.896,37.524-26.423,37.935
	c-18.459,0.369-25.981-7.864-30.99-22.57c-5.857-17.2,12.273-37.238,30.736-37.238C259.039,196.697,264.418,206.056,267.252,218.57z
	"/>
<polygon opacity="0.5" fill="#49274F" stroke="#49274F" stroke-miterlimit="10" points="231.557,191.482 194.043,147.481 
	199.305,125.339 231.557,151.167 235.416,127.788 248.478,160.376 "/>
<ellipse opacity="0.5" fill="#FFA372" stroke="#AF8AB6" stroke-miterlimit="10" cx="239.358" cy="227.625" rx="19.67" ry="20.301"/>
<ellipse opacity="0.5" fill="#EA9085" stroke="#AF8AB6" stroke-miterlimit="10" cx="239.358" cy="227.625" rx="23.603" ry="24.359"/>
<path fill="#F7A173" stroke="#F7A173" stroke-miterlimit="10" d="M254.007,227.74c0,7.992-6.161,14.47-13.764,14.47
	c-7.602,0-13.764-6.478-13.764-14.47c0-0.898,0.077-1.775,0.226-2.627c1.175-6.739,6.791-11.844,13.538-11.844
	C247.846,213.27,254.007,219.748,254.007,227.74z"/>
<path fill="#EA9085" stroke="#EA9085" stroke-miterlimit="10" d="M248.961,238.937c-20.102,4.839-22.314-12.878-22.314-12.878
	c-0.65,6.87,2.893,10.776,2.893,10.776s3.883,4.748,7.768,5.044c3.885,0.296,4.802,0.801,8.163-0.749
	C248.829,239.579,248.961,238.937,248.961,238.937z"/>
<path fill="#FAB687" stroke="#FAB687" stroke-miterlimit="10" d="M253.258,228.471c-1.369,3.212-7.154,2.337-11.263,1.388
	c-5.867-1.357-11.904-6.992-11.904-10.524c0-3.531,5.902-6.065,11.904-6.065S255.779,222.551,253.258,228.471z"/>
<path opacity="0.2" fill="#FFFFFF" stroke="#FAB687" stroke-miterlimit="10" d="M251.848,220.124
	c0.321,2.208-5.607,1.005-7.993,0.381c-3.034-0.794-5.654-3.688-5.654-5.701c0-2.013,3.958-2.021,6.949-0.587
	C247.902,215.537,251.563,218.134,251.848,220.124z"/>
<polygon fill="#AF8AB6" stroke="#AF8AB6" stroke-miterlimit="10" points="276.162,78.497 231.292,160.66 181.738,104.715 229.457,1 
	"/>
<polygon fill="#CEB0D4" stroke="#49274F" stroke-miterlimit="10" points="259.356,86.938 230.915,144.546 198.524,98.687 
	229.471,26.572 "/>
<polygon fill="#49274F" stroke="#49274F" stroke-miterlimit="10" points="181.738,104.715 198.524,98.687 230.915,144.546 
	230.357,162.254 "/>
<polygon fill="#CEB0D4" stroke="#CEB0D4" stroke-miterlimit="10" points="228.081,5.675 228.097,26.572 197.147,98.687 
	181.738,104.288 "/>
<polygon fill="#49274F" stroke="#49274F" stroke-miterlimit="10" points="276.162,78.497 259.356,86.938 230.915,144.546 
	230.357,162.254 "/>
<polygon opacity="0.5" fill="#FFFFFF" stroke="#FFFFFF" stroke-miterlimit="10" points="234.67,43.264 208.452,111.297 
	214.126,119.312 234.651,42.069 "/>
<polygon opacity="0.5" fill="#FFFFFF" stroke="#FFFFFF" stroke-miterlimit="10" points="216.848,122.32 223.362,132.751 
	244.393,59.977 "/>
<polygon fill="#49274F" stroke="#49274F" stroke-miterlimit="10" points="228.95,1.337 182.973,65.875 181.738,103.288 "/>
<path fill="#AF8AB6" stroke="#AF8AB6" stroke-miterlimit="10" d="M114.102,188.599l29.573,50.21v178.124
	C143.675,416.933,83.542,259.364,114.102,188.599z"/>
<path fill="#2C003E" stroke="#2C003E" stroke-miterlimit="10" d="M143.675,416.933c-3.378-162.039-29.573-228.334-29.573-228.334
	l29.573,50.21V416.933z"/>
<path opacity="0.5" fill="#49274F" stroke="#49274F" stroke-miterlimit="10" d="M114.744,302.766
	c24.802,33.562,19.512-29.301,19.512-29.301L145.1,421.398C145.1,421.398,103.1,287.01,114.744,302.766z"/>
<path fill="#AF8AB6" stroke="#AF8AB6" stroke-miterlimit="10" d="M308.137,147.161l-19.685,57.241l16.208,172.974
	C304.66,377.376,346.528,214.002,308.137,147.161z"/>
<path fill="#2C003E" stroke="#2C003E" stroke-miterlimit="10" d="M304.66,377.376c-15.029-161.376,3.477-230.215,3.477-230.215
	l-19.685,57.241L304.66,377.376z"/>
<path opacity="0.5" fill="#49274F" stroke="#49274F" stroke-miterlimit="10" d="M321.802,249.599
	c-20.834,36.159-23.712-12.898-23.712-12.898l6.01,148.208C304.1,384.908,331.582,232.625,321.802,249.599z"/>
</svg>
