<?xml version="1.0" encoding="utf-8"?>
<!-- Generator: Adobe Illustrator 16.0.3, SVG Export Plug-In . SVG Version: 6.00 Build 0)  -->
<!DOCTYPE svg PUBLIC "-//W3C//DTD SVG 1.1//EN" "http://www.w3.org/Graphics/SVG/1.1/DTD/svg11.dtd">
<svg version="1.1" id="Layer_4" xmlns="http://www.w3.org/2000/svg" xmlns:xlink="http://www.w3.org/1999/xlink" x="0px" y="0px"
	 width="411px" height="441px" viewBox="0 0 411 441" enable-background="new 0 0 411 441" xml:space="preserve">
<polygon fill="#AF8AB6" stroke="#AF8AB6" stroke-miterlimit="10" points="263.977,86.269 213.595,152.006 159.657,87.833 
	211.692,7.443 "/>
<polygon fill="#CEB0D4" stroke="#49274F" stroke-miterlimit="10" points="246.565,86.512 213.203,136.977 177.046,86.57 
	211.708,26.936 "/>
<polygon fill="#AF8AB6" stroke="#AF8AB6" stroke-miterlimit="10" points="264.432,368.024 212.185,229.326 161.91,368.024 
	212.755,420.66 "/>
<polygon fill="#AF8AB6" stroke="#AF8AB6" stroke-miterlimit="10" points="299.921,208.552 212.185,349.137 122.478,208.552 
	212.755,157.802 "/>
<path fill="#AF8AB6" stroke="#AF8AB6" stroke-miterlimit="10" d="M103.748,191.022l29.574,50.21v178.124
	C133.321,419.356,73.188,261.788,103.748,191.022z"/>
<path fill="#AF8AB6" stroke="#AF8AB6" stroke-miterlimit="10" d="M317.877,191.022l-29.572,50.21v178.124
	C288.305,419.356,348.438,261.788,317.877,191.022z"/>
<polygon fill="#5E3965" stroke="#5E3965" stroke-miterlimit="10" points="211.703,381.964 161.91,367.081 184.142,305.189 
	212.185,349.137 "/>
<polygon fill="#512B58" stroke="#49274F" stroke-miterlimit="10" points="264.432,368.024 211.703,381.964 212.185,349.137 
	240.763,305.189 "/>
<polygon fill="#49274F" stroke="#49274F" stroke-miterlimit="10" points="212.755,420.66 161.91,367.081 211.703,381.964 "/>
<polygon fill="#2C003E" stroke="#2C003E" stroke-miterlimit="10" points="264.432,368.024 211.703,381.964 212.755,420.66 "/>
<path fill="#2C003E" stroke="#2C003E" stroke-miterlimit="10" d="M288.305,419.356c3.376-162.039,29.572-228.334,29.572-228.334
	l-29.572,50.21V419.356z"/>
<path fill="#2C003E" stroke="#2C003E" stroke-miterlimit="10" d="M133.321,419.356c-3.378-162.039-29.574-228.334-29.574-228.334
	l29.574,50.21V419.356z"/>
<polygon fill="#2C003E" stroke="#2C003E" stroke-miterlimit="10" points="122.478,208.552 212.185,245.043 212.185,349.137 "/>
<polygon fill="#5E3965" stroke="#5E3965" stroke-miterlimit="10" points="299.921,208.552 212.185,245.043 212.185,349.137 "/>
<polygon stroke="#000000" stroke-miterlimit="10" points="184.176,245.043 211.2,290.436 239.231,245.043 "/>
<polygon fill="#8D6692" stroke="#AF8AB6" stroke-miterlimit="10" points="195.247,131.952 181.326,175.471 213.203,185.512 
	212.625,153.494 "/>
<polygon fill="#8D6692" stroke="#AF8AB6" stroke-miterlimit="10" points="242.882,175.342 213.203,185.512 212.625,153.494 
	229.92,131.952 "/>
<ellipse stroke="#000000" stroke-miterlimit="10" cx="212.104" cy="229.044" rx="30.778" ry="33.858"/>
<polygon fill="#49274F" stroke="#49274F" stroke-miterlimit="10" points="159.657,87.833 177.046,86.57 213.203,136.977 
	212.625,153.494 "/>
<polygon fill="#CEB0D4" stroke="#CEB0D4" stroke-miterlimit="10" points="210.267,7.443 210.283,26.936 175.622,86.57 
	159.657,86.344 "/>
<polygon fill="#49274F" stroke="#49274F" stroke-miterlimit="10" points="263.977,86.269 246.565,86.512 213.203,136.977 
	212.625,153.494 "/>
<path fill="#8D6692" stroke="#AF8AB6" stroke-miterlimit="10" d="M303.092,157.802"/>
<polygon opacity="0.5" fill="#49274F" stroke="#49274F" stroke-miterlimit="10" points="212.961,172.117 188.355,153.494 
	193.71,131.952 212.625,153.494 229.766,131.952 235.919,152.034 "/>
<path fill="#49274F" stroke="#49274F" stroke-miterlimit="10" d="M561.5,252.712"/>
<path opacity="0.5" fill="#49274F" stroke="#49274F" stroke-miterlimit="10" d="M104.39,305.189
	c24.802,33.562,19.513-29.301,19.513-29.301l10.844,147.934C134.747,423.822,92.746,289.434,104.39,305.189z"/>
<path opacity="0.5" fill="#49274F" stroke="#49274F" stroke-miterlimit="10" d="M317.25,308.146
	c-24.802,33.562-19.514-29.301-19.514-29.301l-10.843,147.933C286.894,426.777,328.894,292.39,317.25,308.146z"/>
<polygon opacity="0.5" fill="#FFFFFF" stroke="#FFFFFF" stroke-miterlimit="10" points="220.989,45.774 187.333,99.422 
	191.914,105.808 220.97,44.661 "/>
<polygon opacity="0.5" fill="#FFFFFF" stroke="#FFFFFF" stroke-miterlimit="10" points="194.735,108.614 200.185,117.254 
	231.061,61.364 "/>
<ellipse opacity="0.5" fill="#FFA372" stroke="#AF8AB6" stroke-miterlimit="10" cx="211.703" cy="227.346" rx="22.201" ry="23.07"/>
<ellipse opacity="0.5" fill="#EA9085" stroke="#AF8AB6" stroke-miterlimit="10" cx="211.702" cy="227.346" rx="27.341" ry="28.41"/>
<path fill="#F7A173" stroke="#F7A173" stroke-miterlimit="10" d="M227.743,227.346c0,9.248-7.182,16.745-16.04,16.745
	s-16.04-7.497-16.04-16.745c0-1.039,0.09-2.054,0.264-3.039c1.37-7.798,7.913-13.707,15.776-13.707
	C220.561,210.6,227.743,218.097,227.743,227.346z"/>
<path fill="#EA9085" stroke="#EA9085" stroke-miterlimit="10" d="M221.864,240.303c-23.429,5.6-26.006-14.903-26.006-14.903
	c-0.757,7.95,3.37,12.47,3.37,12.47s4.526,5.494,9.053,5.837c4.526,0.343,5.596,0.928,9.512-0.867
	C221.708,241.046,221.864,240.303,221.864,240.303z"/>
<path fill="#FAB687" stroke="#FAB687" stroke-miterlimit="10" d="M226.87,228.192c-1.595,3.717-8.338,2.705-13.125,1.606
	c-6.838-1.57-13.874-8.091-13.874-12.178c0-4.087,6.878-7.02,13.874-7.02C220.739,210.6,229.808,221.34,226.87,228.192z"/>
<path opacity="0.2" fill="#FFFFFF" stroke="#FAB687" stroke-miterlimit="10" d="M225.228,218.532
	c0.372,2.555-6.537,1.163-9.316,0.441c-3.536-0.918-6.59-4.268-6.59-6.597c0-2.329,4.614-2.34,8.101-0.68
	C220.627,213.224,224.893,216.229,225.228,218.532z"/>
</svg>
