<?xml version="1.0" encoding="utf-8"?>
<!-- Generator: Adobe Illustrator 16.0.3, SVG Export Plug-In . SVG Version: 6.00 Build 0)  -->
<!DOCTYPE svg PUBLIC "-//W3C//DTD SVG 1.1//EN" "http://www.w3.org/Graphics/SVG/1.1/DTD/svg11.dtd">
<svg version="1.1" id="Layer_4" xmlns="http://www.w3.org/2000/svg" xmlns:xlink="http://www.w3.org/1999/xlink" x="0px" y="0px"
	 width="411px" height="441px" viewBox="0 0 411 441" enable-background="new 0 0 411 441" xml:space="preserve">
<polygon fill="#AF8AB6" stroke="#AF8AB6" stroke-miterlimit="10" points="263.977,80.269 213.595,146.006 159.657,81.833 
	211.692,1.443 "/>
<polygon fill="#CEB0D4" stroke="#49274F" stroke-miterlimit="10" points="246.565,80.512 213.203,130.977 177.046,80.57 
	211.708,20.936 "/>
<polygon fill="#AF8AB6" stroke="#AF8AB6" stroke-miterlimit="10" points="264.432,362.024 212.185,223.326 161.91,362.024 
	212.755,414.66 "/>
<polygon fill="#AF8AB6" stroke="#AF8AB6" stroke-miterlimit="10" points="299.921,202.552 212.185,343.137 122.478,202.552 
	212.755,151.802 "/>
<path fill="#AF8AB6" stroke="#AF8AB6" stroke-miterlimit="10" d="M103.748,185.022l29.574,50.21v178.124
	C133.321,413.356,73.188,255.788,103.748,185.022z"/>
<path fill="#AF8AB6" stroke="#AF8AB6" stroke-miterlimit="10" d="M317.877,185.022l-29.572,50.21v178.124
	C288.305,413.356,348.438,255.788,317.877,185.022z"/>
<polygon fill="#5E3965" stroke="#5E3965" stroke-miterlimit="10" points="211.703,375.964 161.91,361.081 184.142,299.189 
	212.185,343.137 "/>
<polygon fill="#512B58" stroke="#49274F" stroke-miterlimit="10" points="264.432,362.024 211.703,375.964 212.185,343.137 
	240.763,299.189 "/>
<polygon fill="#49274F" stroke="#49274F" stroke-miterlimit="10" points="212.755,414.66 161.91,361.081 211.703,375.964 "/>
<polygon fill="#2C003E" stroke="#2C003E" stroke-miterlimit="10" points="264.432,362.024 211.703,375.964 212.755,414.66 "/>
<path fill="#2C003E" stroke="#2C003E" stroke-miterlimit="10" d="M288.305,413.356c3.376-162.039,29.572-228.334,29.572-228.334
	l-29.572,50.21V413.356z"/>
<path fill="#2C003E" stroke="#2C003E" stroke-miterlimit="10" d="M133.321,413.356c-3.378-162.039-29.574-228.334-29.574-228.334
	l29.574,50.21V413.356z"/>
<polygon fill="#2C003E" stroke="#2C003E" stroke-miterlimit="10" points="122.478,202.552 212.185,239.043 212.185,343.137 "/>
<polygon fill="#5E3965" stroke="#5E3965" stroke-miterlimit="10" points="299.921,202.552 212.185,239.043 212.185,343.137 "/>
<polygon stroke="#000000" stroke-miterlimit="10" points="184.176,239.043 211.2,284.436 239.231,239.043 "/>
<polygon fill="#8D6692" stroke="#AF8AB6" stroke-miterlimit="10" points="195.247,125.952 181.326,169.471 213.203,179.512 
	212.625,147.494 "/>
<polygon fill="#8D6692" stroke="#AF8AB6" stroke-miterlimit="10" points="242.882,169.342 213.203,179.512 212.625,147.494 
	229.92,125.952 "/>
<ellipse stroke="#000000" stroke-miterlimit="10" cx="212.104" cy="223.044" rx="30.778" ry="33.858"/>
<polygon fill="#49274F" stroke="#49274F" stroke-miterlimit="10" points="159.657,81.833 177.046,80.57 213.203,130.977 
	212.625,147.494 "/>
<polygon fill="#CEB0D4" stroke="#CEB0D4" stroke-miterlimit="10" points="210.267,1.443 210.283,20.936 175.622,80.57 
	159.657,80.344 "/>
<polygon fill="#49274F" stroke="#49274F" stroke-miterlimit="10" points="263.977,80.269 246.565,80.512 213.203,130.977 
	212.625,147.494 "/>
<path fill="#8D6692" stroke="#AF8AB6" stroke-miterlimit="10" d="M303.092,151.802"/>
<polygon opacity="0.5" fill="#49274F" stroke="#49274F" stroke-miterlimit="10" points="212.961,166.117 188.355,147.494 
	193.71,125.952 212.625,147.494 229.766,125.952 235.919,146.034 "/>
<path fill="#49274F" stroke="#49274F" stroke-miterlimit="10" d="M561.5,252.712"/>
<path opacity="0.5" fill="#49274F" stroke="#49274F" stroke-miterlimit="10" d="M104.39,299.189
	c24.802,33.562,19.513-29.301,19.513-29.301l10.844,147.934C134.747,417.822,92.746,283.434,104.39,299.189z"/>
<path opacity="0.5" fill="#49274F" stroke="#49274F" stroke-miterlimit="10" d="M317.25,302.146
	c-24.802,33.562-19.514-29.301-19.514-29.301l-10.843,147.933C286.894,420.777,328.894,286.39,317.25,302.146z"/>
<polygon opacity="0.5" fill="#FFFFFF" stroke="#FFFFFF" stroke-miterlimit="10" points="220.989,39.774 187.333,93.422 
	191.914,99.808 220.97,38.661 "/>
<polygon opacity="0.5" fill="#FFFFFF" stroke="#FFFFFF" stroke-miterlimit="10" points="194.735,102.614 200.185,111.254 
	231.061,55.364 "/>
<ellipse opacity="0.5" fill="#FFA372" stroke="#AF8AB6" stroke-miterlimit="10" cx="211.703" cy="221.346" rx="24.668" ry="25.634"/>
<ellipse opacity="0.5" fill="#EA9085" stroke="#AF8AB6" stroke-miterlimit="10" cx="211.703" cy="221.346" rx="28.78" ry="29.905"/>
<path fill="#F7A173" stroke="#F7A173" stroke-miterlimit="10" d="M228.587,221.348c0,9.735-7.56,17.626-16.884,17.626
	s-16.884-7.892-16.884-17.626c0-1.093,0.095-2.162,0.277-3.199c1.442-8.208,8.329-14.428,16.607-14.428
	C221.027,203.721,228.587,211.612,228.587,221.348z"/>
<path fill="#EA9085" stroke="#EA9085" stroke-miterlimit="10" d="M222.398,234.987c-24.662,5.894-27.375-15.688-27.375-15.688
	c-0.797,8.368,3.547,13.126,3.547,13.126s4.765,5.784,9.53,6.145c4.765,0.362,5.89,0.977,10.012-0.912
	C222.235,235.769,222.398,234.987,222.398,234.987z"/>
<path fill="#FAB687" stroke="#FAB687" stroke-miterlimit="10" d="M227.668,222.238c-1.679,3.913-8.777,2.848-13.816,1.69
	c-7.198-1.653-14.604-8.517-14.604-12.819s7.24-7.389,14.604-7.389C221.215,203.721,230.761,215.026,227.668,222.238z"/>
<path opacity="0.2" fill="#FFFFFF" stroke="#FAB687" stroke-miterlimit="10" d="M225.94,212.07c0.391,2.689-6.881,1.224-9.807,0.464
	c-3.722-0.967-6.938-4.492-6.938-6.944c0-2.452,4.857-2.463,8.527-0.715C221.097,206.482,225.587,209.646,225.94,212.07z"/>
</svg>
