<?xml version="1.0" encoding="utf-8"?>
<!-- Generator: Adobe Illustrator 16.0.3, SVG Export Plug-In . SVG Version: 6.00 Build 0)  -->
<!DOCTYPE svg PUBLIC "-//W3C//DTD SVG 1.1//EN" "http://www.w3.org/Graphics/SVG/1.1/DTD/svg11.dtd">
<svg version="1.1" id="Layer_4" xmlns="http://www.w3.org/2000/svg" xmlns:xlink="http://www.w3.org/1999/xlink" x="0px" y="0px"
	 width="411px" height="441px" viewBox="0 0 411 441" enable-background="new 0 0 411 441" xml:space="preserve">
<polygon fill="#AF8AB6" stroke="#AF8AB6" stroke-miterlimit="10" points="263.977,89.269 213.595,155.006 159.657,90.833 
	211.692,10.443 "/>
<polygon fill="#CEB0D4" stroke="#49274F" stroke-miterlimit="10" points="246.565,89.512 213.203,139.977 177.046,89.57 
	211.708,29.936 "/>
<polygon fill="#AF8AB6" stroke="#AF8AB6" stroke-miterlimit="10" points="264.432,371.024 212.185,232.326 161.91,371.024 
	212.755,423.66 "/>
<polygon fill="#AF8AB6" stroke="#AF8AB6" stroke-miterlimit="10" points="299.921,211.552 212.185,352.137 122.478,211.552 
	212.755,160.802 "/>
<path fill="#AF8AB6" stroke="#AF8AB6" stroke-miterlimit="10" d="M103.748,194.022l29.574,50.21v178.124
	C133.321,422.356,73.188,264.788,103.748,194.022z"/>
<path fill="#AF8AB6" stroke="#AF8AB6" stroke-miterlimit="10" d="M317.877,194.022l-29.572,50.21v178.124
	C288.305,422.356,348.438,264.788,317.877,194.022z"/>
<polygon fill="#5E3965" stroke="#5E3965" stroke-miterlimit="10" points="211.703,384.964 161.91,370.081 184.142,308.189 
	212.185,352.137 "/>
<polygon fill="#512B58" stroke="#49274F" stroke-miterlimit="10" points="264.432,371.024 211.703,384.964 212.185,352.137 
	240.763,308.189 "/>
<polygon fill="#49274F" stroke="#49274F" stroke-miterlimit="10" points="212.755,423.66 161.91,370.081 211.703,384.964 "/>
<polygon fill="#2C003E" stroke="#2C003E" stroke-miterlimit="10" points="264.432,371.024 211.703,384.964 212.755,423.66 "/>
<path fill="#2C003E" stroke="#2C003E" stroke-miterlimit="10" d="M288.305,422.356c3.376-162.039,29.572-228.334,29.572-228.334
	l-29.572,50.21V422.356z"/>
<path fill="#2C003E" stroke="#2C003E" stroke-miterlimit="10" d="M133.321,422.356c-3.378-162.039-29.574-228.334-29.574-228.334
	l29.574,50.21V422.356z"/>
<polygon fill="#2C003E" stroke="#2C003E" stroke-miterlimit="10" points="122.478,211.552 212.185,248.043 212.185,352.137 "/>
<polygon fill="#5E3965" stroke="#5E3965" stroke-miterlimit="10" points="299.921,211.552 212.185,248.043 212.185,352.137 "/>
<polygon stroke="#000000" stroke-miterlimit="10" points="184.176,248.043 211.2,293.436 239.231,248.043 "/>
<polygon fill="#8D6692" stroke="#AF8AB6" stroke-miterlimit="10" points="195.247,134.952 181.326,178.471 213.203,188.512 
	212.625,156.494 "/>
<polygon fill="#8D6692" stroke="#AF8AB6" stroke-miterlimit="10" points="242.882,178.342 213.203,188.512 212.625,156.494 
	229.92,134.952 "/>
<ellipse stroke="#000000" stroke-miterlimit="10" cx="212.104" cy="232.044" rx="30.778" ry="33.858"/>
<polygon fill="#49274F" stroke="#49274F" stroke-miterlimit="10" points="159.657,90.833 177.046,89.57 213.203,139.977 
	212.625,156.494 "/>
<polygon fill="#CEB0D4" stroke="#CEB0D4" stroke-miterlimit="10" points="210.267,10.443 210.283,29.936 175.622,89.57 
	159.657,89.344 "/>
<polygon fill="#49274F" stroke="#49274F" stroke-miterlimit="10" points="263.977,89.269 246.565,89.512 213.203,139.977 
	212.625,156.494 "/>
<path fill="#8D6692" stroke="#AF8AB6" stroke-miterlimit="10" d="M303.092,160.802"/>
<polygon opacity="0.5" fill="#49274F" stroke="#49274F" stroke-miterlimit="10" points="212.961,175.117 188.355,156.494 
	193.71,134.952 212.625,156.494 229.766,134.952 235.919,155.034 "/>
<path fill="#49274F" stroke="#49274F" stroke-miterlimit="10" d="M561.5,252.712"/>
<path opacity="0.5" fill="#49274F" stroke="#49274F" stroke-miterlimit="10" d="M104.39,308.189
	c24.802,33.562,19.513-29.301,19.513-29.301l10.844,147.934C134.747,426.822,92.746,292.434,104.39,308.189z"/>
<path opacity="0.5" fill="#49274F" stroke="#49274F" stroke-miterlimit="10" d="M317.25,311.146
	c-24.802,33.562-19.514-29.301-19.514-29.301l-10.843,147.933C286.894,429.777,328.894,295.39,317.25,311.146z"/>
<polygon opacity="0.5" fill="#FFFFFF" stroke="#FFFFFF" stroke-miterlimit="10" points="220.989,48.774 187.333,102.422 
	191.914,108.808 220.97,47.661 "/>
<polygon opacity="0.5" fill="#FFFFFF" stroke="#FFFFFF" stroke-miterlimit="10" points="194.735,111.614 200.185,120.254 
	231.061,64.364 "/>
<ellipse opacity="0.5" fill="#FFA372" stroke="#AF8AB6" stroke-miterlimit="10" cx="211.703" cy="230.346" rx="22.201" ry="23.07"/>
<ellipse opacity="0.5" fill="#EA9085" stroke="#AF8AB6" stroke-miterlimit="10" cx="211.702" cy="230.346" rx="26.794" ry="27.842"/>
<path fill="#F7A173" stroke="#F7A173" stroke-miterlimit="10" d="M227.422,230.345c0,9.063-7.039,16.41-15.719,16.41
	s-15.719-7.347-15.719-16.41c0-1.018,0.088-2.013,0.258-2.979c1.342-7.643,7.754-13.433,15.461-13.433
	C220.384,213.934,227.422,221.281,227.422,230.345z"/>
<path fill="#EA9085" stroke="#EA9085" stroke-miterlimit="10" d="M221.661,243.043c-22.96,5.487-25.486-14.605-25.486-14.605
	c-0.742,7.791,3.303,12.22,3.303,12.22s4.436,5.384,8.872,5.721s5.484,0.909,9.322-0.849
	C221.508,243.771,221.661,243.043,221.661,243.043z"/>
<path fill="#FAB687" stroke="#FAB687" stroke-miterlimit="10" d="M226.567,231.174c-1.563,3.643-8.171,2.651-12.863,1.574
	c-6.701-1.539-13.596-7.93-13.596-11.935c0-4.006,6.741-6.879,13.596-6.879S229.445,224.459,226.567,231.174z"/>
<path opacity="0.2" fill="#FFFFFF" stroke="#FAB687" stroke-miterlimit="10" d="M224.958,221.708c0.364,2.504-6.406,1.14-9.13,0.432
	c-3.465-0.9-6.458-4.182-6.458-6.465s4.522-2.293,7.938-0.666C220.449,216.505,224.629,219.451,224.958,221.708z"/>
</svg>
