<?xml version="1.0" encoding="utf-8"?>
<!-- Generator: Adobe Illustrator 16.0.3, SVG Export Plug-In . SVG Version: 6.00 Build 0)  -->
<!DOCTYPE svg PUBLIC "-//W3C//DTD SVG 1.1//EN" "http://www.w3.org/Graphics/SVG/1.1/DTD/svg11.dtd">
<svg version="1.1" id="Layer_4" xmlns="http://www.w3.org/2000/svg" xmlns:xlink="http://www.w3.org/1999/xlink" x="0px" y="0px"
	 width="411px" height="441px" viewBox="0 0 411 441" enable-background="new 0 0 411 441" xml:space="preserve">
<polygon fill="#AF8AB6" stroke="#AF8AB6" stroke-miterlimit="10" points="263.977,82.269 213.595,148.006 159.657,83.833 
	211.692,3.443 "/>
<polygon fill="#CEB0D4" stroke="#49274F" stroke-miterlimit="10" points="246.565,82.512 213.203,132.977 177.046,82.57 
	211.708,22.936 "/>
<polygon fill="#AF8AB6" stroke="#AF8AB6" stroke-miterlimit="10" points="264.432,364.024 212.185,225.326 161.91,364.024 
	212.755,416.66 "/>
<polygon fill="#AF8AB6" stroke="#AF8AB6" stroke-miterlimit="10" points="299.921,204.552 212.185,345.137 122.478,204.552 
	212.755,153.802 "/>
<path fill="#AF8AB6" stroke="#AF8AB6" stroke-miterlimit="10" d="M103.748,187.022l29.574,50.21v178.124
	C133.321,415.356,73.188,257.788,103.748,187.022z"/>
<path fill="#AF8AB6" stroke="#AF8AB6" stroke-miterlimit="10" d="M317.877,187.022l-29.572,50.21v178.124
	C288.305,415.356,348.438,257.788,317.877,187.022z"/>
<polygon fill="#5E3965" stroke="#5E3965" stroke-miterlimit="10" points="211.703,377.964 161.91,363.081 184.142,301.189 
	212.185,345.137 "/>
<polygon fill="#512B58" stroke="#49274F" stroke-miterlimit="10" points="264.432,364.024 211.703,377.964 212.185,345.137 
	240.763,301.189 "/>
<polygon fill="#49274F" stroke="#49274F" stroke-miterlimit="10" points="212.755,416.66 161.91,363.081 211.703,377.964 "/>
<polygon fill="#2C003E" stroke="#2C003E" stroke-miterlimit="10" points="264.432,364.024 211.703,377.964 212.755,416.66 "/>
<path fill="#2C003E" stroke="#2C003E" stroke-miterlimit="10" d="M288.305,415.356c3.376-162.039,29.572-228.334,29.572-228.334
	l-29.572,50.21V415.356z"/>
<path fill="#2C003E" stroke="#2C003E" stroke-miterlimit="10" d="M133.321,415.356c-3.378-162.039-29.574-228.334-29.574-228.334
	l29.574,50.21V415.356z"/>
<polygon fill="#2C003E" stroke="#2C003E" stroke-miterlimit="10" points="122.478,204.552 212.185,241.043 212.185,345.137 "/>
<polygon fill="#5E3965" stroke="#5E3965" stroke-miterlimit="10" points="299.921,204.552 212.185,241.043 212.185,345.137 "/>
<polygon stroke="#000000" stroke-miterlimit="10" points="184.176,241.043 211.2,286.436 239.231,241.043 "/>
<polygon fill="#8D6692" stroke="#AF8AB6" stroke-miterlimit="10" points="195.247,127.952 181.326,171.471 213.203,181.512 
	212.625,149.494 "/>
<polygon fill="#8D6692" stroke="#AF8AB6" stroke-miterlimit="10" points="242.882,171.342 213.203,181.512 212.625,149.494 
	229.92,127.952 "/>
<ellipse stroke="#000000" stroke-miterlimit="10" cx="212.104" cy="225.044" rx="30.778" ry="33.858"/>
<polygon fill="#49274F" stroke="#49274F" stroke-miterlimit="10" points="159.657,83.833 177.046,82.57 213.203,132.977 
	212.625,149.494 "/>
<polygon fill="#CEB0D4" stroke="#CEB0D4" stroke-miterlimit="10" points="210.267,3.443 210.283,22.936 175.622,82.57 
	159.657,82.344 "/>
<polygon fill="#49274F" stroke="#49274F" stroke-miterlimit="10" points="263.977,82.269 246.565,82.512 213.203,132.977 
	212.625,149.494 "/>
<path fill="#8D6692" stroke="#AF8AB6" stroke-miterlimit="10" d="M303.092,153.802"/>
<polygon opacity="0.5" fill="#49274F" stroke="#49274F" stroke-miterlimit="10" points="212.961,168.117 188.355,149.494 
	193.71,127.952 212.625,149.494 229.766,127.952 235.919,148.034 "/>
<path fill="#49274F" stroke="#49274F" stroke-miterlimit="10" d="M561.5,252.712"/>
<path opacity="0.5" fill="#49274F" stroke="#49274F" stroke-miterlimit="10" d="M104.39,301.189
	c24.802,33.562,19.513-29.301,19.513-29.301l10.844,147.934C134.747,419.822,92.746,285.434,104.39,301.189z"/>
<path opacity="0.5" fill="#49274F" stroke="#49274F" stroke-miterlimit="10" d="M317.25,304.146
	c-24.802,33.562-19.514-29.301-19.514-29.301l-10.843,147.933C286.894,422.777,328.894,288.39,317.25,304.146z"/>
<polygon opacity="0.5" fill="#FFFFFF" stroke="#FFFFFF" stroke-miterlimit="10" points="220.989,41.774 187.333,95.422 
	191.914,101.808 220.97,40.661 "/>
<polygon opacity="0.5" fill="#FFFFFF" stroke="#FFFFFF" stroke-miterlimit="10" points="194.735,104.614 200.185,113.254 
	231.061,57.364 "/>
<ellipse opacity="0.5" fill="#FFA372" stroke="#AF8AB6" stroke-miterlimit="10" cx="211.703" cy="223.346" rx="24.175" ry="25.121"/>
<ellipse opacity="0.5" fill="#EA9085" stroke="#AF8AB6" stroke-miterlimit="10" cx="211.703" cy="223.346" rx="28.78" ry="29.905"/>
<path fill="#F7A173" stroke="#F7A173" stroke-miterlimit="10" d="M228.25,223.347c0,9.541-7.409,17.274-16.546,17.274
	s-16.546-7.733-16.546-17.274c0-1.071,0.093-2.119,0.271-3.135c1.413-8.044,8.163-14.139,16.275-14.139
	C220.841,206.072,228.25,213.806,228.25,223.347z"/>
<path fill="#EA9085" stroke="#EA9085" stroke-miterlimit="10" d="M222.185,236.714c-24.168,5.776-26.827-15.374-26.827-15.374
	c-0.781,8.201,3.477,12.864,3.477,12.864s4.669,5.668,9.339,6.021c4.669,0.354,5.772,0.957,9.812-0.894
	S222.185,236.714,222.185,236.714z"/>
<path fill="#FAB687" stroke="#FAB687" stroke-miterlimit="10" d="M227.349,224.22c-1.646,3.834-8.601,2.791-13.54,1.657
	c-7.054-1.62-14.312-8.347-14.312-12.563s7.096-7.241,14.312-7.241C221.024,206.072,230.38,217.152,227.349,224.22z"/>
<path opacity="0.2" fill="#FFFFFF" stroke="#FAB687" stroke-miterlimit="10" d="M225.655,214.254c0.383,2.636-6.743,1.2-9.61,0.455
	c-3.647-0.947-6.799-4.402-6.799-6.805s4.76-2.414,8.356-0.701C220.909,208.779,225.31,211.88,225.655,214.254z"/>
</svg>
