<?xml version="1.0" encoding="utf-8"?>
<!-- Generator: Adobe Illustrator 16.0.3, SVG Export Plug-In . SVG Version: 6.00 Build 0)  -->
<!DOCTYPE svg PUBLIC "-//W3C//DTD SVG 1.1//EN" "http://www.w3.org/Graphics/SVG/1.1/DTD/svg11.dtd">
<svg version="1.1" id="Layer_4" xmlns="http://www.w3.org/2000/svg" xmlns:xlink="http://www.w3.org/1999/xlink" x="0px" y="0px"
	 width="411px" height="441px" viewBox="0 0 411 441" enable-background="new 0 0 411 441" xml:space="preserve">
<polygon fill="#AF8AB6" stroke="#AF8AB6" stroke-miterlimit="10" points="263.977,84.269 213.595,150.006 159.657,85.833 
	211.692,5.443 "/>
<polygon fill="#CEB0D4" stroke="#49274F" stroke-miterlimit="10" points="246.565,84.512 213.203,134.977 177.046,84.57 
	211.708,24.936 "/>
<polygon fill="#AF8AB6" stroke="#AF8AB6" stroke-miterlimit="10" points="264.432,366.024 212.185,227.326 161.91,366.024 
	212.755,418.66 "/>
<polygon fill="#AF8AB6" stroke="#AF8AB6" stroke-miterlimit="10" points="299.921,206.552 212.185,347.137 122.478,206.552 
	212.755,155.802 "/>
<path fill="#AF8AB6" stroke="#AF8AB6" stroke-miterlimit="10" d="M103.748,189.022l29.574,50.21v178.124
	C133.321,417.356,73.188,259.788,103.748,189.022z"/>
<path fill="#AF8AB6" stroke="#AF8AB6" stroke-miterlimit="10" d="M317.877,189.022l-29.572,50.21v178.124
	C288.305,417.356,348.438,259.788,317.877,189.022z"/>
<polygon fill="#5E3965" stroke="#5E3965" stroke-miterlimit="10" points="211.703,379.964 161.91,365.081 184.142,303.189 
	212.185,347.137 "/>
<polygon fill="#512B58" stroke="#49274F" stroke-miterlimit="10" points="264.432,366.024 211.703,379.964 212.185,347.137 
	240.763,303.189 "/>
<polygon fill="#49274F" stroke="#49274F" stroke-miterlimit="10" points="212.755,418.66 161.91,365.081 211.703,379.964 "/>
<polygon fill="#2C003E" stroke="#2C003E" stroke-miterlimit="10" points="264.432,366.024 211.703,379.964 212.755,418.66 "/>
<path fill="#2C003E" stroke="#2C003E" stroke-miterlimit="10" d="M288.305,417.356c3.376-162.039,29.572-228.334,29.572-228.334
	l-29.572,50.21V417.356z"/>
<path fill="#2C003E" stroke="#2C003E" stroke-miterlimit="10" d="M133.321,417.356c-3.378-162.039-29.574-228.334-29.574-228.334
	l29.574,50.21V417.356z"/>
<polygon fill="#2C003E" stroke="#2C003E" stroke-miterlimit="10" points="122.478,206.552 212.185,243.043 212.185,347.137 "/>
<polygon fill="#5E3965" stroke="#5E3965" stroke-miterlimit="10" points="299.921,206.552 212.185,243.043 212.185,347.137 "/>
<polygon stroke="#000000" stroke-miterlimit="10" points="184.176,243.043 211.2,288.436 239.231,243.043 "/>
<polygon fill="#8D6692" stroke="#AF8AB6" stroke-miterlimit="10" points="195.247,129.952 181.326,173.471 213.203,183.512 
	212.625,151.494 "/>
<polygon fill="#8D6692" stroke="#AF8AB6" stroke-miterlimit="10" points="242.882,173.342 213.203,183.512 212.625,151.494 
	229.92,129.952 "/>
<ellipse stroke="#000000" stroke-miterlimit="10" cx="212.104" cy="227.044" rx="30.778" ry="33.858"/>
<polygon fill="#49274F" stroke="#49274F" stroke-miterlimit="10" points="159.657,85.833 177.046,84.57 213.203,134.977 
	212.625,151.494 "/>
<polygon fill="#CEB0D4" stroke="#CEB0D4" stroke-miterlimit="10" points="210.267,5.443 210.283,24.936 175.622,84.57 
	159.657,84.344 "/>
<polygon fill="#49274F" stroke="#49274F" stroke-miterlimit="10" points="263.977,84.269 246.565,84.512 213.203,134.977 
	212.625,151.494 "/>
<path fill="#8D6692" stroke="#AF8AB6" stroke-miterlimit="10" d="M303.092,155.802"/>
<polygon opacity="0.5" fill="#49274F" stroke="#49274F" stroke-miterlimit="10" points="212.961,170.117 188.355,151.494 
	193.71,129.952 212.625,151.494 229.766,129.952 235.919,150.034 "/>
<path fill="#49274F" stroke="#49274F" stroke-miterlimit="10" d="M561.5,252.712"/>
<path opacity="0.5" fill="#49274F" stroke="#49274F" stroke-miterlimit="10" d="M104.39,303.189
	c24.802,33.562,19.513-29.301,19.513-29.301l10.844,147.934C134.747,421.822,92.746,287.434,104.39,303.189z"/>
<path opacity="0.5" fill="#49274F" stroke="#49274F" stroke-miterlimit="10" d="M317.25,306.146
	c-24.802,33.562-19.514-29.301-19.514-29.301l-10.843,147.933C286.894,424.777,328.894,290.39,317.25,306.146z"/>
<polygon opacity="0.5" fill="#FFFFFF" stroke="#FFFFFF" stroke-miterlimit="10" points="220.989,43.774 187.333,97.422 
	191.914,103.808 220.97,42.661 "/>
<polygon opacity="0.5" fill="#FFFFFF" stroke="#FFFFFF" stroke-miterlimit="10" points="194.735,106.614 200.185,115.254 
	231.061,59.364 "/>
<ellipse opacity="0.5" fill="#FFA372" stroke="#AF8AB6" stroke-miterlimit="10" cx="211.703" cy="225.346" rx="23.963" ry="24.901"/>
<ellipse opacity="0.5" fill="#EA9085" stroke="#AF8AB6" stroke-miterlimit="10" cx="211.703" cy="225.346" rx="27.958" ry="29.051"/>
<path fill="#F7A173" stroke="#F7A173" stroke-miterlimit="10" d="M228.925,225.349c0,9.929-7.711,17.979-17.222,17.979
	s-17.222-8.05-17.222-17.979c0-1.115,0.097-2.206,0.283-3.263c1.471-8.373,8.496-14.716,16.939-14.716
	C221.214,207.369,228.925,215.418,228.925,225.349z"/>
<path fill="#EA9085" stroke="#EA9085" stroke-miterlimit="10" d="M222.612,239.261c-25.155,6.012-27.922-16.001-27.922-16.001
	c-0.813,8.535,3.618,13.388,3.618,13.388s4.86,5.899,9.72,6.268c4.86,0.369,6.008,0.996,10.213-0.93
	C222.445,240.058,222.612,239.261,222.612,239.261z"/>
<path fill="#FAB687" stroke="#FAB687" stroke-miterlimit="10" d="M227.988,226.257c-1.713,3.991-8.953,2.905-14.093,1.724
	c-7.342-1.686-14.896-8.688-14.896-13.076s7.385-7.536,14.896-7.536C221.405,207.369,231.142,218.901,227.988,226.257z"/>
<path opacity="0.2" fill="#FFFFFF" stroke="#FAB687" stroke-miterlimit="10" d="M226.225,215.885
	c0.399,2.743-7.019,1.249-10.003,0.474c-3.796-0.986-7.076-4.582-7.076-7.083c0-2.5,4.955-2.513,8.698-0.729
	C221.285,210.186,225.865,213.413,226.225,215.885z"/>
</svg>
