<?xml version="1.0" encoding="utf-8"?>
<!-- Generator: Adobe Illustrator 16.0.3, SVG Export Plug-In . SVG Version: 6.00 Build 0)  -->
<!DOCTYPE svg PUBLIC "-//W3C//DTD SVG 1.1//EN" "http://www.w3.org/Graphics/SVG/1.1/DTD/svg11.dtd">
<svg version="1.1" id="Layer_4" xmlns="http://www.w3.org/2000/svg" xmlns:xlink="http://www.w3.org/1999/xlink" x="0px" y="0px"
	 width="411px" height="441px" viewBox="0 0 411 441" enable-background="new 0 0 411 441" xml:space="preserve">
<polygon fill="#AF8AB6" stroke="#AF8AB6" stroke-miterlimit="10" points="263.977,95.269 213.595,161.006 159.657,96.833 
	211.692,16.443 "/>
<polygon fill="#CEB0D4" stroke="#49274F" stroke-miterlimit="10" points="246.565,95.512 213.203,145.977 177.046,95.57 
	211.708,35.936 "/>
<polygon fill="#AF8AB6" stroke="#AF8AB6" stroke-miterlimit="10" points="264.432,377.024 212.185,238.326 161.91,377.024 
	212.755,429.66 "/>
<polygon fill="#AF8AB6" stroke="#AF8AB6" stroke-miterlimit="10" points="299.921,217.552 212.185,358.137 122.478,217.552 
	212.755,166.802 "/>
<path fill="#AF8AB6" stroke="#AF8AB6" stroke-miterlimit="10" d="M103.748,200.022l29.574,50.21v178.124
	C133.321,428.356,73.188,270.788,103.748,200.022z"/>
<path fill="#AF8AB6" stroke="#AF8AB6" stroke-miterlimit="10" d="M317.877,200.022l-29.572,50.21v178.124
	C288.305,428.356,348.438,270.788,317.877,200.022z"/>
<polygon fill="#5E3965" stroke="#5E3965" stroke-miterlimit="10" points="211.703,390.964 161.91,376.081 184.142,314.189 
	212.185,358.137 "/>
<polygon fill="#512B58" stroke="#49274F" stroke-miterlimit="10" points="264.432,377.024 211.703,390.964 212.185,358.137 
	240.763,314.189 "/>
<polygon fill="#49274F" stroke="#49274F" stroke-miterlimit="10" points="212.755,429.66 161.91,376.081 211.703,390.964 "/>
<polygon fill="#2C003E" stroke="#2C003E" stroke-miterlimit="10" points="264.432,377.024 211.703,390.964 212.755,429.66 "/>
<path fill="#2C003E" stroke="#2C003E" stroke-miterlimit="10" d="M288.305,428.356c3.376-162.039,29.572-228.334,29.572-228.334
	l-29.572,50.21V428.356z"/>
<path fill="#2C003E" stroke="#2C003E" stroke-miterlimit="10" d="M133.321,428.356c-3.378-162.039-29.574-228.334-29.574-228.334
	l29.574,50.21V428.356z"/>
<polygon fill="#2C003E" stroke="#2C003E" stroke-miterlimit="10" points="122.478,217.552 212.185,254.043 212.185,358.137 "/>
<polygon fill="#5E3965" stroke="#5E3965" stroke-miterlimit="10" points="299.921,217.552 212.185,254.043 212.185,358.137 "/>
<polygon stroke="#000000" stroke-miterlimit="10" points="184.176,254.043 211.2,299.436 239.231,254.043 "/>
<polygon fill="#8D6692" stroke="#AF8AB6" stroke-miterlimit="10" points="195.247,140.952 181.326,184.471 213.203,194.512 
	212.625,162.494 "/>
<polygon fill="#8D6692" stroke="#AF8AB6" stroke-miterlimit="10" points="242.882,184.342 213.203,194.512 212.625,162.494 
	229.92,140.952 "/>
<ellipse stroke="#000000" stroke-miterlimit="10" cx="212.104" cy="238.044" rx="30.778" ry="33.858"/>
<polygon fill="#49274F" stroke="#49274F" stroke-miterlimit="10" points="159.657,96.833 177.046,95.57 213.203,145.977 
	212.625,162.494 "/>
<polygon fill="#CEB0D4" stroke="#CEB0D4" stroke-miterlimit="10" points="210.267,16.443 210.283,35.936 175.622,95.57 
	159.657,95.344 "/>
<polygon fill="#49274F" stroke="#49274F" stroke-miterlimit="10" points="263.977,95.269 246.565,95.512 213.203,145.977 
	212.625,162.494 "/>
<path fill="#8D6692" stroke="#AF8AB6" stroke-miterlimit="10" d="M303.092,166.802"/>
<polygon opacity="0.5" fill="#49274F" stroke="#49274F" stroke-miterlimit="10" points="212.961,181.117 188.355,162.494 
	193.71,140.952 212.625,162.494 229.766,140.952 235.919,161.034 "/>
<path fill="#49274F" stroke="#49274F" stroke-miterlimit="10" d="M561.5,252.712"/>
<path opacity="0.5" fill="#49274F" stroke="#49274F" stroke-miterlimit="10" d="M104.39,314.189
	c24.802,33.562,19.513-29.301,19.513-29.301l10.844,147.934C134.747,432.822,92.746,298.434,104.39,314.189z"/>
<path opacity="0.5" fill="#49274F" stroke="#49274F" stroke-miterlimit="10" d="M317.25,317.146
	c-24.802,33.562-19.514-29.301-19.514-29.301l-10.843,147.933C286.894,435.777,328.894,301.39,317.25,317.146z"/>
<polygon opacity="0.5" fill="#FFFFFF" stroke="#FFFFFF" stroke-miterlimit="10" points="220.989,54.774 187.333,108.422 
	191.914,114.808 220.97,53.661 "/>
<polygon opacity="0.5" fill="#FFFFFF" stroke="#FFFFFF" stroke-miterlimit="10" points="194.735,117.614 200.185,126.254 
	231.061,70.364 "/>
<ellipse opacity="0.5" fill="#FFA372" stroke="#AF8AB6" stroke-miterlimit="10" cx="211.703" cy="236.346" rx="21.091" ry="21.917"/>
<ellipse opacity="0.5" fill="#EA9085" stroke="#AF8AB6" stroke-miterlimit="10" cx="211.702" cy="236.346" rx="25.973" ry="26.99"/>
<path fill="#F7A173" stroke="#F7A173" stroke-miterlimit="10" d="M226.139,236.319c0,8.323-6.464,15.071-14.436,15.071
	s-14.436-6.748-14.436-15.071c0-0.935,0.082-1.848,0.237-2.735c1.233-7.018,7.122-12.335,14.199-12.335
	C219.675,221.248,226.139,227.995,226.139,236.319z"/>
<path fill="#EA9085" stroke="#EA9085" stroke-miterlimit="10" d="M220.848,247.98c-21.086,5.04-23.405-13.413-23.405-13.413
	c-0.681,7.155,3.033,11.223,3.033,11.223s4.074,4.944,8.148,5.253c4.074,0.309,5.036,0.835,8.561-0.78
	C220.708,248.649,220.848,247.98,220.848,247.98z"/>
<path fill="#FAB687" stroke="#FAB687" stroke-miterlimit="10" d="M225.354,236.663c-1.436,3.345-7.504,2.435-11.813,1.445
	c-6.154-1.413-12.486-7.282-12.486-10.96c0-3.679,6.191-6.317,12.486-6.317C219.835,220.83,227.997,230.496,225.354,236.663z"/>
<path opacity="0.2" fill="#FFFFFF" stroke="#FAB687" stroke-miterlimit="10" d="M223.875,227.968c0.334,2.3-5.883,1.047-8.385,0.397
	c-3.182-0.827-5.931-3.841-5.931-5.938c0-2.096,4.153-2.106,7.291-0.612C219.735,223.191,223.574,225.896,223.875,227.968z"/>
</svg>
