<?xml version="1.0" encoding="utf-8"?>
<!-- Generator: Adobe Illustrator 16.0.3, SVG Export Plug-In . SVG Version: 6.00 Build 0)  -->
<!DOCTYPE svg PUBLIC "-//W3C//DTD SVG 1.1//EN" "http://www.w3.org/Graphics/SVG/1.1/DTD/svg11.dtd">
<svg version="1.1" id="Layer_4" xmlns="http://www.w3.org/2000/svg" xmlns:xlink="http://www.w3.org/1999/xlink" x="0px" y="0px"
	 width="411px" height="441px" viewBox="0 0 411 441" enable-background="new 0 0 411 441" xml:space="preserve">
<polygon fill="#AF8AB6" stroke="#AF8AB6" stroke-miterlimit="10" points="263.977,92.269 213.595,158.006 159.657,93.833 
	211.692,13.443 "/>
<polygon fill="#CEB0D4" stroke="#49274F" stroke-miterlimit="10" points="246.565,92.512 213.203,142.977 177.046,92.57 
	211.708,32.936 "/>
<polygon fill="#AF8AB6" stroke="#AF8AB6" stroke-miterlimit="10" points="264.432,374.024 212.185,235.326 161.91,374.024 
	212.755,426.66 "/>
<polygon fill="#AF8AB6" stroke="#AF8AB6" stroke-miterlimit="10" points="299.921,214.552 212.185,355.137 122.478,214.552 
	212.755,163.802 "/>
<path fill="#AF8AB6" stroke="#AF8AB6" stroke-miterlimit="10" d="M103.748,197.022l29.574,50.21v178.124
	C133.321,425.356,73.188,267.788,103.748,197.022z"/>
<path fill="#AF8AB6" stroke="#AF8AB6" stroke-miterlimit="10" d="M317.877,197.022l-29.572,50.21v178.124
	C288.305,425.356,348.438,267.788,317.877,197.022z"/>
<polygon fill="#5E3965" stroke="#5E3965" stroke-miterlimit="10" points="211.703,387.964 161.91,373.081 184.142,311.189 
	212.185,355.137 "/>
<polygon fill="#512B58" stroke="#49274F" stroke-miterlimit="10" points="264.432,374.024 211.703,387.964 212.185,355.137 
	240.763,311.189 "/>
<polygon fill="#49274F" stroke="#49274F" stroke-miterlimit="10" points="212.755,426.66 161.91,373.081 211.703,387.964 "/>
<polygon fill="#2C003E" stroke="#2C003E" stroke-miterlimit="10" points="264.432,374.024 211.703,387.964 212.755,426.66 "/>
<path fill="#2C003E" stroke="#2C003E" stroke-miterlimit="10" d="M288.305,425.356c3.376-162.039,29.572-228.334,29.572-228.334
	l-29.572,50.21V425.356z"/>
<path fill="#2C003E" stroke="#2C003E" stroke-miterlimit="10" d="M133.321,425.356c-3.378-162.039-29.574-228.334-29.574-228.334
	l29.574,50.21V425.356z"/>
<polygon fill="#2C003E" stroke="#2C003E" stroke-miterlimit="10" points="122.478,214.552 212.185,251.043 212.185,355.137 "/>
<polygon fill="#5E3965" stroke="#5E3965" stroke-miterlimit="10" points="299.921,214.552 212.185,251.043 212.185,355.137 "/>
<polygon stroke="#000000" stroke-miterlimit="10" points="184.176,251.043 211.2,296.436 239.231,251.043 "/>
<polygon fill="#8D6692" stroke="#AF8AB6" stroke-miterlimit="10" points="195.247,137.952 181.326,181.471 213.203,191.512 
	212.625,159.494 "/>
<polygon fill="#8D6692" stroke="#AF8AB6" stroke-miterlimit="10" points="242.882,181.342 213.203,191.512 212.625,159.494 
	229.92,137.952 "/>
<ellipse stroke="#000000" stroke-miterlimit="10" cx="212.104" cy="235.044" rx="30.778" ry="33.858"/>
<polygon fill="#49274F" stroke="#49274F" stroke-miterlimit="10" points="159.657,93.833 177.046,92.57 213.203,142.977 
	212.625,159.494 "/>
<polygon fill="#CEB0D4" stroke="#CEB0D4" stroke-miterlimit="10" points="210.267,13.443 210.283,32.936 175.622,92.57 
	159.657,92.344 "/>
<polygon fill="#49274F" stroke="#49274F" stroke-miterlimit="10" points="263.977,92.269 246.565,92.512 213.203,142.977 
	212.625,159.494 "/>
<path fill="#8D6692" stroke="#AF8AB6" stroke-miterlimit="10" d="M303.092,163.802"/>
<polygon opacity="0.5" fill="#49274F" stroke="#49274F" stroke-miterlimit="10" points="212.961,178.117 188.355,159.494 
	193.71,137.952 212.625,159.494 229.766,137.952 235.919,158.034 "/>
<path fill="#49274F" stroke="#49274F" stroke-miterlimit="10" d="M561.5,252.712"/>
<path opacity="0.5" fill="#49274F" stroke="#49274F" stroke-miterlimit="10" d="M104.39,311.189
	c24.802,33.562,19.513-29.301,19.513-29.301l10.844,147.934C134.747,429.822,92.746,295.434,104.39,311.189z"/>
<path opacity="0.5" fill="#49274F" stroke="#49274F" stroke-miterlimit="10" d="M317.25,314.146
	c-24.802,33.562-19.514-29.301-19.514-29.301l-10.843,147.933C286.894,432.777,328.894,298.39,317.25,314.146z"/>
<polygon opacity="0.5" fill="#FFFFFF" stroke="#FFFFFF" stroke-miterlimit="10" points="220.989,51.774 187.333,105.422 
	191.914,111.808 220.97,50.661 "/>
<polygon opacity="0.5" fill="#FFFFFF" stroke="#FFFFFF" stroke-miterlimit="10" points="194.735,114.614 200.185,123.254 
	231.061,67.364 "/>
<ellipse opacity="0.5" fill="#FFA372" stroke="#AF8AB6" stroke-miterlimit="10" cx="211.703" cy="233.346" rx="21.753" ry="22.604"/>
<ellipse opacity="0.5" fill="#EA9085" stroke="#AF8AB6" stroke-miterlimit="10" cx="211.703" cy="233.346" rx="26.104" ry="27.125"/>
<path fill="#F7A173" stroke="#F7A173" stroke-miterlimit="10" d="M227.783,233.346c0,9.271-7.2,16.787-16.08,16.787
	s-16.08-7.516-16.08-16.787c0-1.041,0.09-2.059,0.264-3.047c1.373-7.817,7.932-13.741,15.816-13.741
	C220.583,216.558,227.783,224.074,227.783,233.346z"/>
<path fill="#EA9085" stroke="#EA9085" stroke-miterlimit="10" d="M221.889,246.336c-23.487,5.613-26.071-14.94-26.071-14.94
	c-0.759,7.97,3.378,12.501,3.378,12.501s4.538,5.508,9.076,5.852c4.538,0.344,5.61,0.93,9.536-0.869
	C221.733,247.081,221.889,246.336,221.889,246.336z"/>
<path fill="#FAB687" stroke="#FAB687" stroke-miterlimit="10" d="M226.908,234.194c-1.599,3.727-8.359,2.712-13.159,1.61
	c-6.855-1.574-13.908-8.112-13.908-12.209c0-4.098,6.896-7.037,13.908-7.037S229.854,227.326,226.908,234.194z"/>
<path opacity="0.2" fill="#FFFFFF" stroke="#FAB687" stroke-miterlimit="10" d="M225.262,224.51c0.372,2.562-6.553,1.166-9.34,0.442
	c-3.544-0.921-6.607-4.278-6.607-6.614c0-2.335,4.626-2.346,8.121-0.681C220.65,219.188,224.926,222.202,225.262,224.51z"/>
</svg>
