<?xml version="1.0" encoding="utf-8"?>
<!-- Generator: Adobe Illustrator 16.0.3, SVG Export Plug-In . SVG Version: 6.00 Build 0)  -->
<!DOCTYPE svg PUBLIC "-//W3C//DTD SVG 1.1//EN" "http://www.w3.org/Graphics/SVG/1.1/DTD/svg11.dtd">
<svg version="1.1" id="Layer_4" xmlns="http://www.w3.org/2000/svg" xmlns:xlink="http://www.w3.org/1999/xlink" x="0px" y="0px"
	 width="411px" height="441px" viewBox="0 0 411 441" enable-background="new 0 0 411 441" xml:space="preserve">
<polygon fill="#AF8AB6" stroke="#AF8AB6" stroke-miterlimit="10" points="263.977,90.269 213.595,156.006 159.657,91.833 
	211.692,11.443 "/>
<polygon fill="#CEB0D4" stroke="#49274F" stroke-miterlimit="10" points="246.565,90.512 213.203,140.977 177.046,90.57 
	211.708,30.936 "/>
<polygon fill="#AF8AB6" stroke="#AF8AB6" stroke-miterlimit="10" points="264.432,372.024 212.185,233.326 161.91,372.024 
	212.755,424.66 "/>
<polygon fill="#AF8AB6" stroke="#AF8AB6" stroke-miterlimit="10" points="299.921,212.552 212.185,353.137 122.478,212.552 
	212.755,161.802 "/>
<path fill="#AF8AB6" stroke="#AF8AB6" stroke-miterlimit="10" d="M103.748,195.022l29.574,50.21v178.124
	C133.321,423.356,73.188,265.788,103.748,195.022z"/>
<path fill="#AF8AB6" stroke="#AF8AB6" stroke-miterlimit="10" d="M317.877,195.022l-29.572,50.21v178.124
	C288.305,423.356,348.438,265.788,317.877,195.022z"/>
<polygon fill="#5E3965" stroke="#5E3965" stroke-miterlimit="10" points="211.703,385.964 161.91,371.081 184.142,309.189 
	212.185,353.137 "/>
<polygon fill="#512B58" stroke="#49274F" stroke-miterlimit="10" points="264.432,372.024 211.703,385.964 212.185,353.137 
	240.763,309.189 "/>
<polygon fill="#49274F" stroke="#49274F" stroke-miterlimit="10" points="212.755,424.66 161.91,371.081 211.703,385.964 "/>
<polygon fill="#2C003E" stroke="#2C003E" stroke-miterlimit="10" points="264.432,372.024 211.703,385.964 212.755,424.66 "/>
<path fill="#2C003E" stroke="#2C003E" stroke-miterlimit="10" d="M288.305,423.356c3.376-162.039,29.572-228.334,29.572-228.334
	l-29.572,50.21V423.356z"/>
<path fill="#2C003E" stroke="#2C003E" stroke-miterlimit="10" d="M133.321,423.356c-3.378-162.039-29.574-228.334-29.574-228.334
	l29.574,50.21V423.356z"/>
<polygon fill="#2C003E" stroke="#2C003E" stroke-miterlimit="10" points="122.478,212.552 212.185,249.043 212.185,353.137 "/>
<polygon fill="#5E3965" stroke="#5E3965" stroke-miterlimit="10" points="299.921,212.552 212.185,249.043 212.185,353.137 "/>
<polygon stroke="#000000" stroke-miterlimit="10" points="184.176,249.043 211.2,294.436 239.231,249.043 "/>
<polygon fill="#8D6692" stroke="#AF8AB6" stroke-miterlimit="10" points="195.247,135.952 181.326,179.471 213.203,189.512 
	212.625,157.494 "/>
<polygon fill="#8D6692" stroke="#AF8AB6" stroke-miterlimit="10" points="242.882,179.342 213.203,189.512 212.625,157.494 
	229.92,135.952 "/>
<ellipse stroke="#000000" stroke-miterlimit="10" cx="212.104" cy="233.044" rx="30.778" ry="33.858"/>
<polygon fill="#49274F" stroke="#49274F" stroke-miterlimit="10" points="159.657,91.833 177.046,90.57 213.203,140.977 
	212.625,157.494 "/>
<polygon fill="#CEB0D4" stroke="#CEB0D4" stroke-miterlimit="10" points="210.267,11.443 210.283,30.936 175.622,90.57 
	159.657,90.344 "/>
<polygon fill="#49274F" stroke="#49274F" stroke-miterlimit="10" points="263.977,90.269 246.565,90.512 213.203,140.977 
	212.625,157.494 "/>
<path fill="#8D6692" stroke="#AF8AB6" stroke-miterlimit="10" d="M303.092,161.802"/>
<polygon opacity="0.5" fill="#49274F" stroke="#49274F" stroke-miterlimit="10" points="212.961,176.117 188.355,157.494 
	193.71,135.952 212.625,157.494 229.766,135.952 235.919,156.034 "/>
<path fill="#49274F" stroke="#49274F" stroke-miterlimit="10" d="M561.5,252.712"/>
<path opacity="0.5" fill="#49274F" stroke="#49274F" stroke-miterlimit="10" d="M104.39,309.189
	c24.802,33.562,19.513-29.301,19.513-29.301l10.844,147.934C134.747,427.822,92.746,293.434,104.39,309.189z"/>
<path opacity="0.5" fill="#49274F" stroke="#49274F" stroke-miterlimit="10" d="M317.25,312.146
	c-24.802,33.562-19.514-29.301-19.514-29.301l-10.843,147.933C286.894,430.777,328.894,296.39,317.25,312.146z"/>
<polygon opacity="0.5" fill="#FFFFFF" stroke="#FFFFFF" stroke-miterlimit="10" points="220.989,49.774 187.333,103.422 
	191.914,109.808 220.97,48.661 "/>
<polygon opacity="0.5" fill="#FFFFFF" stroke="#FFFFFF" stroke-miterlimit="10" points="194.735,112.614 200.185,121.254 
	231.061,65.364 "/>
<ellipse opacity="0.5" fill="#FFA372" stroke="#AF8AB6" stroke-miterlimit="10" cx="211.703" cy="231.346" rx="22.188" ry="23.057"/>
<ellipse opacity="0.5" fill="#EA9085" stroke="#AF8AB6" stroke-miterlimit="10" cx="211.703" cy="231.346" rx="26.626" ry="27.667"/>
<path fill="#F7A173" stroke="#F7A173" stroke-miterlimit="10" d="M228.105,231.346c0,9.457-7.344,17.123-16.402,17.123
	s-16.402-7.666-16.402-17.123c0-1.062,0.092-2.1,0.27-3.107c1.4-7.974,8.091-14.016,16.132-14.016
	C220.761,214.223,228.105,221.889,228.105,231.346z"/>
<path fill="#EA9085" stroke="#EA9085" stroke-miterlimit="10" d="M222.093,244.597c-23.957,5.725-26.592-15.239-26.592-15.239
	c-0.774,8.129,3.446,12.751,3.446,12.751s4.628,5.618,9.257,5.969c4.629,0.351,5.722,0.948,9.727-0.886
	C221.934,245.356,222.093,244.597,222.093,244.597z"/>
<path fill="#FAB687" stroke="#FAB687" stroke-miterlimit="10" d="M227.212,232.211c-1.631,3.801-8.526,2.767-13.422,1.643
	c-6.992-1.605-14.186-8.274-14.186-12.453c0-4.18,7.034-7.178,14.186-7.178S230.217,225.206,227.212,232.211z"/>
<path opacity="0.2" fill="#FFFFFF" stroke="#FAB687" stroke-miterlimit="10" d="M225.533,222.334
	c0.38,2.612-6.684,1.189-9.526,0.451c-3.615-0.939-6.739-4.364-6.739-6.746s4.719-2.393,8.283-0.695
	C220.829,216.906,225.191,219.979,225.533,222.334z"/>
</svg>
