<?xml version="1.0" encoding="utf-8"?>
<!-- Generator: Adobe Illustrator 16.0.3, SVG Export Plug-In . SVG Version: 6.00 Build 0)  -->
<!DOCTYPE svg PUBLIC "-//W3C//DTD SVG 1.1//EN" "http://www.w3.org/Graphics/SVG/1.1/DTD/svg11.dtd">
<svg version="1.1" id="Layer_1" xmlns="http://www.w3.org/2000/svg" xmlns:xlink="http://www.w3.org/1999/xlink" x="0px" y="0px"
	 width="612px" height="612px" viewBox="0 0 612 612" enable-background="new 0 0 612 612" xml:space="preserve">
<polygon fill="#27AAE1" points="411.76,86.585 409.101,142.306 474.752,95.796 "/>
<polygon fill="#262262" points="546.085,210.889 425.047,243.472 502.551,282.355 "/>
<polygon fill="#262262" points="402.263,420.364 320.329,386.325 319.31,545.666 "/>
<polygon fill="#007DC5" points="43.917,85.892 166.667,158.333 128.899,81.091 "/>
<polygon fill="#FBB040" points="267.655,325.884 258.63,338.545 249.855,326.236 258.88,313.574 "/>
<polygon fill="#F7941E" points="258.755,326.06 258.88,313.574 267.655,325.884 "/>
<polygon fill="#F15A29" points="258.63,338.545 258.755,326.06 249.855,326.236 "/>
<polygon fill="#EF4136" points="267.655,325.884 258.755,326.06 258.63,338.545 "/>
<polygon fill="#FBB040" points="229.375,127.185 220.45,140.289 211.771,127.549 220.698,114.445 "/>
<polygon fill="#F7941E" points="220.574,127.367 220.698,114.445 229.375,127.185 "/>
<polygon fill="#F15A29" points="220.45,140.289 220.574,127.367 211.771,127.549 "/>
<polygon fill="#EF4136" points="229.375,127.185 220.574,127.367 220.45,140.289 "/>
<polygon fill="#FBB040" points="398.001,158.214 390.993,166.815 383.269,158.453 390.738,149.852 "/>
<polygon fill="#F7941E" points="390.635,158.333 390.738,149.852 398.001,158.214 "/>
<polygon fill="#F15A29" points="390.993,166.815 390.635,158.333 383.269,158.453 "/>
<polygon fill="#EF4136" points="398.001,158.214 390.635,158.333 390.993,166.815 "/>
</svg>
