<?xml version="1.0" encoding="utf-8"?>
<!-- Generator: Adobe Illustrator 16.0.3, SVG Export Plug-In . SVG Version: 6.00 Build 0)  -->
<!DOCTYPE svg PUBLIC "-//W3C//DTD SVG 1.1//EN" "http://www.w3.org/Graphics/SVG/1.1/DTD/svg11.dtd">
<svg version="1.1" id="Layer_1" xmlns="http://www.w3.org/2000/svg" xmlns:xlink="http://www.w3.org/1999/xlink" x="0px" y="0px"
	 width="612px" height="612px" viewBox="0 0 612 612" enable-background="new 0 0 612 612" xml:space="preserve">
<polygon fill="#27AAE1" points="476.081,31.187 474.752,51.667 507.577,34.573 "/>
<polygon fill="#262262" points="599.565,175.555 566.906,187.47 587.818,201.688 "/>
<polygon fill="#262262" points="348.263,540.375 311.764,524.992 311.31,596.999 "/>
<polygon fill="#007DC5" points="9.814,19.555 54.667,43.667 40.423,18.707 "/>
<polygon fill="#FBB040" points="201.691,423.494 197.061,428.043 192.558,423.621 197.189,419.072 "/>
<polygon fill="#F7941E" points="197.125,423.558 197.189,419.072 201.691,423.494 "/>
<polygon fill="#F15A29" points="197.061,428.043 197.125,423.558 192.558,423.621 "/>
<polygon fill="#EF4136" points="201.691,423.494 197.125,423.558 197.061,428.043 "/>
<polygon fill="#FBB040" points="142.751,73.744 140.362,79.721 138.04,73.91 140.428,67.932 "/>
<polygon fill="#F7941E" points="140.395,73.827 140.428,67.932 142.751,73.744 "/>
<polygon fill="#F15A29" points="140.362,79.721 140.395,73.827 138.04,73.91 "/>
<polygon fill="#EF4136" points="142.751,73.744 140.395,73.827 140.362,79.721 "/>
<polygon fill="#FBB040" points="446.659,113.157 442.808,116.747 438.562,113.256 442.667,109.667 "/>
<polygon fill="#F7941E" points="442.61,113.207 442.667,109.667 446.659,113.157 "/>
<polygon fill="#F15A29" points="442.808,116.747 442.61,113.207 438.562,113.256 "/>
<polygon fill="#EF4136" points="446.659,113.157 442.61,113.207 442.808,116.747 "/>
</svg>
