<?xml version="1.0" encoding="utf-8"?>
<!-- Generator: Adobe Illustrator 16.0.3, SVG Export Plug-In . SVG Version: 6.00 Build 0)  -->
<!DOCTYPE svg PUBLIC "-//W3C//DTD SVG 1.1//EN" "http://www.w3.org/Graphics/SVG/1.1/DTD/svg11.dtd">
<svg version="1.1" id="Layer_1" xmlns="http://www.w3.org/2000/svg" xmlns:xlink="http://www.w3.org/1999/xlink" x="0px" y="0px"
	 width="612px" height="612px" viewBox="0 0 612 612" enable-background="new 0 0 612 612" xml:space="preserve">
<polygon fill="#2B3990" points="318.438,575.667 210.389,355.299 124.261,244.708 252.138,222.818 319.342,81.813 385.201,223.513 
	509.863,246.958 425.689,356.424 "/>
<polygon fill="#27AAE1" points="319.342,81.813 318.563,296.865 385.201,223.513 "/>
<polygon fill="#262262" points="509.863,246.958 318.563,296.865 425.689,356.424 "/>
<polygon fill="#262262" points="425.689,356.424 319.756,296.865 318.438,575.667 "/>
<polygon fill="#073F6E" points="124.261,244.708 210.389,355.299 318.662,296.865 "/>
<polygon fill="#007DC5" points="124.261,244.708 318.563,296.865 252.138,222.818 "/>
<polygon fill="#FBB040" points="334.606,296.63 318.438,313.584 302.718,297.101 318.887,280.146 "/>
<polygon fill="#F7941E" points="318.662,296.865 318.887,280.146 334.606,296.63 "/>
<polygon fill="#F15A29" points="318.438,313.584 318.662,296.865 302.718,297.101 "/>
<polygon fill="#EF4136" points="334.606,296.63 318.662,296.865 318.438,313.584 "/>
<polygon fill="#FBB040" points="143.278,209.822 127.109,226.777 111.389,210.293 127.558,193.339 "/>
<polygon fill="#F7941E" points="127.333,210.058 127.558,193.339 143.278,209.822 "/>
<polygon fill="#F15A29" points="127.109,226.777 127.333,210.058 111.389,210.293 "/>
<polygon fill="#EF4136" points="143.278,209.822 127.333,210.058 127.109,226.777 "/>
<polygon fill="#FBB040" points="521.646,206.476 505.478,223.431 489.758,206.947 505.927,189.993 "/>
<polygon fill="#F7941E" points="505.702,206.711 505.927,189.993 521.646,206.476 "/>
<polygon fill="#F15A29" points="505.478,223.431 505.702,206.711 489.758,206.947 "/>
<polygon fill="#EF4136" points="521.646,206.476 505.702,206.711 505.478,223.431 "/>
</svg>
