<?xml version="1.0" encoding="utf-8"?>
<!-- Generator: Adobe Illustrator 16.0.3, SVG Export Plug-In . SVG Version: 6.00 Build 0)  -->
<!DOCTYPE svg PUBLIC "-//W3C//DTD SVG 1.1//EN" "http://www.w3.org/Graphics/SVG/1.1/DTD/svg11.dtd">
<svg version="1.1" id="Layer_1" xmlns="http://www.w3.org/2000/svg" xmlns:xlink="http://www.w3.org/1999/xlink" x="0px" y="0px"
	 width="612px" height="612px" viewBox="0 0 612 612" enable-background="new 0 0 612 612" xml:space="preserve">
<polygon fill="#2B3990" points="318.438,575.667 210.389,355.299 145.261,244.708 252.138,222.818 319.342,142.813 385.201,223.513 
	485.863,246.958 425.689,356.424 "/>
<polygon fill="#27AAE1" points="319.342,142.813 318.563,296.865 385.201,223.513 "/>
<polygon fill="#262262" points="485.863,246.958 318.563,296.865 425.689,356.424 "/>
<polygon fill="#262262" points="425.689,356.424 319.756,296.865 318.438,575.667 "/>
<polygon fill="#007DC5" points="145.261,244.708 318.563,296.865 252.138,222.818 "/>
<polygon fill="#FBB040" points="334.606,296.63 318.438,313.584 302.718,297.101 318.887,280.146 "/>
<polygon fill="#F7941E" points="318.662,296.865 318.887,280.146 334.606,296.63 "/>
<polygon fill="#F15A29" points="318.438,313.584 318.662,296.865 302.718,297.101 "/>
<polygon fill="#EF4136" points="334.606,296.63 318.662,296.865 318.438,313.584 "/>
<polygon fill="#FBB040" points="223.278,197.822 207.109,214.777 191.389,198.293 207.558,181.339 "/>
<polygon fill="#F7941E" points="207.333,198.058 207.558,181.339 223.278,197.822 "/>
<polygon fill="#F15A29" points="207.109,214.777 207.333,198.058 191.389,198.293 "/>
<polygon fill="#EF4136" points="223.278,197.822 207.333,198.058 207.109,214.777 "/>
<polygon fill="#FBB040" points="451.646,194.476 435.478,211.431 419.758,194.947 435.927,177.993 "/>
<polygon fill="#F7941E" points="435.702,194.711 435.927,177.993 451.646,194.476 "/>
<polygon fill="#F15A29" points="435.478,211.431 435.702,194.711 419.758,194.947 "/>
<polygon fill="#EF4136" points="451.646,194.476 435.702,194.711 435.478,211.431 "/>
</svg>
