<?xml version="1.0" encoding="utf-8"?>
<!-- Generator: Adobe Illustrator 16.0.3, SVG Export Plug-In . SVG Version: 6.00 Build 0)  -->
<!DOCTYPE svg PUBLIC "-//W3C//DTD SVG 1.1//EN" "http://www.w3.org/Graphics/SVG/1.1/DTD/svg11.dtd">
<svg version="1.1" id="Layer_1" xmlns="http://www.w3.org/2000/svg" xmlns:xlink="http://www.w3.org/1999/xlink" x="0px" y="0px"
	 width="612px" height="612px" viewBox="0 0 612 612" enable-background="new 0 0 612 612" xml:space="preserve">
<polygon fill="#2B3990" points="318.438,575.667 210.389,355.299 145.261,244.708 252.138,222.818 319.342,183.813 385.201,223.513 
	485.863,246.958 425.689,356.424 "/>
<polygon fill="#27AAE1" points="319.342,183.813 318.563,296.865 385.201,223.513 "/>
<polygon fill="#262262" points="485.863,246.958 318.563,296.865 425.689,356.424 "/>
<polygon fill="#262262" points="425.689,356.424 319.756,296.865 318.438,575.667 "/>
<polygon fill="#007DC5" points="145.261,244.708 318.563,296.865 252.138,222.818 "/>
<polygon fill="#FBB040" points="334.606,296.63 318.438,313.584 302.718,297.101 318.887,280.146 "/>
<polygon fill="#F7941E" points="318.662,296.865 318.887,280.146 334.606,296.63 "/>
<polygon fill="#F15A29" points="318.438,313.584 318.662,296.865 302.718,297.101 "/>
<polygon fill="#EF4136" points="334.606,296.63 318.662,296.865 318.438,313.584 "/>
<polygon fill="#FBB040" points="250.278,194.822 234.109,211.777 218.389,195.293 234.558,178.339 "/>
<polygon fill="#F7941E" points="234.333,195.058 234.558,178.339 250.278,194.822 "/>
<polygon fill="#F15A29" points="234.109,211.777 234.333,195.058 218.389,195.293 "/>
<polygon fill="#EF4136" points="250.278,194.822 234.333,195.058 234.109,211.777 "/>
<polygon fill="#FBB040" points="416.646,194.476 400.478,211.431 384.758,194.947 400.927,177.993 "/>
<polygon fill="#F7941E" points="400.702,194.711 400.927,177.993 416.646,194.476 "/>
<polygon fill="#F15A29" points="400.478,211.431 400.702,194.711 384.758,194.947 "/>
<polygon fill="#EF4136" points="416.646,194.476 400.702,194.711 400.478,211.431 "/>
</svg>
