<?xml version="1.0" encoding="utf-8"?>
<!-- Generator: Adobe Illustrator 16.0.3, SVG Export Plug-In . SVG Version: 6.00 Build 0)  -->
<!DOCTYPE svg PUBLIC "-//W3C//DTD SVG 1.1//EN" "http://www.w3.org/Graphics/SVG/1.1/DTD/svg11.dtd">
<svg version="1.1" id="Layer_1" xmlns="http://www.w3.org/2000/svg" xmlns:xlink="http://www.w3.org/1999/xlink" x="0px" y="0px"
	 width="612px" height="612px" viewBox="0 0 612 612" enable-background="new 0 0 612 612" xml:space="preserve">
<polygon fill="#27AAE1" points="361.75,142.585 359.051,230.465 425.689,157.113 "/>
<polygon fill="#262262" points="474.752,238.889 307.451,288.796 414.578,348.355 "/>
<polygon fill="#262262" points="426.93,371.826 320.996,324.602 319.678,545.666 "/>
<polygon fill="#007DC5" points="92.974,155.677 253.689,238.889 202.055,153.865 "/>
<polygon fill="#FBB040" points="305.66,296.63 289.491,313.584 273.771,297.101 289.94,280.146 "/>
<polygon fill="#F7941E" points="289.716,296.865 289.94,280.146 305.66,296.63 "/>
<polygon fill="#F15A29" points="289.491,313.584 289.716,296.865 273.771,297.101 "/>
<polygon fill="#EF4136" points="305.66,296.63 289.716,296.865 289.491,313.584 "/>
<polygon fill="#FBB040" points="281.743,170.348 265.575,187.303 249.855,170.819 266.024,153.865 "/>
<polygon fill="#F7941E" points="265.799,170.583 266.024,153.865 281.743,170.348 "/>
<polygon fill="#F15A29" points="265.575,187.303 265.799,170.583 249.855,170.819 "/>
<polygon fill="#EF4136" points="281.743,170.348 265.799,170.583 265.575,187.303 "/>
<polygon fill="#FBB040" points="363.101,186.29 347.932,203.244 331.212,186.761 347.381,169.806 "/>
<polygon fill="#F7941E" points="347.156,186.525 347.381,169.806 363.101,186.29 "/>
<polygon fill="#F15A29" points="347.932,203.244 347.156,186.525 331.212,186.761 "/>
<polygon fill="#EF4136" points="363.101,186.29 347.156,186.525 347.932,203.244 "/>
</svg>
