<?xml version="1.0" encoding="utf-8"?>
<!-- Generator: Adobe Illustrator 16.0.3, SVG Export Plug-In . SVG Version: 6.00 Build 0)  -->
<!DOCTYPE svg PUBLIC "-//W3C//DTD SVG 1.1//EN" "http://www.w3.org/Graphics/SVG/1.1/DTD/svg11.dtd">
<svg version="1.1" id="Layer_4" xmlns="http://www.w3.org/2000/svg" xmlns:xlink="http://www.w3.org/1999/xlink" x="0px" y="0px"
	 width="411px" height="441px" viewBox="0 0 411 441" enable-background="new 0 0 411 441" xml:space="preserve">
<polygon fill="#AF8AB6" stroke="#AF8AB6" stroke-miterlimit="10" points="264.432,374.024 212.185,235.326 161.91,374.024 
	212.755,426.66 "/>
<polygon fill="#AF8AB6" stroke="#AF8AB6" stroke-miterlimit="10" points="299.921,214.552 212.185,355.137 122.478,214.552 
	212.755,163.802 "/>
<polygon fill="#5E3965" stroke="#5E3965" stroke-miterlimit="10" points="211.703,387.964 161.91,373.081 184.142,311.189 
	212.185,355.137 "/>
<polygon fill="#512B58" stroke="#49274F" stroke-miterlimit="10" points="264.432,374.024 211.703,387.964 212.185,355.137 
	240.763,311.189 "/>
<polygon fill="#49274F" stroke="#49274F" stroke-miterlimit="10" points="212.755,426.66 161.91,373.081 211.703,387.964 "/>
<polygon fill="#2C003E" stroke="#2C003E" stroke-miterlimit="10" points="264.432,374.024 211.703,387.964 212.755,426.66 "/>
<polygon fill="#2C003E" stroke="#2C003E" stroke-miterlimit="10" points="122.478,214.552 212.185,251.043 212.185,355.137 "/>
<polygon fill="#5E3965" stroke="#5E3965" stroke-miterlimit="10" points="299.921,214.552 212.185,251.043 212.185,355.137 "/>
<polygon stroke="#000000" stroke-miterlimit="10" points="184.176,251.043 211.2,296.436 239.231,251.043 "/>
<polygon fill="#8D6692" stroke="#AF8AB6" stroke-miterlimit="10" points="195.247,137.952 181.326,181.471 213.203,191.512 
	212.625,159.494 "/>
<polygon fill="#8D6692" stroke="#AF8AB6" stroke-miterlimit="10" points="242.882,181.342 213.203,191.512 212.625,159.494 
	229.92,137.952 "/>
<ellipse stroke="#000000" stroke-miterlimit="10" cx="211.703" cy="235.044" rx="30.778" ry="33.858"/>
<path fill="#8D6692" stroke="#AF8AB6" stroke-miterlimit="10" d="M303.092,163.802"/>
<polygon opacity="0.5" fill="#49274F" stroke="#49274F" stroke-miterlimit="10" points="212.961,178.117 188.355,159.494 
	193.71,137.952 212.625,159.494 229.766,137.952 235.919,158.034 "/>
<path fill="#49274F" stroke="#49274F" stroke-miterlimit="10" d="M561.5,252.712"/>
<g>
	<path fill="#AF8AB6" stroke="#AF8AB6" stroke-miterlimit="10" d="M319.632,196.312l-29.572,50.21v178.125
		C290.06,424.646,350.192,267.077,319.632,196.312z"/>
	<path fill="#2C003E" stroke="#2C003E" stroke-miterlimit="10" d="M290.06,424.646c3.376-162.039,29.572-228.334,29.572-228.334
		l-29.572,50.21V424.646z"/>
	<path opacity="0.5" fill="#49274F" stroke="#49274F" stroke-miterlimit="10" d="M319.005,313.436
		c-24.802,33.561-19.514-29.301-19.514-29.301l-10.843,147.932C288.648,432.066,330.648,297.68,319.005,313.436z"/>
</g>
<g>
	<path fill="#AF8AB6" stroke="#AF8AB6" stroke-miterlimit="10" d="M102.186,193.079l29.574,50.21v178.124
		C131.76,421.413,71.627,263.844,102.186,193.079z"/>
	<path fill="#2C003E" stroke="#2C003E" stroke-miterlimit="10" d="M131.76,421.413c-3.378-162.039-29.574-228.334-29.574-228.334
		l29.574,50.21V421.413z"/>
	<path opacity="0.5" fill="#49274F" stroke="#49274F" stroke-miterlimit="10" d="M102.829,307.246
		c24.802,33.562,19.513-29.301,19.513-29.301l10.844,147.934C133.185,425.879,91.185,291.49,102.829,307.246z"/>
</g>
<g>
	<polygon fill="#AF8AB6" stroke="#AF8AB6" stroke-miterlimit="10" points="263.916,93.533 213.534,159.271 159.595,95.097 
		211.631,14.707 	"/>
	<polygon fill="#CEB0D4" stroke="#49274F" stroke-miterlimit="10" points="246.504,93.776 213.142,144.241 176.986,93.834 
		211.646,34.2 	"/>
	<polygon fill="#49274F" stroke="#49274F" stroke-miterlimit="10" points="159.595,95.097 176.986,93.834 213.142,144.241 
		212.564,160.758 	"/>
	<polygon fill="#CEB0D4" stroke="#CEB0D4" stroke-miterlimit="10" points="210.207,14.707 210.222,34.2 175.56,93.834 
		159.595,93.608 	"/>
	<polygon fill="#49274F" stroke="#49274F" stroke-miterlimit="10" points="263.916,93.533 246.504,93.776 213.142,144.241 
		212.564,160.758 	"/>
	<polygon opacity="0.5" fill="#FFFFFF" stroke="#FFFFFF" stroke-miterlimit="10" points="219.81,52.23 186.155,105.878 
		190.736,112.264 219.792,51.117 	"/>
	<polygon opacity="0.5" fill="#FFFFFF" stroke="#FFFFFF" stroke-miterlimit="10" points="195.596,118.506 201.047,127.146 
		231.922,71.256 	"/>
</g>
<ellipse opacity="0.5" fill="#D48980" stroke="#A885AE" stroke-miterlimit="10" cx="212.185" cy="234.326" rx="20.1" ry="20.887"/>
<ellipse opacity="0.5" fill="#D99674" stroke="#A885AE" stroke-miterlimit="10" cx="212.185" cy="235.326" rx="16.75" ry="17.406"/>
<g>
	<path fill="#F7A173" stroke="#F7A173" stroke-miterlimit="10" d="M228.217,234.08c0,9.271-7.2,16.787-16.08,16.787
		c-8.881,0-16.08-7.516-16.08-16.787c0-1.041,0.09-2.059,0.264-3.047c1.373-7.817,7.932-13.741,15.816-13.741
		C221.017,217.292,228.217,224.808,228.217,234.08z"/>
	<path fill="#EA9085" stroke="#EA9085" stroke-miterlimit="10" d="M222.323,247.07c-23.487,5.613-26.07-14.94-26.07-14.94
		c-0.76,7.97,3.378,12.501,3.378,12.501s4.538,5.508,9.075,5.852c4.539,0.344,5.61,0.93,9.536-0.869
		C222.167,247.814,222.323,247.07,222.323,247.07z"/>
	<path fill="#FAB687" stroke="#FAB687" stroke-miterlimit="10" d="M227.342,234.928c-1.6,3.727-8.359,2.712-13.159,1.61
		c-6.854-1.574-13.907-8.112-13.907-12.209c0-4.098,6.895-7.037,13.907-7.037S230.287,228.06,227.342,234.928z"/>
	<path opacity="0.2" fill="#FFFFFF" stroke="#FAB687" stroke-miterlimit="10" d="M225.696,225.244
		c0.372,2.562-6.553,1.166-9.34,0.442c-3.545-0.921-6.607-4.278-6.607-6.614c0-2.335,4.627-2.346,8.121-0.681
		C221.083,219.922,225.36,222.936,225.696,225.244z"/>
</g>
</svg>
