<?xml version="1.0" encoding="utf-8"?>
<!-- Generator: Adobe Illustrator 16.0.3, SVG Export Plug-In . SVG Version: 6.00 Build 0)  -->
<!DOCTYPE svg PUBLIC "-//W3C//DTD SVG 1.1//EN" "http://www.w3.org/Graphics/SVG/1.1/DTD/svg11.dtd">
<svg version="1.1" id="Layer_1" xmlns="http://www.w3.org/2000/svg" xmlns:xlink="http://www.w3.org/1999/xlink" x="0px" y="0px"
	 width="612px" height="792px" viewBox="0 0 612 792" enable-background="new 0 0 612 792" xml:space="preserve">
<g>
	<polygon fill="#262262" stroke="#000000" stroke-miterlimit="10" points="437.331,380.516 315.086,739.5 190.554,382.746 
		270.885,266.997 351.645,265.28 	"/>
	<polygon fill="#1C75BC" stroke="#1C75BC" stroke-miterlimit="10" points="437.331,380.516 313.943,427.34 313.943,309.722 
		351.645,265.28 	"/>
	<polygon fill="#27AAE1" stroke="#27AAE1" stroke-miterlimit="10" points="190.554,380.516 313.943,427.34 313.943,309.722 
		270.885,266.997 	"/>
	<polygon fill="#2B3990" stroke="#2B3990" stroke-miterlimit="10" points="315.086,739.5 315.073,736.228 313.943,427.34 
		190.554,380.516 	"/>
</g>
<g>
	<polygon fill="#2B3990" stroke="#2B3990" stroke-miterlimit="10" points="312.156,37.194 495.548,354.621 449.281,139.965 	"/>
	<polygon fill="#27AAE1" stroke="#27AAE1" stroke-miterlimit="10" points="474.063,127.766 312.156,37.194 449.281,139.965 	"/>
	<polyline fill="#1C75BC" stroke="#1C75BC" stroke-miterlimit="10" points="495.548,354.621 474.063,127.766 449.281,139.965 
		491.743,348.035 	"/>
</g>
<g>
	<polygon fill="#2B3990" stroke="#2B3990" stroke-miterlimit="10" points="292.609,94.194 129.314,420.382 162.103,203.752 	"/>
	<polygon fill="#27AAE1" stroke="#27AAE1" stroke-miterlimit="10" points="136.591,192.835 292.609,94.194 162.103,203.752 	"/>
	<polygon fill="#1C75BC" stroke="#1C75BC" stroke-miterlimit="10" points="129.314,420.382 136.591,192.835 162.103,203.752 
		132.704,413.614 	"/>
</g>
<g>
	<polygon fill="#262262" stroke="#262262" stroke-miterlimit="10" points="383.551,231.282 311.031,283.01 260.881,215.859 
		333.401,164.131 	"/>
	<polygon fill="#2B3990" stroke="#2B3990" stroke-miterlimit="10" points="318.191,238.768 383.551,231.282 331.872,163.901 	"/>
	<polygon fill="#2B3990" stroke="#2B3990" stroke-miterlimit="10" points="309.503,282.779 318.191,238.768 259.354,215.629 	"/>
	<polygon fill="#27AAE1" stroke="#27AAE1" stroke-miterlimit="10" points="331.872,163.901 318.191,238.768 259.354,215.629 	"/>
</g>
</svg>
