<?xml version="1.0" encoding="utf-8"?>
<!-- Generator: Adobe Illustrator 16.0.3, SVG Export Plug-In . SVG Version: 6.00 Build 0)  -->
<!DOCTYPE svg PUBLIC "-//W3C//DTD SVG 1.1//EN" "http://www.w3.org/Graphics/SVG/1.1/DTD/svg11.dtd">
<svg version="1.1" id="Layer_1" xmlns="http://www.w3.org/2000/svg" xmlns:xlink="http://www.w3.org/1999/xlink" x="0px" y="0px"
	 width="612px" height="792px" viewBox="0 0 612 792" enable-background="new 0 0 612 792" xml:space="preserve">
<g>
	<polygon fill="#262262" stroke="#000000" stroke-miterlimit="10" points="437.331,355.516 315.086,714.5 190.554,357.746 
		270.885,241.997 351.645,240.28 	"/>
	<polygon fill="#1C75BC" stroke="#1C75BC" stroke-miterlimit="10" points="437.331,355.516 313.943,402.34 313.943,284.722 
		351.645,240.28 	"/>
	<polygon fill="#27AAE1" stroke="#27AAE1" stroke-miterlimit="10" points="190.554,355.516 313.943,402.34 313.943,284.722 
		270.885,241.997 	"/>
	<polygon fill="#2B3990" stroke="#2B3990" stroke-miterlimit="10" points="315.086,714.5 315.073,711.228 313.943,402.34 
		190.554,355.516 	"/>
</g>
<g>
	<polygon fill="#2B3990" stroke="#2B3990" stroke-miterlimit="10" points="347.971,53.871 496.56,389.003 473.387,170.644 	"/>
	<polygon fill="#27AAE1" stroke="#27AAE1" stroke-miterlimit="10" points="499.326,161.15 347.971,53.871 473.387,170.644 	"/>
	<polyline fill="#1C75BC" stroke="#1C75BC" stroke-miterlimit="10" points="496.56,389.003 499.326,161.15 473.387,170.644 
		493.477,382.05 	"/>
</g>
<g>
	<polygon fill="#2B3990" stroke="#2B3990" stroke-miterlimit="10" points="346.012,19.351 158.415,332.193 207.561,118.68 	"/>
	<polygon fill="#27AAE1" stroke="#27AAE1" stroke-miterlimit="10" points="182.953,105.856 346.012,19.351 207.561,118.68 	"/>
	<polygon fill="#1C75BC" stroke="#1C75BC" stroke-miterlimit="10" points="158.415,332.193 182.953,105.856 207.561,118.68 
		162.307,325.703 	"/>
</g>
<g>
	<polygon fill="#262262" stroke="#262262" stroke-miterlimit="10" points="385.196,207.708 310.706,256.556 263.225,187.493 
		337.715,138.645 	"/>
	<polygon fill="#2B3990" stroke="#2B3990" stroke-miterlimit="10" points="319.594,212.628 385.196,207.708 336.197,138.355 	"/>
	<polygon fill="#2B3990" stroke="#2B3990" stroke-miterlimit="10" points="309.189,256.265 319.594,212.628 261.708,187.203 	"/>
	<polygon fill="#27AAE1" stroke="#27AAE1" stroke-miterlimit="10" points="336.197,138.355 319.594,212.628 261.708,187.203 	"/>
</g>
</svg>
