<?xml version="1.0" encoding="utf-8"?>
<!-- Generator: Adobe Illustrator 16.0.3, SVG Export Plug-In . SVG Version: 6.00 Build 0)  -->
<!DOCTYPE svg PUBLIC "-//W3C//DTD SVG 1.1//EN" "http://www.w3.org/Graphics/SVG/1.1/DTD/svg11.dtd">
<svg version="1.1" id="Layer_1" xmlns="http://www.w3.org/2000/svg" xmlns:xlink="http://www.w3.org/1999/xlink" x="0px" y="0px"
	 width="612px" height="792px" viewBox="0 0 612 792" enable-background="new 0 0 612 792" xml:space="preserve">
<g>
	<polygon fill="#262262" stroke="#000000" stroke-miterlimit="10" points="437.331,372.516 315.086,731.5 190.554,374.746 
		270.885,258.997 351.645,257.28 	"/>
	<polygon fill="#1C75BC" stroke="#1C75BC" stroke-miterlimit="10" points="437.331,372.516 313.943,419.34 313.943,301.722 
		351.645,257.28 	"/>
	<polygon fill="#27AAE1" stroke="#27AAE1" stroke-miterlimit="10" points="190.554,372.516 313.943,419.34 313.943,301.722 
		270.885,258.997 	"/>
	<polygon fill="#2B3990" stroke="#2B3990" stroke-miterlimit="10" points="315.086,731.5 315.073,728.228 313.943,419.34 
		190.554,372.516 	"/>
</g>
<g>
	<polygon fill="#2B3990" stroke="#2B3990" stroke-miterlimit="10" points="318.191,43.5 481.406,371.758 448.633,154.632 	"/>
	<polygon fill="#27AAE1" stroke="#27AAE1" stroke-miterlimit="10" points="474.128,144.004 318.191,43.5 448.633,154.632 	"/>
	<polyline fill="#1C75BC" stroke="#1C75BC" stroke-miterlimit="10" points="481.406,371.758 474.128,144.004 448.633,154.632 
		478.021,364.948 	"/>
</g>
<g>
	<polygon fill="#2B3990" stroke="#2B3990" stroke-miterlimit="10" points="314.112,92.248 129.737,407 176.689,192.994 	"/>
	<polygon fill="#27AAE1" stroke="#27AAE1" stroke-miterlimit="10" points="151.95,180.423 314.112,92.248 176.689,192.994 	"/>
	<polygon fill="#1C75BC" stroke="#1C75BC" stroke-miterlimit="10" points="129.737,407 151.95,180.423 176.689,192.994 
		133.563,400.47 	"/>
</g>
<g>
	<polygon fill="#262262" stroke="#262262" stroke-miterlimit="10" points="383.551,223.282 311.031,275.01 260.881,207.859 
		333.401,156.131 	"/>
	<polygon fill="#2B3990" stroke="#2B3990" stroke-miterlimit="10" points="318.191,230.768 383.551,223.282 331.872,155.901 	"/>
	<polygon fill="#2B3990" stroke="#2B3990" stroke-miterlimit="10" points="309.503,274.779 318.191,230.768 259.354,207.629 	"/>
	<polygon fill="#27AAE1" stroke="#27AAE1" stroke-miterlimit="10" points="331.872,155.901 318.191,230.768 259.354,207.629 	"/>
</g>
</svg>
