<?xml version="1.0" encoding="utf-8"?>
<!-- Generator: Adobe Illustrator 16.0.3, SVG Export Plug-In . SVG Version: 6.00 Build 0)  -->
<!DOCTYPE svg PUBLIC "-//W3C//DTD SVG 1.1//EN" "http://www.w3.org/Graphics/SVG/1.1/DTD/svg11.dtd">
<svg version="1.1" id="Layer_1" xmlns="http://www.w3.org/2000/svg" xmlns:xlink="http://www.w3.org/1999/xlink" x="0px" y="0px"
	 width="612px" height="792px" viewBox="0 0 612 792" enable-background="new 0 0 612 792" xml:space="preserve">
<g>
	<polygon fill="#262262" stroke="#000000" stroke-miterlimit="10" points="437.331,361.516 315.086,720.5 190.554,363.746 
		270.885,247.997 351.645,246.28 	"/>
	<polygon fill="#1C75BC" stroke="#1C75BC" stroke-miterlimit="10" points="437.331,361.516 313.943,408.34 313.943,290.722 
		351.645,246.28 	"/>
	<polygon fill="#27AAE1" stroke="#27AAE1" stroke-miterlimit="10" points="190.554,361.516 313.943,408.34 313.943,290.722 
		270.885,247.997 	"/>
	<polygon fill="#2B3990" stroke="#2B3990" stroke-miterlimit="10" points="315.086,720.5 315.073,717.228 313.943,408.34 
		190.554,361.516 	"/>
</g>
<g>
	<polygon fill="#2B3990" stroke="#2B3990" stroke-miterlimit="10" points="328.117,54.55 491.332,382.808 458.559,165.682 	"/>
	<polygon fill="#27AAE1" stroke="#27AAE1" stroke-miterlimit="10" points="484.054,155.054 328.117,54.55 458.559,165.682 	"/>
	<polyline fill="#1C75BC" stroke="#1C75BC" stroke-miterlimit="10" points="491.332,382.808 484.054,155.054 458.559,165.682 
		487.946,375.998 	"/>
</g>
<g>
	<polygon fill="#2B3990" stroke="#2B3990" stroke-miterlimit="10" points="322.112,57.931 137.737,372.684 184.689,158.677 	"/>
	<polygon fill="#27AAE1" stroke="#27AAE1" stroke-miterlimit="10" points="159.95,146.107 322.112,57.931 184.689,158.677 	"/>
	<polygon fill="#1C75BC" stroke="#1C75BC" stroke-miterlimit="10" points="137.737,372.684 159.95,146.107 184.689,158.677 
		141.563,366.153 	"/>
</g>
<g>
	<polygon fill="#262262" stroke="#262262" stroke-miterlimit="10" points="382.038,204.174 315.866,263.808 258.41,202.792 
		324.582,143.158 	"/>
	<polygon fill="#2B3990" stroke="#2B3990" stroke-miterlimit="10" points="317.952,219.039 382.038,204.174 323.037,143.103 	"/>
	<polygon fill="#2B3990" stroke="#2B3990" stroke-miterlimit="10" points="314.322,263.752 317.952,219.039 256.866,202.737 	"/>
	<polygon fill="#27AAE1" stroke="#27AAE1" stroke-miterlimit="10" points="323.037,143.103 317.952,219.039 256.866,202.737 	"/>
</g>
</svg>
