<?xml version="1.0" encoding="utf-8"?>
<!-- Generator: Adobe Illustrator 16.0.3, SVG Export Plug-In . SVG Version: 6.00 Build 0)  -->
<!DOCTYPE svg PUBLIC "-//W3C//DTD SVG 1.1//EN" "http://www.w3.org/Graphics/SVG/1.1/DTD/svg11.dtd">
<svg version="1.1" id="Layer_1" xmlns="http://www.w3.org/2000/svg" xmlns:xlink="http://www.w3.org/1999/xlink" x="0px" y="0px"
	 width="612px" height="792px" viewBox="0 0 612 792" enable-background="new 0 0 612 792" xml:space="preserve">
<g>
	<polygon fill="#262262" stroke="#000000" stroke-miterlimit="10" points="437.331,347.516 315.086,706.5 190.554,349.746 
		270.885,233.997 351.645,232.28 	"/>
	<polygon fill="#1C75BC" stroke="#1C75BC" stroke-miterlimit="10" points="437.331,347.516 313.943,394.34 313.943,276.722 
		351.645,232.28 	"/>
	<polygon fill="#27AAE1" stroke="#27AAE1" stroke-miterlimit="10" points="190.554,347.516 313.943,394.34 313.943,276.722 
		270.885,233.997 	"/>
	<polygon fill="#2B3990" stroke="#2B3990" stroke-miterlimit="10" points="315.086,706.5 315.073,703.228 313.943,394.34 
		190.554,347.516 	"/>
</g>
<g>
	<polygon fill="#2B3990" stroke="#2B3990" stroke-miterlimit="10" points="342.984,64.713 491.573,399.846 468.4,181.486 	"/>
	<polygon fill="#27AAE1" stroke="#27AAE1" stroke-miterlimit="10" points="494.34,171.993 342.984,64.713 468.4,181.486 	"/>
	<polyline fill="#1C75BC" stroke="#1C75BC" stroke-miterlimit="10" points="491.573,399.846 494.34,171.993 468.4,181.486 
		488.49,392.893 	"/>
</g>
<g>
	<polygon fill="#2B3990" stroke="#2B3990" stroke-miterlimit="10" points="359.28,20.622 144.969,315.807 212.652,107.427 	"/>
	<polygon fill="#27AAE1" stroke="#27AAE1" stroke-miterlimit="10" points="189.263,92.494 359.28,20.622 212.652,107.427 	"/>
	<polygon fill="#1C75BC" stroke="#1C75BC" stroke-miterlimit="10" points="144.969,315.807 189.263,92.494 212.652,107.427 
		149.416,309.683 	"/>
</g>
<g>
	<polygon fill="#262262" stroke="#262262" stroke-miterlimit="10" points="383.585,206.819 303.919,246.672 264.792,172.556 
		344.458,132.703 	"/>
	<polygon fill="#2B3990" stroke="#2B3990" stroke-miterlimit="10" points="317.855,204.077 383.585,206.819 342.984,132.238 	"/>
	<polygon fill="#2B3990" stroke="#2B3990" stroke-miterlimit="10" points="302.446,246.207 317.855,204.077 263.319,172.091 	"/>
	<polygon fill="#27AAE1" stroke="#27AAE1" stroke-miterlimit="10" points="342.984,132.238 317.855,204.077 263.319,172.091 	"/>
</g>
</svg>
