<?xml version="1.0" encoding="utf-8"?>
<!-- Generator: Adobe Illustrator 16.0.3, SVG Export Plug-In . SVG Version: 6.00 Build 0)  -->
<!DOCTYPE svg PUBLIC "-//W3C//DTD SVG 1.1//EN" "http://www.w3.org/Graphics/SVG/1.1/DTD/svg11.dtd">
<svg version="1.1" id="Layer_1" xmlns="http://www.w3.org/2000/svg" xmlns:xlink="http://www.w3.org/1999/xlink" x="0px" y="0px"
	 width="612px" height="792px" viewBox="0 0 612 792" enable-background="new 0 0 612 792" xml:space="preserve">
<g>
	<polygon fill="#262262" stroke="#000000" stroke-miterlimit="10" points="437.331,373.516 315.086,732.5 190.554,375.746 
		270.885,259.997 351.645,258.28 	"/>
	<polygon fill="#1C75BC" stroke="#1C75BC" stroke-miterlimit="10" points="437.331,373.516 313.943,420.34 313.943,302.722 
		351.645,258.28 	"/>
	<polygon fill="#27AAE1" stroke="#27AAE1" stroke-miterlimit="10" points="190.554,373.516 313.943,420.34 313.943,302.722 
		270.885,259.997 	"/>
	<polygon fill="#2B3990" stroke="#2B3990" stroke-miterlimit="10" points="315.086,732.5 315.073,729.228 313.943,420.34 
		190.554,373.516 	"/>
</g>
<g>
	<polygon fill="#2B3990" stroke="#2B3990" stroke-miterlimit="10" points="325.167,38.474 521.138,348.293 466.302,135.664 	"/>
	<polygon fill="#27AAE1" stroke="#27AAE1" stroke-miterlimit="10" points="490.576,122.481 325.167,38.474 466.302,135.664 	"/>
	<polyline fill="#1C75BC" stroke="#1C75BC" stroke-miterlimit="10" points="521.138,348.293 490.576,122.481 466.302,135.664 
		517.072,341.865 	"/>
</g>
<g>
	<polygon fill="#2B3990" stroke="#2B3990" stroke-miterlimit="10" points="299.147,42.235 145.357,373.009 171.865,155.522 	"/>
	<polygon fill="#27AAE1" stroke="#27AAE1" stroke-miterlimit="10" points="146.048,145.348 299.147,42.235 171.865,155.522 	"/>
	<polygon fill="#1C75BC" stroke="#1C75BC" stroke-miterlimit="10" points="145.357,373.009 146.048,145.348 171.865,155.522 
		148.548,366.147 	"/>
</g>
<g>
	<polygon fill="#262262" stroke="#262262" stroke-miterlimit="10" points="385.727,221.727 314.521,275.251 262.71,209.375 
		333.914,155.852 	"/>
	<polygon fill="#2B3990" stroke="#2B3990" stroke-miterlimit="10" points="320.575,230.845 385.727,221.727 332.382,155.659 	"/>
	<polygon fill="#2B3990" stroke="#2B3990" stroke-miterlimit="10" points="312.99,275.059 320.575,230.845 261.177,209.184 	"/>
	<polygon fill="#27AAE1" stroke="#27AAE1" stroke-miterlimit="10" points="332.382,155.659 320.575,230.845 261.177,209.184 	"/>
</g>
</svg>
