<?xml version="1.0" encoding="utf-8"?>
<!-- Generator: Adobe Illustrator 16.0.3, SVG Export Plug-In . SVG Version: 6.00 Build 0)  -->
<!DOCTYPE svg PUBLIC "-//W3C//DTD SVG 1.1//EN" "http://www.w3.org/Graphics/SVG/1.1/DTD/svg11.dtd">
<svg version="1.1" id="Layer_1" xmlns="http://www.w3.org/2000/svg" xmlns:xlink="http://www.w3.org/1999/xlink" x="0px" y="0px"
	 width="612px" height="792px" viewBox="0 0 612 792" enable-background="new 0 0 612 792" xml:space="preserve">
<g>
	<polygon fill="#262262" stroke="#000000" stroke-miterlimit="10" points="437.331,363.516 315.086,722.5 190.554,365.746 
		270.885,249.997 351.645,248.28 	"/>
	<polygon fill="#1C75BC" stroke="#1C75BC" stroke-miterlimit="10" points="437.331,363.516 313.943,410.34 313.943,292.722 
		351.645,248.28 	"/>
	<polygon fill="#27AAE1" stroke="#27AAE1" stroke-miterlimit="10" points="190.554,363.516 313.943,410.34 313.943,292.722 
		270.885,249.997 	"/>
	<polygon fill="#2B3990" stroke="#2B3990" stroke-miterlimit="10" points="315.086,722.5 315.073,719.228 313.943,410.34 
		190.554,363.516 	"/>
</g>
<g>
	<polygon fill="#2B3990" stroke="#2B3990" stroke-miterlimit="10" points="337.035,45.981 507.531,370.518 469.922,154.176 	"/>
	<polygon fill="#27AAE1" stroke="#27AAE1" stroke-miterlimit="10" points="495.175,142.982 337.035,45.981 469.922,154.176 	"/>
	<polyline fill="#1C75BC" stroke="#1C75BC" stroke-miterlimit="10" points="507.531,370.518 495.175,142.982 469.922,154.176 
		503.994,363.784 	"/>
</g>
<g>
	<polygon fill="#2B3990" stroke="#2B3990" stroke-miterlimit="10" points="319.384,28.474 149.24,351.141 186.593,135.252 	"/>
	<polygon fill="#27AAE1" stroke="#27AAE1" stroke-miterlimit="10" points="161.318,123.799 319.384,28.474 186.593,135.252 	"/>
	<polygon fill="#1C75BC" stroke="#1C75BC" stroke-miterlimit="10" points="149.24,351.141 161.318,123.799 186.593,135.252 
		152.77,344.447 	"/>
</g>
<g>
	<polygon fill="#262262" stroke="#262262" stroke-miterlimit="10" points="386.042,205.399 320.613,265.848 262.406,205.547 
		327.835,145.099 	"/>
	<polygon fill="#2B3990" stroke="#2B3990" stroke-miterlimit="10" points="322.146,221.057 386.042,205.399 326.29,145.063 	"/>
	<polygon fill="#2B3990" stroke="#2B3990" stroke-miterlimit="10" points="319.069,265.811 322.146,221.057 260.862,205.512 	"/>
	<polygon fill="#27AAE1" stroke="#27AAE1" stroke-miterlimit="10" points="326.29,145.063 322.146,221.057 260.862,205.512 	"/>
</g>
</svg>
