<?xml version="1.0" encoding="utf-8"?>
<!-- Generator: Adobe Illustrator 16.0.3, SVG Export Plug-In . SVG Version: 6.00 Build 0)  -->
<!DOCTYPE svg PUBLIC "-//W3C//DTD SVG 1.1//EN" "http://www.w3.org/Graphics/SVG/1.1/DTD/svg11.dtd">
<svg version="1.1" id="Layer_1" xmlns="http://www.w3.org/2000/svg" xmlns:xlink="http://www.w3.org/1999/xlink" x="0px" y="0px"
	 width="612px" height="192px" viewBox="0 0 612 192" enable-background="new 0 0 612 192" xml:space="preserve">
<g>
	<line fill="#FFFFFF" x1="34.418" y1="96" x2="585.482" y2="96"/>
	<path d="M34.418,96c0,0,2.153-2.042,6.188-5.483c1.009-0.86,2.136-1.82,3.376-2.876c1.24-1.01,2.594-2.113,4.057-3.305
		c1.463-1.17,3.035-2.503,4.713-3.788c1.677-1.293,3.46-2.667,5.344-4.119C65.631,70.609,74.78,64.03,85.273,56.99
		c2.624-1.778,5.331-3.502,8.119-5.338c2.787-1.767,5.655-3.584,8.598-5.45c1.472-0.962,2.962-1.554,4.471-1.596
		c1.509-0.068,3.036,0.425,4.581,0.813c1.545,0.424,3.108,0.64,4.688,0.581c1.58,0,3.178,0,4.792,0c51.663,0,120.545,0,189.428,0
		s137.767,0,189.429,0c1.614,0,3.212,0,4.792,0c0.79-0.009,1.576,0.024,2.357-0.035c0.781-0.065,1.559-0.216,2.331-0.412
		c1.545-0.387,3.072-0.916,4.581-0.733c0.755,0.075,1.504,0.311,2.249,0.674c0.745,0.359,1.486,0.886,2.222,1.34
		c5.886,3.719,11.47,7.335,16.716,10.86c10.494,7.046,19.643,13.559,27.177,19.275c1.884,1.422,3.666,2.769,5.344,4.036
		c1.678,1.278,3.25,2.555,4.713,3.701c1.463,1.162,2.817,2.237,4.058,3.222c1.24,1.023,2.367,1.952,3.376,2.785
		c4.036,3.335,6.188,5.288,6.188,5.288s-2.152,1.952-6.188,5.288c-1.009,0.832-2.136,1.762-3.376,2.784
		c-1.24,0.985-2.595,2.06-4.058,3.222c-1.463,1.146-3.035,2.424-4.713,3.701c-1.678,1.267-3.46,2.613-5.344,4.036
		c-7.534,5.716-16.683,12.229-27.177,19.274c-5.246,3.524-10.83,7.141-16.716,10.86c-0.735,0.453-1.477,0.98-2.222,1.34
		c-0.745,0.363-1.494,0.599-2.249,0.674c-1.509,0.183-3.036-0.346-4.581-0.732c-0.772-0.196-1.55-0.347-2.331-0.412
		c-0.781-0.06-1.567-0.026-2.357-0.035c-1.58,0-3.178,0-4.792,0c-51.662,0-120.546,0-189.429,0s-137.766,0-189.428,0
		c-1.614,0-3.212,0-4.792,0c-1.581-0.06-3.144,0.157-4.688,0.581c-1.545,0.388-3.072,0.881-4.581,0.813
		c-1.509-0.042-2.999-0.634-4.471-1.596c-2.943-1.865-5.811-3.683-8.598-5.45c-2.788-1.836-5.495-3.56-8.119-5.338
		c-10.494-7.039-19.643-13.619-27.176-19.438c-1.884-1.452-3.667-2.826-5.344-4.119c-1.678-1.284-3.25-2.616-4.713-3.787
		c-1.463-1.192-2.817-2.295-4.057-3.306c-1.24-1.057-2.367-2.017-3.376-2.876C36.571,98.042,34.418,96,34.418,96z"/>
</g>
</svg>
