<?xml version="1.0" encoding="utf-8"?>
<!-- Generator: Adobe Illustrator 16.0.3, SVG Export Plug-In . SVG Version: 6.00 Build 0)  -->
<!DOCTYPE svg PUBLIC "-//W3C//DTD SVG 1.1//EN" "http://www.w3.org/Graphics/SVG/1.1/DTD/svg11.dtd">
<svg version="1.1" xmlns="http://www.w3.org/2000/svg" xmlns:xlink="http://www.w3.org/1999/xlink" x="0px" y="0px" width="612px"
	 height="612px" viewBox="0 0 612 612" enable-background="new 0 0 612 612" xml:space="preserve">
<g id="Layer_2">
	<ellipse opacity="0.5" fill="#EA9186" cx="306" cy="305.999" rx="117.821" ry="115.815"/>
</g>
<g id="Layer_1">
	<path opacity="0.5" fill="#F8A273" d="M410.76,303.604c0,56.872-46.9,102.981-104.759,102.981s-104.764-46.109-104.764-102.981
		c0-56.874,46.905-102.981,104.764-102.981S410.76,246.73,410.76,303.604z"/>
	<path fill="#F7A274" stroke="#F7A274" stroke-miterlimit="10" d="M394.775,303.606c0,48.416-39.746,87.665-88.774,87.665
		c-49.025,0-88.771-39.249-88.771-87.665c0-5.435,0.499-10.752,1.459-15.909c7.579-40.826,43.79-71.758,87.313-71.758
		C355.029,215.939,394.775,255.188,394.775,303.606z"/>
	<path fill="#EA9186" stroke="#EA9186" stroke-miterlimit="10" d="M362.232,371.447c-129.662,29.313-143.924-78.022-143.924-78.022
		c-4.191,41.618,18.652,65.282,18.652,65.282s25.051,28.765,50.101,30.56c25.052,1.795,30.97,4.854,52.64-4.535
		C361.371,375.332,362.232,371.447,362.232,371.447z"/>
	<path fill="#F9B687" stroke="#F9B687" stroke-miterlimit="10" d="M389.945,308.034c-8.832,19.464-46.152,14.169-72.645,8.409
		c-37.845-8.22-76.781-42.358-76.781-63.755c0-21.399,38.068-36.749,76.781-36.749C356.012,215.939,406.203,272.17,389.945,308.034z
		"/>
	<path opacity="0.2" fill="#FFFFFF" stroke="#F9B687" stroke-miterlimit="10" d="M380.854,257.466
		c2.057,13.374-36.174,6.087-51.559,2.31c-19.566-4.81-36.475-22.345-36.475-34.539s25.54-12.252,44.831-3.558
		C355.389,229.676,379.004,245.411,380.854,257.466z"/>
</g>
</svg>
