<?xml version="1.0" encoding="utf-8"?>
<!-- Generator: Adobe Illustrator 16.0.3, SVG Export Plug-In . SVG Version: 6.00 Build 0)  -->
<!DOCTYPE svg PUBLIC "-//W3C//DTD SVG 1.1//EN" "http://www.w3.org/Graphics/SVG/1.1/DTD/svg11.dtd">
<svg version="1.1" xmlns="http://www.w3.org/2000/svg" xmlns:xlink="http://www.w3.org/1999/xlink" x="0px" y="0px" width="612px"
	 height="612px" viewBox="0 0 612 612" enable-background="new 0 0 612 612" xml:space="preserve">
<g id="Layer_2">
	<path fill="#B38358" stroke="#F7A274" stroke-miterlimit="10" d="M387.865,340.407c-19.746,44.206-72.044,63.832-116.809,43.836
		c-39.673-17.722-70.471-81.479-37.972-55.778c10.612,8.392,24.108,11.699,43.689,15.895c5.315,1.139,42.475-11.767,45.455-16.084
		c13.165-19.093-20.672-48.107,1.398-52.447c17.446-3.431,17.207,2.447,41.748,3.686c12.822,0.647-8.288-47.626-2.167-42.566
		C393.072,261.633,404.254,303.719,387.865,340.407z"/>
	<path fill="#EA9186" stroke="#EA9186" stroke-miterlimit="10" d="M597.745,415.34"/>
	<path fill="#B38358" d="M355.665,357.257l31.979-16.85c-19.746,44.206-72.044,63.832-116.809,43.836
		c-39.673-17.722-70.471-81.479-37.972-55.778c10.612,8.392,24.108,11.699,43.689,15.895c5.315,1.139,21.769,21.557,47.643,22.956
		L355.665,357.257z"/>
</g>
<g id="Layer_1">
	<path fill="#DA9F6B" d="M322.654,281.833c-6.861,14.637,17.333,41.317,3.898,50.239c-14.138,9.389-18.655,11.541-36.698,14.702
		c-27.148,4.757-69.691-28.518-66.079-20.418c17.258,38.697-6.545,17.432-6.545-21.75c0-5.435,0.499-10.752,1.459-15.909
		c7.579-40.826,43.79-71.758,87.313-71.758c32.396,0,69.592,18.508,68.416,52.774C373.353,300.711,327.898,270.646,322.654,281.833z
		"/>
	<path opacity="0.5" fill="#3C2415" d="M362.668,372.371c-129.662,29.313-143.924-78.022-143.924-78.022
		c-4.191,41.618,18.652,65.282,18.652,65.282s25.051,28.765,50.101,30.56c25.052,1.795,30.97,4.854,52.64-4.535
		C361.807,376.256,362.668,372.371,362.668,372.371z"/>
	<path opacity="0.6" fill="#F9B687" stroke="#F9B687" stroke-miterlimit="10" d="M389.818,310.035
		c-8.832,19.463-46.152,14.168-72.645,8.408c-37.845-8.219-76.78-42.358-76.78-63.755c0-21.399,38.068-36.749,76.78-36.749
		C355.885,217.939,406.076,274.17,389.818,310.035z"/>
	<path opacity="0.2" fill="#FFFFFF" stroke="#F9B687" stroke-miterlimit="10" d="M383.87,261.466
		c2.057,13.374-36.174,6.087-51.559,2.31c-19.566-4.81-36.475-22.345-36.475-34.539s25.539-12.252,44.83-3.558
		C358.405,233.676,382.021,249.411,383.87,261.466z"/>
</g>
</svg>
