<?xml version="1.0" encoding="utf-8"?>
<!-- Generator: Adobe Illustrator 16.0.3, SVG Export Plug-In . SVG Version: 6.00 Build 0)  -->
<!DOCTYPE svg PUBLIC "-//W3C//DTD SVG 1.1//EN" "http://www.w3.org/Graphics/SVG/1.1/DTD/svg11.dtd">
<svg version="1.1" id="Layer_1" xmlns="http://www.w3.org/2000/svg" xmlns:xlink="http://www.w3.org/1999/xlink" x="0px" y="0px"
	 width="612px" height="612px" viewBox="0 0 612 612" enable-background="new 0 0 612 612" xml:space="preserve">
<polygon opacity="0.7" stroke="#000000" stroke-miterlimit="10" points="183.693,425.335 460.786,425.335 494.248,543.331 
	153.753,543.331 "/>
<g>
	<polygon fill="#232C7A" points="323.094,39.312 150.333,523.979 494.27,523.979 	"/>
	<polygon fill="#262262" points="150.333,523.978 178.844,385.828 322.094,39.311 	"/>
	<polygon fill="#262262" points="494.666,523.978 465.967,389.828 321.906,39.312 	"/>
	<polygon fill="#2B3990" points="150.333,523.978 323.094,306.259 253.49,231.593 	"/>
	<polygon fill="#1C75BC" points="391.51,231.593 323.094,306.259 494.666,523.978 	"/>
	<polygon points="322.896,305.456 253.292,230.79 322.896,183.34 391.312,230.79 	"/>
	<polygon fill="#1C75BC" points="321.906,39.312 323.094,184.144 253.49,231.593 	"/>
	<polygon fill="#27AAE1" points="390.419,230.393 323.094,184.144 321.906,39.312 	"/>
	<g>
		<polygon fill="#FBB040" points="342.047,240.843 322.828,261.274 304.141,241.411 323.361,220.979 		"/>
		<polygon fill="#F7941E" points="323.095,241.126 323.361,220.979 342.047,240.843 		"/>
		<polygon fill="#F15A29" points="322.828,261.274 323.095,241.126 304.141,241.411 		"/>
		<polygon fill="#EF4136" points="342.047,240.843 323.095,241.126 322.828,261.274 		"/>
	</g>
</g>
</svg>
