<?xml version="1.0" encoding="utf-8"?>
<!-- Generator: Adobe Illustrator 16.0.3, SVG Export Plug-In . SVG Version: 6.00 Build 0)  -->
<!DOCTYPE svg PUBLIC "-//W3C//DTD SVG 1.1//EN" "http://www.w3.org/Graphics/SVG/1.1/DTD/svg11.dtd">
<svg version="1.1" id="Layer_1" xmlns="http://www.w3.org/2000/svg" xmlns:xlink="http://www.w3.org/1999/xlink" x="0px" y="0px"
	 width="612px" height="612px" viewBox="0 0 612 612" enable-background="new 0 0 612 612" xml:space="preserve">
<polygon opacity="0.7" stroke="#000000" stroke-miterlimit="10" points="174.157,418.324 470.082,418.324 505.818,544.342 
	142.182,544.342 "/>
<g>
	<polygon fill="#232C7A" points="323.094,28.312 150.333,512.979 494.27,512.979 	"/>
	<polygon fill="#262262" points="150.333,512.978 178.844,374.828 322.094,28.311 	"/>
	<polygon fill="#262262" points="494.666,512.978 465.967,378.828 321.906,28.312 	"/>
	<polygon fill="#2B3990" points="150.333,512.978 323.094,295.259 253.49,220.593 	"/>
	<polygon fill="#1C75BC" points="391.51,220.593 323.094,295.259 494.666,512.978 	"/>
	<polygon points="322.896,294.456 253.292,219.79 322.896,172.34 391.312,219.79 	"/>
	<polygon fill="#1C75BC" points="321.906,28.312 323.094,173.144 253.49,220.593 	"/>
	<polygon fill="#27AAE1" points="390.419,219.393 323.094,173.144 321.906,28.312 	"/>
	<g>
		<polygon fill="#FBB040" points="342.047,229.843 322.828,250.274 304.141,230.411 323.361,209.979 		"/>
		<polygon fill="#F7941E" points="323.095,230.126 323.361,209.979 342.047,229.843 		"/>
		<polygon fill="#F15A29" points="322.828,250.274 323.095,230.126 304.141,230.411 		"/>
		<polygon fill="#EF4136" points="342.047,229.843 323.095,230.126 322.828,250.274 		"/>
	</g>
</g>
</svg>
