<?xml version="1.0" encoding="utf-8"?>
<!-- Generator: Adobe Illustrator 16.0.3, SVG Export Plug-In . SVG Version: 6.00 Build 0)  -->
<!DOCTYPE svg PUBLIC "-//W3C//DTD SVG 1.1//EN" "http://www.w3.org/Graphics/SVG/1.1/DTD/svg11.dtd">
<svg version="1.1" id="Layer_1" xmlns="http://www.w3.org/2000/svg" xmlns:xlink="http://www.w3.org/1999/xlink" x="0px" y="0px"
	 width="612px" height="612px" viewBox="0 0 612 612" enable-background="new 0 0 612 612" xml:space="preserve">
<polygon opacity="0.7" stroke="#000000" stroke-miterlimit="10" points="171.16,417.064 473.004,417.064 509.455,545.602 
	138.545,545.602 "/>
<g>
	<polygon fill="#232C7A" points="323.094,32.312 150.333,516.979 494.27,516.979 	"/>
	<polygon fill="#262262" points="150.333,516.978 178.844,378.828 322.094,32.311 	"/>
	<polygon fill="#262262" points="494.666,516.978 465.967,382.828 321.906,32.312 	"/>
	<polygon fill="#2B3990" points="150.333,516.978 323.094,299.259 253.49,224.593 	"/>
	<polygon fill="#1C75BC" points="391.51,224.593 323.094,299.259 494.666,516.978 	"/>
	<polygon points="322.896,298.456 253.292,223.79 322.896,176.34 391.312,223.79 	"/>
	<polygon fill="#1C75BC" points="321.906,32.312 323.094,177.144 253.49,224.593 	"/>
	<polygon fill="#27AAE1" points="390.419,223.393 323.094,177.144 321.906,32.312 	"/>
	<g>
		<polygon fill="#FBB040" points="342.047,233.843 322.828,254.274 304.141,234.411 323.361,213.979 		"/>
		<polygon fill="#F7941E" points="323.095,234.126 323.361,213.979 342.047,233.843 		"/>
		<polygon fill="#F15A29" points="322.828,254.274 323.095,234.126 304.141,234.411 		"/>
		<polygon fill="#EF4136" points="342.047,233.843 323.095,234.126 322.828,254.274 		"/>
	</g>
</g>
</svg>
