<?xml version="1.0" encoding="utf-8"?>
<!-- Generator: Adobe Illustrator 16.0.3, SVG Export Plug-In . SVG Version: 6.00 Build 0)  -->
<!DOCTYPE svg PUBLIC "-//W3C//DTD SVG 1.1//EN" "http://www.w3.org/Graphics/SVG/1.1/DTD/svg11.dtd">
<svg version="1.1" id="Layer_1" xmlns="http://www.w3.org/2000/svg" xmlns:xlink="http://www.w3.org/1999/xlink" x="0px" y="0px"
	 width="612px" height="612px" viewBox="0 0 612 612" enable-background="new 0 0 612 612" xml:space="preserve">
<polygon opacity="0.7" stroke="#000000" stroke-miterlimit="10" points="191.732,427.714 452.947,427.714 484.492,538.952 
	163.508,538.952 "/>
<g>
	<polygon fill="#232C7A" points="323.094,27.312 150.333,511.979 494.27,511.979 	"/>
	<polygon fill="#262262" points="150.333,511.978 178.844,373.828 322.094,27.311 	"/>
	<polygon fill="#262262" points="494.666,511.978 465.967,377.828 321.906,27.312 	"/>
	<polygon fill="#2B3990" points="150.333,511.978 323.094,294.259 253.49,219.593 	"/>
	<polygon fill="#1C75BC" points="391.51,219.593 323.094,294.259 494.666,511.978 	"/>
	<polygon points="322.896,293.456 253.292,218.79 322.896,171.34 391.312,218.79 	"/>
	<polygon fill="#1C75BC" points="321.906,27.312 323.094,172.144 253.49,219.593 	"/>
	<polygon fill="#27AAE1" points="390.419,218.393 323.094,172.144 321.906,27.312 	"/>
	<g>
		<polygon fill="#FBB040" points="342.047,228.843 322.828,249.274 304.141,229.411 323.361,208.979 		"/>
		<polygon fill="#F7941E" points="323.095,229.126 323.361,208.979 342.047,228.843 		"/>
		<polygon fill="#F15A29" points="322.828,249.274 323.095,229.126 304.141,229.411 		"/>
		<polygon fill="#EF4136" points="342.047,228.843 323.095,229.126 322.828,249.274 		"/>
	</g>
</g>
</svg>
