<?xml version="1.0" encoding="utf-8"?>
<!-- Generator: Adobe Illustrator 16.0.3, SVG Export Plug-In . SVG Version: 6.00 Build 0)  -->
<!DOCTYPE svg PUBLIC "-//W3C//DTD SVG 1.1//EN" "http://www.w3.org/Graphics/SVG/1.1/DTD/svg11.dtd">
<svg version="1.1" id="Layer_1" xmlns="http://www.w3.org/2000/svg" xmlns:xlink="http://www.w3.org/1999/xlink" x="0px" y="0px"
	 width="612px" height="612px" viewBox="0 0 612 612" enable-background="new 0 0 612 612" xml:space="preserve">
<polygon opacity="0.7" stroke="#000000" stroke-miterlimit="10" points="164.985,414.468 479.024,414.468 516.947,548.198 
	131.053,548.198 "/>
<g>
	<polygon fill="#232C7A" points="323.094,41.312 150.333,525.979 494.27,525.979 	"/>
	<polygon fill="#262262" points="150.333,525.978 178.844,387.828 322.094,41.311 	"/>
	<polygon fill="#262262" points="494.666,525.978 465.967,391.828 321.906,41.312 	"/>
	<polygon fill="#2B3990" points="150.333,525.978 323.094,308.259 253.49,233.593 	"/>
	<polygon fill="#1C75BC" points="391.51,233.593 323.094,308.259 494.666,525.978 	"/>
	<polygon points="322.896,307.456 253.292,232.79 322.896,185.34 391.312,232.79 	"/>
	<polygon fill="#1C75BC" points="321.906,41.312 323.094,186.144 253.49,233.593 	"/>
	<polygon fill="#27AAE1" points="390.419,232.393 323.094,186.144 321.906,41.312 	"/>
	<g>
		<polygon fill="#FBB040" points="342.047,242.843 322.828,263.274 304.141,243.411 323.361,222.979 		"/>
		<polygon fill="#F7941E" points="323.095,243.126 323.361,222.979 342.047,242.843 		"/>
		<polygon fill="#F15A29" points="322.828,263.274 323.095,243.126 304.141,243.411 		"/>
		<polygon fill="#EF4136" points="342.047,242.843 323.095,243.126 322.828,263.274 		"/>
	</g>
</g>
</svg>
