<?xml version="1.0" encoding="utf-8"?>
<!-- Generator: Adobe Illustrator 16.0.3, SVG Export Plug-In . SVG Version: 6.00 Build 0)  -->
<!DOCTYPE svg PUBLIC "-//W3C//DTD SVG 1.1//EN" "http://www.w3.org/Graphics/SVG/1.1/DTD/svg11.dtd">
<svg version="1.1" id="Layer_1" xmlns="http://www.w3.org/2000/svg" xmlns:xlink="http://www.w3.org/1999/xlink" x="0px" y="0px"
	 width="612px" height="612px" viewBox="0 0 612 612" enable-background="new 0 0 612 612" xml:space="preserve">
<polygon opacity="0.7" stroke="#000000" stroke-miterlimit="10" points="178.506,428.366 461.706,428.366 495.906,548.966 
	147.906,548.966 "/>
<polygon fill="#232C7A" points="323.094,44.312 150.333,528.979 494.27,528.979 "/>
<polygon fill="#262262" points="150.333,528.978 178.844,390.828 322.094,44.311 "/>
<polygon fill="#262262" points="494.666,528.978 465.967,394.828 321.906,44.312 "/>
<polygon fill="#2B3990" points="150.333,528.978 323.094,311.259 253.49,236.593 "/>
<polygon fill="#1C75BC" points="391.51,236.593 323.094,311.259 494.666,528.978 "/>
<polygon points="322.896,310.456 253.292,235.79 322.896,188.34 391.312,235.79 "/>
<polygon fill="#1C75BC" points="321.906,44.312 323.094,189.144 253.49,236.593 "/>
<polygon fill="#27AAE1" points="390.419,235.393 323.094,189.144 321.906,44.312 "/>
<g>
	<polygon fill="#FBB040" points="342.047,245.843 322.828,266.274 304.141,246.411 323.361,225.979 	"/>
	<polygon fill="#F7941E" points="323.095,246.126 323.361,225.979 342.047,245.843 	"/>
	<polygon fill="#F15A29" points="322.828,266.274 323.095,246.126 304.141,246.411 	"/>
	<polygon fill="#EF4136" points="342.047,245.843 323.095,246.126 322.828,266.274 	"/>
</g>
</svg>
