<?xml version="1.0" encoding="utf-8"?>
<!-- Generator: Adobe Illustrator 16.0.3, SVG Export Plug-In . SVG Version: 6.00 Build 0)  -->
<!DOCTYPE svg PUBLIC "-//W3C//DTD SVG 1.1//EN" "http://www.w3.org/Graphics/SVG/1.1/DTD/svg11.dtd">
<svg version="1.1" id="Layer_1" xmlns="http://www.w3.org/2000/svg" xmlns:xlink="http://www.w3.org/1999/xlink" x="0px" y="0px"
	 width="612px" height="612px" viewBox="0 0 612 612" enable-background="new 0 0 612 612" xml:space="preserve">
<polygon opacity="0.7" stroke="#000000" stroke-miterlimit="10" points="191.785,427.737 452.896,427.737 484.428,538.929 
	163.572,538.929 "/>
<g>
	<polygon fill="#232C7A" points="323.094,24.312 150.333,508.979 494.27,508.979 	"/>
	<polygon fill="#262262" points="150.333,508.978 178.844,370.828 322.094,24.311 	"/>
	<polygon fill="#262262" points="494.666,508.978 465.967,374.828 321.906,24.312 	"/>
	<polygon fill="#2B3990" points="150.333,508.978 323.094,291.259 253.49,216.593 	"/>
	<polygon fill="#1C75BC" points="391.51,216.593 323.094,291.259 494.666,508.978 	"/>
	<polygon points="322.896,290.456 253.292,215.79 322.896,168.34 391.312,215.79 	"/>
	<polygon fill="#1C75BC" points="321.906,24.312 323.094,169.144 253.49,216.593 	"/>
	<polygon fill="#27AAE1" points="390.419,215.393 323.094,169.144 321.906,24.312 	"/>
	<g>
		<polygon fill="#FBB040" points="342.047,225.843 322.828,246.274 304.141,226.411 323.361,205.979 		"/>
		<polygon fill="#F7941E" points="323.095,226.126 323.361,205.979 342.047,225.843 		"/>
		<polygon fill="#F15A29" points="322.828,246.274 323.095,226.126 304.141,226.411 		"/>
		<polygon fill="#EF4136" points="342.047,225.843 323.095,226.126 322.828,246.274 		"/>
	</g>
</g>
</svg>
