<?xml version="1.0" encoding="utf-8"?>
<!-- Generator: Adobe Illustrator 16.0.3, SVG Export Plug-In . SVG Version: 6.00 Build 0)  -->
<!DOCTYPE svg PUBLIC "-//W3C//DTD SVG 1.1//EN" "http://www.w3.org/Graphics/SVG/1.1/DTD/svg11.dtd">
<svg version="1.1" id="Layer_1" xmlns="http://www.w3.org/2000/svg" xmlns:xlink="http://www.w3.org/1999/xlink" x="0px" y="0px"
	 width="612px" height="612px" viewBox="0 0 612 612" enable-background="new 0 0 612 612" xml:space="preserve">
<polygon opacity="0.7" stroke="#000000" stroke-miterlimit="10" points="179.975,420.771 464.409,420.771 498.758,541.896 
	149.242,541.896 "/>
<g>
	<polygon fill="#232C7A" points="323.094,19.312 150.333,503.979 494.27,503.979 	"/>
	<polygon fill="#262262" points="150.333,503.978 178.844,365.828 322.094,19.311 	"/>
	<polygon fill="#262262" points="494.666,503.978 465.967,369.828 321.906,19.312 	"/>
	<polygon fill="#2B3990" points="150.333,503.978 323.094,286.259 253.49,211.593 	"/>
	<polygon fill="#1C75BC" points="391.51,211.593 323.094,286.259 494.666,503.978 	"/>
	<polygon points="322.896,285.456 253.292,210.79 322.896,163.34 391.312,210.79 	"/>
	<polygon fill="#1C75BC" points="321.906,19.312 323.094,164.144 253.49,211.593 	"/>
	<polygon fill="#27AAE1" points="390.419,210.393 323.094,164.144 321.906,19.312 	"/>
	<g>
		<polygon fill="#FBB040" points="342.047,220.843 322.828,241.274 304.141,221.411 323.361,200.979 		"/>
		<polygon fill="#F7941E" points="323.095,221.126 323.361,200.979 342.047,220.843 		"/>
		<polygon fill="#F15A29" points="322.828,241.274 323.095,221.126 304.141,221.411 		"/>
		<polygon fill="#EF4136" points="342.047,220.843 323.095,221.126 322.828,241.274 		"/>
	</g>
</g>
</svg>
