<?xml version="1.0" encoding="utf-8"?>
<!-- Generator: Adobe Illustrator 16.0.3, SVG Export Plug-In . SVG Version: 6.00 Build 0)  -->
<!DOCTYPE svg PUBLIC "-//W3C//DTD SVG 1.1//EN" "http://www.w3.org/Graphics/SVG/1.1/DTD/svg11.dtd">
<svg version="1.1" id="Layer_3" xmlns="http://www.w3.org/2000/svg" xmlns:xlink="http://www.w3.org/1999/xlink" x="0px" y="0px"
	 width="600px" height="600px" viewBox="0 0 600 600" enable-background="new 0 0 600 600" xml:space="preserve">
<polygon fill="#00A8CC" points="222.088,330.352 176.515,347.236 178.945,394.311 "/>
<polygon fill="#476394" points="225.905,387.396 222.088,330.352 178.945,394.311 "/>
<polygon fill="#002E63" points="421.84,329.55 454.492,395.11 404.348,373.677 "/>
<polygon fill="#476394" points="469.652,352.245 454.492,395.11 421.84,329.55 "/>
<polygon fill="#00A8CC" stroke="#00A8CC" stroke-miterlimit="10" points="318.901,21 217.493,136.758 425.18,137.05 "/>
<polygon fill="#004C73" stroke="#476394" stroke-miterlimit="10" points="318.901,253.873 217.493,156.114 425.18,155.822 "/>
<polygon fill="#004C73" stroke="#004C73" stroke-miterlimit="10" points="217.258,244.4 318.901,351 431,244.4 318.901,577 "/>
<polygon fill="#142850" stroke="#142850" stroke-miterlimit="10" points="217.493,156.114 254.667,137.05 386.33,136.996 
	425.18,155.822 "/>
<polygon fill="#142850" stroke="#142850" stroke-miterlimit="10" points="217.258,244.4 246,250.4 317.667,337 318.901,351 "/>
<polygon fill="#476394" stroke="#476394" stroke-miterlimit="10" points="431,244.4 402,250.4 318.667,337 318.901,351 "/>
</svg>
