<?xml version="1.0" encoding="utf-8"?>
<!-- Generator: Adobe Illustrator 16.0.3, SVG Export Plug-In . SVG Version: 6.00 Build 0)  -->
<!DOCTYPE svg PUBLIC "-//W3C//DTD SVG 1.1//EN" "http://www.w3.org/Graphics/SVG/1.1/DTD/svg11.dtd">
<svg version="1.1" id="Layer_3" xmlns="http://www.w3.org/2000/svg" xmlns:xlink="http://www.w3.org/1999/xlink" x="0px" y="0px"
	 width="600px" height="600px" viewBox="0 0 600 600" enable-background="new 0 0 600 600" xml:space="preserve">
<polygon fill="#00A8CC" points="254.494,223.741 208.92,240.627 211.351,287.7 "/>
<polygon fill="#476394" points="258.311,280.786 254.494,223.741 211.351,287.7 "/>
<polygon fill="#002E63" points="396.882,223.741 429.534,289.301 379.39,267.868 "/>
<polygon fill="#476394" points="444.694,246.436 429.534,289.301 396.882,223.741 "/>
<polygon fill="#00A8CC" stroke="#00A8CC" stroke-miterlimit="10" points="318.901,16 217.493,131.758 425.18,132.05 "/>
<polygon fill="#004C73" stroke="#476394" stroke-miterlimit="10" points="318.901,248.873 217.493,151.114 425.18,150.822 "/>
<polygon fill="#004C73" stroke="#004C73" stroke-miterlimit="10" points="217.258,239.4 318.901,346 431,239.4 318.901,572 "/>
<polygon fill="#142850" stroke="#142850" stroke-miterlimit="10" points="217.493,151.114 254.667,132.05 386.33,131.996 
	425.18,150.822 "/>
<polygon fill="#142850" stroke="#142850" stroke-miterlimit="10" points="217.258,239.4 246,245.4 317.667,332 318.901,346 "/>
<polygon fill="#476394" stroke="#476394" stroke-miterlimit="10" points="431,239.4 402,245.4 318.667,332 318.901,346 "/>
</svg>
