<?xml version="1.0" encoding="utf-8"?>
<!-- Generator: Adobe Illustrator 16.0.3, SVG Export Plug-In . SVG Version: 6.00 Build 0)  -->
<!DOCTYPE svg PUBLIC "-//W3C//DTD SVG 1.1//EN" "http://www.w3.org/Graphics/SVG/1.1/DTD/svg11.dtd">
<svg version="1.1" id="Layer_3" xmlns="http://www.w3.org/2000/svg" xmlns:xlink="http://www.w3.org/1999/xlink" x="0px" y="0px"
	 width="600px" height="600px" viewBox="0 0 600 600" enable-background="new 0 0 600 600" xml:space="preserve">
<polygon fill="#00A8CC" stroke="#00A8CC" stroke-miterlimit="10" points="318.901,20 217.493,135.758 425.18,136.05 "/>
<polygon fill="#004C73" stroke="#476394" stroke-miterlimit="10" points="318.901,252.873 217.493,155.114 425.18,154.822 "/>
<polygon fill="#004C73" stroke="#004C73" stroke-miterlimit="10" points="217.258,243.4 318.901,350 431,243.4 318.901,576 "/>
<polygon fill="#142850" stroke="#142850" stroke-miterlimit="10" points="217.493,155.114 254.667,136.05 386.33,135.996 
	425.18,154.822 "/>
<polygon fill="#142850" stroke="#142850" stroke-miterlimit="10" points="217.258,243.4 246,249.4 317.667,336 318.901,350 "/>
<polygon fill="#476394" stroke="#476394" stroke-miterlimit="10" points="431,243.4 402,249.4 318.667,336 318.901,350 "/>
<polygon fill="#00A8CC" points="123.827,383.757 78.253,400.643 80.684,447.716 "/>
<polygon fill="#476394" points="127.644,440.802 123.827,383.757 80.684,447.716 "/>
<polygon fill="#002E63" points="496.787,390.974 529.439,456.533 479.295,435.101 "/>
<polygon fill="#476394" points="544.6,413.668 529.439,456.533 496.787,390.974 "/>
</svg>
