<?xml version="1.0" encoding="utf-8"?>
<!-- Generator: Adobe Illustrator 16.0.3, SVG Export Plug-In . SVG Version: 6.00 Build 0)  -->
<!DOCTYPE svg PUBLIC "-//W3C//DTD SVG 1.1//EN" "http://www.w3.org/Graphics/SVG/1.1/DTD/svg11.dtd">
<svg version="1.1" id="Layer_3" xmlns="http://www.w3.org/2000/svg" xmlns:xlink="http://www.w3.org/1999/xlink" x="0px" y="0px"
	 width="600px" height="600px" viewBox="0 0 600 600" enable-background="new 0 0 600 600" xml:space="preserve">
<polygon fill="#00A8CC" stroke="#00A8CC" stroke-miterlimit="10" points="318.901,7 217.493,122.758 425.18,123.05 "/>
<polygon fill="#004C73" stroke="#476394" stroke-miterlimit="10" points="318.901,239.873 217.493,142.114 425.18,141.822 "/>
<polygon fill="#004C73" stroke="#004C73" stroke-miterlimit="10" points="217.258,230.4 318.901,337 431,230.4 318.901,563 "/>
<polygon fill="#142850" stroke="#142850" stroke-miterlimit="10" points="217.493,142.114 254.667,123.05 386.33,122.996 
	425.18,141.822 "/>
<polygon fill="#142850" stroke="#142850" stroke-miterlimit="10" points="217.258,230.4 246,236.4 317.667,323 318.901,337 "/>
<polygon fill="#476394" stroke="#476394" stroke-miterlimit="10" points="431,230.4 402,236.4 318.667,323 318.901,337 "/>
<polygon fill="#00A8CC" points="164.494,39.221 118.92,56.107 121.351,103.18 "/>
<polygon fill="#476394" points="168.311,96.266 164.494,39.221 121.351,103.18 "/>
<polygon fill="#002E63" points="478.788,46.555 511.44,112.114 461.296,90.682 "/>
<polygon fill="#476394" points="526.601,69.249 511.44,112.114 478.788,46.555 "/>
</svg>
