<?xml version="1.0" encoding="utf-8"?>
<!-- Generator: Adobe Illustrator 16.0.3, SVG Export Plug-In . SVG Version: 6.00 Build 0)  -->
<!DOCTYPE svg PUBLIC "-//W3C//DTD SVG 1.1//EN" "http://www.w3.org/Graphics/SVG/1.1/DTD/svg11.dtd">
<svg version="1.1" id="Layer_3" xmlns="http://www.w3.org/2000/svg" xmlns:xlink="http://www.w3.org/1999/xlink" x="0px" y="0px"
	 width="600px" height="600px" viewBox="0 0 600 600" enable-background="new 0 0 600 600" xml:space="preserve">
<polygon fill="#00A8CC" stroke="#00A8CC" stroke-miterlimit="10" points="318.901,24 217.493,139.758 425.18,140.05 "/>
<polygon fill="#004C73" stroke="#476394" stroke-miterlimit="10" points="318.901,256.873 217.493,159.114 425.18,158.822 "/>
<polygon fill="#004C73" stroke="#004C73" stroke-miterlimit="10" points="217.258,247.4 318.901,354 431,247.4 318.901,580 "/>
<polygon fill="#142850" stroke="#142850" stroke-miterlimit="10" points="217.493,159.114 254.667,140.05 386.33,139.996 
	425.18,158.822 "/>
<polygon fill="#142850" stroke="#142850" stroke-miterlimit="10" points="217.258,247.4 246,253.4 317.667,340 318.901,354 "/>
<polygon fill="#476394" stroke="#476394" stroke-miterlimit="10" points="431,247.4 402,253.4 318.667,340 318.901,354 "/>
<polygon fill="#00A8CC" points="192.493,432.424 146.92,449.31 149.35,496.383 "/>
<polygon fill="#476394" points="196.311,489.469 192.493,432.424 149.35,496.383 "/>
<polygon fill="#002E63" points="457.787,427.974 490.439,493.533 440.295,472.101 "/>
<polygon fill="#476394" points="505.6,450.668 490.439,493.533 457.787,427.974 "/>
</svg>
