<?xml version="1.0" encoding="utf-8"?>
<!-- Generator: Adobe Illustrator 16.0.3, SVG Export Plug-In . SVG Version: 6.00 Build 0)  -->
<!DOCTYPE svg PUBLIC "-//W3C//DTD SVG 1.1//EN" "http://www.w3.org/Graphics/SVG/1.1/DTD/svg11.dtd">
<svg version="1.1" id="Layer_3" xmlns="http://www.w3.org/2000/svg" xmlns:xlink="http://www.w3.org/1999/xlink" x="0px" y="0px"
	 width="600px" height="600px" viewBox="0 0 600 600" enable-background="new 0 0 600 600" xml:space="preserve">
<polygon fill="#00A8CC" points="224.494,122.555 178.92,139.44 181.351,186.514 "/>
<polygon fill="#476394" points="228.311,179.6 224.494,122.555 181.351,186.514 "/>
<polygon fill="#002E63" points="420.788,122.555 453.44,188.114 403.296,166.682 "/>
<polygon fill="#476394" points="468.601,145.249 453.44,188.114 420.788,122.555 "/>
<polygon fill="#00A8CC" stroke="#00A8CC" stroke-miterlimit="10" points="318.901,11 217.493,126.758 425.18,127.05 "/>
<polygon fill="#004C73" stroke="#476394" stroke-miterlimit="10" points="318.901,243.873 217.493,146.114 425.18,145.822 "/>
<polygon fill="#004C73" stroke="#004C73" stroke-miterlimit="10" points="217.258,234.4 318.901,341 431,234.4 318.901,567 "/>
<polygon fill="#142850" stroke="#142850" stroke-miterlimit="10" points="217.493,146.114 254.667,127.05 386.33,126.996 
	425.18,145.822 "/>
<polygon fill="#142850" stroke="#142850" stroke-miterlimit="10" points="217.258,234.4 246,240.4 317.667,327 318.901,341 "/>
<polygon fill="#476394" stroke="#476394" stroke-miterlimit="10" points="431,234.4 402,240.4 318.667,327 318.901,341 "/>
</svg>
