<?xml version="1.0" encoding="utf-8"?>
<!-- Generator: Adobe Illustrator 16.0.3, SVG Export Plug-In . SVG Version: 6.00 Build 0)  -->
<!DOCTYPE svg PUBLIC "-//W3C//DTD SVG 1.1//EN" "http://www.w3.org/Graphics/SVG/1.1/DTD/svg11.dtd">
<svg version="1.1" id="Layer_3" xmlns="http://www.w3.org/2000/svg" xmlns:xlink="http://www.w3.org/1999/xlink" x="0px" y="0px"
	 width="600px" height="600px" viewBox="0 0 600 600" enable-background="new 0 0 600 600" xml:space="preserve">
<polygon fill="#00A8CC" stroke="#00A8CC" stroke-miterlimit="10" points="318.901,15 217.493,130.758 425.18,131.05 "/>
<polygon fill="#004C73" stroke="#476394" stroke-miterlimit="10" points="318.901,247.873 217.493,150.114 425.18,149.822 "/>
<polygon fill="#004C73" stroke="#004C73" stroke-miterlimit="10" points="217.258,238.4 318.901,345 431,238.4 318.901,571 "/>
<polygon fill="#142850" stroke="#142850" stroke-miterlimit="10" points="217.493,150.114 254.667,131.05 386.33,130.996 
	425.18,149.822 "/>
<polygon fill="#142850" stroke="#142850" stroke-miterlimit="10" points="217.258,238.4 246,244.4 317.667,331 318.901,345 "/>
<polygon fill="#476394" stroke="#476394" stroke-miterlimit="10" points="431,238.4 402,244.4 318.667,331 318.901,345 "/>
<polygon fill="#00A8CC" points="70.494,271.757 24.92,288.643 27.351,335.716 "/>
<polygon fill="#476394" points="74.311,328.802 70.494,271.757 27.351,335.716 "/>
<polygon fill="#002E63" points="544.121,264.307 576.773,329.866 526.629,308.434 "/>
<polygon fill="#476394" points="591.934,287.001 576.773,329.866 544.121,264.307 "/>
</svg>
