<?xml version="1.0" encoding="utf-8"?>
<!-- Generator: Adobe Illustrator 16.0.3, SVG Export Plug-In . SVG Version: 6.00 Build 0)  -->
<!DOCTYPE svg PUBLIC "-//W3C//DTD SVG 1.1//EN" "http://www.w3.org/Graphics/SVG/1.1/DTD/svg11.dtd">
<svg version="1.1" xmlns="http://www.w3.org/2000/svg" xmlns:xlink="http://www.w3.org/1999/xlink" x="0px" y="0px" width="192px"
	 height="192px" viewBox="0 0 192 192" enable-background="new 0 0 192 192" xml:space="preserve">
<g id="Layer_4">
	<polygon fill="#47234D" stroke="#47234D" stroke-miterlimit="10" points="121.583,164.25 123.583,67.583 101.917,83.583 
		99.583,175.25 	"/>
	<polygon fill="#45233D" stroke="#45233D" stroke-miterlimit="10" points="106.917,45.583 101.917,83.583 123.583,67.583 	"/>
	<polygon fill="#572F5E" stroke="#572F5E" stroke-miterlimit="10" points="91.916,50.917 101.917,83.583 106.917,45.583 	"/>
	<polygon fill="#572F5E" stroke="#572F5E" stroke-width="0.5" stroke-miterlimit="10" points="117.583,45.583 106.885,45.86 
		123.583,66.25 	"/>
	<polygon fill="#47234D" stroke="#47234D" stroke-width="0.5" stroke-miterlimit="10" points="99.583,36.917 106.917,45.583 
		116.583,45.583 	"/>
	<polygon fill="#9C6CA5" stroke="#9C6CA5" stroke-width="0.5" stroke-miterlimit="10" points="91.916,50.917 106.917,45.583 
		98.583,35.917 	"/>
	<polygon fill="#8D6C93" stroke="#8D6C93" stroke-width="0.5" stroke-miterlimit="10" points="75.584,51.917 91.916,51.917 
		98.417,35.583 	"/>
	<polygon fill="#9C6CA5" stroke="#9C6CA5" stroke-width="0.5" stroke-miterlimit="10" points="80.584,69.25 91.916,51.917 
		75.584,51.917 	"/>
	<polygon fill="#4B264C" stroke="#4B264C" stroke-miterlimit="10" points="101.917,83.583 80.584,69.25 92.916,51.917 	"/>
	<polygon fill="#6C4C72" stroke="#6C4C72" stroke-miterlimit="10" points="80.584,169.25 99.583,175.25 101.917,83.583 
		80.584,69.25 	"/>
	<polygon fill="#8D6C93" stroke="#8D6C93" stroke-width="0.5" stroke-miterlimit="10" points="69.916,144.917 80.584,169.25 
		80.584,69.25 75.584,52.917 	"/>
	<polygon opacity="0.7" fill="#45233D" points="80.584,169.25 108.083,190.25 121,190.25 130,187.25 136.5,179.75 136.5,175.25 
		121.707,158.249 122.25,164.25 99.5,175.25 	"/>
</g>
<g id="Layer_2">
	<g>
		<path d="M86.606,131.722c0.585,0.472,1.01,1.026,1.379,1.61c0.36,0.59,0.665,1.207,0.887,1.869l-0.345-0.209
			c0.458,0.074,0.915,0.182,1.372,0.39c-0.458,0.208-0.915,0.315-1.372,0.39l-0.169,0.027l-0.176-0.236
			c-0.418-0.559-0.753-1.16-1.034-1.791C86.877,133.136,86.662,132.471,86.606,131.722z"/>
	</g>
	<g>
		<path d="M90.448,142.37c-0.761-0.491-1.395-1.086-1.995-1.709l-0.056-0.058l-0.038-0.139c-0.243-0.875-0.43-1.762-0.531-2.666
			l-0.009-0.084v-0.004c0.077-0.775,0.181-1.553,0.434-2.329c0.253,0.776,0.357,1.554,0.434,2.329l-0.009-0.087
			c0.265,0.87,0.443,1.759,0.566,2.658l-0.094-0.196C89.648,140.794,90.111,141.529,90.448,142.37z"/>
	</g>
	<g>
		<path d="M93.192,133.551c0.04,0.611,0.085,1.221,0.111,1.831l0.004,0.104l-0.115,0.006l-1.646,0.082l0.193-0.192
			c0.095,1.664,0.113,3.327,0.174,4.991l0.003,0.083l-0.048,0.095l-1.043,2.025l0.053-0.206l0.042,2.662l0.003,0.207l-0.163,0.146
			l-1.499,1.344l0.118-0.157l-0.935,2.009l-0.242,0.509l-0.248,0.496l-0.497,0.99l-0.138,0.274l-0.302-0.002l-1.509-0.008
			l0.454-0.318l-0.994,2.648l0.026-0.151c-0.013,1.221-0.047,2.44-0.088,3.661l-0.002,0.077l-0.021,0.05
			c-0.523,1.259-1.029,2.525-1.567,3.779c-0.549,1.25-1.075,2.509-1.651,3.748c0.384-1.312,0.819-2.604,1.23-3.906
			c0.423-1.297,0.877-2.583,1.314-3.875l-0.023,0.127c-0.041-1.221-0.075-2.44-0.088-3.661l0-0.073l0.027-0.079l0.927-2.673
			l0.11-0.317l0.344-0.001l1.509-0.008l-0.44,0.272l1.921-3.983l0.045-0.094l0.073-0.063l1.52-1.319l-0.159,0.353l0.042-2.662
			l0.001-0.119l0.051-0.087l1.152-1.967l-0.045,0.176c0.061-1.664,0.079-3.327,0.174-4.991l0.012-0.202l0.181,0.01l1.646,0.082
			l-0.111,0.11C93.107,134.771,93.152,134.162,93.192,133.551z"/>
	</g>
	<g>
		<path d="M93.878,142.37c-0.363-0.533-0.58-1.096-0.769-1.663c-0.189-0.568-0.295-1.152-0.387-1.738l0.792,0.262
			c-0.585,0.458-1.212,0.873-1.968,1.143c0.341-0.727,0.813-1.311,1.324-1.852l0.584-0.615l0.208,0.877
			c0.137,0.578,0.26,1.159,0.299,1.756C94.001,141.137,94.013,141.738,93.878,142.37z"/>
	</g>
	<g>
		<path d="M90.448,142.37c0.491,0.341,0.929,0.726,1.355,1.118l0.028,0.027l0.04,0.113c0.597,1.701,0.992,3.447,1.179,5.238
			l0.021,0.207l-0.089,0.085c-0.441,0.421-0.891,0.834-1.403,1.198c0.243-0.579,0.548-1.108,0.862-1.631l-0.068,0.291
			c-0.591-1.701-0.974-3.449-1.154-5.243l0.068,0.14C90.983,143.42,90.689,142.917,90.448,142.37z"/>
	</g>
	<g>
		<path d="M102.386,164.334c-0.257-0.53-0.484-1.07-0.718-1.608c-0.238-0.536-0.46-1.078-0.676-1.622l-0.012-0.029l-0.004-0.068
			c-0.059-0.998-0.111-1.997-0.134-2.995l0.056,0.215c-0.586-0.979-1.135-1.977-1.695-2.969l0.438,0.259l-1.92-0.018l-0.215-0.002
			l-0.137-0.151c-0.613-0.675-1.216-1.359-1.813-2.049l-0.051-0.06l-0.018-0.041c-0.391-0.905-0.772-1.815-1.13-2.737l0.067,0.083
			c-0.57-0.532-1.159-1.042-1.711-1.598c0.682,0.387,1.329,0.819,1.992,1.23l0.03,0.019l0.038,0.064
			c0.5,0.853,0.977,1.717,1.443,2.585l-0.069-0.101c0.649,0.642,1.292,1.289,1.925,1.944l-0.352-0.152l1.92-0.018l0.299-0.002
			l0.14,0.262c0.538,1.004,1.087,2.002,1.599,3.021l0.059,0.114l-0.003,0.101c-0.022,0.998-0.075,1.997-0.134,2.995l-0.016-0.098
			c0.15,0.565,0.294,1.133,0.422,1.706C102.139,163.186,102.277,163.755,102.386,164.334z"/>
	</g>
	<g>
		<path d="M94.564,161.339c-0.228-0.783-0.335-1.567-0.412-2.351c-0.065-0.783-0.099-1.567-0.079-2.351l0.002-0.095l0.026-0.07
			c0.223-0.6,0.473-1.19,0.761-1.768s0.597-1.146,0.989-1.687c-0.037,0.666-0.157,1.303-0.298,1.933
			c-0.141,0.629-0.32,1.245-0.526,1.851l0.028-0.164c0.021,0.783-0.014,1.567-0.079,2.351
			C94.9,159.771,94.792,160.556,94.564,161.339z"/>
	</g>
	<g>
		<path d="M113.5,142.37l-1.156,1.722l-0.044,0.066l-0.079-0.037l-1.678-0.77l0.014,0.006l-2.09-0.756l0.311-0.106l-0.922,1.687
			l0.039-0.147l0.107,4.659l0.002,0.097l-0.057,0.104c-0.305,0.563-0.617,1.123-0.936,1.679l-0.323,0.564l-0.395-0.523l-1.247-1.654
			l-0.072-0.098l-0.014-0.127l-0.444-4.322l-0.006-0.055l0.009-0.061c0.18-1.248,0.333-2.5,0.535-3.745l0.008,0.184l-2.018-8.917
			l-0.026-0.118l0.034-0.103l1.648-4.957l0.006-0.02l0.004-0.008c0.715-1.651,1.461-3.291,2.214-4.927l0.179-0.388l0.08,0.409
			c0.195,1.006,0.379,2.015,0.553,3.025c-0.283-0.985-0.557-1.974-0.818-2.965l0.258,0.021c-0.618,1.692-1.244,3.38-1.9,5.056
			l0.009-0.025l-1.423,5.025l0.008-0.221l2.152,8.886l0.021,0.085l-0.014,0.1c-0.164,1.25-0.377,2.493-0.563,3.74l0.003-0.114
			l0.379,4.329l-0.086-0.223l1.223,1.674l-0.717,0.041c0.322-0.554,0.648-1.104,0.984-1.65l-0.053,0.201l0.106-4.659l0.002-0.085
			l0.038-0.063l0.998-1.642l0.117-0.193l0.193,0.087l2.027,0.908l0.012,0.006l0,0l1.615,0.895l-0.122,0.029L113.5,142.37z"/>
	</g>
	<g>
		<path d="M103.457,114.417c0.139,1.588,0.076,3.153-0.045,4.712l-0.001-0.111c0.213,1.438,0.36,2.883,0.425,4.338l0.006,0.127
			l-0.031,0.063c-0.426,0.859-0.881,1.707-1.425,2.52c0.171-0.963,0.43-1.89,0.718-2.805l-0.025,0.188
			c-0.283-1.429-0.484-2.867-0.62-4.314l-0.007-0.069l0.006-0.042C102.684,117.475,102.971,115.936,103.457,114.417z"/>
	</g>
	<g>
		<path d="M97.549,150.357c-0.207-1.1-0.361-2.204-0.526-3.307c-0.154-1.104-0.282-2.211-0.41-3.316l-0.013-0.11l0.062-0.122
			c0.525-1.039,1.042-2.082,1.588-3.109l-0.049,0.316c-0.295-1.521-0.553-3.049-0.801-4.579l-0.031-0.188l0.096-0.145
			c0.707-1.068,1.431-2.126,2.166-3.176l-0.045,0.108c0.205-0.725,0.395-1.453,0.619-2.174c0.22-0.723,0.426-1.447,0.672-2.163
			c-0.075,0.753-0.189,1.499-0.29,2.246c-0.095,0.749-0.226,1.49-0.341,2.235l-0.008,0.041l-0.037,0.067
			c-0.637,1.113-1.285,2.219-1.95,3.313l0.065-0.332c0.299,1.521,0.59,3.043,0.846,4.572l0.027,0.17l-0.078,0.146
			c-0.549,1.025-1.131,2.034-1.703,3.048l0.049-0.232c0.043,1.112,0.087,2.226,0.104,3.34
			C97.567,148.124,97.585,149.238,97.549,150.357z"/>
	</g>
	<g>
		<path d="M98.955,150.357c-0.227-0.666-0.335-1.331-0.412-1.996c-0.064-0.666-0.099-1.332-0.079-1.998l0.093,0.287
			c-0.313-0.449-0.604-0.914-0.859-1.402c-0.258-0.49-0.496-0.992-0.662-1.547c0.473,0.334,0.875,0.719,1.258,1.117
			c0.383,0.397,0.732,0.82,1.061,1.258l0.088,0.117l0.005,0.17c0.02,0.666-0.015,1.332-0.079,1.998
			C99.29,149.026,99.182,149.691,98.955,150.357z"/>
	</g>
	<g>
		<path d="M104.209,84.728c0.457,0.143,0.777,0.386,1.059,0.659c0.27,0.281,0.506,0.586,0.666,0.949l-0.346-0.174
			c0.328,0.078,0.656,0.181,0.984,0.43c-0.328,0.249-0.656,0.352-0.984,0.43l-0.113,0.027l-0.232-0.201
			c-0.301-0.259-0.523-0.574-0.713-0.915C104.351,85.584,104.212,85.207,104.209,84.728z"/>
	</g>
	<g>
		<path d="M106.965,90.15c-0.588-0.112-1.059-0.362-1.488-0.659l-0.088-0.061l-0.059-0.165c-0.076-0.223-0.168-0.441-0.215-0.673
			c-0.063-0.227-0.098-0.461-0.131-0.696l-0.017-0.118c0.082-0.396,0.183-0.791,0.423-1.187c0.24,0.396,0.341,0.791,0.423,1.187
			l-0.017-0.118c0.099,0.217,0.195,0.434,0.263,0.659c0.085,0.22,0.124,0.453,0.178,0.683l-0.146-0.226
			C106.449,89.157,106.767,89.585,106.965,90.15z"/>
	</g>
	<g>
		<path d="M108.934,85.66c0.035,0.311,0.08,0.621,0.104,0.932l0.008,0.094l-0.111,0.01l-1.181,0.106l0.21-0.21
			c0.072,0.848,0.127,1.694,0.164,2.542l0.004,0.111l-0.082,0.117l-0.744,1.051l0.09-0.263l0.038,1.355l0.007,0.249l-0.227,0.147
			l-1.072,0.693l0.147-0.143l-0.669,1.029l-0.084,0.129l-0.094,0.136l-0.178,0.25l-0.356,0.501l-0.151,0.212l-0.251-0.002
			l-1.083-0.011l0.428-0.262l-0.725,1.336l0.048-0.199c-0.013,0.621-0.048,1.243-0.075,1.864l-0.006,0.107l-0.037,0.063
			c-0.375,0.633-0.762,1.26-1.16,1.881c-0.408,0.616-0.795,1.243-1.229,1.846c0.257-0.696,0.559-1.368,0.84-2.052
			c0.291-0.678,0.593-1.35,0.906-2.016l-0.043,0.17c-0.027-0.621-0.063-1.243-0.075-1.864l-0.002-0.095l0.05-0.104L102.994,94
			l0.124-0.26l0.304-0.002l1.083-0.011l-0.402,0.21l1.374-2.023l0.063-0.092l0.085-0.052l1.092-0.661l-0.219,0.396l0.038-1.355
			l0.005-0.162l0.086-0.101l0.83-0.982l-0.078,0.229c0.037-0.848,0.092-1.694,0.164-2.542l0.02-0.227l0.19,0.017l1.181,0.106
			l-0.104,0.104C108.854,86.281,108.898,85.971,108.934,85.66z"/>
	</g>
	<g>
		<path d="M109.426,90.15c-0.311-0.233-0.49-0.503-0.65-0.777c-0.139-0.281-0.259-0.567-0.312-0.872l0.734,0.279
			c-0.202,0.12-0.425,0.206-0.661,0.273c-0.239,0.061-0.488,0.105-0.784,0.08c0.099-0.279,0.242-0.488,0.396-0.683
			c0.158-0.187,0.328-0.355,0.521-0.489l0.493-0.346l0.241,0.625c0.111,0.288,0.155,0.596,0.181,0.907
			C109.588,89.467,109.572,89.791,109.426,90.15z"/>
	</g>
	<g>
		<path d="M106.965,90.15c0.379,0.092,0.703,0.245,1.018,0.41l0.025,0.013l0.082,0.149c0.458,0.833,0.746,1.721,0.846,2.666
			l0.031,0.303l-0.137,0.077c-0.322,0.182-0.659,0.348-1.053,0.449c0.148-0.379,0.353-0.693,0.571-0.992l-0.105,0.38
			c-0.458-0.834-0.728-1.726-0.827-2.672l0.107,0.162C107.313,90.809,107.113,90.51,106.965,90.15z"/>
	</g>
	<g>
		<path d="M115.527,101.334c-0.385-0.508-0.729-1.034-1.053-1.57l-0.015-0.025l-0.013-0.099c-0.063-0.509-0.095-1.017-0.133-1.525
			l0.089,0.261c-0.422-0.486-0.837-0.978-1.233-1.484l0.39,0.19c-0.46,0.015-0.919-0.001-1.378-0.007l-0.168-0.002l-0.125-0.097
			c-0.445-0.341-0.867-0.713-1.297-1.075l-0.07-0.059l-0.021-0.038c-0.274-0.474-0.541-0.953-0.792-1.442l0.089,0.08
			c-0.41-0.302-0.82-0.602-1.207-0.944c0.498,0.138,0.973,0.318,1.449,0.497l0.027,0.011l0.063,0.069
			c0.363,0.414,0.712,0.837,1.053,1.266l-0.092-0.096c0.465,0.315,0.936,0.621,1.385,0.958l-0.293-0.099
			c0.459-0.006,0.918-0.021,1.378-0.007l0.249,0.007l0.141,0.184c0.392,0.511,0.764,1.036,1.129,1.565l0.098,0.143l-0.008,0.119
			c-0.039,0.509-0.07,1.017-0.135,1.525l-0.026-0.123C115.208,100.109,115.389,100.712,115.527,101.334z"/>
	</g>
	<g>
		<path d="M109.918,99.809c-0.221-0.398-0.333-0.798-0.406-1.196c-0.069-0.399-0.1-0.798-0.087-1.197l0.005-0.132l0.047-0.089
			c0.164-0.303,0.344-0.597,0.57-0.867c0.222-0.273,0.467-0.534,0.794-0.755c0.019,0.394-0.043,0.747-0.128,1.088
			c-0.082,0.343-0.209,0.664-0.354,0.976l0.052-0.221c0.013,0.399-0.018,0.798-0.087,1.197
			C110.251,99.011,110.139,99.41,109.918,99.809z"/>
	</g>
	<g>
		<path d="M123.5,90.15c-0.271,0.309-0.535,0.623-0.814,0.922l-0.039,0.042l-0.067-0.02l-0.673-0.189l-0.336-0.095l-0.169-0.048
			l-0.159-0.035c-0.456-0.094-0.91-0.196-1.361-0.31l0.291-0.092l-0.652,0.875l0.072-0.204l0.1,2.373l0.005,0.138l-0.101,0.129
			l-0.67,0.862l-0.291,0.375l-0.364-0.334l-0.903-0.828l-0.117-0.107l-0.025-0.172l-0.314-2.2l-0.012-0.081l0.018-0.084l0.393-1.906
			l0.014,0.254c-0.494-1.512-0.965-3.032-1.424-4.556l-0.049-0.167l0.063-0.131l1.209-2.495l0.014-0.027l0.003-0.005
			c0.519-0.832,1.07-1.644,1.623-2.456l0.168-0.247l0.069,0.272c0.133,0.518,0.254,1.041,0.368,1.565
			c-0.214-0.492-0.421-0.986-0.616-1.485l0.236,0.026c-0.43,0.882-0.863,1.764-1.328,2.627l0.016-0.031l-0.994,2.588l0.014-0.297
			c0.539,1.498,1.064,3,1.566,4.509l0.042,0.124l-0.026,0.13l-0.395,1.906l0.006-0.165l0.275,2.206l-0.142-0.279l0.867,0.867
			l-0.655,0.041l0.707-0.833l-0.094,0.267l0.099-2.373l0.005-0.129l0.068-0.075l0.724-0.818l0.128-0.145l0.164,0.053
			c0.443,0.144,0.883,0.298,1.32,0.46l0.175,0.065l0.16,0.07l0.32,0.141l0.641,0.28l-0.106,0.022
			C122.854,90.656,123.18,90.406,123.5,90.15z"/>
	</g>
	<g>
		<path d="M116.297,75.917c0.18,0.839,0.168,1.647,0.098,2.447l-0.001-0.155c0.161,0.728,0.267,1.466,0.289,2.217l0.005,0.192
			l-0.051,0.067c-0.319,0.416-0.67,0.813-1.109,1.162c0.074-0.555,0.236-1.061,0.428-1.548l-0.045,0.258
			c-0.228-0.717-0.372-1.448-0.461-2.188l-0.012-0.104l0.012-0.051C115.627,77.432,115.865,76.659,116.297,75.917z"/>
	</g>
	<g>
		<path d="M112.059,94.218c-0.351-1.105-0.58-2.224-0.779-3.345l-0.025-0.138l0.105-0.156c0.367-0.542,0.73-1.088,1.121-1.611
			l-0.082,0.413c-0.217-0.772-0.397-1.553-0.574-2.335l-0.059-0.259l0.164-0.17c0.512-0.532,1.037-1.054,1.58-1.559l-0.07,0.124
			c0.305-0.726,0.623-1.447,1.006-2.148c-0.076,0.795-0.217,1.571-0.372,2.342l-0.009,0.041l-0.061,0.083
			c-0.441,0.596-0.901,1.175-1.373,1.745l0.105-0.429c0.217,0.771,0.43,1.544,0.607,2.325l0.053,0.234l-0.137,0.18
			c-0.395,0.521-0.82,1.02-1.24,1.522l0.08-0.294C112.146,91.922,112.163,93.063,112.059,94.218z"/>
	</g>
	<g>
		<path d="M113.067,94.218c-0.212-0.339-0.322-0.678-0.395-1.017c-0.078-0.34-0.103-0.679-0.104-1.018l0.149,0.354
			c-0.445-0.466-0.842-0.982-1.029-1.71c0.73,0.176,1.254,0.563,1.727,1l0.15,0.139l-0.001,0.217
			c-0.001,0.339-0.025,0.678-0.104,1.018C113.39,93.54,113.279,93.879,113.067,94.218z"/>
	</g>
</g>
</svg>
