<?xml version="1.0" encoding="utf-8"?>
<!-- Generator: Adobe Illustrator 16.0.3, SVG Export Plug-In . SVG Version: 6.00 Build 0)  -->
<!DOCTYPE svg PUBLIC "-//W3C//DTD SVG 1.1//EN" "http://www.w3.org/Graphics/SVG/1.1/DTD/svg11.dtd">
<svg version="1.1" id="Layer_4" xmlns="http://www.w3.org/2000/svg" xmlns:xlink="http://www.w3.org/1999/xlink" x="0px" y="0px"
	 width="192px" height="192px" viewBox="0 0 192 192" enable-background="new 0 0 192 192" xml:space="preserve">
<polygon fill="#45233D" stroke="#45233D" stroke-miterlimit="10" points="157.611,103.6 119.354,108.941 124.011,110.745 
	128.185,112.548 132.971,115.539 139.179,117.979 145.195,117.156 "/>
<polygon fill="#572F5E" stroke="#572F5E" stroke-miterlimit="10" points="149.514,89.892 119.354,107.941 157.611,103.6 "/>
<polygon fill="#572F5E" stroke="#572F5E" stroke-width="0.5" stroke-miterlimit="10" points="159.646,114.069 157.333,103.62 
	143.505,117.901 "/>
<polygon fill="#47234D" stroke="#47234D" stroke-width="0.5" stroke-miterlimit="10" points="164.719,94.746 157.611,103.6 
	159.456,113.088 "/>
<polygon fill="#9C6CA5" stroke="#9C6CA5" stroke-width="0.5" stroke-miterlimit="10" points="149.514,89.892 157.611,103.6 
	165.511,93.574 "/>
<polygon fill="#8D6C93" stroke="#8D6C93" stroke-width="0.5" stroke-miterlimit="10" points="145.416,74.05 148.532,90.082 
	165.805,93.347 "/>
<polygon fill="#9C6CA5" stroke="#9C6CA5" stroke-width="0.5" stroke-miterlimit="10" points="129.354,82.266 148.532,90.082 
	145.416,74.05 "/>
<polygon fill="#4B264C" stroke="#4B264C" stroke-miterlimit="10" points="119.354,107.941 129.354,82.266 148.723,91.064 "/>
<polygon fill="#572F5E" stroke="#572F5E" stroke-miterlimit="10" points="31.192,101.347 28.927,118.142 35.083,116.202 
	42.466,115.241 50.806,114.156 60.545,115.828 69.481,114.609 77.569,114.506 87.766,113.114 96.49,112.925 103.54,110.91 
	111.203,109.244 118.354,108.941 129.354,82.266 "/>
<polygon fill="#8D6C93" stroke="#8D6C93" stroke-width="0.5" stroke-miterlimit="10" points="53.042,86.232 31.192,101.347 
	129.354,82.266 144.434,74.241 "/>
<g>
	<path d="M65.261,97.355c0.731,0.072,1.398,0.277,2.053,0.508c0.654,0.232,1.275,0.532,1.887,0.854l-0.208-0.047
		c0.888,0.052,1.776,0.165,2.665,0.479c-0.888,0.314-1.776,0.428-2.665,0.479l-0.088,0.006l-0.12-0.053
		c-0.633-0.276-1.255-0.575-1.845-0.94C66.352,98.273,65.774,97.881,65.261,97.355z"/>
</g>
<g>
	<path d="M72.724,102.573c-0.598,0.051-1.164-0.007-1.718-0.099c-0.553-0.099-1.096-0.231-1.624-0.409l-0.149-0.05l-0.088-0.109
		c-0.353-0.438-0.658-0.913-0.936-1.411l-0.084-0.15l0.011-0.055c0.075-0.38,0.169-0.761,0.324-1.141
		c0.155,0.38,0.249,0.761,0.324,1.141l-0.073-0.205c0.433,0.372,0.838,0.766,1.197,1.198l-0.237-0.159
		c0.538,0.148,1.062,0.342,1.575,0.569C71.756,101.928,72.256,102.196,72.724,102.573z"/>
</g>
<g>
	<path d="M78.055,98.252l0.069,0.897l0.005,0.065l-0.074,0.004l-3.199,0.184l0.253-0.253l0.086,2.445l0.007,0.205l-0.205,0.104
		l-2.098,1.053l0.246-0.383l0.024,1.304l0.006,0.351l-0.355,0.084l-2.923,0.691l0.124-0.046l-1.852,1.006
		c-0.146,0.08-0.318,0.174-0.475,0.25l-0.471,0.236l-0.941,0.473l-0.107,0.055l-0.115-0.001c-0.977-0.005-1.955-0.009-2.932-0.031
		l0.262-0.083l-1.893,1.266l0.176-0.337l-0.063,1.794l-0.007,0.198l-0.147,0.091c-0.958,0.587-1.902,1.195-2.873,1.765
		c-0.971,0.567-1.931,1.152-2.918,1.696c0.878-0.706,1.785-1.371,2.679-2.054c0.896-0.681,1.817-1.322,2.725-1.985l-0.154,0.289
		l-0.063-1.794l-0.007-0.203l0.183-0.134l1.839-1.342l0.108-0.079l0.154-0.004c0.977-0.022,1.955-0.026,2.932-0.031l-0.222,0.054
		l3.725-1.949l0.063-0.033l0.06-0.013l2.94-0.613l-0.349,0.435l0.024-1.304l0.005-0.283l0.241-0.1l2.166-0.904l-0.198,0.309
		l0.086-2.445l0.01-0.268l0.244,0.015l3.199,0.184l-0.069,0.069L78.055,98.252z"/>
</g>
<g>
	<path d="M79.387,102.573c-0.695-0.375-1.228-0.877-1.712-1.417l0.487,0.174c-0.528,0.146-1.061,0.267-1.61,0.318
		c-0.55,0.047-1.106,0.068-1.696-0.054c0.477-0.366,0.987-0.59,1.503-0.787c0.517-0.192,1.05-0.317,1.588-0.415l0.33-0.06
		l0.157,0.233C78.839,101.168,79.194,101.808,79.387,102.573z"/>
</g>
<g>
	<path d="M72.724,102.573c0.779-0.005,1.52,0.112,2.254,0.254l0.075,0.015l0.115,0.108c0.418,0.393,0.813,0.805,1.194,1.229
		c0.375,0.43,0.737,0.871,1.078,1.332l0.416,0.563l-0.607,0.123c-0.757,0.154-1.521,0.289-2.327,0.288
		c0.66-0.463,1.362-0.79,2.071-1.099l-0.191,0.687c-0.415-0.395-0.807-0.81-1.188-1.235c-0.374-0.432-0.734-0.874-1.071-1.338
		l0.19,0.123C74.046,103.331,73.367,103.013,72.724,102.573z"/>
</g>
<g>
	<path d="M95.912,113.334c-0.779-0.455-1.519-0.96-2.279-1.438l-0.086-0.055l-0.008-0.138l-0.09-1.467l0.193,0.302
		c-1.09-0.437-2.175-0.884-3.251-1.351l0.192,0.042c-1.244,0.03-2.487,0.037-3.731,0.034h-0.067l-0.062-0.017
		c-1.209-0.331-2.414-0.676-3.614-1.041l-0.059-0.018l-0.028-0.017c-0.817-0.465-1.635-0.929-2.441-1.416l0.083,0.029
		c-0.594-0.147-1.185-0.307-1.774-0.477c-0.59-0.165-1.181-0.326-1.767-0.516c0.614,0.042,1.222,0.111,1.832,0.178
		c0.61,0.061,1.218,0.133,1.824,0.217l0.026,0.004l0.057,0.025c0.86,0.382,1.709,0.787,2.558,1.191l-0.087-0.034
		c1.221,0.287,2.436,0.595,3.647,0.916l-0.129-0.017c1.244-0.003,2.487,0.004,3.731,0.034l0.111,0.003l0.082,0.039
		c1.056,0.512,2.103,1.043,3.144,1.585l0.206,0.107l-0.012,0.194l-0.09,1.467l-0.095-0.192
		C94.587,112.119,95.269,112.701,95.912,113.334z"/>
</g>
<g>
	<path d="M80.72,111.866c-0.179-0.384-0.276-0.768-0.355-1.151c-0.071-0.384-0.12-0.768-0.131-1.151l-0.007-0.226l0.212-0.171
		c0.397-0.322,0.836-0.587,1.287-0.835c0.464-0.229,0.939-0.442,1.494-0.542c-0.278,0.491-0.636,0.869-1.005,1.231
		c-0.383,0.343-0.778,0.67-1.213,0.938l0.205-0.396c-0.011,0.384-0.06,0.768-0.131,1.151
		C80.996,111.099,80.899,111.482,80.72,111.866z"/>
</g>
<g>
	<path d="M117.5,102.573c-0.781,0.324-1.566,0.639-2.355,0.941l-0.023,0.01l-0.037-0.003l-3.604-0.303l-3.612-0.268l0.19-0.029
		l-1.846,0.859l0.258-0.394l0.032,2.283l0.004,0.297l-0.281,0.126l-1.857,0.835l-0.168,0.075l-0.181-0.061l-2.403-0.805
		l-0.221-0.073l-0.083-0.221l-0.799-2.119l-0.083-0.222l0.118-0.202l1.075-1.828l0.063,0.573c-1.344-1.459-2.67-2.936-3.989-4.418
		l-0.292-0.328l0.332-0.257l3.051-2.362l0.022-0.017l0.011-0.007c1.35-0.788,2.727-1.531,4.095-2.287L105,92.324l0.056,0.066
		c0.425,0.506,0.836,1.026,1.25,1.542c-0.474-0.462-0.95-0.921-1.413-1.393l0.139,0.02c-1.297,0.874-2.585,1.761-3.901,2.603
		l0.033-0.023l-2.916,2.528l0.04-0.584c1.381,1.425,2.755,2.856,4.11,4.305l0.243,0.261l-0.18,0.313l-1.058,1.839l0.035-0.424
		l0.799,2.12l-0.304-0.293l2.396,0.826l-0.349,0.015l1.875-0.796l-0.277,0.423l0.032-2.283l0.005-0.29l0.253-0.104l1.885-0.769
		l0.102-0.042l0.09,0.012l3.592,0.467c1.211,0.157,2.388,0.394,3.582,0.592l-0.06,0.006
		C115.869,103.021,116.683,102.792,117.5,102.573z"/>
</g>
<g>
	<path d="M97.992,88.877c-0.085,0.873-0.322,1.679-0.601,2.467l-0.005-0.38c0.392,0.681,0.73,1.387,1.013,2.121l0.157,0.409
		l-0.325,0.169c-0.729,0.378-1.48,0.719-2.32,0.921c0.548-0.667,1.183-1.195,1.84-1.687l-0.167,0.577
		c-0.394-0.68-0.731-1.387-1.017-2.119l-0.088-0.227l0.083-0.153C96.961,90.241,97.401,89.525,97.992,88.877z"/>
</g>
<g>
	<path d="M86.517,106.486c-0.253-0.517-0.465-1.047-0.692-1.571c-0.232-0.523-0.426-1.059-0.637-1.589l-0.102-0.256l0.284-0.156
		c1.036-0.567,2.081-1.114,3.139-1.635l-0.187,0.718c-0.545-0.738-1.083-1.482-1.601-2.24l-0.353-0.515l0.569-0.22
		c1.339-0.515,2.694-0.988,4.065-1.42l-0.118,0.084c0.335-0.339,0.68-0.67,1.032-0.994c0.349-0.327,0.695-0.657,1.063-0.967
		c-0.254,0.409-0.529,0.8-0.802,1.193c-0.269,0.396-0.546,0.785-0.833,1.166l-0.031,0.042l-0.086,0.042
		c-1.294,0.628-2.604,1.214-3.931,1.759l0.216-0.734c0.547,0.737,1.075,1.488,1.597,2.244l0.333,0.482l-0.52,0.235
		c-1.074,0.485-2.161,0.944-3.257,1.383l0.182-0.412c0.123,0.557,0.261,1.108,0.363,1.672
		C86.315,105.359,86.437,105.916,86.517,106.486z"/>
</g>
<g>
	<path d="M89.248,106.486c-0.27-0.652-0.378-1.305-0.447-1.957l0.3,0.423c-0.644-0.154-1.266-0.372-1.867-0.649
		c-0.6-0.281-1.185-0.603-1.717-1.077c0.712-0.04,1.37,0.073,2.014,0.227c0.643,0.157,1.265,0.374,1.864,0.654l0.329,0.154
		l-0.029,0.269C89.626,105.182,89.518,105.834,89.248,106.486z"/>
</g>
<polygon opacity="0.8" fill="#4B264C" stroke="#45233D" stroke-width="0.5" stroke-miterlimit="10" points="28.927,118.142 
	45.25,129 152.75,136.565 182.576,129.75 159.646,114.069 143.505,117.901 139.179,117.979 132.971,115.539 128.185,112.548 
	119.354,108.941 112.248,109.2 104.228,110.761 97.992,113.334 90.5,113.334 87.766,113.114 80.72,114.076 74.923,114.54 
	65.261,115.185 60.545,115.828 50.806,114.156 40.468,115.501 "/>
</svg>
