<?xml version="1.0" encoding="utf-8"?>
<!-- Generator: Adobe Illustrator 16.0.3, SVG Export Plug-In . SVG Version: 6.00 Build 0)  -->
<!DOCTYPE svg PUBLIC "-//W3C//DTD SVG 1.1//EN" "http://www.w3.org/Graphics/SVG/1.1/DTD/svg11.dtd">
<svg version="1.1" xmlns="http://www.w3.org/2000/svg" xmlns:xlink="http://www.w3.org/1999/xlink" x="0px" y="0px" width="192px"
	 height="192px" viewBox="0 0 192 192" enable-background="new 0 0 192 192" xml:space="preserve">
<g id="Layer_1">
	<rect fill="#4B264C" stroke="#572F5E" stroke-miterlimit="10" width="192" height="192"/>
	<rect y="0.25" fill="#8D6C93" stroke="#8D6C93" stroke-miterlimit="10" width="192" height="96"/>
	<rect y="97.25" opacity="0.5" fill="#62376A" stroke="#572F5E" stroke-miterlimit="10" width="192" height="20"/>
	<rect y="118" fill="#45233D" stroke="#47234D" stroke-miterlimit="10" width="192" height="5"/>
	<path fill="#572F5E" stroke="#572F5E" stroke-miterlimit="10" d="M223.75,46.75"/>
</g>
<g id="Layer_2">
	<polygon fill="#F8A273" stroke="#F8A273" stroke-miterlimit="10" points="70.892,154.071 53.5,173.589 36.108,154.071 
		53.5,134.554 	"/>
	<polygon fill="#FBB040" stroke="#FBB040" stroke-width="0.5" stroke-miterlimit="10" points="53.5,160.071 53.5,134.554 
		70.892,154.071 	"/>
	<polygon fill="#F7941E" stroke="#F7941E" stroke-width="0.5" stroke-miterlimit="10" points="53.675,160.875 53.675,174.393 
		36.283,154.875 	"/>
	<polygon fill="#F15A29" stroke="#F15A29" stroke-width="0.5" stroke-miterlimit="10" points="53.5,160.875 53.5,174.393 
		70.892,154.875 	"/>
	<path fill="#F8A273" stroke="#F8A273" stroke-miterlimit="10" d="M139,176.589"/>
	<path fill="#F7941E" stroke="#F7941E" stroke-width="0.5" stroke-miterlimit="10" d="M139.176,176.393"/>
	<path fill="#F15A29" stroke="#F15A29" stroke-width="0.5" stroke-miterlimit="10" d="M139,176.393"/>
	<polygon fill="#F8A273" stroke="#F8A273" stroke-miterlimit="10" points="151.374,161.294 130.856,177.495 117.117,155.254 
		137.635,139.053 	"/>
	<polygon fill="#FBB040" stroke="#FBB040" stroke-width="0.5" stroke-miterlimit="10" points="133.204,164.183 137.635,139.053 
		151.374,161.294 	"/>
	<polygon fill="#F7941E" stroke="#F7941E" stroke-width="0.5" stroke-miterlimit="10" points="133.237,165.005 130.89,178.316 
		117.15,156.075 	"/>
	<polygon fill="#F15A29" stroke="#F15A29" stroke-width="0.5" stroke-miterlimit="10" points="133.064,164.974 130.717,178.286 
		151.234,162.085 	"/>
</g>
<g id="Layer_3">
	<polygon opacity="0.5" fill="#45233D" stroke="#45233D" stroke-width="0.5" stroke-miterlimit="10" points="71.892,154.071 
		53.5,161.071 35.283,154.071 53.675,186.25 	"/>
	<polygon opacity="0.5" fill="#45233D" stroke="#45233D" stroke-width="0.5" stroke-miterlimit="10" points="151.305,161.911 
		132.912,164.911 116.695,154.911 133.088,190.09 	"/>
	<polygon fill="#62376A" stroke="#62376A" stroke-width="0.5" stroke-miterlimit="10" points="0,97.25 192,97.25 187.5,93.5 
		4.25,92.5 	"/>
	<polygon fill="#6C4C72" stroke="#6C4C72" stroke-width="0.5" stroke-miterlimit="10" points="192,0.25 192,97.25 187.5,93.5 
		187.5,4.25 	"/>
	<polyline fill="#6C4C72" stroke="#6C4C72" stroke-width="0.5" stroke-miterlimit="10" points="0,97.25 0,0.25 3.75,4.25 4.25,92.5 
			"/>
</g>
<g id="Layer_4">
	<g>
		<path d="M126.666,18.333c0.94,0.405,1.784,0.932,2.606,1.486c0.822,0.555,1.597,1.17,2.349,1.814l-0.287-0.099
			c1.11,0.06,2.222,0.175,3.332,0.465c-1.11,0.29-2.222,0.405-3.332,0.465l-0.139,0.007l-0.148-0.107
			c-0.805-0.578-1.586-1.184-2.319-1.852C127.994,19.846,127.282,19.151,126.666,18.333z"/>
	</g>
	<g>
		<path d="M136,29c-0.752-0.163-1.464-0.406-2.165-0.67c-0.702-0.262-1.384-0.566-2.055-0.89l-0.141-0.068l-0.079-0.152
			c-0.461-0.881-0.876-1.784-1.233-2.716l-0.046-0.118l0.006-0.052c0.075-0.778,0.18-1.556,0.379-2.333
			c0.199,0.778,0.304,1.556,0.379,2.333l-0.04-0.169c0.532,0.845,1.006,1.719,1.435,2.616l-0.22-0.22
			c0.662,0.343,1.314,0.706,1.945,1.11C134.797,28.073,135.418,28.497,136,29z"/>
	</g>
	<g>
		<path d="M142.666,20.167L142.754,22l0.004,0.084l-0.092,0.003l-4,0.149L138.903,22l0.118,5l0.004,0.17l-0.146,0.115l-2.624,2.055
			l0.17-0.34l0.021,2.667l0.002,0.308l-0.295,0.11l-3.656,1.361l0.15-0.089l-2.299,2.041l-0.288,0.254l-0.305,0.253l-0.594,0.488
			l-1.188,0.975l-0.137,0.112l-0.17-0.001L124,37.452l0.34-0.154l-2.354,2.649l0.105-0.28l-0.078,3.667l-0.003,0.143l-0.088,0.091
			c-1.2,1.247-2.381,2.512-3.598,3.744c-1.218,1.231-2.42,2.477-3.658,3.689c1.095-1.343,2.227-2.653,3.342-3.978
			c1.117-1.323,2.27-2.614,3.402-3.923l-0.091,0.234l-0.078-3.667l-0.003-0.154l0.108-0.126l2.313-2.684l0.132-0.153L124,36.548
			l3.666-0.028l-0.307,0.111l2.333-1.983l2.329-2.006l0.07-0.061l0.08-0.028l3.676-1.306l-0.293,0.418L135.575,29l0.001-0.219
			l0.169-0.121l2.707-1.944L138.311,27l0.118-5l0.006-0.246l0.231,0.009l4,0.149L142.578,22L142.666,20.167z"/>
	</g>
	<g>
		<path d="M144.334,29c-0.456-0.499-0.828-1.037-1.175-1.587c-0.35-0.549-0.653-1.121-0.94-1.7l0.621,0.251
			c-0.664,0.257-1.341,0.48-2.033,0.662c-0.691,0.183-1.397,0.327-2.141,0.374c0.591-0.453,1.218-0.809,1.859-1.126
			c0.641-0.318,1.298-0.594,1.967-0.837l0.435-0.158l0.187,0.409c0.269,0.588,0.521,1.183,0.728,1.801
			C144.051,27.704,144.234,28.332,144.334,29z"/>
	</g>
	<g>
		<path d="M136,29c0.98,0.261,1.917,0.609,2.839,0.988l0.085,0.035l0.082,0.127c0.543,0.837,1.035,1.702,1.516,2.572
			c0.469,0.877,0.921,1.763,1.327,2.673l0.176,0.394l-0.343,0.147c-0.95,0.408-1.917,0.782-2.932,1.064
			c0.819-0.662,1.685-1.233,2.568-1.769l-0.167,0.541c-0.539-0.839-1.031-1.704-1.507-2.577c-0.464-0.879-0.916-1.765-1.318-2.678
			l0.167,0.162C137.638,30.168,136.797,29.628,136,29z"/>
	</g>
	<g>
		<path d="M165,51c-0.492-0.518-0.972-1.045-1.446-1.577s-0.959-1.055-1.425-1.594l-0.054-0.063l-0.004-0.101l-0.106-3l0.147,0.294
			c-1.376-0.943-2.719-1.931-4.067-2.91l0.288,0.096c-1.556,0.007-3.11,0.028-4.666,0.01l-0.106-0.001l-0.092-0.04
			c-1.513-0.668-3.013-1.366-4.514-2.062l-0.066-0.031l-0.038-0.035l-3.031-2.777l0.097,0.054c-0.743-0.255-1.477-0.544-2.214-0.823
			c-0.736-0.278-1.473-0.559-2.202-0.859c0.771,0.171,1.534,0.363,2.298,0.557c0.763,0.194,1.529,0.377,2.286,0.594l0.046,0.013
			l0.051,0.041l3.221,2.556l-0.104-0.065c1.526,0.637,3.054,1.274,4.567,1.938l-0.197-0.042c1.556-0.018,3.11,0.003,4.666,0.01
			l0.165,0.001l0.124,0.095c1.317,1.021,2.641,2.034,3.932,3.09l0.153,0.125l-0.006,0.169l-0.106,3l-0.058-0.163
			c0.424,0.572,0.827,1.161,1.242,1.74C164.194,49.823,164.603,50.407,165,51z"/>
	</g>
	<g>
		<path d="M146,48c-0.392-1.57-0.48-3.139-0.499-4.709l-0.002-0.185l0.123-0.141c1.05-1.202,2.16-2.352,3.504-3.299
			c-0.74,1.469-1.714,2.736-2.748,3.951l0.121-0.326C146.48,44.861,146.392,46.431,146,48z"/>
	</g>
	<g>
		<path d="M188,29l-2.942,1.771l-0.034,0.021l-0.048-0.008l-2.254-0.402l-1.127-0.201c-0.384-0.071-0.74-0.133-1.121-0.18
			l-4.528-0.673l0.248-0.058l-2.304,1.708l0.16-0.312c0.034,1.556,0.049,3.111,0.054,4.667v0.223l-0.183,0.132l-2.324,1.681
			l-0.23,0.166l-0.253-0.139l-3.01-1.649l-0.183-0.1l-0.049-0.208l-1.025-4.327l-0.033-0.142l0.05-0.138l1.354-3.743l0.035,0.396
			l-2.506-4.473l-2.498-4.478l-0.133-0.238l0.161-0.207l3.819-4.934l0.016-0.021l0.012-0.012c1.688-1.645,3.41-3.257,5.125-4.875
			l0.119-0.112l0.07,0.139L174,11.333l-1.771-2.942l0.189,0.027c-1.619,1.715-3.23,3.436-4.875,5.125l0.027-0.032l-3.642,5.066
			l0.028-0.445l2.566,4.438l2.559,4.443l0.107,0.187l-0.072,0.209l-1.313,3.757l0.016-0.279l0.975,4.339l-0.231-0.307l2.99,1.685
			l-0.483,0.027l2.344-1.653l-0.183,0.355c0.005-1.556,0.02-3.111,0.054-4.667l0.005-0.204l0.155-0.107l2.362-1.625l0.118-0.082
			l0.13,0.024l4.502,0.833c0.374,0.066,0.765,0.159,1.127,0.248l1.113,0.266l2.228,0.532l-0.082,0.012L188,29z"/>
	</g>
	<g>
		<path d="M158.603,6c-0.139,1.633-0.448,3.219-0.816,4.79l-0.003-0.255c0.463,1.433,0.882,2.878,1.225,4.347l0.063,0.266
			l-0.165,0.148c-0.927,0.832-1.866,1.65-2.905,2.372c0.696-1.056,1.491-2.015,2.3-2.961l-0.103,0.414
			c-0.504-1.421-0.931-2.864-1.314-4.32l-0.037-0.142l0.034-0.113C157.358,9.003,157.895,7.478,158.603,6z"/>
	</g>
	<g>
		<path d="M158.25,41c-0.316-1.091-0.572-2.193-0.859-3.289l-0.761-3.308l-0.048-0.209l0.188-0.159
			c1.289-1.084,2.608-2.131,3.933-3.17l-0.189,0.385c-0.021-1.528-0.007-3.056,0.014-4.583l0.003-0.192l0.122-0.129
			c1.019-1.067,2.063-2.108,3.122-3.138l-0.046,0.065c0.416-0.722,0.834-1.442,1.277-2.149c0.438-0.711,0.867-1.425,1.327-2.124
			c-0.317,0.773-0.665,1.532-1.006,2.293c-0.334,0.765-0.693,1.517-1.056,2.267l-0.011,0.022l-0.035,0.042
			c-0.941,1.137-1.896,2.262-2.878,3.362l0.125-0.32c0.021,1.528,0.034,3.056,0.014,4.583l-0.004,0.244l-0.186,0.141
			c-1.343,1.017-2.69,2.026-4.067,2.997l0.141-0.367l0.489,3.359C157.989,38.749,158.149,39.869,158.25,41z"/>
	</g>
	<g>
		<path d="M156.666,34c-0.179-0.667-0.274-1.333-0.354-2c-0.071-0.667-0.119-1.333-0.132-2l0.245,0.422
			c-0.794-0.417-1.554-0.892-2.302-1.388c-0.737-0.515-1.465-1.047-2.123-1.701c0.897,0.235,1.725,0.592,2.543,0.965
			c0.807,0.394,1.603,0.807,2.364,1.279l0.25,0.155L157.152,30c-0.013,0.667-0.061,1.333-0.132,2
			C156.94,32.667,156.845,33.333,156.666,34z"/>
	</g>
	<g>
		<path d="M0,66.675c0.572-0.179,1.146-0.312,1.723-0.422c0.577-0.114,1.154-0.208,1.734-0.279c1.158-0.156,2.322-0.238,3.489-0.274
			l-0.291,0.133c0.937-0.849,1.909-1.661,3.002-2.352c-0.691,1.093-1.503,2.066-2.352,3.002l-0.101,0.111l-0.191,0.022
			c-1.16,0.136-2.322,0.226-3.491,0.243c-0.584,0.015-1.169,0.007-1.756-0.021C1.18,66.814,0.592,66.768,0,66.675z"/>
	</g>
	<g>
		<path d="M16.897,68.58c-0.778,0.418-1.58,0.754-2.387,1.072c-0.809,0.311-1.625,0.6-2.452,0.847l-0.148,0.044l-0.16-0.056
			c-1.149-0.402-2.276-0.863-3.385-1.374l-0.103-0.047l-0.036-0.042c-0.633-0.738-1.243-1.5-1.782-2.331
			c0.832,0.54,1.593,1.148,2.331,1.782l-0.139-0.089c1.172,0.342,2.325,0.733,3.456,1.184l-0.308-0.011
			c0.831-0.236,1.674-0.43,2.523-0.603C15.16,68.791,16.017,68.645,16.897,68.58z"/>
	</g>
	<g>
		<path d="M14.466,55.439l1.681,1.552l0.065,0.06l-0.065,0.069l-3.113,3.312v-0.329l4.495,4.319l0.117,0.112l-0.014,0.175
			l-0.312,3.911l-0.123-0.342l2.364,2.334l0.213,0.21l-0.119,0.281l-1.743,4.131l0.039-0.177L17.9,78.697l-0.007,0.455l-0.021,0.466
			l-0.046,0.909l-0.093,1.817l-0.01,0.189l-0.13,0.129l-2.964,2.926l0.13-0.371l0.45,4.228l-0.122-0.254l3.176,3.287l0.092,0.096
			l0.008,0.119c0.144,2.067,0.313,4.132,0.435,6.201c0.12,2.07,0.261,4.138,0.354,6.21c-0.286-2.055-0.523-4.113-0.781-6.17
			c-0.256-2.058-0.465-4.119-0.7-6.178l0.101,0.214l-3.287-3.176l-0.104-0.101l-0.018-0.153l-0.504-4.222l-0.025-0.214l0.155-0.157
			l2.926-2.963l-0.14,0.317l0.13-3.625l0.097-3.638l0.003-0.095l0.036-0.083l1.795-4.108l0.095,0.491l-2.334-2.364l-0.145-0.147
			l0.022-0.195l0.445-3.898l0.104,0.288l-4.318-4.496l-0.166-0.173l0.166-0.156l3.313-3.112v0.129L14.466,55.439z"/>
	</g>
	<g>
		<path d="M23.59,61.887c-1.617-0.221-3.125-0.719-4.606-1.283l0.643-0.271c-0.318,0.755-0.655,1.501-1.042,2.227
			c-0.382,0.728-0.799,1.441-1.309,2.116c0.12-0.837,0.333-1.635,0.582-2.419c0.243-0.786,0.537-1.551,0.849-2.308l0.189-0.457
			l0.454,0.186C20.817,60.277,22.258,60.943,23.59,61.887z"/>
	</g>
	<g>
		<path d="M16.897,68.58c1.05-0.514,2.126-0.938,3.21-1.333l0.09-0.033l0.139,0.038c2.35,0.639,4.654,1.415,6.906,2.342l0.362,0.149
			l-0.112,0.325c-0.39,1.133-0.815,2.256-1.336,3.353c0.119-1.208,0.334-2.39,0.583-3.562l0.25,0.474
			c-2.35-0.641-4.647-1.433-6.899-2.361l0.229,0.005C19.194,68.228,18.059,68.449,16.897,68.58z"/>
	</g>
	<g>
		<path d="M59.579,64.677c-0.856-0.071-1.71-0.158-2.563-0.252c-0.853-0.095-1.708-0.172-2.559-0.282l-0.078-0.01l-0.068-0.064
			l-2.726-2.563l0.304,0.109c-1.945,0.258-3.896,0.46-5.845,0.672l0.294-0.139c-1.243,1.256-2.482,2.515-3.744,3.752l-0.082,0.081
			l-0.104,0.036c-1.804,0.627-3.618,1.221-5.431,1.821l-0.07,0.023l-0.055,0l-4.865,0.013l0.111-0.027
			c-0.819,0.376-1.655,0.718-2.484,1.075c-0.829,0.356-1.66,0.709-2.499,1.043c0.781-0.454,1.572-0.889,2.364-1.322
			c0.792-0.432,1.577-0.879,2.379-1.29l0.045-0.023l0.066-0.004l4.855-0.309l-0.125,0.023c1.793-0.657,3.584-1.318,5.387-1.948
			l-0.185,0.116c1.238-1.261,2.498-2.5,3.753-3.743l0.126-0.125l0.169-0.014c1.954-0.167,3.907-0.344,5.865-0.465l0.19-0.012
			l0.114,0.121l2.565,2.724l-0.146-0.074c0.843,0.155,1.681,0.344,2.522,0.515C57.902,64.305,58.742,64.482,59.579,64.677z"/>
	</g>
	<g>
		<path d="M41.675,77.293c-1.665-1.102-3.112-2.422-4.505-3.797l-0.124-0.122l-0.019-0.172c-0.21-1.904-0.35-3.816-0.188-5.765
			c0.618,1.855,0.934,3.747,1.179,5.646l-0.143-0.293C39.251,74.182,40.572,75.629,41.675,77.293z"/>
	</g>
	<g>
		<path d="M55.875,30.602l-0.829,3.906l-0.009,0.043l-0.042,0.028L52.82,36.02l-1.088,0.72c-0.372,0.243-0.716,0.472-1.065,0.735
			l-4.247,3.03l0.137-0.226L46.2,43.627l-0.106-0.308c1.393,1.349,2.784,2.7,4.156,4.069l0.148,0.148l-0.024,0.211l-0.388,3.346
			l-0.036,0.309l-0.305,0.075l-3.874,0.958l-0.195,0.048l-0.173-0.111l-4.637-2.993l-0.111-0.072l-0.06-0.119l-2.217-4.384
			l0.282,0.239l-11.905-3.857l-0.236-0.077l-0.042-0.237l-1.3-7.423l-0.004-0.025l-0.001-0.017c-0.1-2.809-0.154-5.621-0.216-8.431
			l-0.004-0.181l0.164,0.059l3.945,1.421l-4.021-1.19l0.16-0.121c0.199,2.804,0.406,5.608,0.567,8.415l-0.005-0.042l1.52,7.381
			l-0.278-0.313l11.947,3.724l0.189,0.059l0.093,0.18l2.249,4.368l-0.171-0.19l4.608,3.038l-0.367-0.063l3.883-0.92l-0.341,0.383
			l0.42-3.342l0.124,0.358c-1.37-1.372-2.72-2.764-4.069-4.156l-0.13-0.134l0.023-0.174l0.456-3.336l0.02-0.149l0.117-0.078
			l4.338-2.899c0.358-0.244,0.749-0.478,1.117-0.693l1.121-0.667l2.242-1.334l-0.051,0.071L55.875,30.602z"/>
	</g>
	<g>
		<path d="M30.602,32.521c0.304,0.83,0.561,1.669,0.818,2.508c0.251,0.841,0.476,1.687,0.695,2.534l-0.257-0.308
			c2.314,0.849,4.596,1.777,6.833,2.813l0.257,0.119l0,0.242c0.002,0.742,0.001,1.485-0.021,2.229
			c-0.038,0.745-0.057,1.488-0.134,2.235c-0.164-0.733-0.269-1.469-0.394-2.205c-0.109-0.736-0.197-1.474-0.281-2.211l0.257,0.36
			c-2.322-0.831-4.599-1.77-6.844-2.787l-0.223-0.101l-0.035-0.208c-0.145-0.863-0.284-1.728-0.398-2.598
			C30.77,34.273,30.663,33.402,30.602,32.521z"/>
	</g>
	<g>
		<path d="M37.802,61.775c-1.212-0.72-2.386-1.492-3.581-2.236l-3.52-2.322l-0.172-0.114l0.012-0.231
			c0.102-1.982,0.238-3.961,0.393-5.938l0.292,0.487c-1.89-0.792-3.766-1.616-5.643-2.439l-0.348-0.153l0.065-0.367
			c0.407-2.29,0.849-4.573,1.32-6.852l0.013,0.153c-0.307-0.971-0.614-1.943-0.891-2.924c-0.284-0.979-0.577-1.956-0.836-2.944
			c0.413,0.934,0.794,1.88,1.183,2.822c0.396,0.94,0.762,1.891,1.128,2.841l0.025,0.064l-0.012,0.089
			c-0.297,2.308-0.624,4.61-0.984,6.908l-0.283-0.52c1.887,0.799,3.774,1.597,5.647,2.427l0.323,0.143l-0.031,0.344
			c-0.175,1.976-0.369,3.95-0.597,5.921l-0.161-0.345l3.359,2.549C35.602,60.02,36.721,60.871,37.802,61.775z"/>
	</g>
	<g>
		<path d="M40.545,59.031c-0.718-0.457-1.375-0.974-2.019-1.506c-0.639-0.536-1.26-1.09-1.852-1.672l0.455,0.131
			c-1.011,0.258-2.035,0.455-3.065,0.628c-1.034,0.155-2.074,0.286-3.142,0.292c0.964-0.459,1.957-0.794,2.956-1.105
			c1.002-0.292,2.011-0.562,3.033-0.769l0.272-0.056l0.184,0.187c0.583,0.592,1.137,1.213,1.672,1.852
			C39.571,57.656,40.089,58.313,40.545,59.031z"/>
	</g>
	<g>
		<path d="M84.819,175.405c0.275-0.378,0.578-0.72,0.895-1.042c0.315-0.325,0.641-0.636,0.983-0.926
			c0.674-0.592,1.391-1.127,2.14-1.619l-0.175,0.285c0.226-0.907,0.498-1.807,0.935-2.677c0.112,0.967,0.061,1.905-0.038,2.835
			l-0.016,0.148l-0.159,0.137c-0.681,0.582-1.395,1.121-2.151,1.604c-0.374,0.247-0.763,0.474-1.163,0.687
			C85.671,175.051,85.259,175.246,84.819,175.405z"/>
	</g>
	<g>
		<path d="M96.684,169.539c-0.29,0.61-0.643,1.167-1.007,1.712c-0.372,0.54-0.76,1.065-1.177,1.566l-0.093,0.112l-0.167,0.045
			c-0.932,0.246-1.881,0.42-2.839,0.551l-0.113,0.016l-0.043-0.012c-0.753-0.207-1.5-0.45-2.23-0.795
			c0.803-0.074,1.588-0.048,2.367,0.016l-0.156,0.004c0.921-0.295,1.852-0.548,2.799-0.729l-0.26,0.157
			c0.434-0.486,0.896-0.948,1.375-1.396C95.624,170.347,96.123,169.916,96.684,169.539z"/>
	</g>
	<g>
		<path d="M88.956,162.493l1.823,0.227l0.089,0.011l-0.013,0.098l-0.451,3.33l-0.186-0.266c1.652,0.233,3.298,0.493,4.948,0.739
			l0.151,0.022l0.093,0.143l1.637,2.517l-0.289-0.195l2.632,0.43l0.295,0.048l0.074,0.299l0.803,3.258l-0.08-0.174l1.662,2.253
			l0.207,0.281l0.208,0.298l0.396,0.576l0.794,1.153l0.115,0.168l-0.035,0.196l-0.551,3.029l-0.124-0.408l2.255,2.421l-0.236-0.126
			l3.598,0.718l0.124,0.024l0.072,0.083c1.055,1.218,2.128,2.418,3.167,3.649c1.036,1.233,2.089,2.452,3.105,3.705
			c-1.16-1.12-2.284-2.274-3.423-3.414c-1.138-1.142-2.241-2.314-3.363-3.47l0.196,0.107l-3.626-0.556l-0.133-0.021l-0.104-0.106
			l-2.315-2.363l-0.165-0.168l0.041-0.24l0.518-3.035l0.08,0.364l-0.803-1.146l-0.804-1.132l-1.643-2.268l-0.06-0.081l-0.021-0.093
			l-0.754-3.27l0.369,0.347l-2.62-0.496l-0.196-0.037l-0.093-0.159l-1.522-2.588l0.243,0.165c-1.634-0.334-3.27-0.651-4.902-0.997
			l-0.233-0.05l0.047-0.216l0.717-3.283l0.076,0.108L88.956,162.493z"/>
	</g>
	<g>
		<path d="M97.898,162.647c-1.148,0.646-2.36,0.991-3.587,1.26l0.382-0.609c0.281,1.193,0.492,2.404,0.41,3.688
			c-0.679-1.094-1.063-2.261-1.379-3.446l-0.135-0.507l0.517-0.103C95.339,162.685,96.587,162.515,97.898,162.647z"/>
	</g>
	<g>
		<path d="M96.684,169.539c0.42-0.785,0.909-1.511,1.419-2.219l0.051-0.069l0.141-0.049c1.821-0.632,3.68-1.117,5.58-1.44
			l0.365-0.062l0.089,0.294c0.262,0.866,0.493,1.746,0.635,2.66c-0.521-0.765-0.951-1.565-1.352-2.378l0.454,0.231
			c-1.822,0.63-3.685,1.099-5.586,1.421l0.191-0.118C98.045,168.419,97.399,169.009,96.684,169.539z"/>
	</g>
	<g>
		<path d="M122.578,149.379c-0.586,0.33-1.18,0.643-1.775,0.951c-0.597,0.306-1.185,0.633-1.788,0.922l-0.065,0.031l-0.091-0.013
			l-2.975-0.403l0.308-0.078c-1.144,0.975-2.308,1.923-3.479,2.862l0.178-0.297c-0.216,1.288-0.434,2.576-0.676,3.86l-0.022,0.121
			l-0.072,0.093c-0.878,1.135-1.785,2.248-2.686,3.365l-0.049,0.061l-0.046,0.029l-3.166,1.998l0.08-0.085
			c-0.357,0.57-0.753,1.118-1.128,1.678c-0.377,0.558-0.759,1.114-1.156,1.66c0.286-0.612,0.588-1.215,0.895-1.815
			c0.309-0.599,0.597-1.209,0.923-1.798l0.024-0.044l0.056-0.041l2.996-2.246l-0.095,0.09c0.854-1.154,1.702-2.313,2.578-3.449
			l-0.095,0.214c0.211-1.289,0.446-2.574,0.684-3.858l0.035-0.187l0.143-0.11c1.188-0.918,2.383-1.827,3.598-2.71l0.152-0.111
			l0.155,0.033l2.934,0.64l-0.155,0.019c0.619-0.254,1.256-0.469,1.884-0.705C121.31,149.82,121.94,149.592,122.578,149.379z"/>
	</g>
	<g>
		<path d="M116.854,164.569c-0.81,0.072-1.602,0.045-2.388-0.021c-0.786-0.06-1.563-0.172-2.336-0.307l-0.163-0.028l-0.108-0.115
			c-1.024-1.086-1.997-2.221-2.757-3.562c1.316,0.802,2.419,1.811,3.472,2.868l-0.271-0.144c0.772,0.138,1.541,0.298,2.301,0.511
			C115.363,163.979,116.117,164.225,116.854,164.569z"/>
	</g>
	<g>
		<path d="M104.849,123.232l1.309,2.725l0.02,0.042l-0.02,0.05l-0.73,1.794l-0.365,0.896c-0.127,0.307-0.239,0.585-0.343,0.894
			l-1.327,3.636l-0.022-0.272l1.343,2.193l-0.249-0.174c1.536,0.243,3.076,0.474,4.608,0.743l0.194,0.034l0.103,0.173l1.315,2.211
			l0.17,0.287l-0.231,0.248l-2.065,2.204l-0.132,0.141l-0.199,0.005l-4.412,0.102l-0.118,0.003l-0.112-0.055
			c-1.172-0.573-2.328-1.179-3.492-1.767l0.343,0.033l-9.536,2.572l-0.224,0.061l-0.161-0.151l-4.305-4.037l-0.019-0.018
			l-0.01-0.012c-1.375-1.688-2.716-3.402-4.062-5.114l-0.123-0.156l0.186-0.042l3.229-0.739l-3.166,0.978l0.063-0.198
			c1.451,1.623,2.906,3.242,4.328,4.89l-0.028-0.029l4.456,3.869l-0.385-0.091l9.499-2.707l0.177-0.051l0.168,0.084
			c1.167,0.582,2.345,1.145,3.505,1.741l-0.229-0.052l4.413-0.047l-0.331,0.146l2.093-2.179l-0.062,0.535l-1.286-2.228l0.297,0.206
			c-1.532-0.271-3.057-0.581-4.584-0.878l-0.172-0.033l-0.079-0.141l-1.258-2.242l-0.078-0.139l0.056-0.135l1.477-3.578
			c0.12-0.297,0.269-0.608,0.406-0.89l0.42-0.872l0.84-1.744v0.091L104.849,123.232z"/>
	</g>
	<g>
		<path d="M73.717,138.545c1.586,0.344,3.103,0.854,4.593,1.425l-0.215-0.036c0.741-0.063,1.482-0.137,2.225-0.167
			c0.743-0.046,1.487-0.061,2.232-0.068l0.23-0.003l0.109,0.145c0.691,0.921,1.357,1.864,1.934,2.883
			c-0.919-0.725-1.751-1.525-2.557-2.348l0.338,0.142c-0.74,0.091-1.479,0.176-2.221,0.229c-0.741,0.069-1.485,0.095-2.228,0.131
			l-0.125,0.007l-0.091-0.043C76.495,140.171,75.071,139.441,73.717,138.545z"/>
	</g>
	<g>
		<path d="M107.077,156.664c-1.126,0.095-2.252,0.123-3.378,0.188l-3.375,0.078l-0.19,0.005l-0.131-0.185
			c-0.441-0.62-0.857-1.256-1.281-1.887c-0.426-0.63-0.845-1.265-1.255-1.904l0.496,0.217c-1.599,0.308-3.203,0.577-4.807,0.852
			l-0.352,0.06l-0.157-0.309c-0.802-1.578-1.576-3.171-2.324-4.777l0.102,0.112c-0.65-0.476-1.301-0.95-1.934-1.452
			c-0.636-0.495-1.278-0.983-1.9-1.501c0.714,0.381,1.408,0.791,2.107,1.194c0.703,0.396,1.388,0.82,2.074,1.242l0.055,0.034
			l0.047,0.08c0.9,1.526,1.774,3.066,2.621,4.622l-0.508-0.249c1.6-0.298,3.198-0.601,4.804-0.865l0.324-0.054l0.172,0.271
			c0.407,0.642,0.808,1.288,1.199,1.938c0.395,0.65,0.797,1.295,1.173,1.956l-0.321-0.18l3.371,0.202
			C104.831,156.458,105.955,156.528,107.077,156.664z"/>
	</g>
	<g>
		<path d="M107.576,153.84c-0.689,0.072-1.363,0.056-2.034,0.017c-0.67-0.037-1.332-0.121-1.99-0.227l0.438-0.142
			c-0.539,0.578-1.113,1.121-1.712,1.641c-0.604,0.513-1.234,1.003-1.946,1.411c0.39-0.723,0.862-1.365,1.359-1.983
			c0.503-0.612,1.03-1.2,1.594-1.754l0.192-0.188l0.246,0.047c0.654,0.126,1.306,0.273,1.948,0.468
			C106.313,153.321,106.953,153.536,107.576,153.84z"/>
	</g>
</g>
</svg>
