<?xml version="1.0" encoding="utf-8"?>
<!-- Generator: Adobe Illustrator 16.0.3, SVG Export Plug-In . SVG Version: 6.00 Build 0)  -->
<!DOCTYPE svg PUBLIC "-//W3C//DTD SVG 1.1//EN" "http://www.w3.org/Graphics/SVG/1.1/DTD/svg11.dtd">
<svg version="1.1" id="Layer_4" xmlns="http://www.w3.org/2000/svg" xmlns:xlink="http://www.w3.org/1999/xlink" x="0px" y="0px"
	 width="411px" height="441px" viewBox="0 0 411 441" enable-background="new 0 0 411 441" xml:space="preserve">
<g>
	<polygon fill="#AF8AB6" stroke="#AF8AB6" stroke-miterlimit="10" points="264.464,373.777 212.218,235.079 161.942,373.777 
		212.788,426.413 	"/>
	<polygon fill="#5E3965" stroke="#5E3965" stroke-miterlimit="10" points="211.735,387.717 161.942,372.834 184.174,310.942 
		212.218,354.89 	"/>
	<polygon fill="#512B58" stroke="#49274F" stroke-miterlimit="10" points="264.464,373.777 211.735,387.717 212.218,354.89 
		240.795,310.942 	"/>
	<polygon fill="#49274F" stroke="#49274F" stroke-miterlimit="10" points="212.788,426.413 161.942,372.834 211.735,387.717 	"/>
	<polygon fill="#2C003E" stroke="#2C003E" stroke-miterlimit="10" points="264.464,373.777 211.735,387.717 212.788,426.413 	"/>
</g>
<path fill="#8D6692" stroke="#AF8AB6" stroke-miterlimit="10" d="M303.092,163.802"/>
<g>
	<polygon fill="#AF8AB6" stroke="#AF8AB6" stroke-miterlimit="10" points="297.643,219.874 209.906,360.459 120.199,219.874 
		210.477,169.125 	"/>
	<polygon fill="#2C003E" stroke="#2C003E" stroke-miterlimit="10" points="120.199,219.874 209.906,256.365 209.906,360.459 	"/>
	<polygon fill="#5E3965" stroke="#5E3965" stroke-miterlimit="10" points="297.643,219.874 209.906,256.365 209.906,360.459 	"/>
	<polygon stroke="#000000" stroke-miterlimit="10" points="181.897,256.365 208.921,301.758 236.953,256.365 	"/>
	<polygon fill="#8D6692" stroke="#AF8AB6" stroke-miterlimit="10" points="192.968,143.274 179.047,186.793 210.924,196.834 
		210.346,164.816 	"/>
	<polygon fill="#8D6692" stroke="#AF8AB6" stroke-miterlimit="10" points="240.604,186.664 210.924,196.834 210.346,164.816 
		227.641,143.274 	"/>
	<ellipse stroke="#000000" stroke-miterlimit="10" cx="209.825" cy="240.366" rx="30.778" ry="33.858"/>
	<polygon opacity="0.5" fill="#49274F" stroke="#49274F" stroke-miterlimit="10" points="197.676,183.439 186.077,164.816 
		191.431,143.274 210.346,164.816 227.487,143.274 232.273,158.899 	"/>
</g>
<path fill="#49274F" stroke="#49274F" stroke-miterlimit="10" d="M561.5,252.712"/>
<g>
	<path fill="#AF8AB6" stroke="#AF8AB6" stroke-miterlimit="10" d="M133.228,197.93l16.07,56.013l-44.569,172.458
		C104.729,426.401,85.935,258.798,133.228,197.93z"/>
	<path fill="#2C003E" stroke="#2C003E" stroke-miterlimit="10" d="M104.729,426.401c37.274-157.73,28.5-228.471,28.5-228.471
		l16.07,56.013L104.729,426.401z"/>
	<path opacity="0.5" fill="#49274F" stroke="#49274F" stroke-miterlimit="10" d="M105.284,308.626
		c15.616,38.7,26.224-23.487,26.224-23.487l-26.516,145.942C104.991,431.082,97.952,290.458,105.284,308.626z"/>
</g>
<g>
	<path fill="#AF8AB6" stroke="#AF8AB6" stroke-miterlimit="10" d="M298.626,196.772l-21.045,54.339l28.868,175.769
		C306.449,426.88,340.251,261.649,298.626,196.772z"/>
	<path fill="#2C003E" stroke="#2C003E" stroke-miterlimit="10" d="M306.449,426.88c-22.93-160.443-7.823-230.108-7.823-230.108
		l-21.045,54.339L306.449,426.88z"/>
	<path opacity="0.5" fill="#49274F" stroke="#49274F" stroke-miterlimit="10" d="M316.988,312.448
		c-19.035,37.137-24.004-25.75-24.004-25.75l13.275,147.734C306.26,434.432,325.925,295.014,316.988,312.448z"/>
</g>
<g>
	<polygon fill="#AF8AB6" stroke="#AF8AB6" stroke-miterlimit="10" points="261.103,106.985 205.745,168.591 156.979,100.404 
		215.128,24.32 	"/>
	<polygon fill="#CEB0D4" stroke="#49274F" stroke-miterlimit="10" points="243.726,105.869 206.527,153.577 174.414,100.502 
		213.623,43.754 	"/>
	<polygon fill="#49274F" stroke="#49274F" stroke-miterlimit="10" points="156.979,100.404 174.414,100.502 206.527,153.577 
		204.662,169.999 	"/>
	<polygon fill="#CEB0D4" stroke="#CEB0D4" stroke-miterlimit="10" points="213.708,24.208 212.202,43.643 172.993,100.391 
		157.095,98.92 	"/>
	<polygon fill="#49274F" stroke="#49274F" stroke-miterlimit="10" points="261.103,106.985 243.726,105.869 206.527,153.577 
		204.662,169.999 	"/>
	<polygon opacity="0.5" fill="#FFFFFF" stroke="#FFFFFF" stroke-miterlimit="10" points="221.405,63.26 183.666,114.118 
		187.735,120.842 221.473,62.147 	"/>
	<polygon opacity="0.5" fill="#FFFFFF" stroke="#FFFFFF" stroke-miterlimit="10" points="190.329,123.859 195.088,132.898 
		230.23,79.587 	"/>
</g>
<ellipse opacity="0.5" fill="#EA9085" stroke="#AF8AB6" stroke-miterlimit="10" cx="211.817" cy="235.044" rx="23.494" ry="24.413"/>
<g>
	<path fill="#F7A173" stroke="#F7A173" stroke-miterlimit="10" d="M227.896,235.08c0,9.271-7.199,16.787-16.08,16.787
		s-16.08-7.516-16.08-16.787c0-1.041,0.09-2.059,0.264-3.047c1.373-7.817,7.933-13.741,15.816-13.741
		C220.697,218.292,227.896,225.808,227.896,235.08z"/>
	<path fill="#EA9085" stroke="#EA9085" stroke-miterlimit="10" d="M222.002,248.07c-23.486,5.613-26.07-14.94-26.07-14.94
		c-0.76,7.97,3.379,12.501,3.379,12.501s4.537,5.508,9.075,5.852c4.538,0.344,5.61,0.93,9.536-0.869
		C221.847,248.814,222.002,248.07,222.002,248.07z"/>
	<path fill="#FAB687" stroke="#FAB687" stroke-miterlimit="10" d="M227.021,235.928c-1.6,3.727-8.359,2.712-13.158,1.61
		c-6.855-1.574-13.908-8.112-13.908-12.209c0-4.098,6.896-7.037,13.908-7.037C220.875,218.292,229.967,229.06,227.021,235.928z"/>
	<path opacity="0.2" fill="#FFFFFF" stroke="#FAB687" stroke-miterlimit="10" d="M225.375,226.244
		c0.373,2.562-6.553,1.166-9.34,0.442c-3.544-0.921-6.606-4.278-6.606-6.614c0-2.335,4.626-2.346,8.12-0.681
		C220.764,220.922,225.039,223.936,225.375,226.244z"/>
</g>
<ellipse opacity="0.5" fill="#FFA372" stroke="#AF8AB6" stroke-miterlimit="10" cx="211.818" cy="235.044" rx="19.578" ry="20.344"/>
</svg>
