<?xml version="1.0" encoding="utf-8"?>
<!-- Generator: Adobe Illustrator 16.0.3, SVG Export Plug-In . SVG Version: 6.00 Build 0)  -->
<!DOCTYPE svg PUBLIC "-//W3C//DTD SVG 1.1//EN" "http://www.w3.org/Graphics/SVG/1.1/DTD/svg11.dtd">
<svg version="1.1" id="Layer_4" xmlns="http://www.w3.org/2000/svg" xmlns:xlink="http://www.w3.org/1999/xlink" x="0px" y="0px"
	 width="411px" height="441px" viewBox="0 0 411 441" enable-background="new 0 0 411 441" xml:space="preserve">
<g>
	<polygon fill="#AF8AB6" stroke="#AF8AB6" stroke-miterlimit="10" points="272.707,368.146 206.158,235.714 170.754,378.932 
		226.855,425.926 	"/>
	<polygon fill="#5E3965" stroke="#5E3965" stroke-miterlimit="10" points="221.737,387.555 170.655,377.993 186.251,314.106 
		218.763,354.859 	"/>
	<polygon fill="#512B58" stroke="#49274F" stroke-miterlimit="10" points="272.707,368.146 221.737,387.555 218.763,354.859 
		242.559,308.149 	"/>
	<polygon fill="#49274F" stroke="#49274F" stroke-miterlimit="10" points="226.855,425.926 170.655,377.993 221.737,387.555 	"/>
	<polygon fill="#2C003E" stroke="#2C003E" stroke-miterlimit="10" points="272.707,368.146 221.737,387.555 226.855,425.926 	"/>
</g>
<path fill="#8D6692" stroke="#AF8AB6" stroke-miterlimit="10" d="M303.092,163.802"/>
<g>
	<polygon fill="#AF8AB6" stroke="#AF8AB6" stroke-miterlimit="10" points="295.184,247.812 196.592,381.01 118.297,233.763 
		212.309,190.32 	"/>
	<polygon fill="#2C003E" stroke="#2C003E" stroke-miterlimit="10" points="118.297,233.763 204.833,277.242 196.592,381.01 	"/>
	<polygon fill="#5E3965" stroke="#5E3965" stroke-miterlimit="10" points="295.184,247.812 204.833,277.242 196.592,381.01 	"/>
	<polygon stroke="#000000" stroke-miterlimit="10" points="176.913,275.025 200.258,322.414 231.796,279.384 	"/>
	<polygon fill="#8D6692" stroke="#AF8AB6" stroke-miterlimit="10" points="196.902,163.165 179.579,205.446 210.562,217.979 
		212.521,186.016 	"/>
	<polygon fill="#8D6692" stroke="#AF8AB6" stroke-miterlimit="10" points="240.953,210.19 210.562,217.979 212.521,186.016 
		231.467,165.91 	"/>
	
		<ellipse transform="matrix(0.9969 0.0792 -0.0792 0.9969 21.3332 -15.4907)" stroke="#000000" stroke-miterlimit="10" cx="206.02" cy="261.287" rx="30.778" ry="33.858"/>
	<polygon opacity="0.5" fill="#49274F" stroke="#49274F" stroke-miterlimit="10" points="198.416,203.577 188.327,184.094 
		195.37,163.043 212.521,186.016 231.313,165.898 234.848,181.853 	"/>
</g>
<path fill="#49274F" stroke="#49274F" stroke-miterlimit="10" d="M561.5,252.712"/>
<g>
	<path fill="#AF8AB6" stroke="#AF8AB6" stroke-miterlimit="10" d="M147.525,200.385l12.149,56.992L103.26,426.332
		C103.26,426.332,96.127,257.829,147.525,200.385z"/>
	<path fill="#2C003E" stroke="#2C003E" stroke-miterlimit="10" d="M103.26,426.332c48.116-154.768,44.266-225.947,44.266-225.947
		l12.149,56.992L103.26,426.332z"/>
	<path opacity="0.5" fill="#49274F" stroke="#49274F" stroke-miterlimit="10" d="M111.976,308.878
		c12.896,39.689,27.789-21.613,27.789-21.613L103.198,431.02C103.198,431.02,105.921,290.246,111.976,308.878z"/>
</g>
<g>
	<path fill="#AF8AB6" stroke="#AF8AB6" stroke-miterlimit="10" d="M275.674,197.586l-15.419,56.195l46.565,171.93
		C306.82,425.711,323.671,257.902,275.674,197.586z"/>
	<path fill="#2C003E" stroke="#2C003E" stroke-miterlimit="10" d="M306.82,425.711c-39.102-157.286-31.146-228.125-31.146-228.125
		l-15.419,56.195L306.82,425.711z"/>
	<path opacity="0.5" fill="#49274F" stroke="#49274F" stroke-miterlimit="10" d="M305.687,310.801
		c-15.166,38.877-26.495-23.18-26.495-23.18l28.207,145.623C307.398,433.243,312.807,292.549,305.687,310.801z"/>
</g>
<g>
	<polygon fill="#AF8AB6" stroke="#AF8AB6" stroke-miterlimit="10" points="266.862,140.167 203.792,193.852 164.542,119.778 
		232.307,52.116 	"/>
	<polygon fill="#CEB0D4" stroke="#49274F" stroke-miterlimit="10" points="249.788,136.747 206.567,179.076 181.809,122.197 
		228.226,71.176 	"/>
	<polygon fill="#49274F" stroke="#49274F" stroke-miterlimit="10" points="164.542,119.778 181.809,122.197 206.567,179.076 
		202.532,195.103 	"/>
	<polygon fill="#CEB0D4" stroke="#CEB0D4" stroke-miterlimit="10" points="230.914,51.816 226.833,70.876 180.416,121.898 
		164.855,118.322 	"/>
	<polygon fill="#49274F" stroke="#49274F" stroke-miterlimit="10" points="266.862,140.167 249.788,136.747 206.567,179.076 
		202.532,195.103 	"/>
	<polygon opacity="0.5" fill="#FFFFFF" stroke="#FFFFFF" stroke-miterlimit="10" points="233.342,91.545 189.165,136.923 
		192.302,144.129 233.558,90.451 	"/>
	<polygon opacity="0.5" fill="#FFFFFF" stroke="#FFFFFF" stroke-miterlimit="10" points="194.471,147.466 197.984,157.058 
		239.913,108.902 	"/>
</g>
<ellipse opacity="0.5" fill="#EA9085" stroke="#AF8AB6" stroke-miterlimit="10" cx="204.354" cy="261.287" rx="21.144" ry="21.971"/>
<g>
	<path fill="#F7A173" stroke="#F7A173" stroke-miterlimit="10" d="M220.435,261.323c0,9.271-7.199,16.787-16.08,16.787
		s-16.08-7.516-16.08-16.787c0-1.041,0.09-2.059,0.264-3.047c1.373-7.817,7.933-13.741,15.816-13.741
		C213.235,244.535,220.435,252.051,220.435,261.323z"/>
	<path fill="#EA9085" stroke="#EA9085" stroke-miterlimit="10" d="M214.54,274.313c-23.486,5.613-26.07-14.94-26.07-14.94
		c-0.76,7.97,3.379,12.501,3.379,12.501s4.537,5.508,9.075,5.852c4.538,0.344,5.61,0.93,9.536-0.869
		C214.385,275.058,214.54,274.313,214.54,274.313z"/>
	<path fill="#FAB687" stroke="#FAB687" stroke-miterlimit="10" d="M219.56,262.171c-1.6,3.727-8.359,2.712-13.158,1.61
		c-6.855-1.574-13.908-8.112-13.908-12.209c0-4.098,6.896-7.037,13.908-7.037C213.413,244.535,222.505,255.303,219.56,262.171z"/>
	<path opacity="0.2" fill="#FFFFFF" stroke="#FAB687" stroke-miterlimit="10" d="M217.913,252.487
		c0.373,2.562-6.553,1.166-9.34,0.442c-3.544-0.921-6.606-4.278-6.606-6.614c0-2.335,4.626-2.346,8.12-0.681
		C213.302,247.166,217.577,250.179,217.913,252.487z"/>
</g>
</svg>
