<?xml version="1.0" encoding="utf-8"?>
<!-- Generator: Adobe Illustrator 16.0.3, SVG Export Plug-In . SVG Version: 6.00 Build 0)  -->
<!DOCTYPE svg PUBLIC "-//W3C//DTD SVG 1.1//EN" "http://www.w3.org/Graphics/SVG/1.1/DTD/svg11.dtd">
<svg version="1.1" id="Layer_4" xmlns="http://www.w3.org/2000/svg" xmlns:xlink="http://www.w3.org/1999/xlink" x="0px" y="0px"
	 width="411px" height="441px" viewBox="0 0 411 441" enable-background="new 0 0 411 441" xml:space="preserve">
<g>
	<polygon fill="#AF8AB6" stroke="#AF8AB6" stroke-miterlimit="10" points="264.464,373.777 212.218,235.079 161.942,373.777 
		212.788,426.413 	"/>
	<polygon fill="#5E3965" stroke="#5E3965" stroke-miterlimit="10" points="211.735,387.717 161.942,372.834 184.174,310.942 
		212.218,354.89 	"/>
	<polygon fill="#512B58" stroke="#49274F" stroke-miterlimit="10" points="264.464,373.777 211.735,387.717 212.218,354.89 
		240.795,310.942 	"/>
	<polygon fill="#49274F" stroke="#49274F" stroke-miterlimit="10" points="212.788,426.413 161.942,372.834 211.735,387.717 	"/>
	<polygon fill="#2C003E" stroke="#2C003E" stroke-miterlimit="10" points="264.464,373.777 211.735,387.717 212.788,426.413 	"/>
</g>
<path fill="#8D6692" stroke="#AF8AB6" stroke-miterlimit="10" d="M303.092,163.802"/>
<g>
	<polygon fill="#AF8AB6" stroke="#AF8AB6" stroke-miterlimit="10" points="299.921,214.552 212.185,355.137 122.478,214.552 
		212.755,163.802 	"/>
	<polygon fill="#2C003E" stroke="#2C003E" stroke-miterlimit="10" points="122.478,214.552 212.185,251.043 212.185,355.137 	"/>
	<polygon fill="#5E3965" stroke="#5E3965" stroke-miterlimit="10" points="299.921,214.552 212.185,251.043 212.185,355.137 	"/>
	<polygon stroke="#000000" stroke-miterlimit="10" points="184.176,251.043 211.2,296.436 239.231,251.043 	"/>
	<polygon fill="#8D6692" stroke="#AF8AB6" stroke-miterlimit="10" points="195.247,137.952 181.326,181.471 213.203,191.512 
		212.625,159.494 	"/>
	<polygon fill="#8D6692" stroke="#AF8AB6" stroke-miterlimit="10" points="242.882,181.342 213.203,191.512 212.625,159.494 
		229.92,137.952 	"/>
	<ellipse stroke="#000000" stroke-miterlimit="10" cx="212.104" cy="235.044" rx="30.778" ry="33.858"/>
	<polygon opacity="0.5" fill="#49274F" stroke="#49274F" stroke-miterlimit="10" points="212.961,178.117 188.355,159.494 
		193.71,137.952 212.625,159.494 229.766,137.952 235.919,158.034 	"/>
</g>
<path fill="#49274F" stroke="#49274F" stroke-miterlimit="10" d="M561.5,252.712"/>
<g>
	<path fill="#AF8AB6" stroke="#AF8AB6" stroke-miterlimit="10" d="M119.141,196.564l22.719,53.661l-23.407,176.58
		C118.453,426.805,79.547,262.7,119.141,196.564z"/>
	<path fill="#2C003E" stroke="#2C003E" stroke-miterlimit="10" d="M118.453,426.805c17.945-161.078,0.688-230.241,0.688-230.241
		l22.719,53.661L118.453,426.805z"/>
	<path opacity="0.5" fill="#49274F" stroke="#49274F" stroke-miterlimit="10" d="M104.775,309.826
		c20.177,36.53,23.194-26.483,23.194-26.483l-8.69,148.077C119.279,431.419,95.302,292.676,104.775,309.826z"/>
</g>
<g>
	<path fill="#AF8AB6" stroke="#AF8AB6" stroke-miterlimit="10" d="M306.696,196.495l-24.699,52.778l16.82,177.328
		C298.817,426.602,343.803,264.059,306.696,196.495z"/>
	<path fill="#2C003E" stroke="#2C003E" stroke-miterlimit="10" d="M298.817,426.602c-11.94-161.633,7.879-230.106,7.879-230.106
		l-24.699,52.778L298.817,426.602z"/>
	<path opacity="0.5" fill="#49274F" stroke="#49274F" stroke-miterlimit="10" d="M317.132,313.154
		c-21.522,35.753-22.193-27.327-22.193-27.327l3.175,148.295C298.113,434.122,327.235,296.37,317.132,313.154z"/>
</g>
<g>
	<polygon fill="#AF8AB6" stroke="#AF8AB6" stroke-miterlimit="10" points="263.856,97.209 212.223,161.968 159.526,96.771 
		213.094,17.395 	"/>
	<polygon fill="#CEB0D4" stroke="#49274F" stroke-miterlimit="10" points="246.444,97.118 212.12,146.934 176.937,95.843 
		212.735,36.884 	"/>
	<polygon fill="#49274F" stroke="#49274F" stroke-miterlimit="10" points="159.526,96.771 176.937,95.843 212.12,146.934 
		211.225,163.437 	"/>
	<polygon fill="#CEB0D4" stroke="#CEB0D4" stroke-miterlimit="10" points="211.669,17.367 211.311,36.856 175.512,95.815 
		159.554,95.283 	"/>
	<polygon fill="#49274F" stroke="#49274F" stroke-miterlimit="10" points="263.856,97.209 246.444,97.118 212.12,146.934 
		211.225,163.437 	"/>
	<polygon opacity="0.5" fill="#FFFFFF" stroke="#FFFFFF" stroke-miterlimit="10" points="221.653,55.897 186.975,108.89 
		191.432,115.362 221.655,54.783 	"/>
	<polygon opacity="0.5" fill="#FFFFFF" stroke="#FFFFFF" stroke-miterlimit="10" points="194.199,118.222 199.483,126.965 
		231.425,71.677 	"/>
</g>
<ellipse opacity="0.5" fill="#EA9085" stroke="#AF8AB6" stroke-miterlimit="10" cx="211.817" cy="235.044" rx="23.494" ry="24.413"/>
<g>
	<path fill="#F7A173" stroke="#F7A173" stroke-miterlimit="10" d="M227.896,235.08c0,9.271-7.199,16.787-16.08,16.787
		s-16.08-7.516-16.08-16.787c0-1.041,0.09-2.059,0.264-3.047c1.373-7.817,7.933-13.741,15.816-13.741
		C220.697,218.292,227.896,225.808,227.896,235.08z"/>
	<path fill="#EA9085" stroke="#EA9085" stroke-miterlimit="10" d="M222.002,248.07c-23.486,5.613-26.07-14.94-26.07-14.94
		c-0.76,7.97,3.379,12.501,3.379,12.501s4.537,5.508,9.075,5.852c4.538,0.344,5.61,0.93,9.536-0.869
		C221.847,248.814,222.002,248.07,222.002,248.07z"/>
	<path fill="#FAB687" stroke="#FAB687" stroke-miterlimit="10" d="M227.021,235.928c-1.6,3.727-8.359,2.712-13.158,1.61
		c-6.855-1.574-13.908-8.112-13.908-12.209c0-4.098,6.896-7.037,13.908-7.037C220.875,218.292,229.967,229.06,227.021,235.928z"/>
	<path opacity="0.2" fill="#FFFFFF" stroke="#FAB687" stroke-miterlimit="10" d="M225.375,226.244
		c0.373,2.562-6.553,1.166-9.34,0.442c-3.544-0.921-6.606-4.278-6.606-6.614c0-2.335,4.626-2.346,8.12-0.681
		C220.764,220.922,225.039,223.936,225.375,226.244z"/>
</g>
<ellipse opacity="0.5" fill="#FFA372" stroke="#AF8AB6" stroke-miterlimit="10" cx="211.818" cy="235.044" rx="19.578" ry="20.344"/>
</svg>
