<?xml version="1.0" encoding="utf-8"?>
<!-- Generator: Adobe Illustrator 16.0.3, SVG Export Plug-In . SVG Version: 6.00 Build 0)  -->
<!DOCTYPE svg PUBLIC "-//W3C//DTD SVG 1.1//EN" "http://www.w3.org/Graphics/SVG/1.1/DTD/svg11.dtd">
<svg version="1.1" id="Layer_4" xmlns="http://www.w3.org/2000/svg" xmlns:xlink="http://www.w3.org/1999/xlink" x="0px" y="0px"
	 width="411px" height="441px" viewBox="0 0 411 441" enable-background="new 0 0 411 441" xml:space="preserve">
<g>
	<polygon fill="#AF8AB6" stroke="#AF8AB6" stroke-miterlimit="10" points="282.329,351.343 145.577,294.196 211.992,425.93 
		285.17,425.05 	"/>
	<polygon fill="#5E3965" stroke="#5E3965" stroke-miterlimit="10" points="256.295,399.268 211.306,425.282 181.53,366.646 
		232.743,376.396 	"/>
	<polygon fill="#512B58" stroke="#49274F" stroke-miterlimit="10" points="282.329,351.343 256.295,399.268 232.743,376.396 
		220.377,325.452 	"/>
	<polygon fill="#49274F" stroke="#49274F" stroke-miterlimit="10" points="285.17,425.05 211.306,425.282 256.295,399.268 	"/>
	<polygon fill="#2C003E" stroke="#2C003E" stroke-miterlimit="10" points="282.329,351.343 256.295,399.268 285.17,425.05 	"/>
</g>
<path fill="#8D6692" stroke="#AF8AB6" stroke-miterlimit="10" d="M303.092,163.802"/>
<g>
	<polygon fill="#AF8AB6" stroke="#AF8AB6" stroke-miterlimit="10" points="283.184,273.812 184.592,407.01 106.297,259.763 
		200.309,216.32 	"/>
	<polygon fill="#2C003E" stroke="#2C003E" stroke-miterlimit="10" points="106.297,259.763 192.833,303.242 184.592,407.01 	"/>
	<polygon fill="#5E3965" stroke="#5E3965" stroke-miterlimit="10" points="283.184,273.812 192.833,303.242 184.592,407.01 	"/>
	<polygon stroke="#000000" stroke-miterlimit="10" points="164.913,301.025 188.258,348.414 219.796,305.384 	"/>
	<polygon fill="#8D6692" stroke="#AF8AB6" stroke-miterlimit="10" points="184.902,189.165 167.579,231.446 198.562,243.979 
		200.521,212.016 	"/>
	<polygon fill="#8D6692" stroke="#AF8AB6" stroke-miterlimit="10" points="228.953,236.19 198.562,243.979 200.521,212.016 
		219.467,191.91 	"/>
	
		<ellipse transform="matrix(0.9969 0.0792 -0.0792 0.9969 23.354 -14.4591)" stroke="#000000" stroke-miterlimit="10" cx="194.02" cy="287.287" rx="30.778" ry="33.859"/>
	<polygon opacity="0.5" fill="#49274F" stroke="#49274F" stroke-miterlimit="10" points="191.458,241.105 176.327,210.094 
		183.37,189.043 200.521,212.016 219.313,191.898 224.82,215.074 	"/>
</g>
<path fill="#49274F" stroke="#49274F" stroke-miterlimit="10" d="M561.5,252.712"/>
<g>
	<polygon fill="#AF8AB6" stroke="#AF8AB6" stroke-miterlimit="10" points="294.996,197.037 214.379,216.034 213.248,132.21 
		304.419,102.918 	"/>
	<polygon fill="#CEB0D4" stroke="#49274F" stroke-miterlimit="10" points="281.363,186.203 223.59,204.151 227.508,142.241 
		292.092,118.018 	"/>
	<polygon fill="#49274F" stroke="#49274F" stroke-miterlimit="10" points="213.248,132.21 227.508,142.241 223.59,204.151 
		212.687,216.572 	"/>
	<polygon fill="#CEB0D4" stroke="#CEB0D4" stroke-miterlimit="10" points="303.316,102.016 290.988,117.115 226.405,141.339 
		214.191,131.058 	"/>
	<polygon fill="#49274F" stroke="#49274F" stroke-miterlimit="10" points="294.996,197.037 281.363,186.203 223.59,204.151 
		212.687,216.572 	"/>
	<polygon opacity="0.5" fill="#FFFFFF" stroke="#FFFFFF" stroke-miterlimit="10" points="287.351,138.477 227.336,158.702 
		226.84,166.545 288.042,137.602 	"/>
	<polygon opacity="0.5" fill="#FFFFFF" stroke="#FFFFFF" stroke-miterlimit="10" points="227.248,170.503 225.998,180.643 
		285.279,156.92 	"/>
</g>
<g>
	<path fill="#F7A173" stroke="#F7A173" stroke-miterlimit="10" d="M185.143,324.422c0,9.271-7.199,16.787-16.08,16.787
		s-16.08-7.516-16.08-16.787c0-1.041,0.09-2.059,0.264-3.047c1.373-7.816,7.933-13.74,15.816-13.74
		C177.943,307.635,185.143,315.15,185.143,324.422z"/>
	<path fill="#EA9085" stroke="#EA9085" stroke-miterlimit="10" d="M179.248,337.412c-23.486,5.613-26.07-14.939-26.07-14.939
		c-0.76,7.969,3.379,12.5,3.379,12.5s4.537,5.509,9.075,5.853c4.538,0.345,5.61,0.93,9.536-0.868
		C179.093,338.157,179.248,337.412,179.248,337.412z"/>
	<path fill="#FAB687" stroke="#FAB687" stroke-miterlimit="10" d="M184.268,325.271c-1.6,3.727-8.359,2.712-13.158,1.61
		c-6.855-1.574-13.908-8.111-13.908-12.209s6.896-7.037,13.908-7.037C178.121,307.635,187.213,318.402,184.268,325.271z"/>
	<path opacity="0.2" fill="#FFFFFF" stroke="#FAB687" stroke-miterlimit="10" d="M182.621,315.586
		c0.373,2.563-6.553,1.166-9.34,0.443c-3.544-0.922-6.606-4.279-6.606-6.614c0-2.335,4.626-2.346,8.12-0.681
		C178.01,310.265,182.285,313.278,182.621,315.586z"/>
</g>
<g>
	<path fill="#AF8AB6" stroke="#AF8AB6" stroke-miterlimit="10" d="M196.394,221.879l9.681,57.462l114.637,136.331
		C320.712,415.672,265.328,256.373,196.394,221.879z"/>
	<path fill="#2C003E" stroke="#2C003E" stroke-miterlimit="10" d="M320.712,415.672C219.01,289.479,196.394,221.879,196.394,221.879
		l9.681,57.462L320.712,415.672z"/>
	<path opacity="0.5" fill="#49274F" stroke="#49274F" stroke-miterlimit="10" d="M271.293,311.926
		c2.616,41.647-33.793-9.867-33.793-9.867l86.909,120.202C324.409,422.261,270.064,292.374,271.293,311.926z"/>
</g>
<g>
	<path fill="#AF8AB6" stroke="#AF8AB6" stroke-miterlimit="10" d="M196.676,208.354l0.016,58.272L106.333,420.13
		C106.333,420.13,134.443,253.835,196.676,208.354z"/>
	<path fill="#2C003E" stroke="#2C003E" stroke-miterlimit="10" d="M106.333,420.13c79.289-141.355,90.344-211.776,90.344-211.776
		l0.016,58.272L106.333,420.13z"/>
	<path opacity="0.5" fill="#49274F" stroke="#49274F" stroke-miterlimit="10" d="M139.315,307.066
		c4.349,41.503,31.68-15.354,31.68-15.354l-65.699,132.989C105.296,424.702,137.272,287.581,139.315,307.066z"/>
</g>
</svg>
