<?xml version="1.0" encoding="utf-8"?>
<!-- Generator: Adobe Illustrator 16.0.3, SVG Export Plug-In . SVG Version: 6.00 Build 0)  -->
<!DOCTYPE svg PUBLIC "-//W3C//DTD SVG 1.1//EN" "http://www.w3.org/Graphics/SVG/1.1/DTD/svg11.dtd">
<svg version="1.1" id="Layer_4" xmlns="http://www.w3.org/2000/svg" xmlns:xlink="http://www.w3.org/1999/xlink" x="0px" y="0px"
	 width="411px" height="441px" viewBox="0 0 411 441" enable-background="new 0 0 411 441" xml:space="preserve">
<g>
	<polygon fill="#AF8AB6" stroke="#AF8AB6" stroke-miterlimit="10" points="279.282,363.877 186.966,247.925 181.714,395.361 
		246.268,429.838 	"/>
	<polygon fill="#5E3965" stroke="#5E3965" stroke-miterlimit="10" points="233.382,393.335 181.425,394.463 183.575,328.735 
		223.76,361.946 	"/>
	<polygon fill="#512B58" stroke="#49274F" stroke-miterlimit="10" points="279.282,363.877 233.382,393.335 223.76,361.946 
		237.461,311.347 	"/>
	<polygon fill="#49274F" stroke="#49274F" stroke-miterlimit="10" points="246.268,429.838 181.425,394.463 233.382,393.335 	"/>
	<polygon fill="#2C003E" stroke="#2C003E" stroke-miterlimit="10" points="279.282,363.877 233.382,393.335 246.268,429.838 	"/>
</g>
<path fill="#8D6692" stroke="#AF8AB6" stroke-miterlimit="10" d="M303.092,163.802"/>
<g>
	<polygon fill="#AF8AB6" stroke="#AF8AB6" stroke-miterlimit="10" points="295.184,256.812 196.592,390.01 118.297,242.763 
		212.309,199.32 	"/>
	<polygon fill="#2C003E" stroke="#2C003E" stroke-miterlimit="10" points="118.297,242.763 204.833,286.242 196.592,390.01 	"/>
	<polygon fill="#5E3965" stroke="#5E3965" stroke-miterlimit="10" points="295.184,256.812 204.833,286.242 196.592,390.01 	"/>
	<polygon stroke="#000000" stroke-miterlimit="10" points="176.913,284.025 200.258,331.414 231.796,288.384 	"/>
	<polygon fill="#8D6692" stroke="#AF8AB6" stroke-miterlimit="10" points="196.902,172.165 179.579,214.446 210.562,226.979 
		212.521,195.016 	"/>
	<polygon fill="#8D6692" stroke="#AF8AB6" stroke-miterlimit="10" points="240.953,219.19 210.562,226.979 212.521,195.016 
		231.467,174.91 	"/>
	
		<ellipse transform="matrix(0.9969 0.0792 -0.0792 0.9969 22.0458 -15.4625)" stroke="#000000" stroke-miterlimit="10" cx="206.02" cy="270.287" rx="30.778" ry="33.858"/>
	<polygon opacity="0.5" fill="#49274F" stroke="#49274F" stroke-miterlimit="10" points="203.458,224.105 188.327,193.094 
		195.37,172.043 212.521,195.016 231.313,174.898 236.82,198.074 	"/>
</g>
<path fill="#49274F" stroke="#49274F" stroke-miterlimit="10" d="M561.5,252.712"/>
<g>
	<path fill="#AF8AB6" stroke="#AF8AB6" stroke-miterlimit="10" d="M189.294,209.124l-0.877,58.266L95.716,419.49
		C95.716,419.49,126.372,253.646,189.294,209.124z"/>
	<path fill="#2C003E" stroke="#2C003E" stroke-miterlimit="10" d="M95.716,419.49c81.445-140.124,93.579-210.367,93.579-210.367
		l-0.877,58.266L95.716,419.49z"/>
	<path opacity="0.5" fill="#49274F" stroke="#49274F" stroke-miterlimit="10" d="M130.427,306.945
		c3.712,41.565,31.911-14.866,31.911-14.866L94.609,424.046C94.609,424.046,128.684,287.432,130.427,306.945z"/>
</g>
<g>
	<path fill="#AF8AB6" stroke="#AF8AB6" stroke-miterlimit="10" d="M214.646,211.095l4.35,58.109L320.597,415.51
		C320.597,415.51,280.112,251.788,214.646,211.095z"/>
	<path fill="#2C003E" stroke="#2C003E" stroke-miterlimit="10" d="M320.597,415.51c-89.653-135.019-105.95-204.415-105.95-204.415
		l4.35,58.109L320.597,415.51z"/>
	<path opacity="0.5" fill="#49274F" stroke="#49274F" stroke-miterlimit="10" d="M280.938,307.655
		c-1.229,41.711-32.74-12.936-32.74-12.936l75.475,127.691C323.672,422.41,281.515,288.072,280.938,307.655z"/>
</g>
<g>
	<polygon fill="#AF8AB6" stroke="#AF8AB6" stroke-miterlimit="10" points="268.862,159.167 205.792,212.852 166.542,138.778 
		234.307,71.116 	"/>
	<polygon fill="#CEB0D4" stroke="#49274F" stroke-miterlimit="10" points="251.788,155.747 208.567,198.076 183.809,141.197 
		230.227,90.176 	"/>
	<polygon fill="#49274F" stroke="#49274F" stroke-miterlimit="10" points="166.542,138.778 183.809,141.197 208.567,198.076 
		204.532,214.103 	"/>
	<polygon fill="#CEB0D4" stroke="#CEB0D4" stroke-miterlimit="10" points="232.914,70.816 228.833,89.876 182.416,140.898 
		166.855,137.322 	"/>
	<polygon fill="#49274F" stroke="#49274F" stroke-miterlimit="10" points="268.862,159.167 251.788,155.747 208.567,198.076 
		204.532,214.103 	"/>
	<polygon opacity="0.5" fill="#FFFFFF" stroke="#FFFFFF" stroke-miterlimit="10" points="235.342,110.545 191.165,155.923 
		194.302,163.129 235.558,109.451 	"/>
	<polygon opacity="0.5" fill="#FFFFFF" stroke="#FFFFFF" stroke-miterlimit="10" points="196.471,166.466 199.984,176.058 
		241.913,127.902 	"/>
</g>
<g>
	<path fill="#F7A173" stroke="#F7A173" stroke-miterlimit="10" d="M222.435,269.323c0,9.271-7.199,16.787-16.08,16.787
		s-16.08-7.516-16.08-16.787c0-1.041,0.09-2.059,0.264-3.047c1.373-7.817,7.933-13.741,15.816-13.741
		C215.235,252.535,222.435,260.051,222.435,269.323z"/>
	<path fill="#EA9085" stroke="#EA9085" stroke-miterlimit="10" d="M216.54,282.313c-23.486,5.613-26.07-14.94-26.07-14.94
		c-0.76,7.97,3.379,12.501,3.379,12.501s4.537,5.508,9.075,5.852c4.538,0.344,5.61,0.93,9.536-0.869
		C216.385,283.058,216.54,282.313,216.54,282.313z"/>
	<path fill="#FAB687" stroke="#FAB687" stroke-miterlimit="10" d="M221.56,270.171c-1.6,3.727-8.359,2.712-13.158,1.61
		c-6.855-1.574-13.908-8.112-13.908-12.209c0-4.098,6.896-7.037,13.908-7.037C215.413,252.535,224.505,263.303,221.56,270.171z"/>
	<path opacity="0.2" fill="#FFFFFF" stroke="#FAB687" stroke-miterlimit="10" d="M219.913,260.487
		c0.373,2.562-6.553,1.166-9.34,0.442c-3.544-0.921-6.606-4.278-6.606-6.614c0-2.335,4.626-2.346,8.12-0.681
		C215.302,255.166,219.577,258.179,219.913,260.487z"/>
</g>
</svg>
