<?xml version="1.0" encoding="utf-8"?>
<!-- Generator: Adobe Illustrator 16.0.3, SVG Export Plug-In . SVG Version: 6.00 Build 0)  -->
<!DOCTYPE svg PUBLIC "-//W3C//DTD SVG 1.1//EN" "http://www.w3.org/Graphics/SVG/1.1/DTD/svg11.dtd">
<svg version="1.1" id="Layer_4" xmlns="http://www.w3.org/2000/svg" xmlns:xlink="http://www.w3.org/1999/xlink" x="0px" y="0px"
	 width="411px" height="441px" viewBox="0 0 411 441" enable-background="new 0 0 411 441" xml:space="preserve">
<g>
	<polygon fill="#AF8AB6" stroke="#AF8AB6" stroke-miterlimit="10" points="285.955,361.75 174.44,264.121 195.567,410.13 
		265.233,432.542 	"/>
	<polygon fill="#5E3965" stroke="#5E3965" stroke-miterlimit="10" points="246.045,398.922 195.122,409.298 185.516,344.24 
		230.979,369.753 	"/>
	<polygon fill="#512B58" stroke="#49274F" stroke-miterlimit="10" points="285.955,361.75 246.045,398.922 230.979,369.753 
		235.437,317.521 	"/>
	<polygon fill="#49274F" stroke="#49274F" stroke-miterlimit="10" points="265.233,432.542 195.122,409.298 246.045,398.922 	"/>
	<polygon fill="#2C003E" stroke="#2C003E" stroke-miterlimit="10" points="285.955,361.75 246.045,398.922 265.233,432.542 	"/>
</g>
<path fill="#8D6692" stroke="#AF8AB6" stroke-miterlimit="10" d="M303.092,163.802"/>
<g>
	<polygon fill="#AF8AB6" stroke="#AF8AB6" stroke-miterlimit="10" points="290.184,264.812 191.592,398.01 113.297,250.763 
		207.309,207.32 	"/>
	<polygon fill="#2C003E" stroke="#2C003E" stroke-miterlimit="10" points="113.297,250.763 199.833,294.242 191.592,398.01 	"/>
	<polygon fill="#5E3965" stroke="#5E3965" stroke-miterlimit="10" points="290.184,264.812 199.833,294.242 191.592,398.01 	"/>
	<polygon stroke="#000000" stroke-miterlimit="10" points="171.913,292.025 195.258,339.414 226.796,296.384 	"/>
	<polygon fill="#8D6692" stroke="#AF8AB6" stroke-miterlimit="10" points="191.902,180.165 174.579,222.446 205.562,234.979 
		207.521,203.016 	"/>
	<polygon fill="#8D6692" stroke="#AF8AB6" stroke-miterlimit="10" points="235.953,227.19 205.562,234.979 207.521,203.016 
		226.467,182.91 	"/>
	
		<ellipse transform="matrix(0.9969 0.0792 -0.0792 0.9969 22.6635 -15.0415)" stroke="#000000" stroke-miterlimit="10" cx="201.02" cy="278.287" rx="30.778" ry="33.858"/>
	<polygon opacity="0.5" fill="#49274F" stroke="#49274F" stroke-miterlimit="10" points="198.458,232.105 183.327,201.094 
		190.37,180.043 207.521,203.016 226.313,182.898 231.82,206.074 	"/>
</g>
<path fill="#49274F" stroke="#49274F" stroke-miterlimit="10" d="M561.5,252.712"/>
<g>
	<polygon fill="#AF8AB6" stroke="#AF8AB6" stroke-miterlimit="10" points="269.199,173.592 201.662,221.536 169.063,144.303 
		242.502,82.848 	"/>
	<polygon fill="#CEB0D4" stroke="#49274F" stroke-miterlimit="10" points="252.491,168.686 205.723,207.06 186.05,148.229 
		236.766,101.477 	"/>
	<polygon fill="#49274F" stroke="#49274F" stroke-miterlimit="10" points="169.063,144.303 186.05,148.229 205.723,207.06 
		200.297,222.671 	"/>
	<polygon fill="#CEB0D4" stroke="#CEB0D4" stroke-miterlimit="10" points="241.142,82.427 235.403,101.056 184.688,147.808 
		169.502,142.88 	"/>
	<polygon fill="#49274F" stroke="#49274F" stroke-miterlimit="10" points="269.199,173.592 252.491,168.686 205.723,207.06 
		200.297,222.671 	"/>
	<polygon opacity="0.5" fill="#FFFFFF" stroke="#FFFFFF" stroke-miterlimit="10" points="240.074,122.216 192.086,163.543 
		194.579,170.997 240.385,121.145 	"/>
	<polygon opacity="0.5" fill="#FFFFFF" stroke="#FFFFFF" stroke-miterlimit="10" points="196.446,174.51 199.105,184.374 
		245.097,140.083 	"/>
</g>
<g>
	<path fill="#F7A173" stroke="#F7A173" stroke-miterlimit="10" d="M208.166,292.061c0,9.271-7.199,16.787-16.08,16.787
		s-16.08-7.516-16.08-16.787c0-1.041,0.09-2.059,0.264-3.047c1.373-7.817,7.933-13.741,15.816-13.741
		C200.967,275.273,208.166,282.789,208.166,292.061z"/>
	<path fill="#EA9085" stroke="#EA9085" stroke-miterlimit="10" d="M202.271,305.051c-23.486,5.613-26.07-14.94-26.07-14.94
		c-0.76,7.97,3.379,12.501,3.379,12.501s4.537,5.508,9.075,5.852c4.538,0.344,5.61,0.93,9.536-0.869
		C202.116,305.796,202.271,305.051,202.271,305.051z"/>
	<path fill="#FAB687" stroke="#FAB687" stroke-miterlimit="10" d="M207.291,292.909c-1.6,3.727-8.359,2.712-13.158,1.61
		c-6.855-1.574-13.908-8.112-13.908-12.209c0-4.098,6.896-7.037,13.908-7.037C201.145,275.273,210.236,286.041,207.291,292.909z"/>
	<path opacity="0.2" fill="#FFFFFF" stroke="#FAB687" stroke-miterlimit="10" d="M205.645,283.225
		c0.373,2.562-6.553,1.166-9.34,0.442c-3.544-0.921-6.606-4.278-6.606-6.614c0-2.335,4.626-2.346,8.12-0.681
		C201.033,277.904,205.309,280.917,205.645,283.225z"/>
</g>
<g>
	<path fill="#AF8AB6" stroke="#AF8AB6" stroke-miterlimit="10" d="M196.394,221.879l9.681,57.462l114.637,136.331
		C320.712,415.672,265.328,256.373,196.394,221.879z"/>
	<path fill="#2C003E" stroke="#2C003E" stroke-miterlimit="10" d="M320.712,415.672C219.01,289.479,196.394,221.879,196.394,221.879
		l9.681,57.462L320.712,415.672z"/>
	<path opacity="0.5" fill="#49274F" stroke="#49274F" stroke-miterlimit="10" d="M271.293,311.926
		c2.616,41.647-33.793-9.867-33.793-9.867l86.909,120.202C324.409,422.261,270.064,292.374,271.293,311.926z"/>
</g>
<g>
	<path fill="#AF8AB6" stroke="#AF8AB6" stroke-miterlimit="10" d="M196.676,208.354l0.016,58.272L106.333,420.13
		C106.333,420.13,134.443,253.835,196.676,208.354z"/>
	<path fill="#2C003E" stroke="#2C003E" stroke-miterlimit="10" d="M106.333,420.13c79.289-141.355,90.344-211.776,90.344-211.776
		l0.016,58.272L106.333,420.13z"/>
	<path opacity="0.5" fill="#49274F" stroke="#49274F" stroke-miterlimit="10" d="M139.315,307.066
		c4.349,41.503,31.68-15.354,31.68-15.354l-65.699,132.989C105.296,424.702,137.272,287.581,139.315,307.066z"/>
</g>
</svg>
