<?xml version="1.0" encoding="utf-8"?>
<!-- Generator: Adobe Illustrator 16.0.3, SVG Export Plug-In . SVG Version: 6.00 Build 0)  -->
<!DOCTYPE svg PUBLIC "-//W3C//DTD SVG 1.1//EN" "http://www.w3.org/Graphics/SVG/1.1/DTD/svg11.dtd">
<svg version="1.1" id="Layer_4" xmlns="http://www.w3.org/2000/svg" xmlns:xlink="http://www.w3.org/1999/xlink" x="0px" y="0px"
	 width="411px" height="441px" viewBox="0 0 411 441" enable-background="new 0 0 411 441" xml:space="preserve">
<g>
	<polygon fill="#AF8AB6" stroke="#AF8AB6" stroke-miterlimit="10" points="282.329,351.343 145.577,294.196 211.992,425.93 
		285.17,425.05 	"/>
	<polygon fill="#5E3965" stroke="#5E3965" stroke-miterlimit="10" points="256.295,399.268 211.306,425.282 181.53,366.646 
		232.743,376.396 	"/>
	<polygon fill="#512B58" stroke="#49274F" stroke-miterlimit="10" points="282.329,351.343 256.295,399.268 232.743,376.396 
		220.377,325.452 	"/>
	<polygon fill="#49274F" stroke="#49274F" stroke-miterlimit="10" points="285.17,425.05 211.306,425.282 256.295,399.268 	"/>
	<polygon fill="#2C003E" stroke="#2C003E" stroke-miterlimit="10" points="282.329,351.343 256.295,399.268 285.17,425.05 	"/>
</g>
<path fill="#8D6692" stroke="#AF8AB6" stroke-miterlimit="10" d="M303.092,163.802"/>
<g>
	<polygon fill="#AF8AB6" stroke="#AF8AB6" stroke-miterlimit="10" points="278.93,305.379 160.165,420.95 106.618,263.012 
		206.402,235.285 	"/>
	<polygon fill="#2C003E" stroke="#2C003E" stroke-miterlimit="10" points="106.618,263.012 185.018,319.867 160.165,420.95 	"/>
	<polygon fill="#5E3965" stroke="#5E3965" stroke-miterlimit="10" points="278.93,305.379 185.018,319.867 160.165,420.95 	"/>
	<polygon stroke="#000000" stroke-miterlimit="10" points="157.819,313.18 173.224,363.711 211.283,326.325 	"/>
	<polygon fill="#8D6692" stroke="#AF8AB6" stroke-miterlimit="10" points="195.571,206.002 171.662,244.939 200.22,262.3 
		207.304,231.071 	"/>
	<polygon fill="#8D6692" stroke="#AF8AB6" stroke-miterlimit="10" points="231.47,259.511 200.22,262.3 207.304,231.071 
		229.242,214.281 	"/>
	
		<ellipse transform="matrix(0.9711 0.2388 -0.2388 0.9711 78.1171 -36.2673)" stroke="#000000" stroke-miterlimit="10" cx="188.76" cy="304.311" rx="30.778" ry="33.859"/>
	<polygon opacity="0.5" fill="#49274F" stroke="#49274F" stroke-miterlimit="10" points="193.673,258.32 183.736,225.276 
		194.079,205.635 207.304,231.071 229.092,214.244 230.793,238.005 	"/>
</g>
<path fill="#49274F" stroke="#49274F" stroke-miterlimit="10" d="M561.5,252.712"/>
<g>
	<polygon fill="#AF8AB6" stroke="#AF8AB6" stroke-miterlimit="10" points="335.768,229.254 253.13,223.689 276.713,143.244 
		372.467,142.074 	"/>
	<polygon fill="#CEB0D4" stroke="#49274F" stroke-miterlimit="10" points="325.926,214.889 265.43,215.043 287.391,157.026 
		356.242,152.878 	"/>
	<polygon fill="#49274F" stroke="#49274F" stroke-miterlimit="10" points="276.713,143.244 287.391,157.026 265.43,215.043 
		251.354,223.706 	"/>
	<polygon fill="#CEB0D4" stroke="#CEB0D4" stroke-miterlimit="10" points="371.679,140.888 355.453,151.691 286.602,155.84 
		277.953,142.42 	"/>
	<polygon fill="#49274F" stroke="#49274F" stroke-miterlimit="10" points="335.768,229.254 325.926,214.889 265.43,215.043 
		251.354,223.706 	"/>
	<polygon opacity="0.5" fill="#FFFFFF" stroke="#FFFFFF" stroke-miterlimit="10" points="345.691,171.037 282.383,172.708 
		279.601,180.058 346.609,170.404 	"/>
	<polygon opacity="0.5" fill="#FFFFFF" stroke="#FFFFFF" stroke-miterlimit="10" points="278.825,183.961 274.648,193.284 
		338.285,188.054 	"/>
</g>
<g>
	<path fill="#F7A173" stroke="#F7A173" stroke-miterlimit="10" d="M161.657,358.243c0,9.271-7.199,16.787-16.08,16.787
		s-16.08-7.516-16.08-16.787c0-1.041,0.09-2.059,0.264-3.047c1.373-7.816,7.933-13.74,15.816-13.74
		C154.458,341.456,161.657,348.972,161.657,358.243z"/>
	<path fill="#EA9085" stroke="#EA9085" stroke-miterlimit="10" d="M155.763,371.233c-23.486,5.613-26.07-14.939-26.07-14.939
		c-0.76,7.969,3.379,12.5,3.379,12.5s4.537,5.509,9.075,5.853c4.538,0.345,5.61,0.93,9.536-0.868
		C155.607,371.979,155.763,371.233,155.763,371.233z"/>
	<path fill="#FAB687" stroke="#FAB687" stroke-miterlimit="10" d="M160.782,359.092c-1.6,3.727-8.359,2.712-13.158,1.61
		c-6.855-1.574-13.908-8.111-13.908-12.209s6.896-7.037,13.908-7.037C154.636,341.456,163.728,352.224,160.782,359.092z"/>
	<path opacity="0.2" fill="#FFFFFF" stroke="#FAB687" stroke-miterlimit="10" d="M159.136,349.407
		c0.373,2.563-6.553,1.166-9.34,0.443c-3.544-0.922-6.606-4.278-6.606-6.614c0-2.335,4.626-2.346,8.12-0.682
		C154.524,344.086,158.8,347.1,159.136,349.407z"/>
</g>
<g>
	<path fill="#AF8AB6" stroke="#AF8AB6" stroke-miterlimit="10" d="M196.394,221.879l9.681,57.462l114.637,136.331
		C320.712,415.672,265.328,256.373,196.394,221.879z"/>
	<path fill="#2C003E" stroke="#2C003E" stroke-miterlimit="10" d="M320.712,415.672C219.01,289.479,196.394,221.879,196.394,221.879
		l9.681,57.462L320.712,415.672z"/>
	<path opacity="0.5" fill="#49274F" stroke="#49274F" stroke-miterlimit="10" d="M271.293,311.926
		c2.616,41.647-33.793-9.867-33.793-9.867l86.909,120.202C324.409,422.261,270.064,292.374,271.293,311.926z"/>
</g>
<g>
	<path fill="#AF8AB6" stroke="#AF8AB6" stroke-miterlimit="10" d="M196.676,208.354l0.016,58.272L106.333,420.13
		C106.333,420.13,134.443,253.835,196.676,208.354z"/>
	<path fill="#2C003E" stroke="#2C003E" stroke-miterlimit="10" d="M106.333,420.13c79.289-141.355,90.344-211.776,90.344-211.776
		l0.016,58.272L106.333,420.13z"/>
	<path opacity="0.5" fill="#49274F" stroke="#49274F" stroke-miterlimit="10" d="M139.315,307.066
		c4.349,41.503,31.68-15.354,31.68-15.354l-65.699,132.989C105.296,424.702,137.272,287.581,139.315,307.066z"/>
</g>
</svg>
