<?xml version="1.0" encoding="utf-8"?>
<!-- Generator: Adobe Illustrator 16.0.3, SVG Export Plug-In . SVG Version: 6.00 Build 0)  -->
<!DOCTYPE svg PUBLIC "-//W3C//DTD SVG 1.1//EN" "http://www.w3.org/Graphics/SVG/1.1/DTD/svg11.dtd">
<svg version="1.1" id="Layer_4" xmlns="http://www.w3.org/2000/svg" xmlns:xlink="http://www.w3.org/1999/xlink" x="0px" y="0px"
	 width="411px" height="441px" viewBox="0 0 411 441" enable-background="new 0 0 411 441" xml:space="preserve">
<g>
	<polygon fill="#AF8AB6" stroke="#AF8AB6" stroke-miterlimit="10" points="282.329,351.343 145.577,294.196 211.992,425.93 
		285.17,425.05 	"/>
	<polygon fill="#5E3965" stroke="#5E3965" stroke-miterlimit="10" points="256.295,399.268 211.306,425.282 181.53,366.646 
		232.743,376.396 	"/>
	<polygon fill="#512B58" stroke="#49274F" stroke-miterlimit="10" points="282.329,351.343 256.295,399.268 232.743,376.396 
		220.377,325.452 	"/>
	<polygon fill="#49274F" stroke="#49274F" stroke-miterlimit="10" points="285.17,425.05 211.306,425.282 256.295,399.268 	"/>
	<polygon fill="#2C003E" stroke="#2C003E" stroke-miterlimit="10" points="282.329,351.343 256.295,399.268 285.17,425.05 	"/>
</g>
<path fill="#8D6692" stroke="#AF8AB6" stroke-miterlimit="10" d="M303.092,163.802"/>
<g>
	<polygon fill="#AF8AB6" stroke="#AF8AB6" stroke-miterlimit="10" points="294.184,343.416 151.677,427.996 136.564,261.915 
		240.065,258.3 	"/>
	<polygon fill="#2C003E" stroke="#2C003E" stroke-miterlimit="10" points="136.564,261.915 199.488,335.532 151.677,427.996 	"/>
	<polygon fill="#5E3965" stroke="#5E3965" stroke-miterlimit="10" points="294.184,343.416 199.488,335.532 151.677,427.996 	"/>
	<polygon stroke="#000000" stroke-miterlimit="10" points="174.609,322.668 177.765,375.4 223.514,347.956 	"/>
	<polygon fill="#8D6692" stroke="#AF8AB6" stroke-miterlimit="10" points="236.386,227.296 204.031,259.56 227.735,283.119 
		241.929,254.414 	"/>
	<polygon fill="#8D6692" stroke="#AF8AB6" stroke-miterlimit="10" points="258.771,287.718 227.735,283.119 241.929,254.414 
		267.186,243.222 	"/>
	
		<ellipse transform="matrix(0.8883 0.4593 -0.4593 0.8883 170.6701 -59.0743)" stroke="#000000" stroke-miterlimit="10" cx="206.765" cy="321.283" rx="30.778" ry="33.859"/>
	<polygon opacity="0.5" fill="#49274F" stroke="#49274F" stroke-miterlimit="10" points="222.301,277.718 220.37,243.267 
		235.021,226.59 241.929,254.414 267.048,243.151 263.144,266.65 	"/>
</g>
<path fill="#49274F" stroke="#49274F" stroke-miterlimit="10" d="M561.5,252.712"/>
<g>
	<polygon fill="#AF8AB6" stroke="#AF8AB6" stroke-miterlimit="10" points="309.316,385.927 320.294,303.833 399.018,332.646 
		393.9,428.27 	"/>
	<polygon fill="#CEB0D4" stroke="#49274F" stroke-miterlimit="10" points="324.297,377.05 328.115,316.673 384.564,342.396 
		384.184,411.37 	"/>
	<polygon fill="#49274F" stroke="#49274F" stroke-miterlimit="10" points="399.018,332.646 384.564,342.396 328.115,316.673 
		320.395,302.059 	"/>
	<polygon fill="#CEB0D4" stroke="#CEB0D4" stroke-miterlimit="10" points="395.136,427.562 385.421,410.661 385.801,341.687 
		399.758,333.938 	"/>
	<polygon fill="#49274F" stroke="#49274F" stroke-miterlimit="10" points="309.316,385.927 324.297,377.05 328.115,316.673 
		320.395,302.059 	"/>
	<polygon opacity="0.5" fill="#FFFFFF" stroke="#FFFFFF" stroke-miterlimit="10" points="366.757,399.65 369.245,336.369 
		362.093,333.111 367.329,400.607 	"/>
	<polygon opacity="0.5" fill="#FFFFFF" stroke="#FFFFFF" stroke-miterlimit="10" points="358.25,332.08 349.222,327.302 
		350.263,391.143 	"/>
</g>
<g>
	<path fill="#F7A173" stroke="#F7A173" stroke-miterlimit="10" d="M65.361,411.406c0,9.271-7.199,16.787-16.08,16.787
		s-16.08-7.516-16.08-16.787c0-1.041,0.09-2.059,0.264-3.047c1.373-7.816,7.933-13.74,15.816-13.74
		C58.162,394.619,65.361,402.135,65.361,411.406z"/>
	<path fill="#EA9085" stroke="#EA9085" stroke-miterlimit="10" d="M59.466,424.396c-23.486,5.613-26.07-14.939-26.07-14.939
		c-0.76,7.969,3.379,12.5,3.379,12.5s4.537,5.509,9.075,5.853c4.538,0.345,5.61,0.93,9.536-0.868
		C59.311,425.142,59.466,424.396,59.466,424.396z"/>
	<path fill="#FAB687" stroke="#FAB687" stroke-miterlimit="10" d="M64.486,412.255c-1.6,3.727-8.359,2.712-13.158,1.61
		c-6.855-1.574-13.908-8.111-13.908-12.209s6.896-7.037,13.908-7.037C58.339,394.619,67.431,405.387,64.486,412.255z"/>
	<path opacity="0.2" fill="#FFFFFF" stroke="#FAB687" stroke-miterlimit="10" d="M62.839,402.57c0.373,2.563-6.553,1.166-9.34,0.443
		c-3.544-0.922-6.606-4.278-6.606-6.614c0-2.335,4.626-2.346,8.12-0.682C58.228,397.249,62.503,400.263,62.839,402.57z"/>
</g>
<g>
	<path fill="#AF8AB6" stroke="#AF8AB6" stroke-miterlimit="10" d="M196.394,221.879l9.681,57.462l114.637,136.331
		C320.712,415.672,265.328,256.373,196.394,221.879z"/>
	<path fill="#2C003E" stroke="#2C003E" stroke-miterlimit="10" d="M320.712,415.672C219.01,289.479,196.394,221.879,196.394,221.879
		l9.681,57.462L320.712,415.672z"/>
	<path opacity="0.5" fill="#49274F" stroke="#49274F" stroke-miterlimit="10" d="M271.293,311.926
		c2.616,41.647-33.793-9.867-33.793-9.867l86.909,120.202C324.409,422.261,270.064,292.374,271.293,311.926z"/>
</g>
<g>
	<path fill="#AF8AB6" stroke="#AF8AB6" stroke-miterlimit="10" d="M196.676,208.354l0.016,58.272L106.333,420.13
		C106.333,420.13,134.443,253.835,196.676,208.354z"/>
	<path fill="#2C003E" stroke="#2C003E" stroke-miterlimit="10" d="M106.333,420.13c79.289-141.355,90.344-211.776,90.344-211.776
		l0.016,58.272L106.333,420.13z"/>
	<path opacity="0.5" fill="#49274F" stroke="#49274F" stroke-miterlimit="10" d="M139.315,307.066
		c4.349,41.503,31.68-15.354,31.68-15.354l-65.699,132.989C105.296,424.702,137.272,287.581,139.315,307.066z"/>
</g>
</svg>
